G04 #@! TF.GenerationSoftware,KiCad,Pcbnew,(5.1.4)-1*
G04 #@! TF.CreationDate,2019-11-09T17:45:09+10:00*
G04 #@! TF.ProjectId,SegaControllerForApple2,53656761-436f-46e7-9472-6f6c6c657246,rev?*
G04 #@! TF.SameCoordinates,Original*
G04 #@! TF.FileFunction,Legend,Top*
G04 #@! TF.FilePolarity,Positive*
%FSLAX46Y46*%
G04 Gerber Fmt 4.6, Leading zero omitted, Abs format (unit mm)*
G04 Created by KiCad (PCBNEW (5.1.4)-1) date 2019-11-09 17:45:09*
%MOMM*%
%LPD*%
G04 APERTURE LIST*
%ADD10C,0.150000*%
%ADD11C,0.120000*%
%ADD12C,0.220000*%
%ADD13C,0.108000*%
G04 APERTURE END LIST*
D10*
X148082142Y-86072023D02*
X148082142Y-85222023D01*
X148405952Y-85222023D01*
X148486904Y-85262500D01*
X148527380Y-85302976D01*
X148567857Y-85383928D01*
X148567857Y-85505357D01*
X148527380Y-85586309D01*
X148486904Y-85626785D01*
X148405952Y-85667261D01*
X148082142Y-85667261D01*
X148932142Y-86072023D02*
X148932142Y-85505357D01*
X148932142Y-85222023D02*
X148891666Y-85262500D01*
X148932142Y-85302976D01*
X148972619Y-85262500D01*
X148932142Y-85222023D01*
X148932142Y-85302976D01*
X149660714Y-86031547D02*
X149579761Y-86072023D01*
X149417857Y-86072023D01*
X149336904Y-86031547D01*
X149296428Y-85950595D01*
X149296428Y-85626785D01*
X149336904Y-85545833D01*
X149417857Y-85505357D01*
X149579761Y-85505357D01*
X149660714Y-85545833D01*
X149701190Y-85626785D01*
X149701190Y-85707738D01*
X149296428Y-85788690D01*
X149984523Y-85505357D02*
X150429761Y-85505357D01*
X149984523Y-86072023D01*
X150429761Y-86072023D01*
X150875000Y-86072023D02*
X150794047Y-86031547D01*
X150753571Y-85991071D01*
X150713095Y-85910119D01*
X150713095Y-85667261D01*
X150753571Y-85586309D01*
X150794047Y-85545833D01*
X150875000Y-85505357D01*
X150996428Y-85505357D01*
X151077380Y-85545833D01*
X151117857Y-85586309D01*
X151158333Y-85667261D01*
X151158333Y-85910119D01*
X151117857Y-85991071D01*
X151077380Y-86031547D01*
X150996428Y-86072023D01*
X150875000Y-86072023D01*
X147960714Y-87051785D02*
X148082142Y-87092261D01*
X148122619Y-87132738D01*
X148163095Y-87213690D01*
X148163095Y-87335119D01*
X148122619Y-87416071D01*
X148082142Y-87456547D01*
X148001190Y-87497023D01*
X147677380Y-87497023D01*
X147677380Y-86647023D01*
X147960714Y-86647023D01*
X148041666Y-86687500D01*
X148082142Y-86727976D01*
X148122619Y-86808928D01*
X148122619Y-86889880D01*
X148082142Y-86970833D01*
X148041666Y-87011309D01*
X147960714Y-87051785D01*
X147677380Y-87051785D01*
X148891666Y-86930357D02*
X148891666Y-87497023D01*
X148527380Y-86930357D02*
X148527380Y-87375595D01*
X148567857Y-87456547D01*
X148648809Y-87497023D01*
X148770238Y-87497023D01*
X148851190Y-87456547D01*
X148891666Y-87416071D01*
X149215476Y-86930357D02*
X149660714Y-86930357D01*
X149215476Y-87497023D01*
X149660714Y-87497023D01*
X149903571Y-86930357D02*
X150348809Y-86930357D01*
X149903571Y-87497023D01*
X150348809Y-87497023D01*
X150996428Y-87456547D02*
X150915476Y-87497023D01*
X150753571Y-87497023D01*
X150672619Y-87456547D01*
X150632142Y-87375595D01*
X150632142Y-87051785D01*
X150672619Y-86970833D01*
X150753571Y-86930357D01*
X150915476Y-86930357D01*
X150996428Y-86970833D01*
X151036904Y-87051785D01*
X151036904Y-87132738D01*
X150632142Y-87213690D01*
X151401190Y-87497023D02*
X151401190Y-86930357D01*
X151401190Y-87092261D02*
X151441666Y-87011309D01*
X151482142Y-86970833D01*
X151563095Y-86930357D01*
X151644047Y-86930357D01*
X107291666Y-80034523D02*
X107291666Y-80641666D01*
X107251190Y-80763095D01*
X107170238Y-80844047D01*
X107048809Y-80884523D01*
X106967857Y-80884523D01*
X108060714Y-80317857D02*
X108060714Y-80884523D01*
X107858333Y-79994047D02*
X107655952Y-80601190D01*
X108182142Y-80601190D01*
X109396428Y-81208333D02*
X109355952Y-81167857D01*
X109275000Y-81046428D01*
X109234523Y-80965476D01*
X109194047Y-80844047D01*
X109153571Y-80641666D01*
X109153571Y-80479761D01*
X109194047Y-80277380D01*
X109234523Y-80155952D01*
X109275000Y-80075000D01*
X109355952Y-79953571D01*
X109396428Y-79913095D01*
X109679761Y-80641666D02*
X110084523Y-80641666D01*
X109598809Y-80884523D02*
X109882142Y-80034523D01*
X110165476Y-80884523D01*
X111055952Y-79994047D02*
X110327380Y-81086904D01*
X111339285Y-80884523D02*
X111339285Y-80034523D01*
X111541666Y-80034523D01*
X111663095Y-80075000D01*
X111744047Y-80155952D01*
X111784523Y-80236904D01*
X111825000Y-80398809D01*
X111825000Y-80520238D01*
X111784523Y-80682142D01*
X111744047Y-80763095D01*
X111663095Y-80844047D01*
X111541666Y-80884523D01*
X111339285Y-80884523D01*
X112108333Y-81208333D02*
X112148809Y-81167857D01*
X112229761Y-81046428D01*
X112270238Y-80965476D01*
X112310714Y-80844047D01*
X112351190Y-80641666D01*
X112351190Y-80479761D01*
X112310714Y-80277380D01*
X112270238Y-80155952D01*
X112229761Y-80075000D01*
X112148809Y-79953571D01*
X112108333Y-79913095D01*
X108827380Y-71276190D02*
X107827380Y-71276190D01*
X108732142Y-70228571D02*
X108779761Y-70276190D01*
X108827380Y-70419047D01*
X108827380Y-70514285D01*
X108779761Y-70657142D01*
X108684523Y-70752380D01*
X108589285Y-70800000D01*
X108398809Y-70847619D01*
X108255952Y-70847619D01*
X108065476Y-70800000D01*
X107970238Y-70752380D01*
X107875000Y-70657142D01*
X107827380Y-70514285D01*
X107827380Y-70419047D01*
X107875000Y-70276190D01*
X107922619Y-70228571D01*
X108779761Y-69847619D02*
X108827380Y-69704761D01*
X108827380Y-69466666D01*
X108779761Y-69371428D01*
X108732142Y-69323809D01*
X108636904Y-69276190D01*
X108541666Y-69276190D01*
X108446428Y-69323809D01*
X108398809Y-69371428D01*
X108351190Y-69466666D01*
X108303571Y-69657142D01*
X108255952Y-69752380D01*
X108208333Y-69800000D01*
X108113095Y-69847619D01*
X108017857Y-69847619D01*
X107922619Y-69800000D01*
X107875000Y-69752380D01*
X107827380Y-69657142D01*
X107827380Y-69419047D01*
X107875000Y-69276190D01*
X108827380Y-68847619D02*
X107827380Y-68847619D01*
X107827380Y-68466666D01*
X107875000Y-68371428D01*
X107922619Y-68323809D01*
X108017857Y-68276190D01*
X108160714Y-68276190D01*
X108255952Y-68323809D01*
X108303571Y-68371428D01*
X108351190Y-68466666D01*
X108351190Y-68847619D01*
X110477380Y-72157142D02*
X109477380Y-72157142D01*
X109953571Y-72157142D02*
X109953571Y-71585714D01*
X110477380Y-71585714D02*
X109477380Y-71585714D01*
X110429761Y-70728571D02*
X110477380Y-70823809D01*
X110477380Y-71014285D01*
X110429761Y-71109523D01*
X110334523Y-71157142D01*
X109953571Y-71157142D01*
X109858333Y-71109523D01*
X109810714Y-71014285D01*
X109810714Y-70823809D01*
X109858333Y-70728571D01*
X109953571Y-70680952D01*
X110048809Y-70680952D01*
X110144047Y-71157142D01*
X110477380Y-69823809D02*
X109953571Y-69823809D01*
X109858333Y-69871428D01*
X109810714Y-69966666D01*
X109810714Y-70157142D01*
X109858333Y-70252380D01*
X110429761Y-69823809D02*
X110477380Y-69919047D01*
X110477380Y-70157142D01*
X110429761Y-70252380D01*
X110334523Y-70300000D01*
X110239285Y-70300000D01*
X110144047Y-70252380D01*
X110096428Y-70157142D01*
X110096428Y-69919047D01*
X110048809Y-69823809D01*
X110477380Y-68919047D02*
X109477380Y-68919047D01*
X110429761Y-68919047D02*
X110477380Y-69014285D01*
X110477380Y-69204761D01*
X110429761Y-69300000D01*
X110382142Y-69347619D01*
X110286904Y-69395238D01*
X110001190Y-69395238D01*
X109905952Y-69347619D01*
X109858333Y-69300000D01*
X109810714Y-69204761D01*
X109810714Y-69014285D01*
X109858333Y-68919047D01*
X110429761Y-68061904D02*
X110477380Y-68157142D01*
X110477380Y-68347619D01*
X110429761Y-68442857D01*
X110334523Y-68490476D01*
X109953571Y-68490476D01*
X109858333Y-68442857D01*
X109810714Y-68347619D01*
X109810714Y-68157142D01*
X109858333Y-68061904D01*
X109953571Y-68014285D01*
X110048809Y-68014285D01*
X110144047Y-68490476D01*
X110477380Y-67585714D02*
X109810714Y-67585714D01*
X110001190Y-67585714D02*
X109905952Y-67538095D01*
X109858333Y-67490476D01*
X109810714Y-67395238D01*
X109810714Y-67300000D01*
X149152380Y-70861904D02*
X149961904Y-70861904D01*
X150057142Y-70814285D01*
X150104761Y-70766666D01*
X150152380Y-70671428D01*
X150152380Y-70480952D01*
X150104761Y-70385714D01*
X150057142Y-70338095D01*
X149961904Y-70290476D01*
X149152380Y-70290476D01*
X150104761Y-69861904D02*
X150152380Y-69719047D01*
X150152380Y-69480952D01*
X150104761Y-69385714D01*
X150057142Y-69338095D01*
X149961904Y-69290476D01*
X149866666Y-69290476D01*
X149771428Y-69338095D01*
X149723809Y-69385714D01*
X149676190Y-69480952D01*
X149628571Y-69671428D01*
X149580952Y-69766666D01*
X149533333Y-69814285D01*
X149438095Y-69861904D01*
X149342857Y-69861904D01*
X149247619Y-69814285D01*
X149200000Y-69766666D01*
X149152380Y-69671428D01*
X149152380Y-69433333D01*
X149200000Y-69290476D01*
X149628571Y-68528571D02*
X149676190Y-68385714D01*
X149723809Y-68338095D01*
X149819047Y-68290476D01*
X149961904Y-68290476D01*
X150057142Y-68338095D01*
X150104761Y-68385714D01*
X150152380Y-68480952D01*
X150152380Y-68861904D01*
X149152380Y-68861904D01*
X149152380Y-68528571D01*
X149200000Y-68433333D01*
X149247619Y-68385714D01*
X149342857Y-68338095D01*
X149438095Y-68338095D01*
X149533333Y-68385714D01*
X149580952Y-68433333D01*
X149628571Y-68528571D01*
X149628571Y-68861904D01*
D11*
X153100000Y-73400000D02*
X153100000Y-65800000D01*
X143000000Y-73400000D02*
X153100000Y-73400000D01*
X143000000Y-65800000D02*
X143000000Y-73400000D01*
X153100000Y-65800000D02*
X143000000Y-65800000D01*
D12*
X113814285Y-80185714D02*
X113985714Y-80242857D01*
X114271428Y-80242857D01*
X114385714Y-80185714D01*
X114442857Y-80128571D01*
X114500000Y-80014285D01*
X114500000Y-79900000D01*
X114442857Y-79785714D01*
X114385714Y-79728571D01*
X114271428Y-79671428D01*
X114042857Y-79614285D01*
X113928571Y-79557142D01*
X113871428Y-79500000D01*
X113814285Y-79385714D01*
X113814285Y-79271428D01*
X113871428Y-79157142D01*
X113928571Y-79100000D01*
X114042857Y-79042857D01*
X114328571Y-79042857D01*
X114500000Y-79100000D01*
X115471428Y-80185714D02*
X115357142Y-80242857D01*
X115128571Y-80242857D01*
X115014285Y-80185714D01*
X114957142Y-80071428D01*
X114957142Y-79614285D01*
X115014285Y-79500000D01*
X115128571Y-79442857D01*
X115357142Y-79442857D01*
X115471428Y-79500000D01*
X115528571Y-79614285D01*
X115528571Y-79728571D01*
X114957142Y-79842857D01*
X116557142Y-79442857D02*
X116557142Y-80414285D01*
X116500000Y-80528571D01*
X116442857Y-80585714D01*
X116328571Y-80642857D01*
X116157142Y-80642857D01*
X116042857Y-80585714D01*
X116557142Y-80185714D02*
X116442857Y-80242857D01*
X116214285Y-80242857D01*
X116100000Y-80185714D01*
X116042857Y-80128571D01*
X115985714Y-80014285D01*
X115985714Y-79671428D01*
X116042857Y-79557142D01*
X116100000Y-79500000D01*
X116214285Y-79442857D01*
X116442857Y-79442857D01*
X116557142Y-79500000D01*
X117642857Y-80242857D02*
X117642857Y-79614285D01*
X117585714Y-79500000D01*
X117471428Y-79442857D01*
X117242857Y-79442857D01*
X117128571Y-79500000D01*
X117642857Y-80185714D02*
X117528571Y-80242857D01*
X117242857Y-80242857D01*
X117128571Y-80185714D01*
X117071428Y-80071428D01*
X117071428Y-79957142D01*
X117128571Y-79842857D01*
X117242857Y-79785714D01*
X117528571Y-79785714D01*
X117642857Y-79728571D01*
X119757142Y-79100000D02*
X119642857Y-79042857D01*
X119471428Y-79042857D01*
X119300000Y-79100000D01*
X119185714Y-79214285D01*
X119128571Y-79328571D01*
X119071428Y-79557142D01*
X119071428Y-79728571D01*
X119128571Y-79957142D01*
X119185714Y-80071428D01*
X119300000Y-80185714D01*
X119471428Y-80242857D01*
X119585714Y-80242857D01*
X119757142Y-80185714D01*
X119814285Y-80128571D01*
X119814285Y-79728571D01*
X119585714Y-79728571D01*
X120785714Y-80185714D02*
X120671428Y-80242857D01*
X120442857Y-80242857D01*
X120328571Y-80185714D01*
X120271428Y-80071428D01*
X120271428Y-79614285D01*
X120328571Y-79500000D01*
X120442857Y-79442857D01*
X120671428Y-79442857D01*
X120785714Y-79500000D01*
X120842857Y-79614285D01*
X120842857Y-79728571D01*
X120271428Y-79842857D01*
X121357142Y-79442857D02*
X121357142Y-80242857D01*
X121357142Y-79557142D02*
X121414285Y-79500000D01*
X121528571Y-79442857D01*
X121700000Y-79442857D01*
X121814285Y-79500000D01*
X121871428Y-79614285D01*
X121871428Y-80242857D01*
X122900000Y-80185714D02*
X122785714Y-80242857D01*
X122557142Y-80242857D01*
X122442857Y-80185714D01*
X122385714Y-80071428D01*
X122385714Y-79614285D01*
X122442857Y-79500000D01*
X122557142Y-79442857D01*
X122785714Y-79442857D01*
X122900000Y-79500000D01*
X122957142Y-79614285D01*
X122957142Y-79728571D01*
X122385714Y-79842857D01*
X123414285Y-80185714D02*
X123528571Y-80242857D01*
X123757142Y-80242857D01*
X123871428Y-80185714D01*
X123928571Y-80071428D01*
X123928571Y-80014285D01*
X123871428Y-79900000D01*
X123757142Y-79842857D01*
X123585714Y-79842857D01*
X123471428Y-79785714D01*
X123414285Y-79671428D01*
X123414285Y-79614285D01*
X123471428Y-79500000D01*
X123585714Y-79442857D01*
X123757142Y-79442857D01*
X123871428Y-79500000D01*
X124442857Y-80242857D02*
X124442857Y-79442857D01*
X124442857Y-79042857D02*
X124385714Y-79100000D01*
X124442857Y-79157142D01*
X124500000Y-79100000D01*
X124442857Y-79042857D01*
X124442857Y-79157142D01*
X124957142Y-80185714D02*
X125071428Y-80242857D01*
X125300000Y-80242857D01*
X125414285Y-80185714D01*
X125471428Y-80071428D01*
X125471428Y-80014285D01*
X125414285Y-79900000D01*
X125300000Y-79842857D01*
X125128571Y-79842857D01*
X125014285Y-79785714D01*
X124957142Y-79671428D01*
X124957142Y-79614285D01*
X125014285Y-79500000D01*
X125128571Y-79442857D01*
X125300000Y-79442857D01*
X125414285Y-79500000D01*
X126842857Y-78985714D02*
X125814285Y-80528571D01*
X127242857Y-80242857D02*
X127242857Y-79042857D01*
X127642857Y-79900000D01*
X128042857Y-79042857D01*
X128042857Y-80242857D01*
X129071428Y-80185714D02*
X128957142Y-80242857D01*
X128728571Y-80242857D01*
X128614285Y-80185714D01*
X128557142Y-80071428D01*
X128557142Y-79614285D01*
X128614285Y-79500000D01*
X128728571Y-79442857D01*
X128957142Y-79442857D01*
X129071428Y-79500000D01*
X129128571Y-79614285D01*
X129128571Y-79728571D01*
X128557142Y-79842857D01*
X130157142Y-79442857D02*
X130157142Y-80414285D01*
X130100000Y-80528571D01*
X130042857Y-80585714D01*
X129928571Y-80642857D01*
X129757142Y-80642857D01*
X129642857Y-80585714D01*
X130157142Y-80185714D02*
X130042857Y-80242857D01*
X129814285Y-80242857D01*
X129700000Y-80185714D01*
X129642857Y-80128571D01*
X129585714Y-80014285D01*
X129585714Y-79671428D01*
X129642857Y-79557142D01*
X129700000Y-79500000D01*
X129814285Y-79442857D01*
X130042857Y-79442857D01*
X130157142Y-79500000D01*
X131242857Y-80242857D02*
X131242857Y-79614285D01*
X131185714Y-79500000D01*
X131071428Y-79442857D01*
X130842857Y-79442857D01*
X130728571Y-79500000D01*
X131242857Y-80185714D02*
X131128571Y-80242857D01*
X130842857Y-80242857D01*
X130728571Y-80185714D01*
X130671428Y-80071428D01*
X130671428Y-79957142D01*
X130728571Y-79842857D01*
X130842857Y-79785714D01*
X131128571Y-79785714D01*
X131242857Y-79728571D01*
X131814285Y-80242857D02*
X131814285Y-79042857D01*
X132100000Y-79042857D01*
X132271428Y-79100000D01*
X132385714Y-79214285D01*
X132442857Y-79328571D01*
X132500000Y-79557142D01*
X132500000Y-79728571D01*
X132442857Y-79957142D01*
X132385714Y-80071428D01*
X132271428Y-80185714D01*
X132100000Y-80242857D01*
X131814285Y-80242857D01*
X133014285Y-80242857D02*
X133014285Y-79442857D01*
X133014285Y-79671428D02*
X133071428Y-79557142D01*
X133128571Y-79500000D01*
X133242857Y-79442857D01*
X133357142Y-79442857D01*
X133757142Y-80242857D02*
X133757142Y-79442857D01*
X133757142Y-79042857D02*
X133700000Y-79100000D01*
X133757142Y-79157142D01*
X133814285Y-79100000D01*
X133757142Y-79042857D01*
X133757142Y-79157142D01*
X134214285Y-79442857D02*
X134500000Y-80242857D01*
X134785714Y-79442857D01*
X135700000Y-80185714D02*
X135585714Y-80242857D01*
X135357142Y-80242857D01*
X135242857Y-80185714D01*
X135185714Y-80071428D01*
X135185714Y-79614285D01*
X135242857Y-79500000D01*
X135357142Y-79442857D01*
X135585714Y-79442857D01*
X135700000Y-79500000D01*
X135757142Y-79614285D01*
X135757142Y-79728571D01*
X135185714Y-79842857D01*
X137871428Y-80128571D02*
X137814285Y-80185714D01*
X137642857Y-80242857D01*
X137528571Y-80242857D01*
X137357142Y-80185714D01*
X137242857Y-80071428D01*
X137185714Y-79957142D01*
X137128571Y-79728571D01*
X137128571Y-79557142D01*
X137185714Y-79328571D01*
X137242857Y-79214285D01*
X137357142Y-79100000D01*
X137528571Y-79042857D01*
X137642857Y-79042857D01*
X137814285Y-79100000D01*
X137871428Y-79157142D01*
X138557142Y-80242857D02*
X138442857Y-80185714D01*
X138385714Y-80128571D01*
X138328571Y-80014285D01*
X138328571Y-79671428D01*
X138385714Y-79557142D01*
X138442857Y-79500000D01*
X138557142Y-79442857D01*
X138728571Y-79442857D01*
X138842857Y-79500000D01*
X138900000Y-79557142D01*
X138957142Y-79671428D01*
X138957142Y-80014285D01*
X138900000Y-80128571D01*
X138842857Y-80185714D01*
X138728571Y-80242857D01*
X138557142Y-80242857D01*
X139471428Y-79442857D02*
X139471428Y-80242857D01*
X139471428Y-79557142D02*
X139528571Y-79500000D01*
X139642857Y-79442857D01*
X139814285Y-79442857D01*
X139928571Y-79500000D01*
X139985714Y-79614285D01*
X139985714Y-80242857D01*
X140385714Y-79442857D02*
X140842857Y-79442857D01*
X140557142Y-79042857D02*
X140557142Y-80071428D01*
X140614285Y-80185714D01*
X140728571Y-80242857D01*
X140842857Y-80242857D01*
X141242857Y-80242857D02*
X141242857Y-79442857D01*
X141242857Y-79671428D02*
X141300000Y-79557142D01*
X141357142Y-79500000D01*
X141471428Y-79442857D01*
X141585714Y-79442857D01*
X142157142Y-80242857D02*
X142042857Y-80185714D01*
X141985714Y-80128571D01*
X141928571Y-80014285D01*
X141928571Y-79671428D01*
X141985714Y-79557142D01*
X142042857Y-79500000D01*
X142157142Y-79442857D01*
X142328571Y-79442857D01*
X142442857Y-79500000D01*
X142500000Y-79557142D01*
X142557142Y-79671428D01*
X142557142Y-80014285D01*
X142500000Y-80128571D01*
X142442857Y-80185714D01*
X142328571Y-80242857D01*
X142157142Y-80242857D01*
X143242857Y-80242857D02*
X143128571Y-80185714D01*
X143071428Y-80071428D01*
X143071428Y-79042857D01*
X143871428Y-80242857D02*
X143757142Y-80185714D01*
X143700000Y-80071428D01*
X143700000Y-79042857D01*
X144785714Y-80185714D02*
X144671428Y-80242857D01*
X144442857Y-80242857D01*
X144328571Y-80185714D01*
X144271428Y-80071428D01*
X144271428Y-79614285D01*
X144328571Y-79500000D01*
X144442857Y-79442857D01*
X144671428Y-79442857D01*
X144785714Y-79500000D01*
X144842857Y-79614285D01*
X144842857Y-79728571D01*
X144271428Y-79842857D01*
X145357142Y-80242857D02*
X145357142Y-79442857D01*
X145357142Y-79671428D02*
X145414285Y-79557142D01*
X145471428Y-79500000D01*
X145585714Y-79442857D01*
X145700000Y-79442857D01*
D11*
X129540000Y-93345000D02*
X139700000Y-93345000D01*
D10*
X130547619Y-60223809D02*
X130661904Y-60261904D01*
X130852380Y-60261904D01*
X130928571Y-60223809D01*
X130966666Y-60185714D01*
X131004761Y-60109523D01*
X131004761Y-60033333D01*
X130966666Y-59957142D01*
X130928571Y-59919047D01*
X130852380Y-59880952D01*
X130700000Y-59842857D01*
X130623809Y-59804761D01*
X130585714Y-59766666D01*
X130547619Y-59690476D01*
X130547619Y-59614285D01*
X130585714Y-59538095D01*
X130623809Y-59500000D01*
X130700000Y-59461904D01*
X130890476Y-59461904D01*
X131004761Y-59500000D01*
X131804761Y-60185714D02*
X131766666Y-60223809D01*
X131652380Y-60261904D01*
X131576190Y-60261904D01*
X131461904Y-60223809D01*
X131385714Y-60147619D01*
X131347619Y-60071428D01*
X131309523Y-59919047D01*
X131309523Y-59804761D01*
X131347619Y-59652380D01*
X131385714Y-59576190D01*
X131461904Y-59500000D01*
X131576190Y-59461904D01*
X131652380Y-59461904D01*
X131766666Y-59500000D01*
X131804761Y-59538095D01*
X132528571Y-60261904D02*
X132147619Y-60261904D01*
X132147619Y-59461904D01*
X133128571Y-60223809D02*
X133242857Y-60261904D01*
X133433333Y-60261904D01*
X133509523Y-60223809D01*
X133547619Y-60185714D01*
X133585714Y-60109523D01*
X133585714Y-60033333D01*
X133547619Y-59957142D01*
X133509523Y-59919047D01*
X133433333Y-59880952D01*
X133280952Y-59842857D01*
X133204761Y-59804761D01*
X133166666Y-59766666D01*
X133128571Y-59690476D01*
X133128571Y-59614285D01*
X133166666Y-59538095D01*
X133204761Y-59500000D01*
X133280952Y-59461904D01*
X133471428Y-59461904D01*
X133585714Y-59500000D01*
X133928571Y-60261904D02*
X133928571Y-59461904D01*
X134119047Y-59461904D01*
X134233333Y-59500000D01*
X134309523Y-59576190D01*
X134347619Y-59652380D01*
X134385714Y-59804761D01*
X134385714Y-59919047D01*
X134347619Y-60071428D01*
X134309523Y-60147619D01*
X134233333Y-60223809D01*
X134119047Y-60261904D01*
X133928571Y-60261904D01*
X134690476Y-60033333D02*
X135071428Y-60033333D01*
X134614285Y-60261904D02*
X134880952Y-59461904D01*
X135147619Y-60261904D01*
X128847619Y-59461904D02*
X128466666Y-59461904D01*
X128428571Y-59842857D01*
X128466666Y-59804761D01*
X128542857Y-59766666D01*
X128733333Y-59766666D01*
X128809523Y-59804761D01*
X128847619Y-59842857D01*
X128885714Y-59919047D01*
X128885714Y-60109523D01*
X128847619Y-60185714D01*
X128809523Y-60223809D01*
X128733333Y-60261904D01*
X128542857Y-60261904D01*
X128466666Y-60223809D01*
X128428571Y-60185714D01*
X129114285Y-59461904D02*
X129380952Y-60261904D01*
X129647619Y-59461904D01*
X125990476Y-59500000D02*
X125914285Y-59461904D01*
X125800000Y-59461904D01*
X125685714Y-59500000D01*
X125609523Y-59576190D01*
X125571428Y-59652380D01*
X125533333Y-59804761D01*
X125533333Y-59919047D01*
X125571428Y-60071428D01*
X125609523Y-60147619D01*
X125685714Y-60223809D01*
X125800000Y-60261904D01*
X125876190Y-60261904D01*
X125990476Y-60223809D01*
X126028571Y-60185714D01*
X126028571Y-59919047D01*
X125876190Y-59919047D01*
X126371428Y-60261904D02*
X126371428Y-59461904D01*
X126828571Y-60261904D01*
X126828571Y-59461904D01*
X127209523Y-60261904D02*
X127209523Y-59461904D01*
X127400000Y-59461904D01*
X127514285Y-59500000D01*
X127590476Y-59576190D01*
X127628571Y-59652380D01*
X127666666Y-59804761D01*
X127666666Y-59919047D01*
X127628571Y-60071428D01*
X127590476Y-60147619D01*
X127514285Y-60223809D01*
X127400000Y-60261904D01*
X127209523Y-60261904D01*
X123542857Y-69252380D02*
X123542857Y-70061904D01*
X123590476Y-70157142D01*
X123638095Y-70204761D01*
X123733333Y-70252380D01*
X123923809Y-70252380D01*
X124019047Y-70204761D01*
X124066666Y-70157142D01*
X124114285Y-70061904D01*
X124114285Y-69252380D01*
X125114285Y-70252380D02*
X124542857Y-70252380D01*
X124828571Y-70252380D02*
X124828571Y-69252380D01*
X124733333Y-69395238D01*
X124638095Y-69490476D01*
X124542857Y-69538095D01*
X126590476Y-70633333D02*
X126542857Y-70585714D01*
X126447619Y-70442857D01*
X126400000Y-70347619D01*
X126352380Y-70204761D01*
X126304761Y-69966666D01*
X126304761Y-69776190D01*
X126352380Y-69538095D01*
X126400000Y-69395238D01*
X126447619Y-69300000D01*
X126542857Y-69157142D01*
X126590476Y-69109523D01*
X126923809Y-69966666D02*
X127400000Y-69966666D01*
X126828571Y-70252380D02*
X127161904Y-69252380D01*
X127495238Y-70252380D01*
X127828571Y-70252380D02*
X127828571Y-69585714D01*
X127828571Y-69776190D02*
X127876190Y-69680952D01*
X127923809Y-69633333D01*
X128019047Y-69585714D01*
X128114285Y-69585714D01*
X128876190Y-70252380D02*
X128876190Y-69252380D01*
X128876190Y-70204761D02*
X128780952Y-70252380D01*
X128590476Y-70252380D01*
X128495238Y-70204761D01*
X128447619Y-70157142D01*
X128400000Y-70061904D01*
X128400000Y-69776190D01*
X128447619Y-69680952D01*
X128495238Y-69633333D01*
X128590476Y-69585714D01*
X128780952Y-69585714D01*
X128876190Y-69633333D01*
X129780952Y-69585714D02*
X129780952Y-70252380D01*
X129352380Y-69585714D02*
X129352380Y-70109523D01*
X129400000Y-70204761D01*
X129495238Y-70252380D01*
X129638095Y-70252380D01*
X129733333Y-70204761D01*
X129780952Y-70157142D01*
X130257142Y-70252380D02*
X130257142Y-69585714D01*
X130257142Y-69252380D02*
X130209523Y-69300000D01*
X130257142Y-69347619D01*
X130304761Y-69300000D01*
X130257142Y-69252380D01*
X130257142Y-69347619D01*
X130733333Y-69585714D02*
X130733333Y-70252380D01*
X130733333Y-69680952D02*
X130780952Y-69633333D01*
X130876190Y-69585714D01*
X131019047Y-69585714D01*
X131114285Y-69633333D01*
X131161904Y-69728571D01*
X131161904Y-70252380D01*
X131780952Y-70252380D02*
X131685714Y-70204761D01*
X131638095Y-70157142D01*
X131590476Y-70061904D01*
X131590476Y-69776190D01*
X131638095Y-69680952D01*
X131685714Y-69633333D01*
X131780952Y-69585714D01*
X131923809Y-69585714D01*
X132019047Y-69633333D01*
X132066666Y-69680952D01*
X132114285Y-69776190D01*
X132114285Y-70061904D01*
X132066666Y-70157142D01*
X132019047Y-70204761D01*
X131923809Y-70252380D01*
X131780952Y-70252380D01*
X133304761Y-70252380D02*
X133304761Y-69252380D01*
X133876190Y-70252380D01*
X133876190Y-69252380D01*
X134780952Y-70252380D02*
X134780952Y-69728571D01*
X134733333Y-69633333D01*
X134638095Y-69585714D01*
X134447619Y-69585714D01*
X134352380Y-69633333D01*
X134780952Y-70204761D02*
X134685714Y-70252380D01*
X134447619Y-70252380D01*
X134352380Y-70204761D01*
X134304761Y-70109523D01*
X134304761Y-70014285D01*
X134352380Y-69919047D01*
X134447619Y-69871428D01*
X134685714Y-69871428D01*
X134780952Y-69823809D01*
X135257142Y-69585714D02*
X135257142Y-70252380D01*
X135257142Y-69680952D02*
X135304761Y-69633333D01*
X135400000Y-69585714D01*
X135542857Y-69585714D01*
X135638095Y-69633333D01*
X135685714Y-69728571D01*
X135685714Y-70252380D01*
X136304761Y-70252380D02*
X136209523Y-70204761D01*
X136161904Y-70157142D01*
X136114285Y-70061904D01*
X136114285Y-69776190D01*
X136161904Y-69680952D01*
X136209523Y-69633333D01*
X136304761Y-69585714D01*
X136447619Y-69585714D01*
X136542857Y-69633333D01*
X136590476Y-69680952D01*
X136638095Y-69776190D01*
X136638095Y-70061904D01*
X136590476Y-70157142D01*
X136542857Y-70204761D01*
X136447619Y-70252380D01*
X136304761Y-70252380D01*
X136971428Y-70633333D02*
X137019047Y-70585714D01*
X137114285Y-70442857D01*
X137161904Y-70347619D01*
X137209523Y-70204761D01*
X137257142Y-69966666D01*
X137257142Y-69776190D01*
X137209523Y-69538095D01*
X137161904Y-69395238D01*
X137114285Y-69300000D01*
X137019047Y-69157142D01*
X136971428Y-69109523D01*
X127827380Y-54734523D02*
X127827380Y-55341666D01*
X127786904Y-55463095D01*
X127705952Y-55544047D01*
X127584523Y-55584523D01*
X127503571Y-55584523D01*
X128151190Y-54734523D02*
X128677380Y-54734523D01*
X128394047Y-55058333D01*
X128515476Y-55058333D01*
X128596428Y-55098809D01*
X128636904Y-55139285D01*
X128677380Y-55220238D01*
X128677380Y-55422619D01*
X128636904Y-55503571D01*
X128596428Y-55544047D01*
X128515476Y-55584523D01*
X128272619Y-55584523D01*
X128191666Y-55544047D01*
X128151190Y-55503571D01*
X129932142Y-55908333D02*
X129891666Y-55867857D01*
X129810714Y-55746428D01*
X129770238Y-55665476D01*
X129729761Y-55544047D01*
X129689285Y-55341666D01*
X129689285Y-55179761D01*
X129729761Y-54977380D01*
X129770238Y-54855952D01*
X129810714Y-54775000D01*
X129891666Y-54653571D01*
X129932142Y-54613095D01*
X130417857Y-54734523D02*
X130579761Y-54734523D01*
X130660714Y-54775000D01*
X130741666Y-54855952D01*
X130782142Y-55017857D01*
X130782142Y-55301190D01*
X130741666Y-55463095D01*
X130660714Y-55544047D01*
X130579761Y-55584523D01*
X130417857Y-55584523D01*
X130336904Y-55544047D01*
X130255952Y-55463095D01*
X130215476Y-55301190D01*
X130215476Y-55017857D01*
X130255952Y-54855952D01*
X130336904Y-54775000D01*
X130417857Y-54734523D01*
X131551190Y-55584523D02*
X131146428Y-55584523D01*
X131146428Y-54734523D01*
X131834523Y-55139285D02*
X132117857Y-55139285D01*
X132239285Y-55584523D02*
X131834523Y-55584523D01*
X131834523Y-54734523D01*
X132239285Y-54734523D01*
X132603571Y-55584523D02*
X132603571Y-54734523D01*
X132805952Y-54734523D01*
X132927380Y-54775000D01*
X133008333Y-54855952D01*
X133048809Y-54936904D01*
X133089285Y-55098809D01*
X133089285Y-55220238D01*
X133048809Y-55382142D01*
X133008333Y-55463095D01*
X132927380Y-55544047D01*
X132805952Y-55584523D01*
X132603571Y-55584523D01*
X133372619Y-55908333D02*
X133413095Y-55867857D01*
X133494047Y-55746428D01*
X133534523Y-55665476D01*
X133575000Y-55544047D01*
X133615476Y-55341666D01*
X133615476Y-55179761D01*
X133575000Y-54977380D01*
X133534523Y-54855952D01*
X133494047Y-54775000D01*
X133413095Y-54653571D01*
X133372619Y-54613095D01*
D12*
X123835714Y-50100000D02*
X124359523Y-50100000D01*
X123730952Y-50442857D02*
X124097619Y-49242857D01*
X124464285Y-50442857D01*
X124830952Y-49642857D02*
X124830952Y-50842857D01*
X124830952Y-49700000D02*
X124935714Y-49642857D01*
X125145238Y-49642857D01*
X125250000Y-49700000D01*
X125302380Y-49757142D01*
X125354761Y-49871428D01*
X125354761Y-50214285D01*
X125302380Y-50328571D01*
X125250000Y-50385714D01*
X125145238Y-50442857D01*
X124935714Y-50442857D01*
X124830952Y-50385714D01*
X125826190Y-49642857D02*
X125826190Y-50842857D01*
X125826190Y-49700000D02*
X125930952Y-49642857D01*
X126140476Y-49642857D01*
X126245238Y-49700000D01*
X126297619Y-49757142D01*
X126350000Y-49871428D01*
X126350000Y-50214285D01*
X126297619Y-50328571D01*
X126245238Y-50385714D01*
X126140476Y-50442857D01*
X125930952Y-50442857D01*
X125826190Y-50385714D01*
X126978571Y-50442857D02*
X126873809Y-50385714D01*
X126821428Y-50271428D01*
X126821428Y-49242857D01*
X127816666Y-50385714D02*
X127711904Y-50442857D01*
X127502380Y-50442857D01*
X127397619Y-50385714D01*
X127345238Y-50271428D01*
X127345238Y-49814285D01*
X127397619Y-49700000D01*
X127502380Y-49642857D01*
X127711904Y-49642857D01*
X127816666Y-49700000D01*
X127869047Y-49814285D01*
X127869047Y-49928571D01*
X127345238Y-50042857D01*
X129126190Y-49357142D02*
X129178571Y-49300000D01*
X129283333Y-49242857D01*
X129545238Y-49242857D01*
X129650000Y-49300000D01*
X129702380Y-49357142D01*
X129754761Y-49471428D01*
X129754761Y-49585714D01*
X129702380Y-49757142D01*
X129073809Y-50442857D01*
X129754761Y-50442857D01*
X131378571Y-49242857D02*
X131378571Y-50100000D01*
X131326190Y-50271428D01*
X131221428Y-50385714D01*
X131064285Y-50442857D01*
X130959523Y-50442857D01*
X132059523Y-50442857D02*
X131954761Y-50385714D01*
X131902380Y-50328571D01*
X131850000Y-50214285D01*
X131850000Y-49871428D01*
X131902380Y-49757142D01*
X131954761Y-49700000D01*
X132059523Y-49642857D01*
X132216666Y-49642857D01*
X132321428Y-49700000D01*
X132373809Y-49757142D01*
X132426190Y-49871428D01*
X132426190Y-50214285D01*
X132373809Y-50328571D01*
X132321428Y-50385714D01*
X132216666Y-50442857D01*
X132059523Y-50442857D01*
X132792857Y-49642857D02*
X133054761Y-50442857D01*
X133316666Y-49642857D02*
X133054761Y-50442857D01*
X132950000Y-50728571D01*
X132897619Y-50785714D01*
X132792857Y-50842857D01*
X133735714Y-49642857D02*
X133735714Y-50842857D01*
X133735714Y-49700000D02*
X133840476Y-49642857D01*
X134050000Y-49642857D01*
X134154761Y-49700000D01*
X134207142Y-49757142D01*
X134259523Y-49871428D01*
X134259523Y-50214285D01*
X134207142Y-50328571D01*
X134154761Y-50385714D01*
X134050000Y-50442857D01*
X133840476Y-50442857D01*
X133735714Y-50385714D01*
X134888095Y-50442857D02*
X134783333Y-50385714D01*
X134730952Y-50328571D01*
X134678571Y-50214285D01*
X134678571Y-49871428D01*
X134730952Y-49757142D01*
X134783333Y-49700000D01*
X134888095Y-49642857D01*
X135045238Y-49642857D01*
X135150000Y-49700000D01*
X135202380Y-49757142D01*
X135254761Y-49871428D01*
X135254761Y-50214285D01*
X135202380Y-50328571D01*
X135150000Y-50385714D01*
X135045238Y-50442857D01*
X134888095Y-50442857D01*
X135726190Y-50442857D02*
X135726190Y-49642857D01*
X135726190Y-49871428D02*
X135778571Y-49757142D01*
X135830952Y-49700000D01*
X135935714Y-49642857D01*
X136040476Y-49642857D01*
X136250000Y-49642857D02*
X136669047Y-49642857D01*
X136407142Y-49242857D02*
X136407142Y-50271428D01*
X136459523Y-50385714D01*
X136564285Y-50442857D01*
X136669047Y-50442857D01*
D11*
X115360000Y-34870000D02*
X113710000Y-34870000D01*
X115360000Y-52770000D02*
X115360000Y-34870000D01*
X110060000Y-52770000D02*
X115360000Y-52770000D01*
X110060000Y-34870000D02*
X110060000Y-52770000D01*
X111710000Y-34870000D02*
X110060000Y-34870000D01*
X113710000Y-34870000D02*
G75*
G02X111710000Y-34870000I-1000000J0D01*
G01*
X151460000Y-34870000D02*
X149810000Y-34870000D01*
X151460000Y-52770000D02*
X151460000Y-34870000D01*
X146160000Y-52770000D02*
X151460000Y-52770000D01*
X146160000Y-34870000D02*
X146160000Y-52770000D01*
X147810000Y-34870000D02*
X146160000Y-34870000D01*
X149810000Y-34870000D02*
G75*
G02X147810000Y-34870000I-1000000J0D01*
G01*
X151580000Y-55300000D02*
X150630000Y-55300000D01*
X145840000Y-55300000D02*
X146790000Y-55300000D01*
X150630000Y-54380000D02*
X146790000Y-54380000D01*
X150630000Y-56220000D02*
X150630000Y-54380000D01*
X146790000Y-56220000D02*
X150630000Y-56220000D01*
X146790000Y-54380000D02*
X146790000Y-56220000D01*
X110020000Y-55500000D02*
X110970000Y-55500000D01*
X115760000Y-55500000D02*
X114810000Y-55500000D01*
X110970000Y-56420000D02*
X114810000Y-56420000D01*
X110970000Y-54580000D02*
X110970000Y-56420000D01*
X114810000Y-54580000D02*
X110970000Y-54580000D01*
X114810000Y-56420000D02*
X114810000Y-54580000D01*
X123208478Y-56038478D02*
G75*
G03X121370000Y-51600000I-1838478J1838478D01*
G01*
X119531522Y-56038478D02*
G75*
G02X121370000Y-51600000I1838478J1838478D01*
G01*
X119570000Y-56050000D02*
X123170000Y-56050000D01*
X125100000Y-81078675D02*
X124850000Y-80645662D01*
X125350000Y-80645662D02*
X125100000Y-81078675D01*
X124850000Y-80645662D02*
X125350000Y-80645662D01*
X146125000Y-81540000D02*
X146125000Y-92020000D01*
X115155000Y-81540000D02*
X146125000Y-81540000D01*
X115155000Y-92020000D02*
X115155000Y-81540000D01*
X132330000Y-43470000D02*
X132330000Y-34120000D01*
X127830000Y-43470000D02*
X127830000Y-34120000D01*
X140510000Y-43470000D02*
X119650000Y-43470000D01*
X140510000Y-43470000D02*
X140510000Y-34120000D01*
X119650000Y-43470000D02*
X119650000Y-34120000D01*
X119650000Y-34120000D02*
X140510000Y-34120000D01*
X123730000Y-47600000D02*
X123730000Y-48870000D01*
X123730000Y-48870000D02*
X125000000Y-48870000D01*
X145820000Y-58800000D02*
X146770000Y-58800000D01*
X151560000Y-58800000D02*
X150610000Y-58800000D01*
X146770000Y-59720000D02*
X150610000Y-59720000D01*
X146770000Y-57880000D02*
X146770000Y-59720000D01*
X150610000Y-57880000D02*
X146770000Y-57880000D01*
X150610000Y-59720000D02*
X150610000Y-57880000D01*
X110020000Y-58900000D02*
X110970000Y-58900000D01*
X115760000Y-58900000D02*
X114810000Y-58900000D01*
X110970000Y-59820000D02*
X114810000Y-59820000D01*
X110970000Y-57980000D02*
X110970000Y-59820000D01*
X114810000Y-57980000D02*
X110970000Y-57980000D01*
X114810000Y-59820000D02*
X114810000Y-57980000D01*
X107250000Y-60600000D02*
X107250000Y-78640000D01*
X150690000Y-60600000D02*
X107250000Y-60600000D01*
X150690000Y-78640000D02*
X150690000Y-60600000D01*
X148020000Y-75970000D02*
X148020000Y-78640000D01*
X112460000Y-75970000D02*
X148020000Y-75970000D01*
X112460000Y-75970000D02*
X112460000Y-78640000D01*
X148020000Y-63270000D02*
X148020000Y-60600000D01*
X109920000Y-63270000D02*
X148020000Y-63270000D01*
X109920000Y-63270000D02*
X109920000Y-60600000D01*
X107250000Y-78640000D02*
X109920000Y-78640000D01*
X112460000Y-78640000D02*
X150690000Y-78640000D01*
X109920000Y-75970000D02*
X109920000Y-78640000D01*
X112460000Y-75970000D02*
X109920000Y-75970000D01*
X141808478Y-56038478D02*
G75*
G03X139970000Y-51600000I-1838478J1838478D01*
G01*
X138131522Y-56038478D02*
G75*
G02X139970000Y-51600000I1838478J1838478D01*
G01*
X138170000Y-56050000D02*
X141770000Y-56050000D01*
X125370000Y-59230000D02*
X125370000Y-57900000D01*
X126700000Y-59230000D02*
X125370000Y-59230000D01*
X127970000Y-59230000D02*
X127970000Y-56570000D01*
X127970000Y-56570000D02*
X135650000Y-56570000D01*
X127970000Y-59230000D02*
X135650000Y-59230000D01*
X135650000Y-59230000D02*
X135650000Y-56570000D01*
D10*
X112152380Y-49561904D02*
X112961904Y-49561904D01*
X113057142Y-49514285D01*
X113104761Y-49466666D01*
X113152380Y-49371428D01*
X113152380Y-49180952D01*
X113104761Y-49085714D01*
X113057142Y-49038095D01*
X112961904Y-48990476D01*
X112152380Y-48990476D01*
X112247619Y-48561904D02*
X112200000Y-48514285D01*
X112152380Y-48419047D01*
X112152380Y-48180952D01*
X112200000Y-48085714D01*
X112247619Y-48038095D01*
X112342857Y-47990476D01*
X112438095Y-47990476D01*
X112580952Y-48038095D01*
X113152380Y-48609523D01*
X113152380Y-47990476D01*
X113533333Y-46514285D02*
X113485714Y-46561904D01*
X113342857Y-46657142D01*
X113247619Y-46704761D01*
X113104761Y-46752380D01*
X112866666Y-46800000D01*
X112676190Y-46800000D01*
X112438095Y-46752380D01*
X112295238Y-46704761D01*
X112200000Y-46657142D01*
X112057142Y-46561904D01*
X112009523Y-46514285D01*
X113152380Y-46133333D02*
X112152380Y-46133333D01*
X112866666Y-45800000D01*
X112152380Y-45466666D01*
X113152380Y-45466666D01*
X113057142Y-44419047D02*
X113104761Y-44466666D01*
X113152380Y-44609523D01*
X113152380Y-44704761D01*
X113104761Y-44847619D01*
X113009523Y-44942857D01*
X112914285Y-44990476D01*
X112723809Y-45038095D01*
X112580952Y-45038095D01*
X112390476Y-44990476D01*
X112295238Y-44942857D01*
X112200000Y-44847619D01*
X112152380Y-44704761D01*
X112152380Y-44609523D01*
X112200000Y-44466666D01*
X112247619Y-44419047D01*
X113152380Y-43990476D02*
X112152380Y-43990476D01*
X112152380Y-43609523D01*
X112200000Y-43514285D01*
X112247619Y-43466666D01*
X112342857Y-43419047D01*
X112485714Y-43419047D01*
X112580952Y-43466666D01*
X112628571Y-43514285D01*
X112676190Y-43609523D01*
X112676190Y-43990476D01*
X112485714Y-42561904D02*
X113152380Y-42561904D01*
X112104761Y-42800000D02*
X112819047Y-43038095D01*
X112819047Y-42419047D01*
X112247619Y-42085714D02*
X112200000Y-42038095D01*
X112152380Y-41942857D01*
X112152380Y-41704761D01*
X112200000Y-41609523D01*
X112247619Y-41561904D01*
X112342857Y-41514285D01*
X112438095Y-41514285D01*
X112580952Y-41561904D01*
X113152380Y-42133333D01*
X113152380Y-41514285D01*
X113152380Y-40561904D02*
X113152380Y-41133333D01*
X113152380Y-40847619D02*
X112152380Y-40847619D01*
X112295238Y-40942857D01*
X112390476Y-41038095D01*
X112438095Y-41133333D01*
X112152380Y-39942857D02*
X112152380Y-39847619D01*
X112200000Y-39752380D01*
X112247619Y-39704761D01*
X112342857Y-39657142D01*
X112533333Y-39609523D01*
X112771428Y-39609523D01*
X112961904Y-39657142D01*
X113057142Y-39704761D01*
X113104761Y-39752380D01*
X113152380Y-39847619D01*
X113152380Y-39942857D01*
X113104761Y-40038095D01*
X113057142Y-40085714D01*
X112961904Y-40133333D01*
X112771428Y-40180952D01*
X112533333Y-40180952D01*
X112342857Y-40133333D01*
X112247619Y-40085714D01*
X112200000Y-40038095D01*
X112152380Y-39942857D01*
X112152380Y-38990476D02*
X112152380Y-38895238D01*
X112200000Y-38800000D01*
X112247619Y-38752380D01*
X112342857Y-38704761D01*
X112533333Y-38657142D01*
X112771428Y-38657142D01*
X112961904Y-38704761D01*
X113057142Y-38752380D01*
X113104761Y-38800000D01*
X113152380Y-38895238D01*
X113152380Y-38990476D01*
X113104761Y-39085714D01*
X113057142Y-39133333D01*
X112961904Y-39180952D01*
X112771428Y-39228571D01*
X112533333Y-39228571D01*
X112342857Y-39180952D01*
X112247619Y-39133333D01*
X112200000Y-39085714D01*
X112152380Y-38990476D01*
X113533333Y-38323809D02*
X113485714Y-38276190D01*
X113342857Y-38180952D01*
X113247619Y-38133333D01*
X113104761Y-38085714D01*
X112866666Y-38038095D01*
X112676190Y-38038095D01*
X112438095Y-38085714D01*
X112295238Y-38133333D01*
X112200000Y-38180952D01*
X112057142Y-38276190D01*
X112009523Y-38323809D01*
X148262380Y-49581904D02*
X149071904Y-49581904D01*
X149167142Y-49534285D01*
X149214761Y-49486666D01*
X149262380Y-49391428D01*
X149262380Y-49200952D01*
X149214761Y-49105714D01*
X149167142Y-49058095D01*
X149071904Y-49010476D01*
X148262380Y-49010476D01*
X148262380Y-48629523D02*
X148262380Y-48010476D01*
X148643333Y-48343809D01*
X148643333Y-48200952D01*
X148690952Y-48105714D01*
X148738571Y-48058095D01*
X148833809Y-48010476D01*
X149071904Y-48010476D01*
X149167142Y-48058095D01*
X149214761Y-48105714D01*
X149262380Y-48200952D01*
X149262380Y-48486666D01*
X149214761Y-48581904D01*
X149167142Y-48629523D01*
X149643333Y-46534285D02*
X149595714Y-46581904D01*
X149452857Y-46677142D01*
X149357619Y-46724761D01*
X149214761Y-46772380D01*
X148976666Y-46820000D01*
X148786190Y-46820000D01*
X148548095Y-46772380D01*
X148405238Y-46724761D01*
X148310000Y-46677142D01*
X148167142Y-46581904D01*
X148119523Y-46534285D01*
X149262380Y-46153333D02*
X148262380Y-46153333D01*
X148976666Y-45820000D01*
X148262380Y-45486666D01*
X149262380Y-45486666D01*
X149167142Y-44439047D02*
X149214761Y-44486666D01*
X149262380Y-44629523D01*
X149262380Y-44724761D01*
X149214761Y-44867619D01*
X149119523Y-44962857D01*
X149024285Y-45010476D01*
X148833809Y-45058095D01*
X148690952Y-45058095D01*
X148500476Y-45010476D01*
X148405238Y-44962857D01*
X148310000Y-44867619D01*
X148262380Y-44724761D01*
X148262380Y-44629523D01*
X148310000Y-44486666D01*
X148357619Y-44439047D01*
X149262380Y-44010476D02*
X148262380Y-44010476D01*
X148262380Y-43629523D01*
X148310000Y-43534285D01*
X148357619Y-43486666D01*
X148452857Y-43439047D01*
X148595714Y-43439047D01*
X148690952Y-43486666D01*
X148738571Y-43534285D01*
X148786190Y-43629523D01*
X148786190Y-44010476D01*
X148595714Y-42581904D02*
X149262380Y-42581904D01*
X148214761Y-42820000D02*
X148929047Y-43058095D01*
X148929047Y-42439047D01*
X148357619Y-42105714D02*
X148310000Y-42058095D01*
X148262380Y-41962857D01*
X148262380Y-41724761D01*
X148310000Y-41629523D01*
X148357619Y-41581904D01*
X148452857Y-41534285D01*
X148548095Y-41534285D01*
X148690952Y-41581904D01*
X149262380Y-42153333D01*
X149262380Y-41534285D01*
X149262380Y-40581904D02*
X149262380Y-41153333D01*
X149262380Y-40867619D02*
X148262380Y-40867619D01*
X148405238Y-40962857D01*
X148500476Y-41058095D01*
X148548095Y-41153333D01*
X148262380Y-39962857D02*
X148262380Y-39867619D01*
X148310000Y-39772380D01*
X148357619Y-39724761D01*
X148452857Y-39677142D01*
X148643333Y-39629523D01*
X148881428Y-39629523D01*
X149071904Y-39677142D01*
X149167142Y-39724761D01*
X149214761Y-39772380D01*
X149262380Y-39867619D01*
X149262380Y-39962857D01*
X149214761Y-40058095D01*
X149167142Y-40105714D01*
X149071904Y-40153333D01*
X148881428Y-40200952D01*
X148643333Y-40200952D01*
X148452857Y-40153333D01*
X148357619Y-40105714D01*
X148310000Y-40058095D01*
X148262380Y-39962857D01*
X148262380Y-39010476D02*
X148262380Y-38915238D01*
X148310000Y-38820000D01*
X148357619Y-38772380D01*
X148452857Y-38724761D01*
X148643333Y-38677142D01*
X148881428Y-38677142D01*
X149071904Y-38724761D01*
X149167142Y-38772380D01*
X149214761Y-38820000D01*
X149262380Y-38915238D01*
X149262380Y-39010476D01*
X149214761Y-39105714D01*
X149167142Y-39153333D01*
X149071904Y-39200952D01*
X148881428Y-39248571D01*
X148643333Y-39248571D01*
X148452857Y-39200952D01*
X148357619Y-39153333D01*
X148310000Y-39105714D01*
X148262380Y-39010476D01*
X149643333Y-38343809D02*
X149595714Y-38296190D01*
X149452857Y-38200952D01*
X149357619Y-38153333D01*
X149214761Y-38105714D01*
X148976666Y-38058095D01*
X148786190Y-38058095D01*
X148548095Y-38105714D01*
X148405238Y-38153333D01*
X148310000Y-38200952D01*
X148167142Y-38296190D01*
X148119523Y-38343809D01*
X148433333Y-54052380D02*
X148100000Y-53576190D01*
X147861904Y-54052380D02*
X147861904Y-53052380D01*
X148242857Y-53052380D01*
X148338095Y-53100000D01*
X148385714Y-53147619D01*
X148433333Y-53242857D01*
X148433333Y-53385714D01*
X148385714Y-53480952D01*
X148338095Y-53528571D01*
X148242857Y-53576190D01*
X147861904Y-53576190D01*
X148766666Y-53052380D02*
X149385714Y-53052380D01*
X149052380Y-53433333D01*
X149195238Y-53433333D01*
X149290476Y-53480952D01*
X149338095Y-53528571D01*
X149385714Y-53623809D01*
X149385714Y-53861904D01*
X149338095Y-53957142D01*
X149290476Y-54004761D01*
X149195238Y-54052380D01*
X148909523Y-54052380D01*
X148814285Y-54004761D01*
X148766666Y-53957142D01*
D13*
X148161428Y-54805714D02*
X148024285Y-54805714D01*
X147955714Y-54840000D01*
X147921428Y-54874285D01*
X147852857Y-54977142D01*
X147818571Y-55114285D01*
X147818571Y-55388571D01*
X147852857Y-55457142D01*
X147887142Y-55491428D01*
X147955714Y-55525714D01*
X148092857Y-55525714D01*
X148161428Y-55491428D01*
X148195714Y-55457142D01*
X148230000Y-55388571D01*
X148230000Y-55217142D01*
X148195714Y-55148571D01*
X148161428Y-55114285D01*
X148092857Y-55080000D01*
X147955714Y-55080000D01*
X147887142Y-55114285D01*
X147852857Y-55148571D01*
X147818571Y-55217142D01*
X148641428Y-55114285D02*
X148572857Y-55080000D01*
X148538571Y-55045714D01*
X148504285Y-54977142D01*
X148504285Y-54942857D01*
X148538571Y-54874285D01*
X148572857Y-54840000D01*
X148641428Y-54805714D01*
X148778571Y-54805714D01*
X148847142Y-54840000D01*
X148881428Y-54874285D01*
X148915714Y-54942857D01*
X148915714Y-54977142D01*
X148881428Y-55045714D01*
X148847142Y-55080000D01*
X148778571Y-55114285D01*
X148641428Y-55114285D01*
X148572857Y-55148571D01*
X148538571Y-55182857D01*
X148504285Y-55251428D01*
X148504285Y-55388571D01*
X148538571Y-55457142D01*
X148572857Y-55491428D01*
X148641428Y-55525714D01*
X148778571Y-55525714D01*
X148847142Y-55491428D01*
X148881428Y-55457142D01*
X148915714Y-55388571D01*
X148915714Y-55251428D01*
X148881428Y-55182857D01*
X148847142Y-55148571D01*
X148778571Y-55114285D01*
X149361428Y-54805714D02*
X149430000Y-54805714D01*
X149498571Y-54840000D01*
X149532857Y-54874285D01*
X149567142Y-54942857D01*
X149601428Y-55080000D01*
X149601428Y-55251428D01*
X149567142Y-55388571D01*
X149532857Y-55457142D01*
X149498571Y-55491428D01*
X149430000Y-55525714D01*
X149361428Y-55525714D01*
X149292857Y-55491428D01*
X149258571Y-55457142D01*
X149224285Y-55388571D01*
X149190000Y-55251428D01*
X149190000Y-55080000D01*
X149224285Y-54942857D01*
X149258571Y-54874285D01*
X149292857Y-54840000D01*
X149361428Y-54805714D01*
D10*
X112733333Y-54252380D02*
X112400000Y-53776190D01*
X112161904Y-54252380D02*
X112161904Y-53252380D01*
X112542857Y-53252380D01*
X112638095Y-53300000D01*
X112685714Y-53347619D01*
X112733333Y-53442857D01*
X112733333Y-53585714D01*
X112685714Y-53680952D01*
X112638095Y-53728571D01*
X112542857Y-53776190D01*
X112161904Y-53776190D01*
X113685714Y-54252380D02*
X113114285Y-54252380D01*
X113400000Y-54252380D02*
X113400000Y-53252380D01*
X113304761Y-53395238D01*
X113209523Y-53490476D01*
X113114285Y-53538095D01*
D13*
X112341428Y-55105714D02*
X112204285Y-55105714D01*
X112135714Y-55140000D01*
X112101428Y-55174285D01*
X112032857Y-55277142D01*
X111998571Y-55414285D01*
X111998571Y-55688571D01*
X112032857Y-55757142D01*
X112067142Y-55791428D01*
X112135714Y-55825714D01*
X112272857Y-55825714D01*
X112341428Y-55791428D01*
X112375714Y-55757142D01*
X112410000Y-55688571D01*
X112410000Y-55517142D01*
X112375714Y-55448571D01*
X112341428Y-55414285D01*
X112272857Y-55380000D01*
X112135714Y-55380000D01*
X112067142Y-55414285D01*
X112032857Y-55448571D01*
X111998571Y-55517142D01*
X112821428Y-55414285D02*
X112752857Y-55380000D01*
X112718571Y-55345714D01*
X112684285Y-55277142D01*
X112684285Y-55242857D01*
X112718571Y-55174285D01*
X112752857Y-55140000D01*
X112821428Y-55105714D01*
X112958571Y-55105714D01*
X113027142Y-55140000D01*
X113061428Y-55174285D01*
X113095714Y-55242857D01*
X113095714Y-55277142D01*
X113061428Y-55345714D01*
X113027142Y-55380000D01*
X112958571Y-55414285D01*
X112821428Y-55414285D01*
X112752857Y-55448571D01*
X112718571Y-55482857D01*
X112684285Y-55551428D01*
X112684285Y-55688571D01*
X112718571Y-55757142D01*
X112752857Y-55791428D01*
X112821428Y-55825714D01*
X112958571Y-55825714D01*
X113027142Y-55791428D01*
X113061428Y-55757142D01*
X113095714Y-55688571D01*
X113095714Y-55551428D01*
X113061428Y-55482857D01*
X113027142Y-55448571D01*
X112958571Y-55414285D01*
X113541428Y-55105714D02*
X113610000Y-55105714D01*
X113678571Y-55140000D01*
X113712857Y-55174285D01*
X113747142Y-55242857D01*
X113781428Y-55380000D01*
X113781428Y-55551428D01*
X113747142Y-55688571D01*
X113712857Y-55757142D01*
X113678571Y-55791428D01*
X113610000Y-55825714D01*
X113541428Y-55825714D01*
X113472857Y-55791428D01*
X113438571Y-55757142D01*
X113404285Y-55688571D01*
X113370000Y-55551428D01*
X113370000Y-55380000D01*
X113404285Y-55242857D01*
X113438571Y-55174285D01*
X113472857Y-55140000D01*
X113541428Y-55105714D01*
D10*
X121274761Y-51187619D02*
X121179523Y-51140000D01*
X121084285Y-51044761D01*
X120941428Y-50901904D01*
X120846190Y-50854285D01*
X120750952Y-50854285D01*
X120798571Y-51092380D02*
X120703333Y-51044761D01*
X120608095Y-50949523D01*
X120560476Y-50759047D01*
X120560476Y-50425714D01*
X120608095Y-50235238D01*
X120703333Y-50140000D01*
X120798571Y-50092380D01*
X120989047Y-50092380D01*
X121084285Y-50140000D01*
X121179523Y-50235238D01*
X121227142Y-50425714D01*
X121227142Y-50759047D01*
X121179523Y-50949523D01*
X121084285Y-51044761D01*
X120989047Y-51092380D01*
X120798571Y-51092380D01*
X122179523Y-51092380D02*
X121608095Y-51092380D01*
X121893809Y-51092380D02*
X121893809Y-50092380D01*
X121798571Y-50235238D01*
X121703333Y-50330476D01*
X121608095Y-50378095D01*
X119512857Y-56918571D02*
X119655714Y-56966190D01*
X119703333Y-57013809D01*
X119750952Y-57109047D01*
X119750952Y-57251904D01*
X119703333Y-57347142D01*
X119655714Y-57394761D01*
X119560476Y-57442380D01*
X119179523Y-57442380D01*
X119179523Y-56442380D01*
X119512857Y-56442380D01*
X119608095Y-56490000D01*
X119655714Y-56537619D01*
X119703333Y-56632857D01*
X119703333Y-56728095D01*
X119655714Y-56823333D01*
X119608095Y-56870952D01*
X119512857Y-56918571D01*
X119179523Y-56918571D01*
X120750952Y-57347142D02*
X120703333Y-57394761D01*
X120560476Y-57442380D01*
X120465238Y-57442380D01*
X120322380Y-57394761D01*
X120227142Y-57299523D01*
X120179523Y-57204285D01*
X120131904Y-57013809D01*
X120131904Y-56870952D01*
X120179523Y-56680476D01*
X120227142Y-56585238D01*
X120322380Y-56490000D01*
X120465238Y-56442380D01*
X120560476Y-56442380D01*
X120703333Y-56490000D01*
X120750952Y-56537619D01*
X121655714Y-56442380D02*
X121179523Y-56442380D01*
X121131904Y-56918571D01*
X121179523Y-56870952D01*
X121274761Y-56823333D01*
X121512857Y-56823333D01*
X121608095Y-56870952D01*
X121655714Y-56918571D01*
X121703333Y-57013809D01*
X121703333Y-57251904D01*
X121655714Y-57347142D01*
X121608095Y-57394761D01*
X121512857Y-57442380D01*
X121274761Y-57442380D01*
X121179523Y-57394761D01*
X121131904Y-57347142D01*
X122608095Y-56442380D02*
X122131904Y-56442380D01*
X122084285Y-56918571D01*
X122131904Y-56870952D01*
X122227142Y-56823333D01*
X122465238Y-56823333D01*
X122560476Y-56870952D01*
X122608095Y-56918571D01*
X122655714Y-57013809D01*
X122655714Y-57251904D01*
X122608095Y-57347142D01*
X122560476Y-57394761D01*
X122465238Y-57442380D01*
X122227142Y-57442380D01*
X122131904Y-57394761D01*
X122084285Y-57347142D01*
X122989047Y-56442380D02*
X123655714Y-56442380D01*
X123227142Y-57442380D01*
X125835571Y-89815380D02*
X125835571Y-90529666D01*
X125787952Y-90672523D01*
X125692714Y-90767761D01*
X125549857Y-90815380D01*
X125454619Y-90815380D01*
X126835571Y-90815380D02*
X126264142Y-90815380D01*
X126549857Y-90815380D02*
X126549857Y-89815380D01*
X126454619Y-89958238D01*
X126359380Y-90053476D01*
X126264142Y-90101095D01*
X127549857Y-91196333D02*
X127502238Y-91148714D01*
X127407000Y-91005857D01*
X127359380Y-90910619D01*
X127311761Y-90767761D01*
X127264142Y-90529666D01*
X127264142Y-90339190D01*
X127311761Y-90101095D01*
X127359380Y-89958238D01*
X127407000Y-89863000D01*
X127502238Y-89720142D01*
X127549857Y-89672523D01*
X127930809Y-90815380D02*
X127930809Y-89815380D01*
X128168904Y-89815380D01*
X128311761Y-89863000D01*
X128407000Y-89958238D01*
X128454619Y-90053476D01*
X128502238Y-90243952D01*
X128502238Y-90386809D01*
X128454619Y-90577285D01*
X128407000Y-90672523D01*
X128311761Y-90767761D01*
X128168904Y-90815380D01*
X127930809Y-90815380D01*
X129264142Y-90291571D02*
X129407000Y-90339190D01*
X129454619Y-90386809D01*
X129502238Y-90482047D01*
X129502238Y-90624904D01*
X129454619Y-90720142D01*
X129407000Y-90767761D01*
X129311761Y-90815380D01*
X128930809Y-90815380D01*
X128930809Y-89815380D01*
X129264142Y-89815380D01*
X129359380Y-89863000D01*
X129407000Y-89910619D01*
X129454619Y-90005857D01*
X129454619Y-90101095D01*
X129407000Y-90196333D01*
X129359380Y-90243952D01*
X129264142Y-90291571D01*
X128930809Y-90291571D01*
X129978428Y-90815380D02*
X130168904Y-90815380D01*
X130264142Y-90767761D01*
X130311761Y-90720142D01*
X130407000Y-90577285D01*
X130454619Y-90386809D01*
X130454619Y-90005857D01*
X130407000Y-89910619D01*
X130359380Y-89863000D01*
X130264142Y-89815380D01*
X130073666Y-89815380D01*
X129978428Y-89863000D01*
X129930809Y-89910619D01*
X129883190Y-90005857D01*
X129883190Y-90243952D01*
X129930809Y-90339190D01*
X129978428Y-90386809D01*
X130073666Y-90434428D01*
X130264142Y-90434428D01*
X130359380Y-90386809D01*
X130407000Y-90339190D01*
X130454619Y-90243952D01*
X131645095Y-90815380D02*
X131645095Y-89815380D01*
X131978428Y-90529666D01*
X132311761Y-89815380D01*
X132311761Y-90815380D01*
X133216523Y-90815380D02*
X133216523Y-90291571D01*
X133168904Y-90196333D01*
X133073666Y-90148714D01*
X132883190Y-90148714D01*
X132787952Y-90196333D01*
X133216523Y-90767761D02*
X133121285Y-90815380D01*
X132883190Y-90815380D01*
X132787952Y-90767761D01*
X132740333Y-90672523D01*
X132740333Y-90577285D01*
X132787952Y-90482047D01*
X132883190Y-90434428D01*
X133121285Y-90434428D01*
X133216523Y-90386809D01*
X133835571Y-90815380D02*
X133740333Y-90767761D01*
X133692714Y-90672523D01*
X133692714Y-89815380D01*
X134597476Y-90767761D02*
X134502238Y-90815380D01*
X134311761Y-90815380D01*
X134216523Y-90767761D01*
X134168904Y-90672523D01*
X134168904Y-90291571D01*
X134216523Y-90196333D01*
X134311761Y-90148714D01*
X134502238Y-90148714D01*
X134597476Y-90196333D01*
X134645095Y-90291571D01*
X134645095Y-90386809D01*
X134168904Y-90482047D01*
X134978428Y-91196333D02*
X135026047Y-91148714D01*
X135121285Y-91005857D01*
X135168904Y-90910619D01*
X135216523Y-90767761D01*
X135264142Y-90529666D01*
X135264142Y-90339190D01*
X135216523Y-90101095D01*
X135168904Y-89958238D01*
X135121285Y-89863000D01*
X135026047Y-89720142D01*
X134978428Y-89672523D01*
X126353476Y-36797380D02*
X126353476Y-37511666D01*
X126305857Y-37654523D01*
X126210619Y-37749761D01*
X126067761Y-37797380D01*
X125972523Y-37797380D01*
X126782047Y-36892619D02*
X126829666Y-36845000D01*
X126924904Y-36797380D01*
X127163000Y-36797380D01*
X127258238Y-36845000D01*
X127305857Y-36892619D01*
X127353476Y-36987857D01*
X127353476Y-37083095D01*
X127305857Y-37225952D01*
X126734428Y-37797380D01*
X127353476Y-37797380D01*
X128067761Y-38178333D02*
X128020142Y-38130714D01*
X127924904Y-37987857D01*
X127877285Y-37892619D01*
X127829666Y-37749761D01*
X127782047Y-37511666D01*
X127782047Y-37321190D01*
X127829666Y-37083095D01*
X127877285Y-36940238D01*
X127924904Y-36845000D01*
X128020142Y-36702142D01*
X128067761Y-36654523D01*
X128448714Y-37797380D02*
X128448714Y-36797380D01*
X128924904Y-37797380D02*
X128924904Y-36797380D01*
X129163000Y-36797380D01*
X129305857Y-36845000D01*
X129401095Y-36940238D01*
X129448714Y-37035476D01*
X129496333Y-37225952D01*
X129496333Y-37368809D01*
X129448714Y-37559285D01*
X129401095Y-37654523D01*
X129305857Y-37749761D01*
X129163000Y-37797380D01*
X128924904Y-37797380D01*
X130496333Y-37702142D02*
X130448714Y-37749761D01*
X130305857Y-37797380D01*
X130210619Y-37797380D01*
X130067761Y-37749761D01*
X129972523Y-37654523D01*
X129924904Y-37559285D01*
X129877285Y-37368809D01*
X129877285Y-37225952D01*
X129924904Y-37035476D01*
X129972523Y-36940238D01*
X130067761Y-36845000D01*
X130210619Y-36797380D01*
X130305857Y-36797380D01*
X130448714Y-36845000D01*
X130496333Y-36892619D01*
X130924904Y-37416428D02*
X131686809Y-37416428D01*
X132686809Y-37797380D02*
X132115380Y-37797380D01*
X132401095Y-37797380D02*
X132401095Y-36797380D01*
X132305857Y-36940238D01*
X132210619Y-37035476D01*
X132115380Y-37083095D01*
X133305857Y-36797380D02*
X133401095Y-36797380D01*
X133496333Y-36845000D01*
X133543952Y-36892619D01*
X133591571Y-36987857D01*
X133639190Y-37178333D01*
X133639190Y-37416428D01*
X133591571Y-37606904D01*
X133543952Y-37702142D01*
X133496333Y-37749761D01*
X133401095Y-37797380D01*
X133305857Y-37797380D01*
X133210619Y-37749761D01*
X133163000Y-37702142D01*
X133115380Y-37606904D01*
X133067761Y-37416428D01*
X133067761Y-37178333D01*
X133115380Y-36987857D01*
X133163000Y-36892619D01*
X133210619Y-36845000D01*
X133305857Y-36797380D01*
X133972523Y-38178333D02*
X134020142Y-38130714D01*
X134115380Y-37987857D01*
X134163000Y-37892619D01*
X134210619Y-37749761D01*
X134258238Y-37511666D01*
X134258238Y-37321190D01*
X134210619Y-37083095D01*
X134163000Y-36940238D01*
X134115380Y-36845000D01*
X134020142Y-36702142D01*
X133972523Y-36654523D01*
X148433333Y-57552380D02*
X148100000Y-57076190D01*
X147861904Y-57552380D02*
X147861904Y-56552380D01*
X148242857Y-56552380D01*
X148338095Y-56600000D01*
X148385714Y-56647619D01*
X148433333Y-56742857D01*
X148433333Y-56885714D01*
X148385714Y-56980952D01*
X148338095Y-57028571D01*
X148242857Y-57076190D01*
X147861904Y-57076190D01*
X149290476Y-56885714D02*
X149290476Y-57552380D01*
X149052380Y-56504761D02*
X148814285Y-57219047D01*
X149433333Y-57219047D01*
D13*
X148535714Y-59125714D02*
X148124285Y-59125714D01*
X148330000Y-59125714D02*
X148330000Y-58405714D01*
X148261428Y-58508571D01*
X148192857Y-58577142D01*
X148124285Y-58611428D01*
X148844285Y-59125714D02*
X148844285Y-58405714D01*
X149255714Y-59125714D02*
X148947142Y-58714285D01*
X149255714Y-58405714D02*
X148844285Y-58817142D01*
D10*
X112633333Y-57652380D02*
X112300000Y-57176190D01*
X112061904Y-57652380D02*
X112061904Y-56652380D01*
X112442857Y-56652380D01*
X112538095Y-56700000D01*
X112585714Y-56747619D01*
X112633333Y-56842857D01*
X112633333Y-56985714D01*
X112585714Y-57080952D01*
X112538095Y-57128571D01*
X112442857Y-57176190D01*
X112061904Y-57176190D01*
X113014285Y-56747619D02*
X113061904Y-56700000D01*
X113157142Y-56652380D01*
X113395238Y-56652380D01*
X113490476Y-56700000D01*
X113538095Y-56747619D01*
X113585714Y-56842857D01*
X113585714Y-56938095D01*
X113538095Y-57080952D01*
X112966666Y-57652380D01*
X113585714Y-57652380D01*
D13*
X112735714Y-59225714D02*
X112324285Y-59225714D01*
X112530000Y-59225714D02*
X112530000Y-58505714D01*
X112461428Y-58608571D01*
X112392857Y-58677142D01*
X112324285Y-58711428D01*
X113044285Y-59225714D02*
X113044285Y-58505714D01*
X113455714Y-59225714D02*
X113147142Y-58814285D01*
X113455714Y-58505714D02*
X113044285Y-58917142D01*
D10*
X139874761Y-51187619D02*
X139779523Y-51140000D01*
X139684285Y-51044761D01*
X139541428Y-50901904D01*
X139446190Y-50854285D01*
X139350952Y-50854285D01*
X139398571Y-51092380D02*
X139303333Y-51044761D01*
X139208095Y-50949523D01*
X139160476Y-50759047D01*
X139160476Y-50425714D01*
X139208095Y-50235238D01*
X139303333Y-50140000D01*
X139398571Y-50092380D01*
X139589047Y-50092380D01*
X139684285Y-50140000D01*
X139779523Y-50235238D01*
X139827142Y-50425714D01*
X139827142Y-50759047D01*
X139779523Y-50949523D01*
X139684285Y-51044761D01*
X139589047Y-51092380D01*
X139398571Y-51092380D01*
X140208095Y-50187619D02*
X140255714Y-50140000D01*
X140350952Y-50092380D01*
X140589047Y-50092380D01*
X140684285Y-50140000D01*
X140731904Y-50187619D01*
X140779523Y-50282857D01*
X140779523Y-50378095D01*
X140731904Y-50520952D01*
X140160476Y-51092380D01*
X140779523Y-51092380D01*
X138112857Y-56918571D02*
X138255714Y-56966190D01*
X138303333Y-57013809D01*
X138350952Y-57109047D01*
X138350952Y-57251904D01*
X138303333Y-57347142D01*
X138255714Y-57394761D01*
X138160476Y-57442380D01*
X137779523Y-57442380D01*
X137779523Y-56442380D01*
X138112857Y-56442380D01*
X138208095Y-56490000D01*
X138255714Y-56537619D01*
X138303333Y-56632857D01*
X138303333Y-56728095D01*
X138255714Y-56823333D01*
X138208095Y-56870952D01*
X138112857Y-56918571D01*
X137779523Y-56918571D01*
X139350952Y-57347142D02*
X139303333Y-57394761D01*
X139160476Y-57442380D01*
X139065238Y-57442380D01*
X138922380Y-57394761D01*
X138827142Y-57299523D01*
X138779523Y-57204285D01*
X138731904Y-57013809D01*
X138731904Y-56870952D01*
X138779523Y-56680476D01*
X138827142Y-56585238D01*
X138922380Y-56490000D01*
X139065238Y-56442380D01*
X139160476Y-56442380D01*
X139303333Y-56490000D01*
X139350952Y-56537619D01*
X140255714Y-56442380D02*
X139779523Y-56442380D01*
X139731904Y-56918571D01*
X139779523Y-56870952D01*
X139874761Y-56823333D01*
X140112857Y-56823333D01*
X140208095Y-56870952D01*
X140255714Y-56918571D01*
X140303333Y-57013809D01*
X140303333Y-57251904D01*
X140255714Y-57347142D01*
X140208095Y-57394761D01*
X140112857Y-57442380D01*
X139874761Y-57442380D01*
X139779523Y-57394761D01*
X139731904Y-57347142D01*
X141208095Y-56442380D02*
X140731904Y-56442380D01*
X140684285Y-56918571D01*
X140731904Y-56870952D01*
X140827142Y-56823333D01*
X141065238Y-56823333D01*
X141160476Y-56870952D01*
X141208095Y-56918571D01*
X141255714Y-57013809D01*
X141255714Y-57251904D01*
X141208095Y-57347142D01*
X141160476Y-57394761D01*
X141065238Y-57442380D01*
X140827142Y-57442380D01*
X140731904Y-57394761D01*
X140684285Y-57347142D01*
X141589047Y-56442380D02*
X142255714Y-56442380D01*
X141827142Y-57442380D01*
M02*
