G04 #@! TF.GenerationSoftware,KiCad,Pcbnew,(5.1.4)-1*
G04 #@! TF.CreationDate,2019-11-09T17:45:09+10:00*
G04 #@! TF.ProjectId,SegaControllerForApple2,53656761-436f-46e7-9472-6f6c6c657246,rev?*
G04 #@! TF.SameCoordinates,Original*
G04 #@! TF.FileFunction,Copper,L1,Top*
G04 #@! TF.FilePolarity,Positive*
%FSLAX46Y46*%
G04 Gerber Fmt 4.6, Leading zero omitted, Abs format (unit mm)*
G04 Created by KiCad (PCBNEW (5.1.4)-1) date 2019-11-09 17:45:09*
%MOMM*%
%LPD*%
G04 APERTURE LIST*
%ADD10O,1.600000X1.600000*%
%ADD11R,1.600000X1.600000*%
%ADD12O,1.700000X1.700000*%
%ADD13R,1.700000X1.700000*%
%ADD14O,1.400000X1.400000*%
%ADD15C,1.400000*%
%ADD16R,1.300000X1.300000*%
%ADD17C,1.300000*%
%ADD18C,4.000000*%
%ADD19C,1.600000*%
%ADD20O,1.727200X1.727200*%
%ADD21R,1.727200X1.727200*%
%ADD22C,0.800000*%
%ADD23C,0.250000*%
%ADD24C,0.254000*%
G04 APERTURE END LIST*
D10*
X116520000Y-36200000D03*
X108900000Y-51440000D03*
X116520000Y-38740000D03*
X108900000Y-48900000D03*
X116520000Y-41280000D03*
X108900000Y-46360000D03*
X116520000Y-43820000D03*
X108900000Y-43820000D03*
X116520000Y-46360000D03*
X108900000Y-41280000D03*
X116520000Y-48900000D03*
X108900000Y-38740000D03*
X116520000Y-51440000D03*
D11*
X108900000Y-36200000D03*
D10*
X152620000Y-36200000D03*
X145000000Y-51440000D03*
X152620000Y-38740000D03*
X145000000Y-48900000D03*
X152620000Y-41280000D03*
X145000000Y-46360000D03*
X152620000Y-43820000D03*
X145000000Y-43820000D03*
X152620000Y-46360000D03*
X145000000Y-41280000D03*
X152620000Y-48900000D03*
X145000000Y-38740000D03*
X152620000Y-51440000D03*
D11*
X145000000Y-36200000D03*
D12*
X109500000Y-82520000D03*
X109500000Y-85060000D03*
X109500000Y-87600000D03*
D13*
X109500000Y-90140000D03*
D14*
X152520000Y-55300000D03*
D15*
X144900000Y-55300000D03*
D14*
X109080000Y-55500000D03*
D15*
X116700000Y-55500000D03*
D16*
X120100000Y-54200000D03*
D17*
X122640000Y-54200000D03*
X121370000Y-52930000D03*
D18*
X143140000Y-84600000D03*
X118140000Y-84600000D03*
D19*
X134795000Y-87140000D03*
X132025000Y-87140000D03*
X129255000Y-87140000D03*
X126485000Y-87140000D03*
X136180000Y-84300000D03*
X133410000Y-84300000D03*
X130640000Y-84300000D03*
X127870000Y-84300000D03*
D11*
X125100000Y-84300000D03*
D20*
X135160000Y-45060000D03*
X135160000Y-47600000D03*
X132620000Y-45060000D03*
X132620000Y-47600000D03*
X130080000Y-45060000D03*
X130080000Y-47600000D03*
X127540000Y-45060000D03*
X127540000Y-47600000D03*
X125000000Y-45060000D03*
D21*
X125000000Y-47600000D03*
D14*
X144880000Y-58800000D03*
D15*
X152500000Y-58800000D03*
D14*
X109080000Y-58900000D03*
D15*
X116700000Y-58900000D03*
D10*
X146750000Y-62000000D03*
X146750000Y-77240000D03*
X111190000Y-62000000D03*
X144210000Y-77240000D03*
X113730000Y-62000000D03*
X141670000Y-77240000D03*
X116270000Y-62000000D03*
X139130000Y-77240000D03*
X118810000Y-62000000D03*
X136590000Y-77240000D03*
X121350000Y-62000000D03*
X134050000Y-77240000D03*
X123890000Y-62000000D03*
X131510000Y-77240000D03*
X126430000Y-62000000D03*
X128970000Y-77240000D03*
X128970000Y-62000000D03*
X126430000Y-77240000D03*
X131510000Y-62000000D03*
X123890000Y-77240000D03*
X134050000Y-62000000D03*
X121350000Y-77240000D03*
X136590000Y-62000000D03*
X118810000Y-77240000D03*
X139130000Y-62000000D03*
X116270000Y-77240000D03*
X141670000Y-62000000D03*
X113730000Y-77240000D03*
X144210000Y-62000000D03*
D11*
X111190000Y-77240000D03*
D16*
X138700000Y-54200000D03*
D17*
X141240000Y-54200000D03*
X139970000Y-52930000D03*
D12*
X134320000Y-57900000D03*
X131780000Y-57900000D03*
X129240000Y-57900000D03*
D13*
X126700000Y-57900000D03*
D22*
X138000000Y-44400000D03*
X139100000Y-56500000D03*
D23*
X146125001Y-37614999D02*
X145799999Y-37940001D01*
X145609991Y-34624989D02*
X146125001Y-35139999D01*
X146125001Y-35139999D02*
X146125001Y-37614999D01*
X108290009Y-34624989D02*
X145609991Y-34624989D01*
X145799999Y-37940001D02*
X145000000Y-38740000D01*
X107774999Y-35139999D02*
X108290009Y-34624989D01*
X107774999Y-37614999D02*
X107774999Y-35139999D01*
X108900000Y-38740000D02*
X107774999Y-37614999D01*
X146131370Y-38740000D02*
X145000000Y-38740000D01*
X150716410Y-38740000D02*
X146131370Y-38740000D01*
X151841411Y-39865001D02*
X150716410Y-38740000D01*
X152870003Y-39865001D02*
X151841411Y-39865001D01*
X154195011Y-41190009D02*
X152870003Y-39865001D01*
X154195011Y-56304989D02*
X154195011Y-41190009D01*
X152725001Y-57774999D02*
X154195011Y-56304989D01*
X150975001Y-57774999D02*
X152725001Y-57774999D01*
X146750000Y-62000000D02*
X150975001Y-57774999D01*
X143950000Y-36200000D02*
X145000000Y-36200000D01*
X142824999Y-35074999D02*
X143950000Y-36200000D01*
X111075001Y-35074999D02*
X142824999Y-35074999D01*
X109950000Y-36200000D02*
X111075001Y-35074999D01*
X108900000Y-36200000D02*
X109950000Y-36200000D01*
X128970000Y-80017000D02*
X133253000Y-84300000D01*
X128970000Y-77240000D02*
X128970000Y-80017000D01*
X126430000Y-80247000D02*
X130483000Y-84300000D01*
X126430000Y-77240000D02*
X126430000Y-80247000D01*
X145869949Y-58800000D02*
X144880000Y-58800000D01*
X146925002Y-58800000D02*
X145869949Y-58800000D01*
X153745001Y-51980001D02*
X146925002Y-58800000D01*
X153745001Y-45819999D02*
X153745001Y-51980001D01*
X153160001Y-45234999D02*
X153745001Y-45819999D01*
X144459999Y-45234999D02*
X153160001Y-45234999D01*
X140619999Y-49074999D02*
X144459999Y-45234999D01*
X140619999Y-52080001D02*
X140619999Y-49074999D01*
X139970000Y-52730000D02*
X140619999Y-52080001D01*
X118010001Y-76440001D02*
X118810000Y-77240000D01*
X112930001Y-71360001D02*
X118010001Y-76440001D01*
X112930001Y-62799999D02*
X112930001Y-71360001D01*
X113730000Y-62000000D02*
X112930001Y-62799999D01*
X127540000Y-57060000D02*
X126700000Y-57900000D01*
X132159130Y-52360000D02*
X127540000Y-52360000D01*
X138000000Y-46519130D02*
X132159130Y-52360000D01*
X138000000Y-44400000D02*
X138000000Y-46519130D01*
X127540000Y-47600000D02*
X127540000Y-52360000D01*
X126700000Y-53200000D02*
X126700000Y-57900000D01*
X127540000Y-52360000D02*
X126700000Y-53200000D01*
X111190000Y-61490000D02*
X111190000Y-62000000D01*
X115894999Y-44125001D02*
X116220001Y-43799999D01*
X110390001Y-62799999D02*
X111190000Y-62000000D01*
X125000000Y-44680000D02*
X125000000Y-45060000D01*
X116520000Y-36200000D02*
X125000000Y-44680000D01*
X115720001Y-40480001D02*
X116520000Y-41280000D01*
X115394999Y-40154999D02*
X115720001Y-40480001D01*
X115394999Y-37325001D02*
X115394999Y-40154999D01*
X116520000Y-36200000D02*
X115394999Y-37325001D01*
X116520000Y-42411370D02*
X116520000Y-43820000D01*
X116520000Y-41280000D02*
X116520000Y-42411370D01*
X116520000Y-43820000D02*
X116520000Y-46360000D01*
X120100000Y-49940000D02*
X120100000Y-54200000D01*
X116520000Y-46360000D02*
X120100000Y-49940000D01*
X133140000Y-54000000D02*
X138700000Y-54000000D01*
X129240000Y-57900000D02*
X133140000Y-54000000D01*
X151820001Y-40480001D02*
X152620000Y-41280000D01*
X151494999Y-40154999D02*
X151820001Y-40480001D01*
X144459999Y-40154999D02*
X151494999Y-40154999D01*
X138700000Y-45914998D02*
X144459999Y-40154999D01*
X138700000Y-54000000D02*
X138700000Y-45914998D01*
X152620000Y-42411370D02*
X152620000Y-43820000D01*
X152620000Y-41280000D02*
X152620000Y-42411370D01*
X108650001Y-84210001D02*
X109500000Y-85060000D01*
X108324999Y-83884999D02*
X108650001Y-84210001D01*
X108324999Y-64865001D02*
X108324999Y-83884999D01*
X111190000Y-62000000D02*
X108324999Y-64865001D01*
X131756401Y-46736401D02*
X132620000Y-47600000D01*
X131431399Y-46411399D02*
X131756401Y-46736401D01*
X123876399Y-46411399D02*
X131431399Y-46411399D01*
X123811399Y-46476399D02*
X123876399Y-46411399D01*
X123811399Y-53028601D02*
X123811399Y-46476399D01*
X122640000Y-54200000D02*
X123811399Y-53028601D01*
X121990001Y-54849999D02*
X122640000Y-54200000D01*
X120640001Y-56199999D02*
X121990001Y-54849999D01*
X117399999Y-56199999D02*
X120640001Y-56199999D01*
X116700000Y-55500000D02*
X117399999Y-56199999D01*
X136590000Y-62000000D02*
X136828588Y-62000000D01*
X137389999Y-62799999D02*
X136590000Y-62000000D01*
X138790000Y-64200000D02*
X137389999Y-62799999D01*
X147100000Y-64200000D02*
X138790000Y-64200000D01*
X152500000Y-58800000D02*
X147100000Y-64200000D01*
X110649999Y-60874999D02*
X108324999Y-63199999D01*
X119350001Y-60874999D02*
X110649999Y-60874999D01*
X120475002Y-62000000D02*
X119350001Y-60874999D01*
X121350000Y-62000000D02*
X120475002Y-62000000D01*
X108650001Y-86750001D02*
X109500000Y-87600000D01*
X107874989Y-85974989D02*
X108650001Y-86750001D01*
X107874989Y-64678601D02*
X107874989Y-85974989D01*
X108324999Y-64228591D02*
X107874989Y-64678601D01*
X108324999Y-63199999D02*
X108324999Y-64228591D01*
X138330001Y-61200001D02*
X139130000Y-62000000D01*
X138004999Y-60874999D02*
X138330001Y-61200001D01*
X119986411Y-60874999D02*
X138004999Y-60874999D01*
X118011412Y-58900000D02*
X119986411Y-60874999D01*
X116700000Y-58900000D02*
X118011412Y-58900000D01*
X108900000Y-50308630D02*
X108900000Y-48900000D01*
X108900000Y-51440000D02*
X108900000Y-50308630D01*
X144200001Y-47159999D02*
X145000000Y-46360000D01*
X143874999Y-47485001D02*
X144200001Y-47159999D01*
X143874999Y-53008003D02*
X143874999Y-47485001D01*
X140383002Y-56500000D02*
X143874999Y-53008003D01*
X139100000Y-56500000D02*
X140383002Y-56500000D01*
X116520000Y-52571370D02*
X116520000Y-51440000D01*
X116520000Y-50308630D02*
X116520000Y-48900000D01*
X116520000Y-51440000D02*
X116520000Y-50308630D01*
X120900007Y-56650009D02*
X123324999Y-59075001D01*
X116333007Y-56650009D02*
X120900007Y-56650009D01*
X115674999Y-55992001D02*
X116333007Y-56650009D01*
X115674999Y-53416371D02*
X115674999Y-55992001D01*
X116520000Y-52571370D02*
X115674999Y-53416371D01*
X137608001Y-59075001D02*
X123324999Y-59075001D01*
X151820001Y-47159999D02*
X152620000Y-46360000D01*
X151522999Y-47159999D02*
X151820001Y-47159999D01*
X139607997Y-59075001D02*
X151522999Y-47159999D01*
X137608001Y-59075001D02*
X139607997Y-59075001D01*
D24*
G36*
X115128096Y-35850961D02*
G01*
X115250085Y-36073000D01*
X116393000Y-36073000D01*
X116393000Y-36053000D01*
X116647000Y-36053000D01*
X116647000Y-36073000D01*
X117789915Y-36073000D01*
X117911904Y-35850961D01*
X117907063Y-35834999D01*
X142510198Y-35834999D01*
X143386201Y-36711003D01*
X143409999Y-36740001D01*
X143525724Y-36834974D01*
X143561928Y-36854326D01*
X143561928Y-37000000D01*
X143574188Y-37124482D01*
X143610498Y-37244180D01*
X143669463Y-37354494D01*
X143748815Y-37451185D01*
X143845506Y-37530537D01*
X143955820Y-37589502D01*
X144075518Y-37625812D01*
X144093482Y-37627581D01*
X143980392Y-37720392D01*
X143801068Y-37938899D01*
X143667818Y-38188192D01*
X143585764Y-38458691D01*
X143558057Y-38740000D01*
X143585764Y-39021309D01*
X143667818Y-39291808D01*
X143801068Y-39541101D01*
X143980392Y-39759608D01*
X144198899Y-39938932D01*
X144331858Y-40010000D01*
X144198899Y-40081068D01*
X143980392Y-40260392D01*
X143801068Y-40478899D01*
X143667818Y-40728192D01*
X143585764Y-40998691D01*
X143558057Y-41280000D01*
X143585764Y-41561309D01*
X143667818Y-41831808D01*
X143801068Y-42081101D01*
X143980392Y-42299608D01*
X144198899Y-42478932D01*
X144331858Y-42550000D01*
X144198899Y-42621068D01*
X143980392Y-42800392D01*
X143801068Y-43018899D01*
X143667818Y-43268192D01*
X143585764Y-43538691D01*
X143558057Y-43820000D01*
X143585764Y-44101309D01*
X143667818Y-44371808D01*
X143801068Y-44621101D01*
X143890330Y-44729867D01*
X140108997Y-48511200D01*
X140079999Y-48534998D01*
X140056201Y-48563996D01*
X140056200Y-48563997D01*
X139985025Y-48650723D01*
X139914453Y-48782753D01*
X139870997Y-48926014D01*
X139856323Y-49074999D01*
X139860000Y-49112331D01*
X139859999Y-51645000D01*
X139843439Y-51645000D01*
X139595179Y-51694381D01*
X139361324Y-51791247D01*
X139150860Y-51931875D01*
X138971875Y-52110860D01*
X138831247Y-52321324D01*
X138734381Y-52555179D01*
X138685000Y-52803439D01*
X138685000Y-52915000D01*
X138572998Y-52915000D01*
X138572998Y-53073748D01*
X138414250Y-52915000D01*
X138050000Y-52911928D01*
X137925518Y-52924188D01*
X137805820Y-52960498D01*
X137695506Y-53019463D01*
X137598815Y-53098815D01*
X137519463Y-53195506D01*
X137460498Y-53305820D01*
X137424188Y-53425518D01*
X137411928Y-53550000D01*
X137415000Y-53914250D01*
X137573750Y-54073000D01*
X138573000Y-54073000D01*
X138573000Y-54053000D01*
X138827000Y-54053000D01*
X138827000Y-54073000D01*
X138847000Y-54073000D01*
X138847000Y-54327000D01*
X138827000Y-54327000D01*
X138827000Y-55326250D01*
X138971111Y-55470361D01*
X138798102Y-55504774D01*
X138609744Y-55582795D01*
X138440226Y-55696063D01*
X138296063Y-55840226D01*
X138182795Y-56009744D01*
X138104774Y-56198102D01*
X138065000Y-56398061D01*
X138065000Y-56601939D01*
X138104774Y-56801898D01*
X138182795Y-56990256D01*
X138296063Y-57159774D01*
X138440226Y-57303937D01*
X138609744Y-57417205D01*
X138798102Y-57495226D01*
X138998061Y-57535000D01*
X139201939Y-57535000D01*
X139401898Y-57495226D01*
X139590256Y-57417205D01*
X139759774Y-57303937D01*
X139803711Y-57260000D01*
X140345680Y-57260000D01*
X140347971Y-57260226D01*
X139293196Y-58315001D01*
X135745931Y-58315001D01*
X135783513Y-58191111D01*
X135812185Y-57900000D01*
X135783513Y-57608889D01*
X135698599Y-57328966D01*
X135560706Y-57070986D01*
X135375134Y-56844866D01*
X135149014Y-56659294D01*
X134891034Y-56521401D01*
X134611111Y-56436487D01*
X134392950Y-56415000D01*
X134247050Y-56415000D01*
X134028889Y-56436487D01*
X133748966Y-56521401D01*
X133490986Y-56659294D01*
X133264866Y-56844866D01*
X133079294Y-57070986D01*
X133050000Y-57125791D01*
X133020706Y-57070986D01*
X132835134Y-56844866D01*
X132609014Y-56659294D01*
X132351034Y-56521401D01*
X132071111Y-56436487D01*
X131852950Y-56415000D01*
X131707050Y-56415000D01*
X131488889Y-56436487D01*
X131208966Y-56521401D01*
X130950986Y-56659294D01*
X130724866Y-56844866D01*
X130539294Y-57070986D01*
X130504799Y-57135523D01*
X130435178Y-57018645D01*
X130240269Y-56802412D01*
X130006920Y-56628359D01*
X129744099Y-56503175D01*
X129596890Y-56458524D01*
X129367000Y-56579845D01*
X129367000Y-57773000D01*
X129387000Y-57773000D01*
X129387000Y-58027000D01*
X129367000Y-58027000D01*
X129367000Y-58047000D01*
X129113000Y-58047000D01*
X129113000Y-58027000D01*
X129093000Y-58027000D01*
X129093000Y-57773000D01*
X129113000Y-57773000D01*
X129113000Y-56579845D01*
X128883110Y-56458524D01*
X128735901Y-56503175D01*
X128473080Y-56628359D01*
X128253046Y-56792481D01*
X128245545Y-56767754D01*
X128174973Y-56635725D01*
X128080000Y-56520000D01*
X127964275Y-56425027D01*
X127832246Y-56354455D01*
X127688985Y-56310998D01*
X127539999Y-56296324D01*
X127460000Y-56304203D01*
X127460000Y-54850000D01*
X137411928Y-54850000D01*
X137424188Y-54974482D01*
X137460498Y-55094180D01*
X137519463Y-55204494D01*
X137598815Y-55301185D01*
X137695506Y-55380537D01*
X137805820Y-55439502D01*
X137925518Y-55475812D01*
X138050000Y-55488072D01*
X138414250Y-55485000D01*
X138573000Y-55326250D01*
X138573000Y-54327000D01*
X137573750Y-54327000D01*
X137415000Y-54485750D01*
X137411928Y-54850000D01*
X127460000Y-54850000D01*
X127460000Y-53514802D01*
X127854802Y-53120000D01*
X132121808Y-53120000D01*
X132159130Y-53123676D01*
X132196452Y-53120000D01*
X132196463Y-53120000D01*
X132308116Y-53109003D01*
X132451377Y-53065546D01*
X132583406Y-52994974D01*
X132699131Y-52900001D01*
X132722934Y-52870997D01*
X138511003Y-47082929D01*
X138540001Y-47059131D01*
X138634974Y-46943406D01*
X138705546Y-46811377D01*
X138749003Y-46668116D01*
X138760000Y-46556463D01*
X138763677Y-46519130D01*
X138760000Y-46481797D01*
X138760000Y-45103711D01*
X138803937Y-45059774D01*
X138917205Y-44890256D01*
X138995226Y-44701898D01*
X139035000Y-44501939D01*
X139035000Y-44298061D01*
X138995226Y-44098102D01*
X138917205Y-43909744D01*
X138803937Y-43740226D01*
X138659774Y-43596063D01*
X138490256Y-43482795D01*
X138301898Y-43404774D01*
X138101939Y-43365000D01*
X137898061Y-43365000D01*
X137698102Y-43404774D01*
X137509744Y-43482795D01*
X137340226Y-43596063D01*
X137196063Y-43740226D01*
X137082795Y-43909744D01*
X137004774Y-44098102D01*
X136965000Y-44298061D01*
X136965000Y-44501939D01*
X137004774Y-44701898D01*
X137082795Y-44890256D01*
X137196063Y-45059774D01*
X137240000Y-45103711D01*
X137240001Y-46204327D01*
X136505722Y-46938606D01*
X136412069Y-46763394D01*
X136224797Y-46535203D01*
X135996606Y-46347931D01*
X135963060Y-46330000D01*
X135996606Y-46312069D01*
X136224797Y-46124797D01*
X136412069Y-45896606D01*
X136551225Y-45636264D01*
X136636916Y-45353777D01*
X136665851Y-45060000D01*
X136636916Y-44766223D01*
X136551225Y-44483736D01*
X136412069Y-44223394D01*
X136224797Y-43995203D01*
X135996606Y-43807931D01*
X135736264Y-43668775D01*
X135453777Y-43583084D01*
X135233619Y-43561400D01*
X135086381Y-43561400D01*
X134866223Y-43583084D01*
X134583736Y-43668775D01*
X134323394Y-43807931D01*
X134095203Y-43995203D01*
X133907931Y-44223394D01*
X133890000Y-44256940D01*
X133872069Y-44223394D01*
X133684797Y-43995203D01*
X133456606Y-43807931D01*
X133196264Y-43668775D01*
X132913777Y-43583084D01*
X132693619Y-43561400D01*
X132546381Y-43561400D01*
X132326223Y-43583084D01*
X132043736Y-43668775D01*
X131783394Y-43807931D01*
X131555203Y-43995203D01*
X131367931Y-44223394D01*
X131350000Y-44256940D01*
X131332069Y-44223394D01*
X131144797Y-43995203D01*
X130916606Y-43807931D01*
X130656264Y-43668775D01*
X130373777Y-43583084D01*
X130153619Y-43561400D01*
X130006381Y-43561400D01*
X129786223Y-43583084D01*
X129503736Y-43668775D01*
X129243394Y-43807931D01*
X129015203Y-43995203D01*
X128827931Y-44223394D01*
X128810000Y-44256940D01*
X128792069Y-44223394D01*
X128604797Y-43995203D01*
X128376606Y-43807931D01*
X128116264Y-43668775D01*
X127833777Y-43583084D01*
X127613619Y-43561400D01*
X127466381Y-43561400D01*
X127246223Y-43583084D01*
X126963736Y-43668775D01*
X126703394Y-43807931D01*
X126475203Y-43995203D01*
X126287931Y-44223394D01*
X126264137Y-44267910D01*
X126206817Y-44171512D01*
X126010293Y-43953146D01*
X125774944Y-43777316D01*
X125509814Y-43650778D01*
X125359026Y-43605042D01*
X125127000Y-43726183D01*
X125127000Y-44933000D01*
X125147000Y-44933000D01*
X125147000Y-45187000D01*
X125127000Y-45187000D01*
X125127000Y-45207000D01*
X124873000Y-45207000D01*
X124873000Y-45187000D01*
X123665536Y-45187000D01*
X123545037Y-45419027D01*
X123640484Y-45688765D01*
X123584152Y-45705853D01*
X123452123Y-45776425D01*
X123336398Y-45871398D01*
X123312595Y-45900402D01*
X123300397Y-45912600D01*
X123271399Y-45936398D01*
X123247601Y-45965396D01*
X123247600Y-45965397D01*
X123176425Y-46052123D01*
X123105853Y-46184153D01*
X123091036Y-46233000D01*
X123062397Y-46327413D01*
X123055857Y-46393817D01*
X123047723Y-46476399D01*
X123051400Y-46513731D01*
X123051399Y-52713799D01*
X122836322Y-52928876D01*
X122766561Y-52915000D01*
X122655000Y-52915000D01*
X122655000Y-52803439D01*
X122605619Y-52555179D01*
X122508753Y-52321324D01*
X122368125Y-52110860D01*
X122189140Y-51931875D01*
X121978676Y-51791247D01*
X121744821Y-51694381D01*
X121496561Y-51645000D01*
X121243439Y-51645000D01*
X120995179Y-51694381D01*
X120761324Y-51791247D01*
X120550860Y-51931875D01*
X120371875Y-52110860D01*
X120231247Y-52321324D01*
X120134381Y-52555179D01*
X120085000Y-52803439D01*
X120085000Y-52915000D01*
X119972998Y-52915000D01*
X119972998Y-53073748D01*
X119814250Y-52915000D01*
X119450000Y-52911928D01*
X119325518Y-52924188D01*
X119205820Y-52960498D01*
X119095506Y-53019463D01*
X118998815Y-53098815D01*
X118919463Y-53195506D01*
X118860498Y-53305820D01*
X118824188Y-53425518D01*
X118811928Y-53550000D01*
X118815000Y-53914250D01*
X118973750Y-54073000D01*
X119973000Y-54073000D01*
X119973000Y-54053000D01*
X120227000Y-54053000D01*
X120227000Y-54073000D01*
X120247000Y-54073000D01*
X120247000Y-54327000D01*
X120227000Y-54327000D01*
X120227000Y-54347000D01*
X119973000Y-54347000D01*
X119973000Y-54327000D01*
X118973750Y-54327000D01*
X118815000Y-54485750D01*
X118811928Y-54850000D01*
X118824188Y-54974482D01*
X118860498Y-55094180D01*
X118919463Y-55204494D01*
X118998815Y-55301185D01*
X119095506Y-55380537D01*
X119205820Y-55439502D01*
X119207458Y-55439999D01*
X118035000Y-55439999D01*
X118035000Y-55368514D01*
X117983696Y-55110595D01*
X117883061Y-54867641D01*
X117736962Y-54648987D01*
X117551013Y-54463038D01*
X117332359Y-54316939D01*
X117089405Y-54216304D01*
X116831486Y-54165000D01*
X116568514Y-54165000D01*
X116434999Y-54191558D01*
X116434999Y-53731172D01*
X117031004Y-53135168D01*
X117060001Y-53111371D01*
X117101137Y-53061247D01*
X117154974Y-52995647D01*
X117225546Y-52863617D01*
X117231594Y-52843678D01*
X117269003Y-52720356D01*
X117274573Y-52663802D01*
X117321101Y-52638932D01*
X117539608Y-52459608D01*
X117718932Y-52241101D01*
X117852182Y-51991808D01*
X117934236Y-51721309D01*
X117961943Y-51440000D01*
X117934236Y-51158691D01*
X117852182Y-50888192D01*
X117718932Y-50638899D01*
X117539608Y-50420392D01*
X117321101Y-50241068D01*
X117280000Y-50219099D01*
X117280000Y-50120901D01*
X117321101Y-50098932D01*
X117539608Y-49919608D01*
X117718932Y-49701101D01*
X117852182Y-49451808D01*
X117934236Y-49181309D01*
X117961943Y-48900000D01*
X117934236Y-48618691D01*
X117852182Y-48348192D01*
X117718932Y-48098899D01*
X117539608Y-47880392D01*
X117321101Y-47701068D01*
X117183318Y-47627421D01*
X117375131Y-47512385D01*
X117583519Y-47323414D01*
X117751037Y-47097420D01*
X117871246Y-46843087D01*
X117911904Y-46709039D01*
X117789915Y-46487000D01*
X116647000Y-46487000D01*
X116647000Y-46507000D01*
X116393000Y-46507000D01*
X116393000Y-46487000D01*
X115250085Y-46487000D01*
X115128096Y-46709039D01*
X115168754Y-46843087D01*
X115288963Y-47097420D01*
X115456481Y-47323414D01*
X115664869Y-47512385D01*
X115856682Y-47627421D01*
X115718899Y-47701068D01*
X115500392Y-47880392D01*
X115321068Y-48098899D01*
X115187818Y-48348192D01*
X115105764Y-48618691D01*
X115078057Y-48900000D01*
X115105764Y-49181309D01*
X115187818Y-49451808D01*
X115321068Y-49701101D01*
X115500392Y-49919608D01*
X115718899Y-50098932D01*
X115760000Y-50120901D01*
X115760000Y-50219099D01*
X115718899Y-50241068D01*
X115500392Y-50420392D01*
X115321068Y-50638899D01*
X115187818Y-50888192D01*
X115105764Y-51158691D01*
X115078057Y-51440000D01*
X115105764Y-51721309D01*
X115187818Y-51991808D01*
X115321068Y-52241101D01*
X115500392Y-52459608D01*
X115531462Y-52485107D01*
X115164001Y-52852568D01*
X115134998Y-52876370D01*
X115095755Y-52924188D01*
X115040025Y-52992095D01*
X114977536Y-53109003D01*
X114969453Y-53124125D01*
X114925996Y-53267386D01*
X114914999Y-53379039D01*
X114914999Y-53379049D01*
X114911323Y-53416371D01*
X114914999Y-53453694D01*
X114915000Y-55954669D01*
X114911323Y-55992001D01*
X114915000Y-56029334D01*
X114925997Y-56140987D01*
X114930552Y-56156004D01*
X114969453Y-56284247D01*
X115040025Y-56416277D01*
X115109575Y-56501023D01*
X115134999Y-56532002D01*
X115163997Y-56555800D01*
X115769207Y-57161011D01*
X115793006Y-57190010D01*
X115908731Y-57284983D01*
X116040760Y-57355555D01*
X116184021Y-57399012D01*
X116295674Y-57410009D01*
X116295684Y-57410009D01*
X116333007Y-57413685D01*
X116370330Y-57410009D01*
X120585206Y-57410009D01*
X122761200Y-59586004D01*
X122784998Y-59615002D01*
X122813996Y-59638800D01*
X122900723Y-59709975D01*
X123032752Y-59780547D01*
X123176013Y-59824004D01*
X123324999Y-59838678D01*
X123362332Y-59835001D01*
X139570675Y-59835001D01*
X139607997Y-59838677D01*
X139645319Y-59835001D01*
X139645330Y-59835001D01*
X139756983Y-59824004D01*
X139900244Y-59780547D01*
X140032273Y-59709975D01*
X140147998Y-59615002D01*
X140171801Y-59585998D01*
X143760398Y-55997401D01*
X143863038Y-56151013D01*
X144048987Y-56336962D01*
X144267641Y-56483061D01*
X144510595Y-56583696D01*
X144768514Y-56635000D01*
X145031486Y-56635000D01*
X145289405Y-56583696D01*
X145532359Y-56483061D01*
X145751013Y-56336962D01*
X145936962Y-56151013D01*
X146083061Y-55932359D01*
X146183696Y-55689405D01*
X146235000Y-55431486D01*
X146235000Y-55168514D01*
X146183696Y-54910595D01*
X146083061Y-54667641D01*
X145936962Y-54448987D01*
X145751013Y-54263038D01*
X145597401Y-54160399D01*
X151234787Y-48523014D01*
X151205764Y-48618691D01*
X151178057Y-48900000D01*
X151205764Y-49181309D01*
X151287818Y-49451808D01*
X151421068Y-49701101D01*
X151600392Y-49919608D01*
X151818899Y-50098932D01*
X151951858Y-50170000D01*
X151818899Y-50241068D01*
X151600392Y-50420392D01*
X151421068Y-50638899D01*
X151287818Y-50888192D01*
X151205764Y-51158691D01*
X151178057Y-51440000D01*
X151205764Y-51721309D01*
X151287818Y-51991808D01*
X151421068Y-52241101D01*
X151600392Y-52459608D01*
X151818899Y-52638932D01*
X151944261Y-52705939D01*
X146610201Y-58040000D01*
X145983298Y-58040000D01*
X145828555Y-57851445D01*
X145625275Y-57684618D01*
X145393354Y-57560653D01*
X145141706Y-57484317D01*
X144945579Y-57465000D01*
X144814421Y-57465000D01*
X144618294Y-57484317D01*
X144366646Y-57560653D01*
X144134725Y-57684618D01*
X143931445Y-57851445D01*
X143764618Y-58054725D01*
X143640653Y-58286646D01*
X143564317Y-58538294D01*
X143538541Y-58800000D01*
X143564317Y-59061706D01*
X143640653Y-59313354D01*
X143764618Y-59545275D01*
X143931445Y-59748555D01*
X144134725Y-59915382D01*
X144366646Y-60039347D01*
X144618294Y-60115683D01*
X144814421Y-60135000D01*
X144945579Y-60135000D01*
X145141706Y-60115683D01*
X145393354Y-60039347D01*
X145625275Y-59915382D01*
X145828555Y-59748555D01*
X145983298Y-59560000D01*
X146887680Y-59560000D01*
X146925002Y-59563676D01*
X146962324Y-59560000D01*
X146962335Y-59560000D01*
X147073988Y-59549003D01*
X147217249Y-59505546D01*
X147349278Y-59434974D01*
X147465003Y-59340001D01*
X147488806Y-59310997D01*
X151212179Y-55587624D01*
X151280653Y-55813354D01*
X151404618Y-56045275D01*
X151571445Y-56248555D01*
X151774725Y-56415382D01*
X152006646Y-56539347D01*
X152258294Y-56615683D01*
X152454421Y-56635000D01*
X152585579Y-56635000D01*
X152781706Y-56615683D01*
X152821625Y-56603574D01*
X152410200Y-57014999D01*
X151012326Y-57014999D01*
X150975001Y-57011323D01*
X150937676Y-57014999D01*
X150937668Y-57014999D01*
X150826015Y-57025996D01*
X150682754Y-57069453D01*
X150550725Y-57140025D01*
X150435000Y-57234998D01*
X150411202Y-57263996D01*
X147075906Y-60599292D01*
X147031309Y-60585764D01*
X146820492Y-60565000D01*
X146679508Y-60565000D01*
X146468691Y-60585764D01*
X146198192Y-60667818D01*
X145948899Y-60801068D01*
X145730392Y-60980392D01*
X145551068Y-61198899D01*
X145480000Y-61331858D01*
X145408932Y-61198899D01*
X145229608Y-60980392D01*
X145011101Y-60801068D01*
X144761808Y-60667818D01*
X144491309Y-60585764D01*
X144280492Y-60565000D01*
X144139508Y-60565000D01*
X143928691Y-60585764D01*
X143658192Y-60667818D01*
X143408899Y-60801068D01*
X143190392Y-60980392D01*
X143011068Y-61198899D01*
X142940000Y-61331858D01*
X142868932Y-61198899D01*
X142689608Y-60980392D01*
X142471101Y-60801068D01*
X142221808Y-60667818D01*
X141951309Y-60585764D01*
X141740492Y-60565000D01*
X141599508Y-60565000D01*
X141388691Y-60585764D01*
X141118192Y-60667818D01*
X140868899Y-60801068D01*
X140650392Y-60980392D01*
X140471068Y-61198899D01*
X140400000Y-61331858D01*
X140328932Y-61198899D01*
X140149608Y-60980392D01*
X139931101Y-60801068D01*
X139681808Y-60667818D01*
X139411309Y-60585764D01*
X139200492Y-60565000D01*
X139059508Y-60565000D01*
X138848691Y-60585764D01*
X138804093Y-60599292D01*
X138568803Y-60364002D01*
X138545000Y-60334998D01*
X138429275Y-60240025D01*
X138297246Y-60169453D01*
X138153985Y-60125996D01*
X138042332Y-60114999D01*
X138042321Y-60114999D01*
X138004999Y-60111323D01*
X137967677Y-60114999D01*
X120301213Y-60114999D01*
X118575216Y-58389003D01*
X118551413Y-58359999D01*
X118435688Y-58265026D01*
X118303659Y-58194454D01*
X118160398Y-58150997D01*
X118048745Y-58140000D01*
X118048734Y-58140000D01*
X118011412Y-58136324D01*
X117974090Y-58140000D01*
X117797775Y-58140000D01*
X117736962Y-58048987D01*
X117551013Y-57863038D01*
X117332359Y-57716939D01*
X117089405Y-57616304D01*
X116831486Y-57565000D01*
X116568514Y-57565000D01*
X116310595Y-57616304D01*
X116067641Y-57716939D01*
X115848987Y-57863038D01*
X115663038Y-58048987D01*
X115516939Y-58267641D01*
X115416304Y-58510595D01*
X115365000Y-58768514D01*
X115365000Y-59031486D01*
X115416304Y-59289405D01*
X115516939Y-59532359D01*
X115663038Y-59751013D01*
X115848987Y-59936962D01*
X116067641Y-60083061D01*
X116144746Y-60114999D01*
X110687332Y-60114999D01*
X110649999Y-60111322D01*
X110612666Y-60114999D01*
X110501013Y-60125996D01*
X110357752Y-60169453D01*
X110225723Y-60240025D01*
X110109998Y-60334998D01*
X110086200Y-60363996D01*
X107814002Y-62636195D01*
X107784998Y-62659998D01*
X107747619Y-62705545D01*
X107690025Y-62775723D01*
X107647580Y-62855131D01*
X107619453Y-62907753D01*
X107575996Y-63051014D01*
X107564999Y-63162667D01*
X107564999Y-63162677D01*
X107561323Y-63199999D01*
X107564999Y-63237322D01*
X107565000Y-63913789D01*
X107363992Y-64114797D01*
X107334988Y-64138600D01*
X107284600Y-64199999D01*
X107240015Y-64254325D01*
X107189418Y-64348985D01*
X107169443Y-64386355D01*
X107125986Y-64529616D01*
X107114989Y-64641269D01*
X107114989Y-64641279D01*
X107111313Y-64678601D01*
X107114989Y-64715923D01*
X107114990Y-85937656D01*
X107111313Y-85974989D01*
X107114990Y-86012322D01*
X107125987Y-86123975D01*
X107139169Y-86167431D01*
X107169443Y-86267235D01*
X107240015Y-86399265D01*
X107288017Y-86457755D01*
X107334989Y-86514990D01*
X107363986Y-86538788D01*
X108059203Y-87234006D01*
X108036487Y-87308889D01*
X108007815Y-87600000D01*
X108036487Y-87891111D01*
X108121401Y-88171034D01*
X108259294Y-88429014D01*
X108444866Y-88655134D01*
X108474687Y-88679607D01*
X108405820Y-88700498D01*
X108295506Y-88759463D01*
X108198815Y-88838815D01*
X108119463Y-88935506D01*
X108060498Y-89045820D01*
X108024188Y-89165518D01*
X108011928Y-89290000D01*
X108011928Y-90990000D01*
X108024188Y-91114482D01*
X108060498Y-91234180D01*
X108119463Y-91344494D01*
X108198815Y-91441185D01*
X108295506Y-91520537D01*
X108405820Y-91579502D01*
X108525518Y-91615812D01*
X108650000Y-91628072D01*
X110350000Y-91628072D01*
X110474482Y-91615812D01*
X110594180Y-91579502D01*
X110704494Y-91520537D01*
X110801185Y-91441185D01*
X110880537Y-91344494D01*
X110939502Y-91234180D01*
X110975812Y-91114482D01*
X110988072Y-90990000D01*
X110988072Y-89290000D01*
X110975812Y-89165518D01*
X110939502Y-89045820D01*
X110880537Y-88935506D01*
X110801185Y-88838815D01*
X110704494Y-88759463D01*
X110594180Y-88700498D01*
X110525313Y-88679607D01*
X110555134Y-88655134D01*
X110740706Y-88429014D01*
X110878599Y-88171034D01*
X110963513Y-87891111D01*
X110992185Y-87600000D01*
X110963513Y-87308889D01*
X110878599Y-87028966D01*
X110740706Y-86770986D01*
X110555134Y-86544866D01*
X110329014Y-86359294D01*
X110264477Y-86324799D01*
X110381355Y-86255178D01*
X110597588Y-86060269D01*
X110771641Y-85826920D01*
X110896825Y-85564099D01*
X110941476Y-85416890D01*
X110820155Y-85187000D01*
X109627000Y-85187000D01*
X109627000Y-85207000D01*
X109373000Y-85207000D01*
X109373000Y-85187000D01*
X109353000Y-85187000D01*
X109353000Y-84933000D01*
X109373000Y-84933000D01*
X109373000Y-84913000D01*
X109627000Y-84913000D01*
X109627000Y-84933000D01*
X110820155Y-84933000D01*
X110941476Y-84703110D01*
X110896825Y-84555901D01*
X110794216Y-84340475D01*
X115505000Y-84340475D01*
X115505000Y-84859525D01*
X115606261Y-85368601D01*
X115804893Y-85848141D01*
X116093262Y-86279715D01*
X116460285Y-86646738D01*
X116891859Y-86935107D01*
X117371399Y-87133739D01*
X117880475Y-87235000D01*
X118399525Y-87235000D01*
X118908601Y-87133739D01*
X119234698Y-86998665D01*
X125050000Y-86998665D01*
X125050000Y-87281335D01*
X125105147Y-87558574D01*
X125213320Y-87819727D01*
X125370363Y-88054759D01*
X125570241Y-88254637D01*
X125805273Y-88411680D01*
X126066426Y-88519853D01*
X126343665Y-88575000D01*
X126626335Y-88575000D01*
X126903574Y-88519853D01*
X127164727Y-88411680D01*
X127399759Y-88254637D01*
X127599637Y-88054759D01*
X127756680Y-87819727D01*
X127864853Y-87558574D01*
X127870000Y-87532699D01*
X127875147Y-87558574D01*
X127983320Y-87819727D01*
X128140363Y-88054759D01*
X128340241Y-88254637D01*
X128575273Y-88411680D01*
X128836426Y-88519853D01*
X129113665Y-88575000D01*
X129396335Y-88575000D01*
X129673574Y-88519853D01*
X129934727Y-88411680D01*
X130169759Y-88254637D01*
X130369637Y-88054759D01*
X130526680Y-87819727D01*
X130634853Y-87558574D01*
X130640000Y-87532699D01*
X130645147Y-87558574D01*
X130753320Y-87819727D01*
X130910363Y-88054759D01*
X131110241Y-88254637D01*
X131345273Y-88411680D01*
X131606426Y-88519853D01*
X131883665Y-88575000D01*
X132166335Y-88575000D01*
X132443574Y-88519853D01*
X132704727Y-88411680D01*
X132939759Y-88254637D01*
X133139637Y-88054759D01*
X133296680Y-87819727D01*
X133404853Y-87558574D01*
X133410000Y-87532699D01*
X133415147Y-87558574D01*
X133523320Y-87819727D01*
X133680363Y-88054759D01*
X133880241Y-88254637D01*
X134115273Y-88411680D01*
X134376426Y-88519853D01*
X134653665Y-88575000D01*
X134936335Y-88575000D01*
X135213574Y-88519853D01*
X135474727Y-88411680D01*
X135709759Y-88254637D01*
X135909637Y-88054759D01*
X136066680Y-87819727D01*
X136174853Y-87558574D01*
X136230000Y-87281335D01*
X136230000Y-86998665D01*
X136174853Y-86721426D01*
X136066680Y-86460273D01*
X135909637Y-86225241D01*
X135709759Y-86025363D01*
X135474727Y-85868320D01*
X135213574Y-85760147D01*
X134936335Y-85705000D01*
X134653665Y-85705000D01*
X134376426Y-85760147D01*
X134115273Y-85868320D01*
X133880241Y-86025363D01*
X133680363Y-86225241D01*
X133523320Y-86460273D01*
X133415147Y-86721426D01*
X133410000Y-86747301D01*
X133404853Y-86721426D01*
X133296680Y-86460273D01*
X133139637Y-86225241D01*
X132939759Y-86025363D01*
X132704727Y-85868320D01*
X132443574Y-85760147D01*
X132166335Y-85705000D01*
X131883665Y-85705000D01*
X131606426Y-85760147D01*
X131345273Y-85868320D01*
X131110241Y-86025363D01*
X130910363Y-86225241D01*
X130753320Y-86460273D01*
X130645147Y-86721426D01*
X130640000Y-86747301D01*
X130634853Y-86721426D01*
X130526680Y-86460273D01*
X130369637Y-86225241D01*
X130169759Y-86025363D01*
X129934727Y-85868320D01*
X129673574Y-85760147D01*
X129396335Y-85705000D01*
X129113665Y-85705000D01*
X128836426Y-85760147D01*
X128575273Y-85868320D01*
X128340241Y-86025363D01*
X128140363Y-86225241D01*
X127983320Y-86460273D01*
X127875147Y-86721426D01*
X127870000Y-86747301D01*
X127864853Y-86721426D01*
X127756680Y-86460273D01*
X127599637Y-86225241D01*
X127399759Y-86025363D01*
X127164727Y-85868320D01*
X126903574Y-85760147D01*
X126626335Y-85705000D01*
X126343665Y-85705000D01*
X126066426Y-85760147D01*
X125805273Y-85868320D01*
X125570241Y-86025363D01*
X125370363Y-86225241D01*
X125213320Y-86460273D01*
X125105147Y-86721426D01*
X125050000Y-86998665D01*
X119234698Y-86998665D01*
X119388141Y-86935107D01*
X119819715Y-86646738D01*
X120186738Y-86279715D01*
X120475107Y-85848141D01*
X120673739Y-85368601D01*
X120775000Y-84859525D01*
X120775000Y-84340475D01*
X120673739Y-83831399D01*
X120475107Y-83351859D01*
X120186738Y-82920285D01*
X119819715Y-82553262D01*
X119388141Y-82264893D01*
X118908601Y-82066261D01*
X118399525Y-81965000D01*
X117880475Y-81965000D01*
X117371399Y-82066261D01*
X116891859Y-82264893D01*
X116460285Y-82553262D01*
X116093262Y-82920285D01*
X115804893Y-83351859D01*
X115606261Y-83831399D01*
X115505000Y-84340475D01*
X110794216Y-84340475D01*
X110771641Y-84293080D01*
X110597588Y-84059731D01*
X110381355Y-83864822D01*
X110264477Y-83795201D01*
X110329014Y-83760706D01*
X110555134Y-83575134D01*
X110740706Y-83349014D01*
X110878599Y-83091034D01*
X110963513Y-82811111D01*
X110992185Y-82520000D01*
X110963513Y-82228889D01*
X110878599Y-81948966D01*
X110740706Y-81690986D01*
X110555134Y-81464866D01*
X110329014Y-81279294D01*
X110071034Y-81141401D01*
X109791111Y-81056487D01*
X109572950Y-81035000D01*
X109427050Y-81035000D01*
X109208889Y-81056487D01*
X108928966Y-81141401D01*
X108670986Y-81279294D01*
X108634989Y-81308836D01*
X108634989Y-64993402D01*
X108835996Y-64792395D01*
X108865000Y-64768592D01*
X108959973Y-64652867D01*
X109030545Y-64520838D01*
X109074002Y-64377577D01*
X109084999Y-64265924D01*
X109084999Y-64265915D01*
X109088675Y-64228592D01*
X109084999Y-64191269D01*
X109084999Y-63514800D01*
X109927791Y-62672009D01*
X110037615Y-62855131D01*
X110226586Y-63063519D01*
X110452580Y-63231037D01*
X110706913Y-63351246D01*
X110840961Y-63391904D01*
X111063000Y-63269915D01*
X111063000Y-62127000D01*
X111043000Y-62127000D01*
X111043000Y-61873000D01*
X111063000Y-61873000D01*
X111063000Y-61853000D01*
X111317000Y-61853000D01*
X111317000Y-61873000D01*
X111337000Y-61873000D01*
X111337000Y-62127000D01*
X111317000Y-62127000D01*
X111317000Y-63269915D01*
X111539039Y-63391904D01*
X111673087Y-63351246D01*
X111927420Y-63231037D01*
X112153414Y-63063519D01*
X112170001Y-63045228D01*
X112170002Y-71322669D01*
X112166325Y-71360001D01*
X112180999Y-71508986D01*
X112224455Y-71652247D01*
X112295027Y-71784277D01*
X112366202Y-71871003D01*
X112390001Y-71900002D01*
X112418999Y-71923800D01*
X116300198Y-75805000D01*
X116199508Y-75805000D01*
X115988691Y-75825764D01*
X115718192Y-75907818D01*
X115468899Y-76041068D01*
X115250392Y-76220392D01*
X115071068Y-76438899D01*
X115000000Y-76571858D01*
X114928932Y-76438899D01*
X114749608Y-76220392D01*
X114531101Y-76041068D01*
X114281808Y-75907818D01*
X114011309Y-75825764D01*
X113800492Y-75805000D01*
X113659508Y-75805000D01*
X113448691Y-75825764D01*
X113178192Y-75907818D01*
X112928899Y-76041068D01*
X112710392Y-76220392D01*
X112617581Y-76333482D01*
X112615812Y-76315518D01*
X112579502Y-76195820D01*
X112520537Y-76085506D01*
X112441185Y-75988815D01*
X112344494Y-75909463D01*
X112234180Y-75850498D01*
X112114482Y-75814188D01*
X111990000Y-75801928D01*
X110390000Y-75801928D01*
X110265518Y-75814188D01*
X110145820Y-75850498D01*
X110035506Y-75909463D01*
X109938815Y-75988815D01*
X109859463Y-76085506D01*
X109800498Y-76195820D01*
X109764188Y-76315518D01*
X109751928Y-76440000D01*
X109751928Y-78040000D01*
X109764188Y-78164482D01*
X109800498Y-78284180D01*
X109859463Y-78394494D01*
X109938815Y-78491185D01*
X110035506Y-78570537D01*
X110145820Y-78629502D01*
X110265518Y-78665812D01*
X110390000Y-78678072D01*
X111990000Y-78678072D01*
X112114482Y-78665812D01*
X112234180Y-78629502D01*
X112344494Y-78570537D01*
X112441185Y-78491185D01*
X112520537Y-78394494D01*
X112579502Y-78284180D01*
X112615812Y-78164482D01*
X112617581Y-78146518D01*
X112710392Y-78259608D01*
X112928899Y-78438932D01*
X113178192Y-78572182D01*
X113448691Y-78654236D01*
X113659508Y-78675000D01*
X113800492Y-78675000D01*
X114011309Y-78654236D01*
X114281808Y-78572182D01*
X114531101Y-78438932D01*
X114749608Y-78259608D01*
X114928932Y-78041101D01*
X115000000Y-77908142D01*
X115071068Y-78041101D01*
X115250392Y-78259608D01*
X115468899Y-78438932D01*
X115718192Y-78572182D01*
X115988691Y-78654236D01*
X116199508Y-78675000D01*
X116340492Y-78675000D01*
X116551309Y-78654236D01*
X116821808Y-78572182D01*
X117071101Y-78438932D01*
X117289608Y-78259608D01*
X117468932Y-78041101D01*
X117540000Y-77908142D01*
X117611068Y-78041101D01*
X117790392Y-78259608D01*
X118008899Y-78438932D01*
X118258192Y-78572182D01*
X118528691Y-78654236D01*
X118739508Y-78675000D01*
X118880492Y-78675000D01*
X119091309Y-78654236D01*
X119361808Y-78572182D01*
X119611101Y-78438932D01*
X119829608Y-78259608D01*
X120008932Y-78041101D01*
X120080000Y-77908142D01*
X120151068Y-78041101D01*
X120330392Y-78259608D01*
X120548899Y-78438932D01*
X120798192Y-78572182D01*
X121068691Y-78654236D01*
X121279508Y-78675000D01*
X121420492Y-78675000D01*
X121631309Y-78654236D01*
X121901808Y-78572182D01*
X122151101Y-78438932D01*
X122369608Y-78259608D01*
X122548932Y-78041101D01*
X122620000Y-77908142D01*
X122691068Y-78041101D01*
X122870392Y-78259608D01*
X123088899Y-78438932D01*
X123338192Y-78572182D01*
X123608691Y-78654236D01*
X123819508Y-78675000D01*
X123960492Y-78675000D01*
X124171309Y-78654236D01*
X124441808Y-78572182D01*
X124691101Y-78438932D01*
X124909608Y-78259608D01*
X125088932Y-78041101D01*
X125160000Y-77908142D01*
X125231068Y-78041101D01*
X125410392Y-78259608D01*
X125628899Y-78438932D01*
X125670000Y-78460901D01*
X125670001Y-80209668D01*
X125666324Y-80247000D01*
X125680998Y-80395985D01*
X125724454Y-80539246D01*
X125795026Y-80671276D01*
X125837103Y-80722546D01*
X125890000Y-80787001D01*
X125918998Y-80810799D01*
X127973198Y-82865000D01*
X127728665Y-82865000D01*
X127451426Y-82920147D01*
X127190273Y-83028320D01*
X126955241Y-83185363D01*
X126755363Y-83385241D01*
X126598320Y-83620273D01*
X126538072Y-83765725D01*
X126538072Y-83500000D01*
X126525812Y-83375518D01*
X126489502Y-83255820D01*
X126430537Y-83145506D01*
X126351185Y-83048815D01*
X126254494Y-82969463D01*
X126144180Y-82910498D01*
X126024482Y-82874188D01*
X125900000Y-82861928D01*
X124300000Y-82861928D01*
X124175518Y-82874188D01*
X124055820Y-82910498D01*
X123945506Y-82969463D01*
X123848815Y-83048815D01*
X123769463Y-83145506D01*
X123710498Y-83255820D01*
X123674188Y-83375518D01*
X123661928Y-83500000D01*
X123661928Y-85100000D01*
X123674188Y-85224482D01*
X123710498Y-85344180D01*
X123769463Y-85454494D01*
X123848815Y-85551185D01*
X123945506Y-85630537D01*
X124055820Y-85689502D01*
X124175518Y-85725812D01*
X124300000Y-85738072D01*
X125900000Y-85738072D01*
X126024482Y-85725812D01*
X126144180Y-85689502D01*
X126254494Y-85630537D01*
X126351185Y-85551185D01*
X126430537Y-85454494D01*
X126489502Y-85344180D01*
X126525812Y-85224482D01*
X126538072Y-85100000D01*
X126538072Y-84834275D01*
X126598320Y-84979727D01*
X126755363Y-85214759D01*
X126955241Y-85414637D01*
X127190273Y-85571680D01*
X127451426Y-85679853D01*
X127728665Y-85735000D01*
X128011335Y-85735000D01*
X128288574Y-85679853D01*
X128549727Y-85571680D01*
X128784759Y-85414637D01*
X128984637Y-85214759D01*
X129141680Y-84979727D01*
X129249853Y-84718574D01*
X129255000Y-84692699D01*
X129260147Y-84718574D01*
X129368320Y-84979727D01*
X129525363Y-85214759D01*
X129725241Y-85414637D01*
X129960273Y-85571680D01*
X130221426Y-85679853D01*
X130498665Y-85735000D01*
X130781335Y-85735000D01*
X131058574Y-85679853D01*
X131319727Y-85571680D01*
X131554759Y-85414637D01*
X131754637Y-85214759D01*
X131911680Y-84979727D01*
X132019853Y-84718574D01*
X132025000Y-84692699D01*
X132030147Y-84718574D01*
X132138320Y-84979727D01*
X132295363Y-85214759D01*
X132495241Y-85414637D01*
X132730273Y-85571680D01*
X132991426Y-85679853D01*
X133268665Y-85735000D01*
X133551335Y-85735000D01*
X133828574Y-85679853D01*
X134089727Y-85571680D01*
X134324759Y-85414637D01*
X134446694Y-85292702D01*
X135366903Y-85292702D01*
X135438486Y-85536671D01*
X135693996Y-85657571D01*
X135968184Y-85726300D01*
X136250512Y-85740217D01*
X136530130Y-85698787D01*
X136796292Y-85603603D01*
X136921514Y-85536671D01*
X136993097Y-85292702D01*
X136180000Y-84479605D01*
X135366903Y-85292702D01*
X134446694Y-85292702D01*
X134524637Y-85214759D01*
X134681680Y-84979727D01*
X134789853Y-84718574D01*
X134795513Y-84690118D01*
X134876397Y-84916292D01*
X134943329Y-85041514D01*
X135187298Y-85113097D01*
X136000395Y-84300000D01*
X136359605Y-84300000D01*
X137172702Y-85113097D01*
X137416671Y-85041514D01*
X137537571Y-84786004D01*
X137606300Y-84511816D01*
X137614746Y-84340475D01*
X140505000Y-84340475D01*
X140505000Y-84859525D01*
X140606261Y-85368601D01*
X140804893Y-85848141D01*
X141093262Y-86279715D01*
X141460285Y-86646738D01*
X141891859Y-86935107D01*
X142371399Y-87133739D01*
X142880475Y-87235000D01*
X143399525Y-87235000D01*
X143908601Y-87133739D01*
X144388141Y-86935107D01*
X144819715Y-86646738D01*
X145186738Y-86279715D01*
X145475107Y-85848141D01*
X145673739Y-85368601D01*
X145775000Y-84859525D01*
X145775000Y-84340475D01*
X145673739Y-83831399D01*
X145475107Y-83351859D01*
X145186738Y-82920285D01*
X144819715Y-82553262D01*
X144388141Y-82264893D01*
X143908601Y-82066261D01*
X143399525Y-81965000D01*
X142880475Y-81965000D01*
X142371399Y-82066261D01*
X141891859Y-82264893D01*
X141460285Y-82553262D01*
X141093262Y-82920285D01*
X140804893Y-83351859D01*
X140606261Y-83831399D01*
X140505000Y-84340475D01*
X137614746Y-84340475D01*
X137620217Y-84229488D01*
X137578787Y-83949870D01*
X137483603Y-83683708D01*
X137416671Y-83558486D01*
X137172702Y-83486903D01*
X136359605Y-84300000D01*
X136000395Y-84300000D01*
X135187298Y-83486903D01*
X134943329Y-83558486D01*
X134822429Y-83813996D01*
X134796788Y-83916289D01*
X134789853Y-83881426D01*
X134681680Y-83620273D01*
X134524637Y-83385241D01*
X134446694Y-83307298D01*
X135366903Y-83307298D01*
X136180000Y-84120395D01*
X136993097Y-83307298D01*
X136921514Y-83063329D01*
X136666004Y-82942429D01*
X136391816Y-82873700D01*
X136109488Y-82859783D01*
X135829870Y-82901213D01*
X135563708Y-82996397D01*
X135438486Y-83063329D01*
X135366903Y-83307298D01*
X134446694Y-83307298D01*
X134324759Y-83185363D01*
X134089727Y-83028320D01*
X133828574Y-82920147D01*
X133551335Y-82865000D01*
X133268665Y-82865000D01*
X132991426Y-82920147D01*
X132960683Y-82932881D01*
X129730000Y-79702199D01*
X129730000Y-78460901D01*
X129771101Y-78438932D01*
X129989608Y-78259608D01*
X130168932Y-78041101D01*
X130240000Y-77908142D01*
X130311068Y-78041101D01*
X130490392Y-78259608D01*
X130708899Y-78438932D01*
X130958192Y-78572182D01*
X131228691Y-78654236D01*
X131439508Y-78675000D01*
X131580492Y-78675000D01*
X131791309Y-78654236D01*
X132061808Y-78572182D01*
X132311101Y-78438932D01*
X132529608Y-78259608D01*
X132708932Y-78041101D01*
X132780000Y-77908142D01*
X132851068Y-78041101D01*
X133030392Y-78259608D01*
X133248899Y-78438932D01*
X133498192Y-78572182D01*
X133768691Y-78654236D01*
X133979508Y-78675000D01*
X134120492Y-78675000D01*
X134331309Y-78654236D01*
X134601808Y-78572182D01*
X134851101Y-78438932D01*
X135069608Y-78259608D01*
X135248932Y-78041101D01*
X135320000Y-77908142D01*
X135391068Y-78041101D01*
X135570392Y-78259608D01*
X135788899Y-78438932D01*
X136038192Y-78572182D01*
X136308691Y-78654236D01*
X136519508Y-78675000D01*
X136660492Y-78675000D01*
X136871309Y-78654236D01*
X137141808Y-78572182D01*
X137391101Y-78438932D01*
X137609608Y-78259608D01*
X137788932Y-78041101D01*
X137860000Y-77908142D01*
X137931068Y-78041101D01*
X138110392Y-78259608D01*
X138328899Y-78438932D01*
X138578192Y-78572182D01*
X138848691Y-78654236D01*
X139059508Y-78675000D01*
X139200492Y-78675000D01*
X139411309Y-78654236D01*
X139681808Y-78572182D01*
X139931101Y-78438932D01*
X140149608Y-78259608D01*
X140328932Y-78041101D01*
X140400000Y-77908142D01*
X140471068Y-78041101D01*
X140650392Y-78259608D01*
X140868899Y-78438932D01*
X141118192Y-78572182D01*
X141388691Y-78654236D01*
X141599508Y-78675000D01*
X141740492Y-78675000D01*
X141951309Y-78654236D01*
X142221808Y-78572182D01*
X142471101Y-78438932D01*
X142689608Y-78259608D01*
X142868932Y-78041101D01*
X142940000Y-77908142D01*
X143011068Y-78041101D01*
X143190392Y-78259608D01*
X143408899Y-78438932D01*
X143658192Y-78572182D01*
X143928691Y-78654236D01*
X144139508Y-78675000D01*
X144280492Y-78675000D01*
X144491309Y-78654236D01*
X144761808Y-78572182D01*
X145011101Y-78438932D01*
X145229608Y-78259608D01*
X145408932Y-78041101D01*
X145480000Y-77908142D01*
X145551068Y-78041101D01*
X145730392Y-78259608D01*
X145948899Y-78438932D01*
X146198192Y-78572182D01*
X146468691Y-78654236D01*
X146679508Y-78675000D01*
X146820492Y-78675000D01*
X147031309Y-78654236D01*
X147301808Y-78572182D01*
X147551101Y-78438932D01*
X147769608Y-78259608D01*
X147948932Y-78041101D01*
X148082182Y-77791808D01*
X148164236Y-77521309D01*
X148191943Y-77240000D01*
X148164236Y-76958691D01*
X148082182Y-76688192D01*
X147948932Y-76438899D01*
X147769608Y-76220392D01*
X147551101Y-76041068D01*
X147301808Y-75907818D01*
X147031309Y-75825764D01*
X146820492Y-75805000D01*
X146679508Y-75805000D01*
X146468691Y-75825764D01*
X146198192Y-75907818D01*
X145948899Y-76041068D01*
X145730392Y-76220392D01*
X145551068Y-76438899D01*
X145480000Y-76571858D01*
X145408932Y-76438899D01*
X145229608Y-76220392D01*
X145011101Y-76041068D01*
X144761808Y-75907818D01*
X144491309Y-75825764D01*
X144280492Y-75805000D01*
X144139508Y-75805000D01*
X143928691Y-75825764D01*
X143658192Y-75907818D01*
X143408899Y-76041068D01*
X143190392Y-76220392D01*
X143011068Y-76438899D01*
X142940000Y-76571858D01*
X142868932Y-76438899D01*
X142689608Y-76220392D01*
X142471101Y-76041068D01*
X142221808Y-75907818D01*
X141951309Y-75825764D01*
X141740492Y-75805000D01*
X141599508Y-75805000D01*
X141388691Y-75825764D01*
X141118192Y-75907818D01*
X140868899Y-76041068D01*
X140650392Y-76220392D01*
X140471068Y-76438899D01*
X140400000Y-76571858D01*
X140328932Y-76438899D01*
X140149608Y-76220392D01*
X139931101Y-76041068D01*
X139681808Y-75907818D01*
X139411309Y-75825764D01*
X139200492Y-75805000D01*
X139059508Y-75805000D01*
X138848691Y-75825764D01*
X138578192Y-75907818D01*
X138328899Y-76041068D01*
X138110392Y-76220392D01*
X137931068Y-76438899D01*
X137860000Y-76571858D01*
X137788932Y-76438899D01*
X137609608Y-76220392D01*
X137391101Y-76041068D01*
X137141808Y-75907818D01*
X136871309Y-75825764D01*
X136660492Y-75805000D01*
X136519508Y-75805000D01*
X136308691Y-75825764D01*
X136038192Y-75907818D01*
X135788899Y-76041068D01*
X135570392Y-76220392D01*
X135391068Y-76438899D01*
X135320000Y-76571858D01*
X135248932Y-76438899D01*
X135069608Y-76220392D01*
X134851101Y-76041068D01*
X134601808Y-75907818D01*
X134331309Y-75825764D01*
X134120492Y-75805000D01*
X133979508Y-75805000D01*
X133768691Y-75825764D01*
X133498192Y-75907818D01*
X133248899Y-76041068D01*
X133030392Y-76220392D01*
X132851068Y-76438899D01*
X132780000Y-76571858D01*
X132708932Y-76438899D01*
X132529608Y-76220392D01*
X132311101Y-76041068D01*
X132061808Y-75907818D01*
X131791309Y-75825764D01*
X131580492Y-75805000D01*
X131439508Y-75805000D01*
X131228691Y-75825764D01*
X130958192Y-75907818D01*
X130708899Y-76041068D01*
X130490392Y-76220392D01*
X130311068Y-76438899D01*
X130240000Y-76571858D01*
X130168932Y-76438899D01*
X129989608Y-76220392D01*
X129771101Y-76041068D01*
X129521808Y-75907818D01*
X129251309Y-75825764D01*
X129040492Y-75805000D01*
X128899508Y-75805000D01*
X128688691Y-75825764D01*
X128418192Y-75907818D01*
X128168899Y-76041068D01*
X127950392Y-76220392D01*
X127771068Y-76438899D01*
X127700000Y-76571858D01*
X127628932Y-76438899D01*
X127449608Y-76220392D01*
X127231101Y-76041068D01*
X126981808Y-75907818D01*
X126711309Y-75825764D01*
X126500492Y-75805000D01*
X126359508Y-75805000D01*
X126148691Y-75825764D01*
X125878192Y-75907818D01*
X125628899Y-76041068D01*
X125410392Y-76220392D01*
X125231068Y-76438899D01*
X125160000Y-76571858D01*
X125088932Y-76438899D01*
X124909608Y-76220392D01*
X124691101Y-76041068D01*
X124441808Y-75907818D01*
X124171309Y-75825764D01*
X123960492Y-75805000D01*
X123819508Y-75805000D01*
X123608691Y-75825764D01*
X123338192Y-75907818D01*
X123088899Y-76041068D01*
X122870392Y-76220392D01*
X122691068Y-76438899D01*
X122620000Y-76571858D01*
X122548932Y-76438899D01*
X122369608Y-76220392D01*
X122151101Y-76041068D01*
X121901808Y-75907818D01*
X121631309Y-75825764D01*
X121420492Y-75805000D01*
X121279508Y-75805000D01*
X121068691Y-75825764D01*
X120798192Y-75907818D01*
X120548899Y-76041068D01*
X120330392Y-76220392D01*
X120151068Y-76438899D01*
X120080000Y-76571858D01*
X120008932Y-76438899D01*
X119829608Y-76220392D01*
X119611101Y-76041068D01*
X119361808Y-75907818D01*
X119091309Y-75825764D01*
X118880492Y-75805000D01*
X118739508Y-75805000D01*
X118528691Y-75825764D01*
X118484094Y-75839292D01*
X113690001Y-71045200D01*
X113690001Y-63435000D01*
X113800492Y-63435000D01*
X114011309Y-63414236D01*
X114281808Y-63332182D01*
X114531101Y-63198932D01*
X114749608Y-63019608D01*
X114928932Y-62801101D01*
X115000000Y-62668142D01*
X115071068Y-62801101D01*
X115250392Y-63019608D01*
X115468899Y-63198932D01*
X115718192Y-63332182D01*
X115988691Y-63414236D01*
X116199508Y-63435000D01*
X116340492Y-63435000D01*
X116551309Y-63414236D01*
X116821808Y-63332182D01*
X117071101Y-63198932D01*
X117289608Y-63019608D01*
X117468932Y-62801101D01*
X117540000Y-62668142D01*
X117611068Y-62801101D01*
X117790392Y-63019608D01*
X118008899Y-63198932D01*
X118258192Y-63332182D01*
X118528691Y-63414236D01*
X118739508Y-63435000D01*
X118880492Y-63435000D01*
X119091309Y-63414236D01*
X119361808Y-63332182D01*
X119611101Y-63198932D01*
X119829608Y-63019608D01*
X120008932Y-62801101D01*
X120080000Y-62668142D01*
X120151068Y-62801101D01*
X120330392Y-63019608D01*
X120548899Y-63198932D01*
X120798192Y-63332182D01*
X121068691Y-63414236D01*
X121279508Y-63435000D01*
X121420492Y-63435000D01*
X121631309Y-63414236D01*
X121901808Y-63332182D01*
X122151101Y-63198932D01*
X122369608Y-63019608D01*
X122548932Y-62801101D01*
X122620000Y-62668142D01*
X122691068Y-62801101D01*
X122870392Y-63019608D01*
X123088899Y-63198932D01*
X123338192Y-63332182D01*
X123608691Y-63414236D01*
X123819508Y-63435000D01*
X123960492Y-63435000D01*
X124171309Y-63414236D01*
X124441808Y-63332182D01*
X124691101Y-63198932D01*
X124909608Y-63019608D01*
X125088932Y-62801101D01*
X125160000Y-62668142D01*
X125231068Y-62801101D01*
X125410392Y-63019608D01*
X125628899Y-63198932D01*
X125878192Y-63332182D01*
X126148691Y-63414236D01*
X126359508Y-63435000D01*
X126500492Y-63435000D01*
X126711309Y-63414236D01*
X126981808Y-63332182D01*
X127231101Y-63198932D01*
X127449608Y-63019608D01*
X127628932Y-62801101D01*
X127700000Y-62668142D01*
X127771068Y-62801101D01*
X127950392Y-63019608D01*
X128168899Y-63198932D01*
X128418192Y-63332182D01*
X128688691Y-63414236D01*
X128899508Y-63435000D01*
X129040492Y-63435000D01*
X129251309Y-63414236D01*
X129521808Y-63332182D01*
X129771101Y-63198932D01*
X129989608Y-63019608D01*
X130168932Y-62801101D01*
X130240000Y-62668142D01*
X130311068Y-62801101D01*
X130490392Y-63019608D01*
X130708899Y-63198932D01*
X130958192Y-63332182D01*
X131228691Y-63414236D01*
X131439508Y-63435000D01*
X131580492Y-63435000D01*
X131791309Y-63414236D01*
X132061808Y-63332182D01*
X132311101Y-63198932D01*
X132529608Y-63019608D01*
X132708932Y-62801101D01*
X132780000Y-62668142D01*
X132851068Y-62801101D01*
X133030392Y-63019608D01*
X133248899Y-63198932D01*
X133498192Y-63332182D01*
X133768691Y-63414236D01*
X133979508Y-63435000D01*
X134120492Y-63435000D01*
X134331309Y-63414236D01*
X134601808Y-63332182D01*
X134851101Y-63198932D01*
X135069608Y-63019608D01*
X135248932Y-62801101D01*
X135320000Y-62668142D01*
X135391068Y-62801101D01*
X135570392Y-63019608D01*
X135788899Y-63198932D01*
X136038192Y-63332182D01*
X136308691Y-63414236D01*
X136519508Y-63435000D01*
X136660492Y-63435000D01*
X136871309Y-63414236D01*
X136915907Y-63400708D01*
X138226205Y-64711008D01*
X138249999Y-64740001D01*
X138278992Y-64763795D01*
X138278996Y-64763799D01*
X138349685Y-64821811D01*
X138365724Y-64834974D01*
X138497753Y-64905546D01*
X138641014Y-64949003D01*
X138752667Y-64960000D01*
X138752676Y-64960000D01*
X138789999Y-64963676D01*
X138827322Y-64960000D01*
X147062678Y-64960000D01*
X147100000Y-64963676D01*
X147137322Y-64960000D01*
X147137333Y-64960000D01*
X147248986Y-64949003D01*
X147392247Y-64905546D01*
X147524276Y-64834974D01*
X147640001Y-64740001D01*
X147663804Y-64710997D01*
X152261157Y-60113645D01*
X152368514Y-60135000D01*
X152631486Y-60135000D01*
X152889405Y-60083696D01*
X153132359Y-59983061D01*
X153351013Y-59836962D01*
X153536962Y-59651013D01*
X153683061Y-59432359D01*
X153783696Y-59189405D01*
X153835000Y-58931486D01*
X153835000Y-58668514D01*
X153783696Y-58410595D01*
X153683061Y-58167641D01*
X153572551Y-58002250D01*
X154140001Y-57434801D01*
X154140000Y-83440000D01*
X152932419Y-83440000D01*
X152900000Y-83436807D01*
X152867581Y-83440000D01*
X152770617Y-83449550D01*
X152646207Y-83487290D01*
X152531550Y-83548575D01*
X152431052Y-83631052D01*
X152348575Y-83731550D01*
X152287290Y-83846207D01*
X152249550Y-83970617D01*
X152236807Y-84100000D01*
X152240000Y-84132418D01*
X152240001Y-88867571D01*
X152236807Y-88900000D01*
X152249550Y-89029383D01*
X152287290Y-89153793D01*
X152348575Y-89268450D01*
X152431052Y-89368948D01*
X152531550Y-89451425D01*
X152646207Y-89512710D01*
X152770617Y-89550450D01*
X152867581Y-89560000D01*
X152900000Y-89563193D01*
X152932419Y-89560000D01*
X154140000Y-89560000D01*
X154140001Y-91840000D01*
X107060000Y-91840000D01*
X107060000Y-58900000D01*
X107738541Y-58900000D01*
X107764317Y-59161706D01*
X107840653Y-59413354D01*
X107964618Y-59645275D01*
X108131445Y-59848555D01*
X108334725Y-60015382D01*
X108566646Y-60139347D01*
X108818294Y-60215683D01*
X109014421Y-60235000D01*
X109145579Y-60235000D01*
X109341706Y-60215683D01*
X109593354Y-60139347D01*
X109825275Y-60015382D01*
X110028555Y-59848555D01*
X110195382Y-59645275D01*
X110319347Y-59413354D01*
X110395683Y-59161706D01*
X110421459Y-58900000D01*
X110395683Y-58638294D01*
X110319347Y-58386646D01*
X110195382Y-58154725D01*
X110028555Y-57951445D01*
X109825275Y-57784618D01*
X109593354Y-57660653D01*
X109341706Y-57584317D01*
X109145579Y-57565000D01*
X109014421Y-57565000D01*
X108818294Y-57584317D01*
X108566646Y-57660653D01*
X108334725Y-57784618D01*
X108131445Y-57951445D01*
X107964618Y-58154725D01*
X107840653Y-58386646D01*
X107764317Y-58638294D01*
X107738541Y-58900000D01*
X107060000Y-58900000D01*
X107060000Y-55500000D01*
X107738541Y-55500000D01*
X107764317Y-55761706D01*
X107840653Y-56013354D01*
X107964618Y-56245275D01*
X108131445Y-56448555D01*
X108334725Y-56615382D01*
X108566646Y-56739347D01*
X108818294Y-56815683D01*
X109014421Y-56835000D01*
X109145579Y-56835000D01*
X109341706Y-56815683D01*
X109593354Y-56739347D01*
X109825275Y-56615382D01*
X110028555Y-56448555D01*
X110195382Y-56245275D01*
X110319347Y-56013354D01*
X110395683Y-55761706D01*
X110421459Y-55500000D01*
X110395683Y-55238294D01*
X110319347Y-54986646D01*
X110195382Y-54754725D01*
X110028555Y-54551445D01*
X109825275Y-54384618D01*
X109593354Y-54260653D01*
X109341706Y-54184317D01*
X109145579Y-54165000D01*
X109014421Y-54165000D01*
X108818294Y-54184317D01*
X108566646Y-54260653D01*
X108334725Y-54384618D01*
X108131445Y-54551445D01*
X107964618Y-54754725D01*
X107840653Y-54986646D01*
X107764317Y-55238294D01*
X107738541Y-55500000D01*
X107060000Y-55500000D01*
X107060000Y-48900000D01*
X107458057Y-48900000D01*
X107485764Y-49181309D01*
X107567818Y-49451808D01*
X107701068Y-49701101D01*
X107880392Y-49919608D01*
X108098899Y-50098932D01*
X108140000Y-50120901D01*
X108140000Y-50219099D01*
X108098899Y-50241068D01*
X107880392Y-50420392D01*
X107701068Y-50638899D01*
X107567818Y-50888192D01*
X107485764Y-51158691D01*
X107458057Y-51440000D01*
X107485764Y-51721309D01*
X107567818Y-51991808D01*
X107701068Y-52241101D01*
X107880392Y-52459608D01*
X108098899Y-52638932D01*
X108348192Y-52772182D01*
X108618691Y-52854236D01*
X108829508Y-52875000D01*
X108970492Y-52875000D01*
X109181309Y-52854236D01*
X109451808Y-52772182D01*
X109701101Y-52638932D01*
X109919608Y-52459608D01*
X110098932Y-52241101D01*
X110232182Y-51991808D01*
X110314236Y-51721309D01*
X110341943Y-51440000D01*
X110314236Y-51158691D01*
X110232182Y-50888192D01*
X110098932Y-50638899D01*
X109919608Y-50420392D01*
X109701101Y-50241068D01*
X109660000Y-50219099D01*
X109660000Y-50120901D01*
X109701101Y-50098932D01*
X109919608Y-49919608D01*
X110098932Y-49701101D01*
X110232182Y-49451808D01*
X110314236Y-49181309D01*
X110341943Y-48900000D01*
X110314236Y-48618691D01*
X110232182Y-48348192D01*
X110098932Y-48098899D01*
X109919608Y-47880392D01*
X109701101Y-47701068D01*
X109563318Y-47627421D01*
X109755131Y-47512385D01*
X109963519Y-47323414D01*
X110131037Y-47097420D01*
X110251246Y-46843087D01*
X110291904Y-46709039D01*
X110169915Y-46487000D01*
X109027000Y-46487000D01*
X109027000Y-46507000D01*
X108773000Y-46507000D01*
X108773000Y-46487000D01*
X107630085Y-46487000D01*
X107508096Y-46709039D01*
X107548754Y-46843087D01*
X107668963Y-47097420D01*
X107836481Y-47323414D01*
X108044869Y-47512385D01*
X108236682Y-47627421D01*
X108098899Y-47701068D01*
X107880392Y-47880392D01*
X107701068Y-48098899D01*
X107567818Y-48348192D01*
X107485764Y-48618691D01*
X107458057Y-48900000D01*
X107060000Y-48900000D01*
X107060000Y-37876082D01*
X107069453Y-37907245D01*
X107140025Y-38039275D01*
X107179870Y-38087825D01*
X107234998Y-38155000D01*
X107264001Y-38178803D01*
X107499292Y-38414094D01*
X107485764Y-38458691D01*
X107458057Y-38740000D01*
X107485764Y-39021309D01*
X107567818Y-39291808D01*
X107701068Y-39541101D01*
X107880392Y-39759608D01*
X108098899Y-39938932D01*
X108231858Y-40010000D01*
X108098899Y-40081068D01*
X107880392Y-40260392D01*
X107701068Y-40478899D01*
X107567818Y-40728192D01*
X107485764Y-40998691D01*
X107458057Y-41280000D01*
X107485764Y-41561309D01*
X107567818Y-41831808D01*
X107701068Y-42081101D01*
X107880392Y-42299608D01*
X108098899Y-42478932D01*
X108231858Y-42550000D01*
X108098899Y-42621068D01*
X107880392Y-42800392D01*
X107701068Y-43018899D01*
X107567818Y-43268192D01*
X107485764Y-43538691D01*
X107458057Y-43820000D01*
X107485764Y-44101309D01*
X107567818Y-44371808D01*
X107701068Y-44621101D01*
X107880392Y-44839608D01*
X108098899Y-45018932D01*
X108236682Y-45092579D01*
X108044869Y-45207615D01*
X107836481Y-45396586D01*
X107668963Y-45622580D01*
X107548754Y-45876913D01*
X107508096Y-46010961D01*
X107630085Y-46233000D01*
X108773000Y-46233000D01*
X108773000Y-46213000D01*
X109027000Y-46213000D01*
X109027000Y-46233000D01*
X110169915Y-46233000D01*
X110291904Y-46010961D01*
X110251246Y-45876913D01*
X110131037Y-45622580D01*
X109963519Y-45396586D01*
X109755131Y-45207615D01*
X109563318Y-45092579D01*
X109701101Y-45018932D01*
X109919608Y-44839608D01*
X110098932Y-44621101D01*
X110232182Y-44371808D01*
X110293690Y-44169039D01*
X115128096Y-44169039D01*
X115168754Y-44303087D01*
X115288963Y-44557420D01*
X115456481Y-44783414D01*
X115664869Y-44972385D01*
X115860982Y-45090000D01*
X115664869Y-45207615D01*
X115456481Y-45396586D01*
X115288963Y-45622580D01*
X115168754Y-45876913D01*
X115128096Y-46010961D01*
X115250085Y-46233000D01*
X116393000Y-46233000D01*
X116393000Y-43947000D01*
X116647000Y-43947000D01*
X116647000Y-46233000D01*
X117789915Y-46233000D01*
X117911904Y-46010961D01*
X117871246Y-45876913D01*
X117751037Y-45622580D01*
X117583519Y-45396586D01*
X117375131Y-45207615D01*
X117179018Y-45090000D01*
X117375131Y-44972385D01*
X117583519Y-44783414D01*
X117644628Y-44700973D01*
X123545037Y-44700973D01*
X123665536Y-44933000D01*
X124873000Y-44933000D01*
X124873000Y-43726183D01*
X124640974Y-43605042D01*
X124490186Y-43650778D01*
X124225056Y-43777316D01*
X123989707Y-43953146D01*
X123793183Y-44171512D01*
X123643036Y-44424022D01*
X123545037Y-44700973D01*
X117644628Y-44700973D01*
X117751037Y-44557420D01*
X117871246Y-44303087D01*
X117911904Y-44169039D01*
X117789915Y-43947000D01*
X116647000Y-43947000D01*
X116393000Y-43947000D01*
X115250085Y-43947000D01*
X115128096Y-44169039D01*
X110293690Y-44169039D01*
X110314236Y-44101309D01*
X110341943Y-43820000D01*
X110314236Y-43538691D01*
X110232182Y-43268192D01*
X110098932Y-43018899D01*
X109919608Y-42800392D01*
X109701101Y-42621068D01*
X109568142Y-42550000D01*
X109701101Y-42478932D01*
X109919608Y-42299608D01*
X110098932Y-42081101D01*
X110232182Y-41831808D01*
X110293690Y-41629039D01*
X115128096Y-41629039D01*
X115168754Y-41763087D01*
X115288963Y-42017420D01*
X115456481Y-42243414D01*
X115664869Y-42432385D01*
X115860982Y-42550000D01*
X115664869Y-42667615D01*
X115456481Y-42856586D01*
X115288963Y-43082580D01*
X115168754Y-43336913D01*
X115128096Y-43470961D01*
X115250085Y-43693000D01*
X116393000Y-43693000D01*
X116393000Y-41407000D01*
X116647000Y-41407000D01*
X116647000Y-43693000D01*
X117789915Y-43693000D01*
X117911904Y-43470961D01*
X117871246Y-43336913D01*
X117751037Y-43082580D01*
X117583519Y-42856586D01*
X117375131Y-42667615D01*
X117179018Y-42550000D01*
X117375131Y-42432385D01*
X117583519Y-42243414D01*
X117751037Y-42017420D01*
X117871246Y-41763087D01*
X117911904Y-41629039D01*
X117789915Y-41407000D01*
X116647000Y-41407000D01*
X116393000Y-41407000D01*
X115250085Y-41407000D01*
X115128096Y-41629039D01*
X110293690Y-41629039D01*
X110314236Y-41561309D01*
X110341943Y-41280000D01*
X110314236Y-40998691D01*
X110232182Y-40728192D01*
X110098932Y-40478899D01*
X109919608Y-40260392D01*
X109701101Y-40081068D01*
X109568142Y-40010000D01*
X109701101Y-39938932D01*
X109919608Y-39759608D01*
X110098932Y-39541101D01*
X110232182Y-39291808D01*
X110314236Y-39021309D01*
X110341943Y-38740000D01*
X115078057Y-38740000D01*
X115105764Y-39021309D01*
X115187818Y-39291808D01*
X115321068Y-39541101D01*
X115500392Y-39759608D01*
X115718899Y-39938932D01*
X115856682Y-40012579D01*
X115664869Y-40127615D01*
X115456481Y-40316586D01*
X115288963Y-40542580D01*
X115168754Y-40796913D01*
X115128096Y-40930961D01*
X115250085Y-41153000D01*
X116393000Y-41153000D01*
X116393000Y-41133000D01*
X116647000Y-41133000D01*
X116647000Y-41153000D01*
X117789915Y-41153000D01*
X117911904Y-40930961D01*
X117871246Y-40796913D01*
X117751037Y-40542580D01*
X117583519Y-40316586D01*
X117375131Y-40127615D01*
X117183318Y-40012579D01*
X117321101Y-39938932D01*
X117539608Y-39759608D01*
X117718932Y-39541101D01*
X117852182Y-39291808D01*
X117934236Y-39021309D01*
X117961943Y-38740000D01*
X117934236Y-38458691D01*
X117852182Y-38188192D01*
X117718932Y-37938899D01*
X117539608Y-37720392D01*
X117321101Y-37541068D01*
X117183318Y-37467421D01*
X117375131Y-37352385D01*
X117583519Y-37163414D01*
X117751037Y-36937420D01*
X117871246Y-36683087D01*
X117911904Y-36549039D01*
X117789915Y-36327000D01*
X116647000Y-36327000D01*
X116647000Y-36347000D01*
X116393000Y-36347000D01*
X116393000Y-36327000D01*
X115250085Y-36327000D01*
X115128096Y-36549039D01*
X115168754Y-36683087D01*
X115288963Y-36937420D01*
X115456481Y-37163414D01*
X115664869Y-37352385D01*
X115856682Y-37467421D01*
X115718899Y-37541068D01*
X115500392Y-37720392D01*
X115321068Y-37938899D01*
X115187818Y-38188192D01*
X115105764Y-38458691D01*
X115078057Y-38740000D01*
X110341943Y-38740000D01*
X110314236Y-38458691D01*
X110232182Y-38188192D01*
X110098932Y-37938899D01*
X109919608Y-37720392D01*
X109806518Y-37627581D01*
X109824482Y-37625812D01*
X109944180Y-37589502D01*
X110054494Y-37530537D01*
X110151185Y-37451185D01*
X110230537Y-37354494D01*
X110289502Y-37244180D01*
X110325812Y-37124482D01*
X110338072Y-37000000D01*
X110338072Y-36854326D01*
X110374276Y-36834974D01*
X110490001Y-36740001D01*
X110513804Y-36710998D01*
X111389803Y-35834999D01*
X115132937Y-35834999D01*
X115128096Y-35850961D01*
X115128096Y-35850961D01*
G37*
X115128096Y-35850961D02*
X115250085Y-36073000D01*
X116393000Y-36073000D01*
X116393000Y-36053000D01*
X116647000Y-36053000D01*
X116647000Y-36073000D01*
X117789915Y-36073000D01*
X117911904Y-35850961D01*
X117907063Y-35834999D01*
X142510198Y-35834999D01*
X143386201Y-36711003D01*
X143409999Y-36740001D01*
X143525724Y-36834974D01*
X143561928Y-36854326D01*
X143561928Y-37000000D01*
X143574188Y-37124482D01*
X143610498Y-37244180D01*
X143669463Y-37354494D01*
X143748815Y-37451185D01*
X143845506Y-37530537D01*
X143955820Y-37589502D01*
X144075518Y-37625812D01*
X144093482Y-37627581D01*
X143980392Y-37720392D01*
X143801068Y-37938899D01*
X143667818Y-38188192D01*
X143585764Y-38458691D01*
X143558057Y-38740000D01*
X143585764Y-39021309D01*
X143667818Y-39291808D01*
X143801068Y-39541101D01*
X143980392Y-39759608D01*
X144198899Y-39938932D01*
X144331858Y-40010000D01*
X144198899Y-40081068D01*
X143980392Y-40260392D01*
X143801068Y-40478899D01*
X143667818Y-40728192D01*
X143585764Y-40998691D01*
X143558057Y-41280000D01*
X143585764Y-41561309D01*
X143667818Y-41831808D01*
X143801068Y-42081101D01*
X143980392Y-42299608D01*
X144198899Y-42478932D01*
X144331858Y-42550000D01*
X144198899Y-42621068D01*
X143980392Y-42800392D01*
X143801068Y-43018899D01*
X143667818Y-43268192D01*
X143585764Y-43538691D01*
X143558057Y-43820000D01*
X143585764Y-44101309D01*
X143667818Y-44371808D01*
X143801068Y-44621101D01*
X143890330Y-44729867D01*
X140108997Y-48511200D01*
X140079999Y-48534998D01*
X140056201Y-48563996D01*
X140056200Y-48563997D01*
X139985025Y-48650723D01*
X139914453Y-48782753D01*
X139870997Y-48926014D01*
X139856323Y-49074999D01*
X139860000Y-49112331D01*
X139859999Y-51645000D01*
X139843439Y-51645000D01*
X139595179Y-51694381D01*
X139361324Y-51791247D01*
X139150860Y-51931875D01*
X138971875Y-52110860D01*
X138831247Y-52321324D01*
X138734381Y-52555179D01*
X138685000Y-52803439D01*
X138685000Y-52915000D01*
X138572998Y-52915000D01*
X138572998Y-53073748D01*
X138414250Y-52915000D01*
X138050000Y-52911928D01*
X137925518Y-52924188D01*
X137805820Y-52960498D01*
X137695506Y-53019463D01*
X137598815Y-53098815D01*
X137519463Y-53195506D01*
X137460498Y-53305820D01*
X137424188Y-53425518D01*
X137411928Y-53550000D01*
X137415000Y-53914250D01*
X137573750Y-54073000D01*
X138573000Y-54073000D01*
X138573000Y-54053000D01*
X138827000Y-54053000D01*
X138827000Y-54073000D01*
X138847000Y-54073000D01*
X138847000Y-54327000D01*
X138827000Y-54327000D01*
X138827000Y-55326250D01*
X138971111Y-55470361D01*
X138798102Y-55504774D01*
X138609744Y-55582795D01*
X138440226Y-55696063D01*
X138296063Y-55840226D01*
X138182795Y-56009744D01*
X138104774Y-56198102D01*
X138065000Y-56398061D01*
X138065000Y-56601939D01*
X138104774Y-56801898D01*
X138182795Y-56990256D01*
X138296063Y-57159774D01*
X138440226Y-57303937D01*
X138609744Y-57417205D01*
X138798102Y-57495226D01*
X138998061Y-57535000D01*
X139201939Y-57535000D01*
X139401898Y-57495226D01*
X139590256Y-57417205D01*
X139759774Y-57303937D01*
X139803711Y-57260000D01*
X140345680Y-57260000D01*
X140347971Y-57260226D01*
X139293196Y-58315001D01*
X135745931Y-58315001D01*
X135783513Y-58191111D01*
X135812185Y-57900000D01*
X135783513Y-57608889D01*
X135698599Y-57328966D01*
X135560706Y-57070986D01*
X135375134Y-56844866D01*
X135149014Y-56659294D01*
X134891034Y-56521401D01*
X134611111Y-56436487D01*
X134392950Y-56415000D01*
X134247050Y-56415000D01*
X134028889Y-56436487D01*
X133748966Y-56521401D01*
X133490986Y-56659294D01*
X133264866Y-56844866D01*
X133079294Y-57070986D01*
X133050000Y-57125791D01*
X133020706Y-57070986D01*
X132835134Y-56844866D01*
X132609014Y-56659294D01*
X132351034Y-56521401D01*
X132071111Y-56436487D01*
X131852950Y-56415000D01*
X131707050Y-56415000D01*
X131488889Y-56436487D01*
X131208966Y-56521401D01*
X130950986Y-56659294D01*
X130724866Y-56844866D01*
X130539294Y-57070986D01*
X130504799Y-57135523D01*
X130435178Y-57018645D01*
X130240269Y-56802412D01*
X130006920Y-56628359D01*
X129744099Y-56503175D01*
X129596890Y-56458524D01*
X129367000Y-56579845D01*
X129367000Y-57773000D01*
X129387000Y-57773000D01*
X129387000Y-58027000D01*
X129367000Y-58027000D01*
X129367000Y-58047000D01*
X129113000Y-58047000D01*
X129113000Y-58027000D01*
X129093000Y-58027000D01*
X129093000Y-57773000D01*
X129113000Y-57773000D01*
X129113000Y-56579845D01*
X128883110Y-56458524D01*
X128735901Y-56503175D01*
X128473080Y-56628359D01*
X128253046Y-56792481D01*
X128245545Y-56767754D01*
X128174973Y-56635725D01*
X128080000Y-56520000D01*
X127964275Y-56425027D01*
X127832246Y-56354455D01*
X127688985Y-56310998D01*
X127539999Y-56296324D01*
X127460000Y-56304203D01*
X127460000Y-54850000D01*
X137411928Y-54850000D01*
X137424188Y-54974482D01*
X137460498Y-55094180D01*
X137519463Y-55204494D01*
X137598815Y-55301185D01*
X137695506Y-55380537D01*
X137805820Y-55439502D01*
X137925518Y-55475812D01*
X138050000Y-55488072D01*
X138414250Y-55485000D01*
X138573000Y-55326250D01*
X138573000Y-54327000D01*
X137573750Y-54327000D01*
X137415000Y-54485750D01*
X137411928Y-54850000D01*
X127460000Y-54850000D01*
X127460000Y-53514802D01*
X127854802Y-53120000D01*
X132121808Y-53120000D01*
X132159130Y-53123676D01*
X132196452Y-53120000D01*
X132196463Y-53120000D01*
X132308116Y-53109003D01*
X132451377Y-53065546D01*
X132583406Y-52994974D01*
X132699131Y-52900001D01*
X132722934Y-52870997D01*
X138511003Y-47082929D01*
X138540001Y-47059131D01*
X138634974Y-46943406D01*
X138705546Y-46811377D01*
X138749003Y-46668116D01*
X138760000Y-46556463D01*
X138763677Y-46519130D01*
X138760000Y-46481797D01*
X138760000Y-45103711D01*
X138803937Y-45059774D01*
X138917205Y-44890256D01*
X138995226Y-44701898D01*
X139035000Y-44501939D01*
X139035000Y-44298061D01*
X138995226Y-44098102D01*
X138917205Y-43909744D01*
X138803937Y-43740226D01*
X138659774Y-43596063D01*
X138490256Y-43482795D01*
X138301898Y-43404774D01*
X138101939Y-43365000D01*
X137898061Y-43365000D01*
X137698102Y-43404774D01*
X137509744Y-43482795D01*
X137340226Y-43596063D01*
X137196063Y-43740226D01*
X137082795Y-43909744D01*
X137004774Y-44098102D01*
X136965000Y-44298061D01*
X136965000Y-44501939D01*
X137004774Y-44701898D01*
X137082795Y-44890256D01*
X137196063Y-45059774D01*
X137240000Y-45103711D01*
X137240001Y-46204327D01*
X136505722Y-46938606D01*
X136412069Y-46763394D01*
X136224797Y-46535203D01*
X135996606Y-46347931D01*
X135963060Y-46330000D01*
X135996606Y-46312069D01*
X136224797Y-46124797D01*
X136412069Y-45896606D01*
X136551225Y-45636264D01*
X136636916Y-45353777D01*
X136665851Y-45060000D01*
X136636916Y-44766223D01*
X136551225Y-44483736D01*
X136412069Y-44223394D01*
X136224797Y-43995203D01*
X135996606Y-43807931D01*
X135736264Y-43668775D01*
X135453777Y-43583084D01*
X135233619Y-43561400D01*
X135086381Y-43561400D01*
X134866223Y-43583084D01*
X134583736Y-43668775D01*
X134323394Y-43807931D01*
X134095203Y-43995203D01*
X133907931Y-44223394D01*
X133890000Y-44256940D01*
X133872069Y-44223394D01*
X133684797Y-43995203D01*
X133456606Y-43807931D01*
X133196264Y-43668775D01*
X132913777Y-43583084D01*
X132693619Y-43561400D01*
X132546381Y-43561400D01*
X132326223Y-43583084D01*
X132043736Y-43668775D01*
X131783394Y-43807931D01*
X131555203Y-43995203D01*
X131367931Y-44223394D01*
X131350000Y-44256940D01*
X131332069Y-44223394D01*
X131144797Y-43995203D01*
X130916606Y-43807931D01*
X130656264Y-43668775D01*
X130373777Y-43583084D01*
X130153619Y-43561400D01*
X130006381Y-43561400D01*
X129786223Y-43583084D01*
X129503736Y-43668775D01*
X129243394Y-43807931D01*
X129015203Y-43995203D01*
X128827931Y-44223394D01*
X128810000Y-44256940D01*
X128792069Y-44223394D01*
X128604797Y-43995203D01*
X128376606Y-43807931D01*
X128116264Y-43668775D01*
X127833777Y-43583084D01*
X127613619Y-43561400D01*
X127466381Y-43561400D01*
X127246223Y-43583084D01*
X126963736Y-43668775D01*
X126703394Y-43807931D01*
X126475203Y-43995203D01*
X126287931Y-44223394D01*
X126264137Y-44267910D01*
X126206817Y-44171512D01*
X126010293Y-43953146D01*
X125774944Y-43777316D01*
X125509814Y-43650778D01*
X125359026Y-43605042D01*
X125127000Y-43726183D01*
X125127000Y-44933000D01*
X125147000Y-44933000D01*
X125147000Y-45187000D01*
X125127000Y-45187000D01*
X125127000Y-45207000D01*
X124873000Y-45207000D01*
X124873000Y-45187000D01*
X123665536Y-45187000D01*
X123545037Y-45419027D01*
X123640484Y-45688765D01*
X123584152Y-45705853D01*
X123452123Y-45776425D01*
X123336398Y-45871398D01*
X123312595Y-45900402D01*
X123300397Y-45912600D01*
X123271399Y-45936398D01*
X123247601Y-45965396D01*
X123247600Y-45965397D01*
X123176425Y-46052123D01*
X123105853Y-46184153D01*
X123091036Y-46233000D01*
X123062397Y-46327413D01*
X123055857Y-46393817D01*
X123047723Y-46476399D01*
X123051400Y-46513731D01*
X123051399Y-52713799D01*
X122836322Y-52928876D01*
X122766561Y-52915000D01*
X122655000Y-52915000D01*
X122655000Y-52803439D01*
X122605619Y-52555179D01*
X122508753Y-52321324D01*
X122368125Y-52110860D01*
X122189140Y-51931875D01*
X121978676Y-51791247D01*
X121744821Y-51694381D01*
X121496561Y-51645000D01*
X121243439Y-51645000D01*
X120995179Y-51694381D01*
X120761324Y-51791247D01*
X120550860Y-51931875D01*
X120371875Y-52110860D01*
X120231247Y-52321324D01*
X120134381Y-52555179D01*
X120085000Y-52803439D01*
X120085000Y-52915000D01*
X119972998Y-52915000D01*
X119972998Y-53073748D01*
X119814250Y-52915000D01*
X119450000Y-52911928D01*
X119325518Y-52924188D01*
X119205820Y-52960498D01*
X119095506Y-53019463D01*
X118998815Y-53098815D01*
X118919463Y-53195506D01*
X118860498Y-53305820D01*
X118824188Y-53425518D01*
X118811928Y-53550000D01*
X118815000Y-53914250D01*
X118973750Y-54073000D01*
X119973000Y-54073000D01*
X119973000Y-54053000D01*
X120227000Y-54053000D01*
X120227000Y-54073000D01*
X120247000Y-54073000D01*
X120247000Y-54327000D01*
X120227000Y-54327000D01*
X120227000Y-54347000D01*
X119973000Y-54347000D01*
X119973000Y-54327000D01*
X118973750Y-54327000D01*
X118815000Y-54485750D01*
X118811928Y-54850000D01*
X118824188Y-54974482D01*
X118860498Y-55094180D01*
X118919463Y-55204494D01*
X118998815Y-55301185D01*
X119095506Y-55380537D01*
X119205820Y-55439502D01*
X119207458Y-55439999D01*
X118035000Y-55439999D01*
X118035000Y-55368514D01*
X117983696Y-55110595D01*
X117883061Y-54867641D01*
X117736962Y-54648987D01*
X117551013Y-54463038D01*
X117332359Y-54316939D01*
X117089405Y-54216304D01*
X116831486Y-54165000D01*
X116568514Y-54165000D01*
X116434999Y-54191558D01*
X116434999Y-53731172D01*
X117031004Y-53135168D01*
X117060001Y-53111371D01*
X117101137Y-53061247D01*
X117154974Y-52995647D01*
X117225546Y-52863617D01*
X117231594Y-52843678D01*
X117269003Y-52720356D01*
X117274573Y-52663802D01*
X117321101Y-52638932D01*
X117539608Y-52459608D01*
X117718932Y-52241101D01*
X117852182Y-51991808D01*
X117934236Y-51721309D01*
X117961943Y-51440000D01*
X117934236Y-51158691D01*
X117852182Y-50888192D01*
X117718932Y-50638899D01*
X117539608Y-50420392D01*
X117321101Y-50241068D01*
X117280000Y-50219099D01*
X117280000Y-50120901D01*
X117321101Y-50098932D01*
X117539608Y-49919608D01*
X117718932Y-49701101D01*
X117852182Y-49451808D01*
X117934236Y-49181309D01*
X117961943Y-48900000D01*
X117934236Y-48618691D01*
X117852182Y-48348192D01*
X117718932Y-48098899D01*
X117539608Y-47880392D01*
X117321101Y-47701068D01*
X117183318Y-47627421D01*
X117375131Y-47512385D01*
X117583519Y-47323414D01*
X117751037Y-47097420D01*
X117871246Y-46843087D01*
X117911904Y-46709039D01*
X117789915Y-46487000D01*
X116647000Y-46487000D01*
X116647000Y-46507000D01*
X116393000Y-46507000D01*
X116393000Y-46487000D01*
X115250085Y-46487000D01*
X115128096Y-46709039D01*
X115168754Y-46843087D01*
X115288963Y-47097420D01*
X115456481Y-47323414D01*
X115664869Y-47512385D01*
X115856682Y-47627421D01*
X115718899Y-47701068D01*
X115500392Y-47880392D01*
X115321068Y-48098899D01*
X115187818Y-48348192D01*
X115105764Y-48618691D01*
X115078057Y-48900000D01*
X115105764Y-49181309D01*
X115187818Y-49451808D01*
X115321068Y-49701101D01*
X115500392Y-49919608D01*
X115718899Y-50098932D01*
X115760000Y-50120901D01*
X115760000Y-50219099D01*
X115718899Y-50241068D01*
X115500392Y-50420392D01*
X115321068Y-50638899D01*
X115187818Y-50888192D01*
X115105764Y-51158691D01*
X115078057Y-51440000D01*
X115105764Y-51721309D01*
X115187818Y-51991808D01*
X115321068Y-52241101D01*
X115500392Y-52459608D01*
X115531462Y-52485107D01*
X115164001Y-52852568D01*
X115134998Y-52876370D01*
X115095755Y-52924188D01*
X115040025Y-52992095D01*
X114977536Y-53109003D01*
X114969453Y-53124125D01*
X114925996Y-53267386D01*
X114914999Y-53379039D01*
X114914999Y-53379049D01*
X114911323Y-53416371D01*
X114914999Y-53453694D01*
X114915000Y-55954669D01*
X114911323Y-55992001D01*
X114915000Y-56029334D01*
X114925997Y-56140987D01*
X114930552Y-56156004D01*
X114969453Y-56284247D01*
X115040025Y-56416277D01*
X115109575Y-56501023D01*
X115134999Y-56532002D01*
X115163997Y-56555800D01*
X115769207Y-57161011D01*
X115793006Y-57190010D01*
X115908731Y-57284983D01*
X116040760Y-57355555D01*
X116184021Y-57399012D01*
X116295674Y-57410009D01*
X116295684Y-57410009D01*
X116333007Y-57413685D01*
X116370330Y-57410009D01*
X120585206Y-57410009D01*
X122761200Y-59586004D01*
X122784998Y-59615002D01*
X122813996Y-59638800D01*
X122900723Y-59709975D01*
X123032752Y-59780547D01*
X123176013Y-59824004D01*
X123324999Y-59838678D01*
X123362332Y-59835001D01*
X139570675Y-59835001D01*
X139607997Y-59838677D01*
X139645319Y-59835001D01*
X139645330Y-59835001D01*
X139756983Y-59824004D01*
X139900244Y-59780547D01*
X140032273Y-59709975D01*
X140147998Y-59615002D01*
X140171801Y-59585998D01*
X143760398Y-55997401D01*
X143863038Y-56151013D01*
X144048987Y-56336962D01*
X144267641Y-56483061D01*
X144510595Y-56583696D01*
X144768514Y-56635000D01*
X145031486Y-56635000D01*
X145289405Y-56583696D01*
X145532359Y-56483061D01*
X145751013Y-56336962D01*
X145936962Y-56151013D01*
X146083061Y-55932359D01*
X146183696Y-55689405D01*
X146235000Y-55431486D01*
X146235000Y-55168514D01*
X146183696Y-54910595D01*
X146083061Y-54667641D01*
X145936962Y-54448987D01*
X145751013Y-54263038D01*
X145597401Y-54160399D01*
X151234787Y-48523014D01*
X151205764Y-48618691D01*
X151178057Y-48900000D01*
X151205764Y-49181309D01*
X151287818Y-49451808D01*
X151421068Y-49701101D01*
X151600392Y-49919608D01*
X151818899Y-50098932D01*
X151951858Y-50170000D01*
X151818899Y-50241068D01*
X151600392Y-50420392D01*
X151421068Y-50638899D01*
X151287818Y-50888192D01*
X151205764Y-51158691D01*
X151178057Y-51440000D01*
X151205764Y-51721309D01*
X151287818Y-51991808D01*
X151421068Y-52241101D01*
X151600392Y-52459608D01*
X151818899Y-52638932D01*
X151944261Y-52705939D01*
X146610201Y-58040000D01*
X145983298Y-58040000D01*
X145828555Y-57851445D01*
X145625275Y-57684618D01*
X145393354Y-57560653D01*
X145141706Y-57484317D01*
X144945579Y-57465000D01*
X144814421Y-57465000D01*
X144618294Y-57484317D01*
X144366646Y-57560653D01*
X144134725Y-57684618D01*
X143931445Y-57851445D01*
X143764618Y-58054725D01*
X143640653Y-58286646D01*
X143564317Y-58538294D01*
X143538541Y-58800000D01*
X143564317Y-59061706D01*
X143640653Y-59313354D01*
X143764618Y-59545275D01*
X143931445Y-59748555D01*
X144134725Y-59915382D01*
X144366646Y-60039347D01*
X144618294Y-60115683D01*
X144814421Y-60135000D01*
X144945579Y-60135000D01*
X145141706Y-60115683D01*
X145393354Y-60039347D01*
X145625275Y-59915382D01*
X145828555Y-59748555D01*
X145983298Y-59560000D01*
X146887680Y-59560000D01*
X146925002Y-59563676D01*
X146962324Y-59560000D01*
X146962335Y-59560000D01*
X147073988Y-59549003D01*
X147217249Y-59505546D01*
X147349278Y-59434974D01*
X147465003Y-59340001D01*
X147488806Y-59310997D01*
X151212179Y-55587624D01*
X151280653Y-55813354D01*
X151404618Y-56045275D01*
X151571445Y-56248555D01*
X151774725Y-56415382D01*
X152006646Y-56539347D01*
X152258294Y-56615683D01*
X152454421Y-56635000D01*
X152585579Y-56635000D01*
X152781706Y-56615683D01*
X152821625Y-56603574D01*
X152410200Y-57014999D01*
X151012326Y-57014999D01*
X150975001Y-57011323D01*
X150937676Y-57014999D01*
X150937668Y-57014999D01*
X150826015Y-57025996D01*
X150682754Y-57069453D01*
X150550725Y-57140025D01*
X150435000Y-57234998D01*
X150411202Y-57263996D01*
X147075906Y-60599292D01*
X147031309Y-60585764D01*
X146820492Y-60565000D01*
X146679508Y-60565000D01*
X146468691Y-60585764D01*
X146198192Y-60667818D01*
X145948899Y-60801068D01*
X145730392Y-60980392D01*
X145551068Y-61198899D01*
X145480000Y-61331858D01*
X145408932Y-61198899D01*
X145229608Y-60980392D01*
X145011101Y-60801068D01*
X144761808Y-60667818D01*
X144491309Y-60585764D01*
X144280492Y-60565000D01*
X144139508Y-60565000D01*
X143928691Y-60585764D01*
X143658192Y-60667818D01*
X143408899Y-60801068D01*
X143190392Y-60980392D01*
X143011068Y-61198899D01*
X142940000Y-61331858D01*
X142868932Y-61198899D01*
X142689608Y-60980392D01*
X142471101Y-60801068D01*
X142221808Y-60667818D01*
X141951309Y-60585764D01*
X141740492Y-60565000D01*
X141599508Y-60565000D01*
X141388691Y-60585764D01*
X141118192Y-60667818D01*
X140868899Y-60801068D01*
X140650392Y-60980392D01*
X140471068Y-61198899D01*
X140400000Y-61331858D01*
X140328932Y-61198899D01*
X140149608Y-60980392D01*
X139931101Y-60801068D01*
X139681808Y-60667818D01*
X139411309Y-60585764D01*
X139200492Y-60565000D01*
X139059508Y-60565000D01*
X138848691Y-60585764D01*
X138804093Y-60599292D01*
X138568803Y-60364002D01*
X138545000Y-60334998D01*
X138429275Y-60240025D01*
X138297246Y-60169453D01*
X138153985Y-60125996D01*
X138042332Y-60114999D01*
X138042321Y-60114999D01*
X138004999Y-60111323D01*
X137967677Y-60114999D01*
X120301213Y-60114999D01*
X118575216Y-58389003D01*
X118551413Y-58359999D01*
X118435688Y-58265026D01*
X118303659Y-58194454D01*
X118160398Y-58150997D01*
X118048745Y-58140000D01*
X118048734Y-58140000D01*
X118011412Y-58136324D01*
X117974090Y-58140000D01*
X117797775Y-58140000D01*
X117736962Y-58048987D01*
X117551013Y-57863038D01*
X117332359Y-57716939D01*
X117089405Y-57616304D01*
X116831486Y-57565000D01*
X116568514Y-57565000D01*
X116310595Y-57616304D01*
X116067641Y-57716939D01*
X115848987Y-57863038D01*
X115663038Y-58048987D01*
X115516939Y-58267641D01*
X115416304Y-58510595D01*
X115365000Y-58768514D01*
X115365000Y-59031486D01*
X115416304Y-59289405D01*
X115516939Y-59532359D01*
X115663038Y-59751013D01*
X115848987Y-59936962D01*
X116067641Y-60083061D01*
X116144746Y-60114999D01*
X110687332Y-60114999D01*
X110649999Y-60111322D01*
X110612666Y-60114999D01*
X110501013Y-60125996D01*
X110357752Y-60169453D01*
X110225723Y-60240025D01*
X110109998Y-60334998D01*
X110086200Y-60363996D01*
X107814002Y-62636195D01*
X107784998Y-62659998D01*
X107747619Y-62705545D01*
X107690025Y-62775723D01*
X107647580Y-62855131D01*
X107619453Y-62907753D01*
X107575996Y-63051014D01*
X107564999Y-63162667D01*
X107564999Y-63162677D01*
X107561323Y-63199999D01*
X107564999Y-63237322D01*
X107565000Y-63913789D01*
X107363992Y-64114797D01*
X107334988Y-64138600D01*
X107284600Y-64199999D01*
X107240015Y-64254325D01*
X107189418Y-64348985D01*
X107169443Y-64386355D01*
X107125986Y-64529616D01*
X107114989Y-64641269D01*
X107114989Y-64641279D01*
X107111313Y-64678601D01*
X107114989Y-64715923D01*
X107114990Y-85937656D01*
X107111313Y-85974989D01*
X107114990Y-86012322D01*
X107125987Y-86123975D01*
X107139169Y-86167431D01*
X107169443Y-86267235D01*
X107240015Y-86399265D01*
X107288017Y-86457755D01*
X107334989Y-86514990D01*
X107363986Y-86538788D01*
X108059203Y-87234006D01*
X108036487Y-87308889D01*
X108007815Y-87600000D01*
X108036487Y-87891111D01*
X108121401Y-88171034D01*
X108259294Y-88429014D01*
X108444866Y-88655134D01*
X108474687Y-88679607D01*
X108405820Y-88700498D01*
X108295506Y-88759463D01*
X108198815Y-88838815D01*
X108119463Y-88935506D01*
X108060498Y-89045820D01*
X108024188Y-89165518D01*
X108011928Y-89290000D01*
X108011928Y-90990000D01*
X108024188Y-91114482D01*
X108060498Y-91234180D01*
X108119463Y-91344494D01*
X108198815Y-91441185D01*
X108295506Y-91520537D01*
X108405820Y-91579502D01*
X108525518Y-91615812D01*
X108650000Y-91628072D01*
X110350000Y-91628072D01*
X110474482Y-91615812D01*
X110594180Y-91579502D01*
X110704494Y-91520537D01*
X110801185Y-91441185D01*
X110880537Y-91344494D01*
X110939502Y-91234180D01*
X110975812Y-91114482D01*
X110988072Y-90990000D01*
X110988072Y-89290000D01*
X110975812Y-89165518D01*
X110939502Y-89045820D01*
X110880537Y-88935506D01*
X110801185Y-88838815D01*
X110704494Y-88759463D01*
X110594180Y-88700498D01*
X110525313Y-88679607D01*
X110555134Y-88655134D01*
X110740706Y-88429014D01*
X110878599Y-88171034D01*
X110963513Y-87891111D01*
X110992185Y-87600000D01*
X110963513Y-87308889D01*
X110878599Y-87028966D01*
X110740706Y-86770986D01*
X110555134Y-86544866D01*
X110329014Y-86359294D01*
X110264477Y-86324799D01*
X110381355Y-86255178D01*
X110597588Y-86060269D01*
X110771641Y-85826920D01*
X110896825Y-85564099D01*
X110941476Y-85416890D01*
X110820155Y-85187000D01*
X109627000Y-85187000D01*
X109627000Y-85207000D01*
X109373000Y-85207000D01*
X109373000Y-85187000D01*
X109353000Y-85187000D01*
X109353000Y-84933000D01*
X109373000Y-84933000D01*
X109373000Y-84913000D01*
X109627000Y-84913000D01*
X109627000Y-84933000D01*
X110820155Y-84933000D01*
X110941476Y-84703110D01*
X110896825Y-84555901D01*
X110794216Y-84340475D01*
X115505000Y-84340475D01*
X115505000Y-84859525D01*
X115606261Y-85368601D01*
X115804893Y-85848141D01*
X116093262Y-86279715D01*
X116460285Y-86646738D01*
X116891859Y-86935107D01*
X117371399Y-87133739D01*
X117880475Y-87235000D01*
X118399525Y-87235000D01*
X118908601Y-87133739D01*
X119234698Y-86998665D01*
X125050000Y-86998665D01*
X125050000Y-87281335D01*
X125105147Y-87558574D01*
X125213320Y-87819727D01*
X125370363Y-88054759D01*
X125570241Y-88254637D01*
X125805273Y-88411680D01*
X126066426Y-88519853D01*
X126343665Y-88575000D01*
X126626335Y-88575000D01*
X126903574Y-88519853D01*
X127164727Y-88411680D01*
X127399759Y-88254637D01*
X127599637Y-88054759D01*
X127756680Y-87819727D01*
X127864853Y-87558574D01*
X127870000Y-87532699D01*
X127875147Y-87558574D01*
X127983320Y-87819727D01*
X128140363Y-88054759D01*
X128340241Y-88254637D01*
X128575273Y-88411680D01*
X128836426Y-88519853D01*
X129113665Y-88575000D01*
X129396335Y-88575000D01*
X129673574Y-88519853D01*
X129934727Y-88411680D01*
X130169759Y-88254637D01*
X130369637Y-88054759D01*
X130526680Y-87819727D01*
X130634853Y-87558574D01*
X130640000Y-87532699D01*
X130645147Y-87558574D01*
X130753320Y-87819727D01*
X130910363Y-88054759D01*
X131110241Y-88254637D01*
X131345273Y-88411680D01*
X131606426Y-88519853D01*
X131883665Y-88575000D01*
X132166335Y-88575000D01*
X132443574Y-88519853D01*
X132704727Y-88411680D01*
X132939759Y-88254637D01*
X133139637Y-88054759D01*
X133296680Y-87819727D01*
X133404853Y-87558574D01*
X133410000Y-87532699D01*
X133415147Y-87558574D01*
X133523320Y-87819727D01*
X133680363Y-88054759D01*
X133880241Y-88254637D01*
X134115273Y-88411680D01*
X134376426Y-88519853D01*
X134653665Y-88575000D01*
X134936335Y-88575000D01*
X135213574Y-88519853D01*
X135474727Y-88411680D01*
X135709759Y-88254637D01*
X135909637Y-88054759D01*
X136066680Y-87819727D01*
X136174853Y-87558574D01*
X136230000Y-87281335D01*
X136230000Y-86998665D01*
X136174853Y-86721426D01*
X136066680Y-86460273D01*
X135909637Y-86225241D01*
X135709759Y-86025363D01*
X135474727Y-85868320D01*
X135213574Y-85760147D01*
X134936335Y-85705000D01*
X134653665Y-85705000D01*
X134376426Y-85760147D01*
X134115273Y-85868320D01*
X133880241Y-86025363D01*
X133680363Y-86225241D01*
X133523320Y-86460273D01*
X133415147Y-86721426D01*
X133410000Y-86747301D01*
X133404853Y-86721426D01*
X133296680Y-86460273D01*
X133139637Y-86225241D01*
X132939759Y-86025363D01*
X132704727Y-85868320D01*
X132443574Y-85760147D01*
X132166335Y-85705000D01*
X131883665Y-85705000D01*
X131606426Y-85760147D01*
X131345273Y-85868320D01*
X131110241Y-86025363D01*
X130910363Y-86225241D01*
X130753320Y-86460273D01*
X130645147Y-86721426D01*
X130640000Y-86747301D01*
X130634853Y-86721426D01*
X130526680Y-86460273D01*
X130369637Y-86225241D01*
X130169759Y-86025363D01*
X129934727Y-85868320D01*
X129673574Y-85760147D01*
X129396335Y-85705000D01*
X129113665Y-85705000D01*
X128836426Y-85760147D01*
X128575273Y-85868320D01*
X128340241Y-86025363D01*
X128140363Y-86225241D01*
X127983320Y-86460273D01*
X127875147Y-86721426D01*
X127870000Y-86747301D01*
X127864853Y-86721426D01*
X127756680Y-86460273D01*
X127599637Y-86225241D01*
X127399759Y-86025363D01*
X127164727Y-85868320D01*
X126903574Y-85760147D01*
X126626335Y-85705000D01*
X126343665Y-85705000D01*
X126066426Y-85760147D01*
X125805273Y-85868320D01*
X125570241Y-86025363D01*
X125370363Y-86225241D01*
X125213320Y-86460273D01*
X125105147Y-86721426D01*
X125050000Y-86998665D01*
X119234698Y-86998665D01*
X119388141Y-86935107D01*
X119819715Y-86646738D01*
X120186738Y-86279715D01*
X120475107Y-85848141D01*
X120673739Y-85368601D01*
X120775000Y-84859525D01*
X120775000Y-84340475D01*
X120673739Y-83831399D01*
X120475107Y-83351859D01*
X120186738Y-82920285D01*
X119819715Y-82553262D01*
X119388141Y-82264893D01*
X118908601Y-82066261D01*
X118399525Y-81965000D01*
X117880475Y-81965000D01*
X117371399Y-82066261D01*
X116891859Y-82264893D01*
X116460285Y-82553262D01*
X116093262Y-82920285D01*
X115804893Y-83351859D01*
X115606261Y-83831399D01*
X115505000Y-84340475D01*
X110794216Y-84340475D01*
X110771641Y-84293080D01*
X110597588Y-84059731D01*
X110381355Y-83864822D01*
X110264477Y-83795201D01*
X110329014Y-83760706D01*
X110555134Y-83575134D01*
X110740706Y-83349014D01*
X110878599Y-83091034D01*
X110963513Y-82811111D01*
X110992185Y-82520000D01*
X110963513Y-82228889D01*
X110878599Y-81948966D01*
X110740706Y-81690986D01*
X110555134Y-81464866D01*
X110329014Y-81279294D01*
X110071034Y-81141401D01*
X109791111Y-81056487D01*
X109572950Y-81035000D01*
X109427050Y-81035000D01*
X109208889Y-81056487D01*
X108928966Y-81141401D01*
X108670986Y-81279294D01*
X108634989Y-81308836D01*
X108634989Y-64993402D01*
X108835996Y-64792395D01*
X108865000Y-64768592D01*
X108959973Y-64652867D01*
X109030545Y-64520838D01*
X109074002Y-64377577D01*
X109084999Y-64265924D01*
X109084999Y-64265915D01*
X109088675Y-64228592D01*
X109084999Y-64191269D01*
X109084999Y-63514800D01*
X109927791Y-62672009D01*
X110037615Y-62855131D01*
X110226586Y-63063519D01*
X110452580Y-63231037D01*
X110706913Y-63351246D01*
X110840961Y-63391904D01*
X111063000Y-63269915D01*
X111063000Y-62127000D01*
X111043000Y-62127000D01*
X111043000Y-61873000D01*
X111063000Y-61873000D01*
X111063000Y-61853000D01*
X111317000Y-61853000D01*
X111317000Y-61873000D01*
X111337000Y-61873000D01*
X111337000Y-62127000D01*
X111317000Y-62127000D01*
X111317000Y-63269915D01*
X111539039Y-63391904D01*
X111673087Y-63351246D01*
X111927420Y-63231037D01*
X112153414Y-63063519D01*
X112170001Y-63045228D01*
X112170002Y-71322669D01*
X112166325Y-71360001D01*
X112180999Y-71508986D01*
X112224455Y-71652247D01*
X112295027Y-71784277D01*
X112366202Y-71871003D01*
X112390001Y-71900002D01*
X112418999Y-71923800D01*
X116300198Y-75805000D01*
X116199508Y-75805000D01*
X115988691Y-75825764D01*
X115718192Y-75907818D01*
X115468899Y-76041068D01*
X115250392Y-76220392D01*
X115071068Y-76438899D01*
X115000000Y-76571858D01*
X114928932Y-76438899D01*
X114749608Y-76220392D01*
X114531101Y-76041068D01*
X114281808Y-75907818D01*
X114011309Y-75825764D01*
X113800492Y-75805000D01*
X113659508Y-75805000D01*
X113448691Y-75825764D01*
X113178192Y-75907818D01*
X112928899Y-76041068D01*
X112710392Y-76220392D01*
X112617581Y-76333482D01*
X112615812Y-76315518D01*
X112579502Y-76195820D01*
X112520537Y-76085506D01*
X112441185Y-75988815D01*
X112344494Y-75909463D01*
X112234180Y-75850498D01*
X112114482Y-75814188D01*
X111990000Y-75801928D01*
X110390000Y-75801928D01*
X110265518Y-75814188D01*
X110145820Y-75850498D01*
X110035506Y-75909463D01*
X109938815Y-75988815D01*
X109859463Y-76085506D01*
X109800498Y-76195820D01*
X109764188Y-76315518D01*
X109751928Y-76440000D01*
X109751928Y-78040000D01*
X109764188Y-78164482D01*
X109800498Y-78284180D01*
X109859463Y-78394494D01*
X109938815Y-78491185D01*
X110035506Y-78570537D01*
X110145820Y-78629502D01*
X110265518Y-78665812D01*
X110390000Y-78678072D01*
X111990000Y-78678072D01*
X112114482Y-78665812D01*
X112234180Y-78629502D01*
X112344494Y-78570537D01*
X112441185Y-78491185D01*
X112520537Y-78394494D01*
X112579502Y-78284180D01*
X112615812Y-78164482D01*
X112617581Y-78146518D01*
X112710392Y-78259608D01*
X112928899Y-78438932D01*
X113178192Y-78572182D01*
X113448691Y-78654236D01*
X113659508Y-78675000D01*
X113800492Y-78675000D01*
X114011309Y-78654236D01*
X114281808Y-78572182D01*
X114531101Y-78438932D01*
X114749608Y-78259608D01*
X114928932Y-78041101D01*
X115000000Y-77908142D01*
X115071068Y-78041101D01*
X115250392Y-78259608D01*
X115468899Y-78438932D01*
X115718192Y-78572182D01*
X115988691Y-78654236D01*
X116199508Y-78675000D01*
X116340492Y-78675000D01*
X116551309Y-78654236D01*
X116821808Y-78572182D01*
X117071101Y-78438932D01*
X117289608Y-78259608D01*
X117468932Y-78041101D01*
X117540000Y-77908142D01*
X117611068Y-78041101D01*
X117790392Y-78259608D01*
X118008899Y-78438932D01*
X118258192Y-78572182D01*
X118528691Y-78654236D01*
X118739508Y-78675000D01*
X118880492Y-78675000D01*
X119091309Y-78654236D01*
X119361808Y-78572182D01*
X119611101Y-78438932D01*
X119829608Y-78259608D01*
X120008932Y-78041101D01*
X120080000Y-77908142D01*
X120151068Y-78041101D01*
X120330392Y-78259608D01*
X120548899Y-78438932D01*
X120798192Y-78572182D01*
X121068691Y-78654236D01*
X121279508Y-78675000D01*
X121420492Y-78675000D01*
X121631309Y-78654236D01*
X121901808Y-78572182D01*
X122151101Y-78438932D01*
X122369608Y-78259608D01*
X122548932Y-78041101D01*
X122620000Y-77908142D01*
X122691068Y-78041101D01*
X122870392Y-78259608D01*
X123088899Y-78438932D01*
X123338192Y-78572182D01*
X123608691Y-78654236D01*
X123819508Y-78675000D01*
X123960492Y-78675000D01*
X124171309Y-78654236D01*
X124441808Y-78572182D01*
X124691101Y-78438932D01*
X124909608Y-78259608D01*
X125088932Y-78041101D01*
X125160000Y-77908142D01*
X125231068Y-78041101D01*
X125410392Y-78259608D01*
X125628899Y-78438932D01*
X125670000Y-78460901D01*
X125670001Y-80209668D01*
X125666324Y-80247000D01*
X125680998Y-80395985D01*
X125724454Y-80539246D01*
X125795026Y-80671276D01*
X125837103Y-80722546D01*
X125890000Y-80787001D01*
X125918998Y-80810799D01*
X127973198Y-82865000D01*
X127728665Y-82865000D01*
X127451426Y-82920147D01*
X127190273Y-83028320D01*
X126955241Y-83185363D01*
X126755363Y-83385241D01*
X126598320Y-83620273D01*
X126538072Y-83765725D01*
X126538072Y-83500000D01*
X126525812Y-83375518D01*
X126489502Y-83255820D01*
X126430537Y-83145506D01*
X126351185Y-83048815D01*
X126254494Y-82969463D01*
X126144180Y-82910498D01*
X126024482Y-82874188D01*
X125900000Y-82861928D01*
X124300000Y-82861928D01*
X124175518Y-82874188D01*
X124055820Y-82910498D01*
X123945506Y-82969463D01*
X123848815Y-83048815D01*
X123769463Y-83145506D01*
X123710498Y-83255820D01*
X123674188Y-83375518D01*
X123661928Y-83500000D01*
X123661928Y-85100000D01*
X123674188Y-85224482D01*
X123710498Y-85344180D01*
X123769463Y-85454494D01*
X123848815Y-85551185D01*
X123945506Y-85630537D01*
X124055820Y-85689502D01*
X124175518Y-85725812D01*
X124300000Y-85738072D01*
X125900000Y-85738072D01*
X126024482Y-85725812D01*
X126144180Y-85689502D01*
X126254494Y-85630537D01*
X126351185Y-85551185D01*
X126430537Y-85454494D01*
X126489502Y-85344180D01*
X126525812Y-85224482D01*
X126538072Y-85100000D01*
X126538072Y-84834275D01*
X126598320Y-84979727D01*
X126755363Y-85214759D01*
X126955241Y-85414637D01*
X127190273Y-85571680D01*
X127451426Y-85679853D01*
X127728665Y-85735000D01*
X128011335Y-85735000D01*
X128288574Y-85679853D01*
X128549727Y-85571680D01*
X128784759Y-85414637D01*
X128984637Y-85214759D01*
X129141680Y-84979727D01*
X129249853Y-84718574D01*
X129255000Y-84692699D01*
X129260147Y-84718574D01*
X129368320Y-84979727D01*
X129525363Y-85214759D01*
X129725241Y-85414637D01*
X129960273Y-85571680D01*
X130221426Y-85679853D01*
X130498665Y-85735000D01*
X130781335Y-85735000D01*
X131058574Y-85679853D01*
X131319727Y-85571680D01*
X131554759Y-85414637D01*
X131754637Y-85214759D01*
X131911680Y-84979727D01*
X132019853Y-84718574D01*
X132025000Y-84692699D01*
X132030147Y-84718574D01*
X132138320Y-84979727D01*
X132295363Y-85214759D01*
X132495241Y-85414637D01*
X132730273Y-85571680D01*
X132991426Y-85679853D01*
X133268665Y-85735000D01*
X133551335Y-85735000D01*
X133828574Y-85679853D01*
X134089727Y-85571680D01*
X134324759Y-85414637D01*
X134446694Y-85292702D01*
X135366903Y-85292702D01*
X135438486Y-85536671D01*
X135693996Y-85657571D01*
X135968184Y-85726300D01*
X136250512Y-85740217D01*
X136530130Y-85698787D01*
X136796292Y-85603603D01*
X136921514Y-85536671D01*
X136993097Y-85292702D01*
X136180000Y-84479605D01*
X135366903Y-85292702D01*
X134446694Y-85292702D01*
X134524637Y-85214759D01*
X134681680Y-84979727D01*
X134789853Y-84718574D01*
X134795513Y-84690118D01*
X134876397Y-84916292D01*
X134943329Y-85041514D01*
X135187298Y-85113097D01*
X136000395Y-84300000D01*
X136359605Y-84300000D01*
X137172702Y-85113097D01*
X137416671Y-85041514D01*
X137537571Y-84786004D01*
X137606300Y-84511816D01*
X137614746Y-84340475D01*
X140505000Y-84340475D01*
X140505000Y-84859525D01*
X140606261Y-85368601D01*
X140804893Y-85848141D01*
X141093262Y-86279715D01*
X141460285Y-86646738D01*
X141891859Y-86935107D01*
X142371399Y-87133739D01*
X142880475Y-87235000D01*
X143399525Y-87235000D01*
X143908601Y-87133739D01*
X144388141Y-86935107D01*
X144819715Y-86646738D01*
X145186738Y-86279715D01*
X145475107Y-85848141D01*
X145673739Y-85368601D01*
X145775000Y-84859525D01*
X145775000Y-84340475D01*
X145673739Y-83831399D01*
X145475107Y-83351859D01*
X145186738Y-82920285D01*
X144819715Y-82553262D01*
X144388141Y-82264893D01*
X143908601Y-82066261D01*
X143399525Y-81965000D01*
X142880475Y-81965000D01*
X142371399Y-82066261D01*
X141891859Y-82264893D01*
X141460285Y-82553262D01*
X141093262Y-82920285D01*
X140804893Y-83351859D01*
X140606261Y-83831399D01*
X140505000Y-84340475D01*
X137614746Y-84340475D01*
X137620217Y-84229488D01*
X137578787Y-83949870D01*
X137483603Y-83683708D01*
X137416671Y-83558486D01*
X137172702Y-83486903D01*
X136359605Y-84300000D01*
X136000395Y-84300000D01*
X135187298Y-83486903D01*
X134943329Y-83558486D01*
X134822429Y-83813996D01*
X134796788Y-83916289D01*
X134789853Y-83881426D01*
X134681680Y-83620273D01*
X134524637Y-83385241D01*
X134446694Y-83307298D01*
X135366903Y-83307298D01*
X136180000Y-84120395D01*
X136993097Y-83307298D01*
X136921514Y-83063329D01*
X136666004Y-82942429D01*
X136391816Y-82873700D01*
X136109488Y-82859783D01*
X135829870Y-82901213D01*
X135563708Y-82996397D01*
X135438486Y-83063329D01*
X135366903Y-83307298D01*
X134446694Y-83307298D01*
X134324759Y-83185363D01*
X134089727Y-83028320D01*
X133828574Y-82920147D01*
X133551335Y-82865000D01*
X133268665Y-82865000D01*
X132991426Y-82920147D01*
X132960683Y-82932881D01*
X129730000Y-79702199D01*
X129730000Y-78460901D01*
X129771101Y-78438932D01*
X129989608Y-78259608D01*
X130168932Y-78041101D01*
X130240000Y-77908142D01*
X130311068Y-78041101D01*
X130490392Y-78259608D01*
X130708899Y-78438932D01*
X130958192Y-78572182D01*
X131228691Y-78654236D01*
X131439508Y-78675000D01*
X131580492Y-78675000D01*
X131791309Y-78654236D01*
X132061808Y-78572182D01*
X132311101Y-78438932D01*
X132529608Y-78259608D01*
X132708932Y-78041101D01*
X132780000Y-77908142D01*
X132851068Y-78041101D01*
X133030392Y-78259608D01*
X133248899Y-78438932D01*
X133498192Y-78572182D01*
X133768691Y-78654236D01*
X133979508Y-78675000D01*
X134120492Y-78675000D01*
X134331309Y-78654236D01*
X134601808Y-78572182D01*
X134851101Y-78438932D01*
X135069608Y-78259608D01*
X135248932Y-78041101D01*
X135320000Y-77908142D01*
X135391068Y-78041101D01*
X135570392Y-78259608D01*
X135788899Y-78438932D01*
X136038192Y-78572182D01*
X136308691Y-78654236D01*
X136519508Y-78675000D01*
X136660492Y-78675000D01*
X136871309Y-78654236D01*
X137141808Y-78572182D01*
X137391101Y-78438932D01*
X137609608Y-78259608D01*
X137788932Y-78041101D01*
X137860000Y-77908142D01*
X137931068Y-78041101D01*
X138110392Y-78259608D01*
X138328899Y-78438932D01*
X138578192Y-78572182D01*
X138848691Y-78654236D01*
X139059508Y-78675000D01*
X139200492Y-78675000D01*
X139411309Y-78654236D01*
X139681808Y-78572182D01*
X139931101Y-78438932D01*
X140149608Y-78259608D01*
X140328932Y-78041101D01*
X140400000Y-77908142D01*
X140471068Y-78041101D01*
X140650392Y-78259608D01*
X140868899Y-78438932D01*
X141118192Y-78572182D01*
X141388691Y-78654236D01*
X141599508Y-78675000D01*
X141740492Y-78675000D01*
X141951309Y-78654236D01*
X142221808Y-78572182D01*
X142471101Y-78438932D01*
X142689608Y-78259608D01*
X142868932Y-78041101D01*
X142940000Y-77908142D01*
X143011068Y-78041101D01*
X143190392Y-78259608D01*
X143408899Y-78438932D01*
X143658192Y-78572182D01*
X143928691Y-78654236D01*
X144139508Y-78675000D01*
X144280492Y-78675000D01*
X144491309Y-78654236D01*
X144761808Y-78572182D01*
X145011101Y-78438932D01*
X145229608Y-78259608D01*
X145408932Y-78041101D01*
X145480000Y-77908142D01*
X145551068Y-78041101D01*
X145730392Y-78259608D01*
X145948899Y-78438932D01*
X146198192Y-78572182D01*
X146468691Y-78654236D01*
X146679508Y-78675000D01*
X146820492Y-78675000D01*
X147031309Y-78654236D01*
X147301808Y-78572182D01*
X147551101Y-78438932D01*
X147769608Y-78259608D01*
X147948932Y-78041101D01*
X148082182Y-77791808D01*
X148164236Y-77521309D01*
X148191943Y-77240000D01*
X148164236Y-76958691D01*
X148082182Y-76688192D01*
X147948932Y-76438899D01*
X147769608Y-76220392D01*
X147551101Y-76041068D01*
X147301808Y-75907818D01*
X147031309Y-75825764D01*
X146820492Y-75805000D01*
X146679508Y-75805000D01*
X146468691Y-75825764D01*
X146198192Y-75907818D01*
X145948899Y-76041068D01*
X145730392Y-76220392D01*
X145551068Y-76438899D01*
X145480000Y-76571858D01*
X145408932Y-76438899D01*
X145229608Y-76220392D01*
X145011101Y-76041068D01*
X144761808Y-75907818D01*
X144491309Y-75825764D01*
X144280492Y-75805000D01*
X144139508Y-75805000D01*
X143928691Y-75825764D01*
X143658192Y-75907818D01*
X143408899Y-76041068D01*
X143190392Y-76220392D01*
X143011068Y-76438899D01*
X142940000Y-76571858D01*
X142868932Y-76438899D01*
X142689608Y-76220392D01*
X142471101Y-76041068D01*
X142221808Y-75907818D01*
X141951309Y-75825764D01*
X141740492Y-75805000D01*
X141599508Y-75805000D01*
X141388691Y-75825764D01*
X141118192Y-75907818D01*
X140868899Y-76041068D01*
X140650392Y-76220392D01*
X140471068Y-76438899D01*
X140400000Y-76571858D01*
X140328932Y-76438899D01*
X140149608Y-76220392D01*
X139931101Y-76041068D01*
X139681808Y-75907818D01*
X139411309Y-75825764D01*
X139200492Y-75805000D01*
X139059508Y-75805000D01*
X138848691Y-75825764D01*
X138578192Y-75907818D01*
X138328899Y-76041068D01*
X138110392Y-76220392D01*
X137931068Y-76438899D01*
X137860000Y-76571858D01*
X137788932Y-76438899D01*
X137609608Y-76220392D01*
X137391101Y-76041068D01*
X137141808Y-75907818D01*
X136871309Y-75825764D01*
X136660492Y-75805000D01*
X136519508Y-75805000D01*
X136308691Y-75825764D01*
X136038192Y-75907818D01*
X135788899Y-76041068D01*
X135570392Y-76220392D01*
X135391068Y-76438899D01*
X135320000Y-76571858D01*
X135248932Y-76438899D01*
X135069608Y-76220392D01*
X134851101Y-76041068D01*
X134601808Y-75907818D01*
X134331309Y-75825764D01*
X134120492Y-75805000D01*
X133979508Y-75805000D01*
X133768691Y-75825764D01*
X133498192Y-75907818D01*
X133248899Y-76041068D01*
X133030392Y-76220392D01*
X132851068Y-76438899D01*
X132780000Y-76571858D01*
X132708932Y-76438899D01*
X132529608Y-76220392D01*
X132311101Y-76041068D01*
X132061808Y-75907818D01*
X131791309Y-75825764D01*
X131580492Y-75805000D01*
X131439508Y-75805000D01*
X131228691Y-75825764D01*
X130958192Y-75907818D01*
X130708899Y-76041068D01*
X130490392Y-76220392D01*
X130311068Y-76438899D01*
X130240000Y-76571858D01*
X130168932Y-76438899D01*
X129989608Y-76220392D01*
X129771101Y-76041068D01*
X129521808Y-75907818D01*
X129251309Y-75825764D01*
X129040492Y-75805000D01*
X128899508Y-75805000D01*
X128688691Y-75825764D01*
X128418192Y-75907818D01*
X128168899Y-76041068D01*
X127950392Y-76220392D01*
X127771068Y-76438899D01*
X127700000Y-76571858D01*
X127628932Y-76438899D01*
X127449608Y-76220392D01*
X127231101Y-76041068D01*
X126981808Y-75907818D01*
X126711309Y-75825764D01*
X126500492Y-75805000D01*
X126359508Y-75805000D01*
X126148691Y-75825764D01*
X125878192Y-75907818D01*
X125628899Y-76041068D01*
X125410392Y-76220392D01*
X125231068Y-76438899D01*
X125160000Y-76571858D01*
X125088932Y-76438899D01*
X124909608Y-76220392D01*
X124691101Y-76041068D01*
X124441808Y-75907818D01*
X124171309Y-75825764D01*
X123960492Y-75805000D01*
X123819508Y-75805000D01*
X123608691Y-75825764D01*
X123338192Y-75907818D01*
X123088899Y-76041068D01*
X122870392Y-76220392D01*
X122691068Y-76438899D01*
X122620000Y-76571858D01*
X122548932Y-76438899D01*
X122369608Y-76220392D01*
X122151101Y-76041068D01*
X121901808Y-75907818D01*
X121631309Y-75825764D01*
X121420492Y-75805000D01*
X121279508Y-75805000D01*
X121068691Y-75825764D01*
X120798192Y-75907818D01*
X120548899Y-76041068D01*
X120330392Y-76220392D01*
X120151068Y-76438899D01*
X120080000Y-76571858D01*
X120008932Y-76438899D01*
X119829608Y-76220392D01*
X119611101Y-76041068D01*
X119361808Y-75907818D01*
X119091309Y-75825764D01*
X118880492Y-75805000D01*
X118739508Y-75805000D01*
X118528691Y-75825764D01*
X118484094Y-75839292D01*
X113690001Y-71045200D01*
X113690001Y-63435000D01*
X113800492Y-63435000D01*
X114011309Y-63414236D01*
X114281808Y-63332182D01*
X114531101Y-63198932D01*
X114749608Y-63019608D01*
X114928932Y-62801101D01*
X115000000Y-62668142D01*
X115071068Y-62801101D01*
X115250392Y-63019608D01*
X115468899Y-63198932D01*
X115718192Y-63332182D01*
X115988691Y-63414236D01*
X116199508Y-63435000D01*
X116340492Y-63435000D01*
X116551309Y-63414236D01*
X116821808Y-63332182D01*
X117071101Y-63198932D01*
X117289608Y-63019608D01*
X117468932Y-62801101D01*
X117540000Y-62668142D01*
X117611068Y-62801101D01*
X117790392Y-63019608D01*
X118008899Y-63198932D01*
X118258192Y-63332182D01*
X118528691Y-63414236D01*
X118739508Y-63435000D01*
X118880492Y-63435000D01*
X119091309Y-63414236D01*
X119361808Y-63332182D01*
X119611101Y-63198932D01*
X119829608Y-63019608D01*
X120008932Y-62801101D01*
X120080000Y-62668142D01*
X120151068Y-62801101D01*
X120330392Y-63019608D01*
X120548899Y-63198932D01*
X120798192Y-63332182D01*
X121068691Y-63414236D01*
X121279508Y-63435000D01*
X121420492Y-63435000D01*
X121631309Y-63414236D01*
X121901808Y-63332182D01*
X122151101Y-63198932D01*
X122369608Y-63019608D01*
X122548932Y-62801101D01*
X122620000Y-62668142D01*
X122691068Y-62801101D01*
X122870392Y-63019608D01*
X123088899Y-63198932D01*
X123338192Y-63332182D01*
X123608691Y-63414236D01*
X123819508Y-63435000D01*
X123960492Y-63435000D01*
X124171309Y-63414236D01*
X124441808Y-63332182D01*
X124691101Y-63198932D01*
X124909608Y-63019608D01*
X125088932Y-62801101D01*
X125160000Y-62668142D01*
X125231068Y-62801101D01*
X125410392Y-63019608D01*
X125628899Y-63198932D01*
X125878192Y-63332182D01*
X126148691Y-63414236D01*
X126359508Y-63435000D01*
X126500492Y-63435000D01*
X126711309Y-63414236D01*
X126981808Y-63332182D01*
X127231101Y-63198932D01*
X127449608Y-63019608D01*
X127628932Y-62801101D01*
X127700000Y-62668142D01*
X127771068Y-62801101D01*
X127950392Y-63019608D01*
X128168899Y-63198932D01*
X128418192Y-63332182D01*
X128688691Y-63414236D01*
X128899508Y-63435000D01*
X129040492Y-63435000D01*
X129251309Y-63414236D01*
X129521808Y-63332182D01*
X129771101Y-63198932D01*
X129989608Y-63019608D01*
X130168932Y-62801101D01*
X130240000Y-62668142D01*
X130311068Y-62801101D01*
X130490392Y-63019608D01*
X130708899Y-63198932D01*
X130958192Y-63332182D01*
X131228691Y-63414236D01*
X131439508Y-63435000D01*
X131580492Y-63435000D01*
X131791309Y-63414236D01*
X132061808Y-63332182D01*
X132311101Y-63198932D01*
X132529608Y-63019608D01*
X132708932Y-62801101D01*
X132780000Y-62668142D01*
X132851068Y-62801101D01*
X133030392Y-63019608D01*
X133248899Y-63198932D01*
X133498192Y-63332182D01*
X133768691Y-63414236D01*
X133979508Y-63435000D01*
X134120492Y-63435000D01*
X134331309Y-63414236D01*
X134601808Y-63332182D01*
X134851101Y-63198932D01*
X135069608Y-63019608D01*
X135248932Y-62801101D01*
X135320000Y-62668142D01*
X135391068Y-62801101D01*
X135570392Y-63019608D01*
X135788899Y-63198932D01*
X136038192Y-63332182D01*
X136308691Y-63414236D01*
X136519508Y-63435000D01*
X136660492Y-63435000D01*
X136871309Y-63414236D01*
X136915907Y-63400708D01*
X138226205Y-64711008D01*
X138249999Y-64740001D01*
X138278992Y-64763795D01*
X138278996Y-64763799D01*
X138349685Y-64821811D01*
X138365724Y-64834974D01*
X138497753Y-64905546D01*
X138641014Y-64949003D01*
X138752667Y-64960000D01*
X138752676Y-64960000D01*
X138789999Y-64963676D01*
X138827322Y-64960000D01*
X147062678Y-64960000D01*
X147100000Y-64963676D01*
X147137322Y-64960000D01*
X147137333Y-64960000D01*
X147248986Y-64949003D01*
X147392247Y-64905546D01*
X147524276Y-64834974D01*
X147640001Y-64740001D01*
X147663804Y-64710997D01*
X152261157Y-60113645D01*
X152368514Y-60135000D01*
X152631486Y-60135000D01*
X152889405Y-60083696D01*
X153132359Y-59983061D01*
X153351013Y-59836962D01*
X153536962Y-59651013D01*
X153683061Y-59432359D01*
X153783696Y-59189405D01*
X153835000Y-58931486D01*
X153835000Y-58668514D01*
X153783696Y-58410595D01*
X153683061Y-58167641D01*
X153572551Y-58002250D01*
X154140001Y-57434801D01*
X154140000Y-83440000D01*
X152932419Y-83440000D01*
X152900000Y-83436807D01*
X152867581Y-83440000D01*
X152770617Y-83449550D01*
X152646207Y-83487290D01*
X152531550Y-83548575D01*
X152431052Y-83631052D01*
X152348575Y-83731550D01*
X152287290Y-83846207D01*
X152249550Y-83970617D01*
X152236807Y-84100000D01*
X152240000Y-84132418D01*
X152240001Y-88867571D01*
X152236807Y-88900000D01*
X152249550Y-89029383D01*
X152287290Y-89153793D01*
X152348575Y-89268450D01*
X152431052Y-89368948D01*
X152531550Y-89451425D01*
X152646207Y-89512710D01*
X152770617Y-89550450D01*
X152867581Y-89560000D01*
X152900000Y-89563193D01*
X152932419Y-89560000D01*
X154140000Y-89560000D01*
X154140001Y-91840000D01*
X107060000Y-91840000D01*
X107060000Y-58900000D01*
X107738541Y-58900000D01*
X107764317Y-59161706D01*
X107840653Y-59413354D01*
X107964618Y-59645275D01*
X108131445Y-59848555D01*
X108334725Y-60015382D01*
X108566646Y-60139347D01*
X108818294Y-60215683D01*
X109014421Y-60235000D01*
X109145579Y-60235000D01*
X109341706Y-60215683D01*
X109593354Y-60139347D01*
X109825275Y-60015382D01*
X110028555Y-59848555D01*
X110195382Y-59645275D01*
X110319347Y-59413354D01*
X110395683Y-59161706D01*
X110421459Y-58900000D01*
X110395683Y-58638294D01*
X110319347Y-58386646D01*
X110195382Y-58154725D01*
X110028555Y-57951445D01*
X109825275Y-57784618D01*
X109593354Y-57660653D01*
X109341706Y-57584317D01*
X109145579Y-57565000D01*
X109014421Y-57565000D01*
X108818294Y-57584317D01*
X108566646Y-57660653D01*
X108334725Y-57784618D01*
X108131445Y-57951445D01*
X107964618Y-58154725D01*
X107840653Y-58386646D01*
X107764317Y-58638294D01*
X107738541Y-58900000D01*
X107060000Y-58900000D01*
X107060000Y-55500000D01*
X107738541Y-55500000D01*
X107764317Y-55761706D01*
X107840653Y-56013354D01*
X107964618Y-56245275D01*
X108131445Y-56448555D01*
X108334725Y-56615382D01*
X108566646Y-56739347D01*
X108818294Y-56815683D01*
X109014421Y-56835000D01*
X109145579Y-56835000D01*
X109341706Y-56815683D01*
X109593354Y-56739347D01*
X109825275Y-56615382D01*
X110028555Y-56448555D01*
X110195382Y-56245275D01*
X110319347Y-56013354D01*
X110395683Y-55761706D01*
X110421459Y-55500000D01*
X110395683Y-55238294D01*
X110319347Y-54986646D01*
X110195382Y-54754725D01*
X110028555Y-54551445D01*
X109825275Y-54384618D01*
X109593354Y-54260653D01*
X109341706Y-54184317D01*
X109145579Y-54165000D01*
X109014421Y-54165000D01*
X108818294Y-54184317D01*
X108566646Y-54260653D01*
X108334725Y-54384618D01*
X108131445Y-54551445D01*
X107964618Y-54754725D01*
X107840653Y-54986646D01*
X107764317Y-55238294D01*
X107738541Y-55500000D01*
X107060000Y-55500000D01*
X107060000Y-48900000D01*
X107458057Y-48900000D01*
X107485764Y-49181309D01*
X107567818Y-49451808D01*
X107701068Y-49701101D01*
X107880392Y-49919608D01*
X108098899Y-50098932D01*
X108140000Y-50120901D01*
X108140000Y-50219099D01*
X108098899Y-50241068D01*
X107880392Y-50420392D01*
X107701068Y-50638899D01*
X107567818Y-50888192D01*
X107485764Y-51158691D01*
X107458057Y-51440000D01*
X107485764Y-51721309D01*
X107567818Y-51991808D01*
X107701068Y-52241101D01*
X107880392Y-52459608D01*
X108098899Y-52638932D01*
X108348192Y-52772182D01*
X108618691Y-52854236D01*
X108829508Y-52875000D01*
X108970492Y-52875000D01*
X109181309Y-52854236D01*
X109451808Y-52772182D01*
X109701101Y-52638932D01*
X109919608Y-52459608D01*
X110098932Y-52241101D01*
X110232182Y-51991808D01*
X110314236Y-51721309D01*
X110341943Y-51440000D01*
X110314236Y-51158691D01*
X110232182Y-50888192D01*
X110098932Y-50638899D01*
X109919608Y-50420392D01*
X109701101Y-50241068D01*
X109660000Y-50219099D01*
X109660000Y-50120901D01*
X109701101Y-50098932D01*
X109919608Y-49919608D01*
X110098932Y-49701101D01*
X110232182Y-49451808D01*
X110314236Y-49181309D01*
X110341943Y-48900000D01*
X110314236Y-48618691D01*
X110232182Y-48348192D01*
X110098932Y-48098899D01*
X109919608Y-47880392D01*
X109701101Y-47701068D01*
X109563318Y-47627421D01*
X109755131Y-47512385D01*
X109963519Y-47323414D01*
X110131037Y-47097420D01*
X110251246Y-46843087D01*
X110291904Y-46709039D01*
X110169915Y-46487000D01*
X109027000Y-46487000D01*
X109027000Y-46507000D01*
X108773000Y-46507000D01*
X108773000Y-46487000D01*
X107630085Y-46487000D01*
X107508096Y-46709039D01*
X107548754Y-46843087D01*
X107668963Y-47097420D01*
X107836481Y-47323414D01*
X108044869Y-47512385D01*
X108236682Y-47627421D01*
X108098899Y-47701068D01*
X107880392Y-47880392D01*
X107701068Y-48098899D01*
X107567818Y-48348192D01*
X107485764Y-48618691D01*
X107458057Y-48900000D01*
X107060000Y-48900000D01*
X107060000Y-37876082D01*
X107069453Y-37907245D01*
X107140025Y-38039275D01*
X107179870Y-38087825D01*
X107234998Y-38155000D01*
X107264001Y-38178803D01*
X107499292Y-38414094D01*
X107485764Y-38458691D01*
X107458057Y-38740000D01*
X107485764Y-39021309D01*
X107567818Y-39291808D01*
X107701068Y-39541101D01*
X107880392Y-39759608D01*
X108098899Y-39938932D01*
X108231858Y-40010000D01*
X108098899Y-40081068D01*
X107880392Y-40260392D01*
X107701068Y-40478899D01*
X107567818Y-40728192D01*
X107485764Y-40998691D01*
X107458057Y-41280000D01*
X107485764Y-41561309D01*
X107567818Y-41831808D01*
X107701068Y-42081101D01*
X107880392Y-42299608D01*
X108098899Y-42478932D01*
X108231858Y-42550000D01*
X108098899Y-42621068D01*
X107880392Y-42800392D01*
X107701068Y-43018899D01*
X107567818Y-43268192D01*
X107485764Y-43538691D01*
X107458057Y-43820000D01*
X107485764Y-44101309D01*
X107567818Y-44371808D01*
X107701068Y-44621101D01*
X107880392Y-44839608D01*
X108098899Y-45018932D01*
X108236682Y-45092579D01*
X108044869Y-45207615D01*
X107836481Y-45396586D01*
X107668963Y-45622580D01*
X107548754Y-45876913D01*
X107508096Y-46010961D01*
X107630085Y-46233000D01*
X108773000Y-46233000D01*
X108773000Y-46213000D01*
X109027000Y-46213000D01*
X109027000Y-46233000D01*
X110169915Y-46233000D01*
X110291904Y-46010961D01*
X110251246Y-45876913D01*
X110131037Y-45622580D01*
X109963519Y-45396586D01*
X109755131Y-45207615D01*
X109563318Y-45092579D01*
X109701101Y-45018932D01*
X109919608Y-44839608D01*
X110098932Y-44621101D01*
X110232182Y-44371808D01*
X110293690Y-44169039D01*
X115128096Y-44169039D01*
X115168754Y-44303087D01*
X115288963Y-44557420D01*
X115456481Y-44783414D01*
X115664869Y-44972385D01*
X115860982Y-45090000D01*
X115664869Y-45207615D01*
X115456481Y-45396586D01*
X115288963Y-45622580D01*
X115168754Y-45876913D01*
X115128096Y-46010961D01*
X115250085Y-46233000D01*
X116393000Y-46233000D01*
X116393000Y-43947000D01*
X116647000Y-43947000D01*
X116647000Y-46233000D01*
X117789915Y-46233000D01*
X117911904Y-46010961D01*
X117871246Y-45876913D01*
X117751037Y-45622580D01*
X117583519Y-45396586D01*
X117375131Y-45207615D01*
X117179018Y-45090000D01*
X117375131Y-44972385D01*
X117583519Y-44783414D01*
X117644628Y-44700973D01*
X123545037Y-44700973D01*
X123665536Y-44933000D01*
X124873000Y-44933000D01*
X124873000Y-43726183D01*
X124640974Y-43605042D01*
X124490186Y-43650778D01*
X124225056Y-43777316D01*
X123989707Y-43953146D01*
X123793183Y-44171512D01*
X123643036Y-44424022D01*
X123545037Y-44700973D01*
X117644628Y-44700973D01*
X117751037Y-44557420D01*
X117871246Y-44303087D01*
X117911904Y-44169039D01*
X117789915Y-43947000D01*
X116647000Y-43947000D01*
X116393000Y-43947000D01*
X115250085Y-43947000D01*
X115128096Y-44169039D01*
X110293690Y-44169039D01*
X110314236Y-44101309D01*
X110341943Y-43820000D01*
X110314236Y-43538691D01*
X110232182Y-43268192D01*
X110098932Y-43018899D01*
X109919608Y-42800392D01*
X109701101Y-42621068D01*
X109568142Y-42550000D01*
X109701101Y-42478932D01*
X109919608Y-42299608D01*
X110098932Y-42081101D01*
X110232182Y-41831808D01*
X110293690Y-41629039D01*
X115128096Y-41629039D01*
X115168754Y-41763087D01*
X115288963Y-42017420D01*
X115456481Y-42243414D01*
X115664869Y-42432385D01*
X115860982Y-42550000D01*
X115664869Y-42667615D01*
X115456481Y-42856586D01*
X115288963Y-43082580D01*
X115168754Y-43336913D01*
X115128096Y-43470961D01*
X115250085Y-43693000D01*
X116393000Y-43693000D01*
X116393000Y-41407000D01*
X116647000Y-41407000D01*
X116647000Y-43693000D01*
X117789915Y-43693000D01*
X117911904Y-43470961D01*
X117871246Y-43336913D01*
X117751037Y-43082580D01*
X117583519Y-42856586D01*
X117375131Y-42667615D01*
X117179018Y-42550000D01*
X117375131Y-42432385D01*
X117583519Y-42243414D01*
X117751037Y-42017420D01*
X117871246Y-41763087D01*
X117911904Y-41629039D01*
X117789915Y-41407000D01*
X116647000Y-41407000D01*
X116393000Y-41407000D01*
X115250085Y-41407000D01*
X115128096Y-41629039D01*
X110293690Y-41629039D01*
X110314236Y-41561309D01*
X110341943Y-41280000D01*
X110314236Y-40998691D01*
X110232182Y-40728192D01*
X110098932Y-40478899D01*
X109919608Y-40260392D01*
X109701101Y-40081068D01*
X109568142Y-40010000D01*
X109701101Y-39938932D01*
X109919608Y-39759608D01*
X110098932Y-39541101D01*
X110232182Y-39291808D01*
X110314236Y-39021309D01*
X110341943Y-38740000D01*
X115078057Y-38740000D01*
X115105764Y-39021309D01*
X115187818Y-39291808D01*
X115321068Y-39541101D01*
X115500392Y-39759608D01*
X115718899Y-39938932D01*
X115856682Y-40012579D01*
X115664869Y-40127615D01*
X115456481Y-40316586D01*
X115288963Y-40542580D01*
X115168754Y-40796913D01*
X115128096Y-40930961D01*
X115250085Y-41153000D01*
X116393000Y-41153000D01*
X116393000Y-41133000D01*
X116647000Y-41133000D01*
X116647000Y-41153000D01*
X117789915Y-41153000D01*
X117911904Y-40930961D01*
X117871246Y-40796913D01*
X117751037Y-40542580D01*
X117583519Y-40316586D01*
X117375131Y-40127615D01*
X117183318Y-40012579D01*
X117321101Y-39938932D01*
X117539608Y-39759608D01*
X117718932Y-39541101D01*
X117852182Y-39291808D01*
X117934236Y-39021309D01*
X117961943Y-38740000D01*
X117934236Y-38458691D01*
X117852182Y-38188192D01*
X117718932Y-37938899D01*
X117539608Y-37720392D01*
X117321101Y-37541068D01*
X117183318Y-37467421D01*
X117375131Y-37352385D01*
X117583519Y-37163414D01*
X117751037Y-36937420D01*
X117871246Y-36683087D01*
X117911904Y-36549039D01*
X117789915Y-36327000D01*
X116647000Y-36327000D01*
X116647000Y-36347000D01*
X116393000Y-36347000D01*
X116393000Y-36327000D01*
X115250085Y-36327000D01*
X115128096Y-36549039D01*
X115168754Y-36683087D01*
X115288963Y-36937420D01*
X115456481Y-37163414D01*
X115664869Y-37352385D01*
X115856682Y-37467421D01*
X115718899Y-37541068D01*
X115500392Y-37720392D01*
X115321068Y-37938899D01*
X115187818Y-38188192D01*
X115105764Y-38458691D01*
X115078057Y-38740000D01*
X110341943Y-38740000D01*
X110314236Y-38458691D01*
X110232182Y-38188192D01*
X110098932Y-37938899D01*
X109919608Y-37720392D01*
X109806518Y-37627581D01*
X109824482Y-37625812D01*
X109944180Y-37589502D01*
X110054494Y-37530537D01*
X110151185Y-37451185D01*
X110230537Y-37354494D01*
X110289502Y-37244180D01*
X110325812Y-37124482D01*
X110338072Y-37000000D01*
X110338072Y-36854326D01*
X110374276Y-36834974D01*
X110490001Y-36740001D01*
X110513804Y-36710998D01*
X111389803Y-35834999D01*
X115132937Y-35834999D01*
X115128096Y-35850961D01*
G36*
X151277611Y-40376003D02*
G01*
X151301410Y-40405002D01*
X151417135Y-40499975D01*
X151419577Y-40501280D01*
X151388963Y-40542580D01*
X151268754Y-40796913D01*
X151228096Y-40930961D01*
X151350085Y-41153000D01*
X152493000Y-41153000D01*
X152493000Y-41133000D01*
X152747000Y-41133000D01*
X152747000Y-41153000D01*
X152767000Y-41153000D01*
X152767000Y-41407000D01*
X152747000Y-41407000D01*
X152747000Y-43693000D01*
X152767000Y-43693000D01*
X152767000Y-43947000D01*
X152747000Y-43947000D01*
X152747000Y-43967000D01*
X152493000Y-43967000D01*
X152493000Y-43947000D01*
X151350085Y-43947000D01*
X151228096Y-44169039D01*
X151268754Y-44303087D01*
X151350007Y-44474999D01*
X146277025Y-44474999D01*
X146332182Y-44371808D01*
X146414236Y-44101309D01*
X146441943Y-43820000D01*
X146414236Y-43538691D01*
X146332182Y-43268192D01*
X146198932Y-43018899D01*
X146019608Y-42800392D01*
X145801101Y-42621068D01*
X145668142Y-42550000D01*
X145801101Y-42478932D01*
X146019608Y-42299608D01*
X146198932Y-42081101D01*
X146332182Y-41831808D01*
X146393690Y-41629039D01*
X151228096Y-41629039D01*
X151268754Y-41763087D01*
X151388963Y-42017420D01*
X151556481Y-42243414D01*
X151764869Y-42432385D01*
X151960982Y-42550000D01*
X151764869Y-42667615D01*
X151556481Y-42856586D01*
X151388963Y-43082580D01*
X151268754Y-43336913D01*
X151228096Y-43470961D01*
X151350085Y-43693000D01*
X152493000Y-43693000D01*
X152493000Y-41407000D01*
X151350085Y-41407000D01*
X151228096Y-41629039D01*
X146393690Y-41629039D01*
X146414236Y-41561309D01*
X146441943Y-41280000D01*
X146414236Y-40998691D01*
X146332182Y-40728192D01*
X146198932Y-40478899D01*
X146019608Y-40260392D01*
X145801101Y-40081068D01*
X145668142Y-40010000D01*
X145801101Y-39938932D01*
X146019608Y-39759608D01*
X146198932Y-39541101D01*
X146220901Y-39500000D01*
X150401609Y-39500000D01*
X151277611Y-40376003D01*
X151277611Y-40376003D01*
G37*
X151277611Y-40376003D02*
X151301410Y-40405002D01*
X151417135Y-40499975D01*
X151419577Y-40501280D01*
X151388963Y-40542580D01*
X151268754Y-40796913D01*
X151228096Y-40930961D01*
X151350085Y-41153000D01*
X152493000Y-41153000D01*
X152493000Y-41133000D01*
X152747000Y-41133000D01*
X152747000Y-41153000D01*
X152767000Y-41153000D01*
X152767000Y-41407000D01*
X152747000Y-41407000D01*
X152747000Y-43693000D01*
X152767000Y-43693000D01*
X152767000Y-43947000D01*
X152747000Y-43947000D01*
X152747000Y-43967000D01*
X152493000Y-43967000D01*
X152493000Y-43947000D01*
X151350085Y-43947000D01*
X151228096Y-44169039D01*
X151268754Y-44303087D01*
X151350007Y-44474999D01*
X146277025Y-44474999D01*
X146332182Y-44371808D01*
X146414236Y-44101309D01*
X146441943Y-43820000D01*
X146414236Y-43538691D01*
X146332182Y-43268192D01*
X146198932Y-43018899D01*
X146019608Y-42800392D01*
X145801101Y-42621068D01*
X145668142Y-42550000D01*
X145801101Y-42478932D01*
X146019608Y-42299608D01*
X146198932Y-42081101D01*
X146332182Y-41831808D01*
X146393690Y-41629039D01*
X151228096Y-41629039D01*
X151268754Y-41763087D01*
X151388963Y-42017420D01*
X151556481Y-42243414D01*
X151764869Y-42432385D01*
X151960982Y-42550000D01*
X151764869Y-42667615D01*
X151556481Y-42856586D01*
X151388963Y-43082580D01*
X151268754Y-43336913D01*
X151228096Y-43470961D01*
X151350085Y-43693000D01*
X152493000Y-43693000D01*
X152493000Y-41407000D01*
X151350085Y-41407000D01*
X151228096Y-41629039D01*
X146393690Y-41629039D01*
X146414236Y-41561309D01*
X146441943Y-41280000D01*
X146414236Y-40998691D01*
X146332182Y-40728192D01*
X146198932Y-40478899D01*
X146019608Y-40260392D01*
X145801101Y-40081068D01*
X145668142Y-40010000D01*
X145801101Y-39938932D01*
X146019608Y-39759608D01*
X146198932Y-39541101D01*
X146220901Y-39500000D01*
X150401609Y-39500000D01*
X151277611Y-40376003D01*
M02*
