G04 #@! TF.GenerationSoftware,KiCad,Pcbnew,(5.1.4)-1*
G04 #@! TF.CreationDate,2019-11-09T17:45:10+10:00*
G04 #@! TF.ProjectId,SegaControllerForApple2,53656761-436f-46e7-9472-6f6c6c657246,rev?*
G04 #@! TF.SameCoordinates,Original*
G04 #@! TF.FileFunction,Legend,Bot*
G04 #@! TF.FilePolarity,Positive*
%FSLAX46Y46*%
G04 Gerber Fmt 4.6, Leading zero omitted, Abs format (unit mm)*
G04 Created by KiCad (PCBNEW (5.1.4)-1) date 2019-11-09 17:45:10*
%MOMM*%
%LPD*%
G04 APERTURE LIST*
%ADD10C,0.150000*%
%ADD11C,0.225000*%
%ADD12C,0.400000*%
%ADD13C,0.120000*%
G04 APERTURE END LIST*
D10*
X113208333Y-79734523D02*
X113208333Y-80341666D01*
X113248809Y-80463095D01*
X113329761Y-80544047D01*
X113451190Y-80584523D01*
X113532142Y-80584523D01*
X112439285Y-80017857D02*
X112439285Y-80584523D01*
X112641666Y-79694047D02*
X112844047Y-80301190D01*
X112317857Y-80301190D01*
X111103571Y-80908333D02*
X111144047Y-80867857D01*
X111225000Y-80746428D01*
X111265476Y-80665476D01*
X111305952Y-80544047D01*
X111346428Y-80341666D01*
X111346428Y-80179761D01*
X111305952Y-79977380D01*
X111265476Y-79855952D01*
X111225000Y-79775000D01*
X111144047Y-79653571D01*
X111103571Y-79613095D01*
X110820238Y-80341666D02*
X110415476Y-80341666D01*
X110901190Y-80584523D02*
X110617857Y-79734523D01*
X110334523Y-80584523D01*
X109444047Y-79694047D02*
X110172619Y-80786904D01*
X109160714Y-80584523D02*
X109160714Y-79734523D01*
X108958333Y-79734523D01*
X108836904Y-79775000D01*
X108755952Y-79855952D01*
X108715476Y-79936904D01*
X108675000Y-80098809D01*
X108675000Y-80220238D01*
X108715476Y-80382142D01*
X108755952Y-80463095D01*
X108836904Y-80544047D01*
X108958333Y-80584523D01*
X109160714Y-80584523D01*
X108391666Y-80908333D02*
X108351190Y-80867857D01*
X108270238Y-80746428D01*
X108229761Y-80665476D01*
X108189285Y-80544047D01*
X108148809Y-80341666D01*
X108148809Y-80179761D01*
X108189285Y-79977380D01*
X108229761Y-79855952D01*
X108270238Y-79775000D01*
X108351190Y-79653571D01*
X108391666Y-79613095D01*
D11*
X149200000Y-74733333D02*
X149200000Y-73333333D01*
X148814285Y-74733333D02*
X148814285Y-74000000D01*
X148857142Y-73866666D01*
X148942857Y-73800000D01*
X149071428Y-73800000D01*
X149157142Y-73866666D01*
X149200000Y-73933333D01*
X148514285Y-73800000D02*
X148171428Y-73800000D01*
X148385714Y-73333333D02*
X148385714Y-74533333D01*
X148342857Y-74666666D01*
X148257142Y-74733333D01*
X148171428Y-74733333D01*
X148000000Y-73800000D02*
X147657142Y-73800000D01*
X147871428Y-73333333D02*
X147871428Y-74533333D01*
X147828571Y-74666666D01*
X147742857Y-74733333D01*
X147657142Y-74733333D01*
X147357142Y-73800000D02*
X147357142Y-75200000D01*
X147357142Y-73866666D02*
X147271428Y-73800000D01*
X147100000Y-73800000D01*
X147014285Y-73866666D01*
X146971428Y-73933333D01*
X146928571Y-74066666D01*
X146928571Y-74466666D01*
X146971428Y-74600000D01*
X147014285Y-74666666D01*
X147100000Y-74733333D01*
X147271428Y-74733333D01*
X147357142Y-74666666D01*
X146585714Y-74666666D02*
X146500000Y-74733333D01*
X146328571Y-74733333D01*
X146242857Y-74666666D01*
X146200000Y-74533333D01*
X146200000Y-74466666D01*
X146242857Y-74333333D01*
X146328571Y-74266666D01*
X146457142Y-74266666D01*
X146542857Y-74200000D01*
X146585714Y-74066666D01*
X146585714Y-74000000D01*
X146542857Y-73866666D01*
X146457142Y-73800000D01*
X146328571Y-73800000D01*
X146242857Y-73866666D01*
X145814285Y-74600000D02*
X145771428Y-74666666D01*
X145814285Y-74733333D01*
X145857142Y-74666666D01*
X145814285Y-74600000D01*
X145814285Y-74733333D01*
X145814285Y-73866666D02*
X145771428Y-73933333D01*
X145814285Y-74000000D01*
X145857142Y-73933333D01*
X145814285Y-73866666D01*
X145814285Y-74000000D01*
X144742857Y-73266666D02*
X145514285Y-75066666D01*
X143800000Y-73266666D02*
X144571428Y-75066666D01*
X143114285Y-73800000D02*
X143114285Y-74933333D01*
X143157142Y-75066666D01*
X143200000Y-75133333D01*
X143285714Y-75200000D01*
X143414285Y-75200000D01*
X143500000Y-75133333D01*
X143114285Y-74666666D02*
X143200000Y-74733333D01*
X143371428Y-74733333D01*
X143457142Y-74666666D01*
X143500000Y-74600000D01*
X143542857Y-74466666D01*
X143542857Y-74066666D01*
X143500000Y-73933333D01*
X143457142Y-73866666D01*
X143371428Y-73800000D01*
X143200000Y-73800000D01*
X143114285Y-73866666D01*
X142685714Y-74733333D02*
X142685714Y-73800000D01*
X142685714Y-73333333D02*
X142728571Y-73400000D01*
X142685714Y-73466666D01*
X142642857Y-73400000D01*
X142685714Y-73333333D01*
X142685714Y-73466666D01*
X142385714Y-73800000D02*
X142042857Y-73800000D01*
X142257142Y-73333333D02*
X142257142Y-74533333D01*
X142214285Y-74666666D01*
X142128571Y-74733333D01*
X142042857Y-74733333D01*
X141742857Y-74733333D02*
X141742857Y-73333333D01*
X141357142Y-74733333D02*
X141357142Y-74000000D01*
X141400000Y-73866666D01*
X141485714Y-73800000D01*
X141614285Y-73800000D01*
X141700000Y-73866666D01*
X141742857Y-73933333D01*
X140542857Y-73800000D02*
X140542857Y-74733333D01*
X140928571Y-73800000D02*
X140928571Y-74533333D01*
X140885714Y-74666666D01*
X140800000Y-74733333D01*
X140671428Y-74733333D01*
X140585714Y-74666666D01*
X140542857Y-74600000D01*
X140114285Y-74733333D02*
X140114285Y-73333333D01*
X140114285Y-73866666D02*
X140028571Y-73800000D01*
X139857142Y-73800000D01*
X139771428Y-73866666D01*
X139728571Y-73933333D01*
X139685714Y-74066666D01*
X139685714Y-74466666D01*
X139728571Y-74600000D01*
X139771428Y-74666666D01*
X139857142Y-74733333D01*
X140028571Y-74733333D01*
X140114285Y-74666666D01*
X139300000Y-74600000D02*
X139257142Y-74666666D01*
X139300000Y-74733333D01*
X139342857Y-74666666D01*
X139300000Y-74600000D01*
X139300000Y-74733333D01*
X138485714Y-74666666D02*
X138571428Y-74733333D01*
X138742857Y-74733333D01*
X138828571Y-74666666D01*
X138871428Y-74600000D01*
X138914285Y-74466666D01*
X138914285Y-74066666D01*
X138871428Y-73933333D01*
X138828571Y-73866666D01*
X138742857Y-73800000D01*
X138571428Y-73800000D01*
X138485714Y-73866666D01*
X137971428Y-74733333D02*
X138057142Y-74666666D01*
X138100000Y-74600000D01*
X138142857Y-74466666D01*
X138142857Y-74066666D01*
X138100000Y-73933333D01*
X138057142Y-73866666D01*
X137971428Y-73800000D01*
X137842857Y-73800000D01*
X137757142Y-73866666D01*
X137714285Y-73933333D01*
X137671428Y-74066666D01*
X137671428Y-74466666D01*
X137714285Y-74600000D01*
X137757142Y-74666666D01*
X137842857Y-74733333D01*
X137971428Y-74733333D01*
X137285714Y-74733333D02*
X137285714Y-73800000D01*
X137285714Y-73933333D02*
X137242857Y-73866666D01*
X137157142Y-73800000D01*
X137028571Y-73800000D01*
X136942857Y-73866666D01*
X136900000Y-74000000D01*
X136900000Y-74733333D01*
X136900000Y-74000000D02*
X136857142Y-73866666D01*
X136771428Y-73800000D01*
X136642857Y-73800000D01*
X136557142Y-73866666D01*
X136514285Y-74000000D01*
X136514285Y-74733333D01*
X135442857Y-73266666D02*
X136214285Y-75066666D01*
X135271428Y-73800000D02*
X134928571Y-73800000D01*
X135142857Y-73333333D02*
X135142857Y-74533333D01*
X135100000Y-74666666D01*
X135014285Y-74733333D01*
X134928571Y-74733333D01*
X134628571Y-74733333D02*
X134628571Y-73333333D01*
X134242857Y-74733333D02*
X134242857Y-74000000D01*
X134285714Y-73866666D01*
X134371428Y-73800000D01*
X134500000Y-73800000D01*
X134585714Y-73866666D01*
X134628571Y-73933333D01*
X133814285Y-74733333D02*
X133814285Y-73800000D01*
X133814285Y-73333333D02*
X133857142Y-73400000D01*
X133814285Y-73466666D01*
X133771428Y-73400000D01*
X133814285Y-73333333D01*
X133814285Y-73466666D01*
X133385714Y-73800000D02*
X133385714Y-74733333D01*
X133385714Y-73933333D02*
X133342857Y-73866666D01*
X133257142Y-73800000D01*
X133128571Y-73800000D01*
X133042857Y-73866666D01*
X133000000Y-74000000D01*
X133000000Y-74733333D01*
X132185714Y-73800000D02*
X132185714Y-74933333D01*
X132228571Y-75066666D01*
X132271428Y-75133333D01*
X132357142Y-75200000D01*
X132485714Y-75200000D01*
X132571428Y-75133333D01*
X132185714Y-74666666D02*
X132271428Y-74733333D01*
X132442857Y-74733333D01*
X132528571Y-74666666D01*
X132571428Y-74600000D01*
X132614285Y-74466666D01*
X132614285Y-74066666D01*
X132571428Y-73933333D01*
X132528571Y-73866666D01*
X132442857Y-73800000D01*
X132271428Y-73800000D01*
X132185714Y-73866666D01*
X131757142Y-74733333D02*
X131757142Y-73333333D01*
X131371428Y-74733333D02*
X131371428Y-74000000D01*
X131414285Y-73866666D01*
X131500000Y-73800000D01*
X131628571Y-73800000D01*
X131714285Y-73866666D01*
X131757142Y-73933333D01*
X130557142Y-74733333D02*
X130557142Y-74000000D01*
X130600000Y-73866666D01*
X130685714Y-73800000D01*
X130857142Y-73800000D01*
X130942857Y-73866666D01*
X130557142Y-74666666D02*
X130642857Y-74733333D01*
X130857142Y-74733333D01*
X130942857Y-74666666D01*
X130985714Y-74533333D01*
X130985714Y-74400000D01*
X130942857Y-74266666D01*
X130857142Y-74200000D01*
X130642857Y-74200000D01*
X130557142Y-74133333D01*
X129742857Y-74666666D02*
X129828571Y-74733333D01*
X130000000Y-74733333D01*
X130085714Y-74666666D01*
X130128571Y-74600000D01*
X130171428Y-74466666D01*
X130171428Y-74066666D01*
X130128571Y-73933333D01*
X130085714Y-73866666D01*
X130000000Y-73800000D01*
X129828571Y-73800000D01*
X129742857Y-73866666D01*
X129357142Y-74733333D02*
X129357142Y-73333333D01*
X129271428Y-74200000D02*
X129014285Y-74733333D01*
X129014285Y-73800000D02*
X129357142Y-74333333D01*
X128285714Y-74666666D02*
X128371428Y-74733333D01*
X128542857Y-74733333D01*
X128628571Y-74666666D01*
X128671428Y-74533333D01*
X128671428Y-74000000D01*
X128628571Y-73866666D01*
X128542857Y-73800000D01*
X128371428Y-73800000D01*
X128285714Y-73866666D01*
X128242857Y-74000000D01*
X128242857Y-74133333D01*
X128671428Y-74266666D01*
X127857142Y-74733333D02*
X127857142Y-73800000D01*
X127857142Y-74066666D02*
X127814285Y-73933333D01*
X127771428Y-73866666D01*
X127685714Y-73800000D01*
X127600000Y-73800000D01*
X126657142Y-73266666D02*
X127428571Y-75066666D01*
X126400000Y-74666666D02*
X126271428Y-74733333D01*
X126057142Y-74733333D01*
X125971428Y-74666666D01*
X125928571Y-74600000D01*
X125885714Y-74466666D01*
X125885714Y-74333333D01*
X125928571Y-74200000D01*
X125971428Y-74133333D01*
X126057142Y-74066666D01*
X126228571Y-74000000D01*
X126314285Y-73933333D01*
X126357142Y-73866666D01*
X126400000Y-73733333D01*
X126400000Y-73600000D01*
X126357142Y-73466666D01*
X126314285Y-73400000D01*
X126228571Y-73333333D01*
X126014285Y-73333333D01*
X125885714Y-73400000D01*
X125157142Y-74666666D02*
X125242857Y-74733333D01*
X125414285Y-74733333D01*
X125500000Y-74666666D01*
X125542857Y-74533333D01*
X125542857Y-74000000D01*
X125500000Y-73866666D01*
X125414285Y-73800000D01*
X125242857Y-73800000D01*
X125157142Y-73866666D01*
X125114285Y-74000000D01*
X125114285Y-74133333D01*
X125542857Y-74266666D01*
X124342857Y-73800000D02*
X124342857Y-74933333D01*
X124385714Y-75066666D01*
X124428571Y-75133333D01*
X124514285Y-75200000D01*
X124642857Y-75200000D01*
X124728571Y-75133333D01*
X124342857Y-74666666D02*
X124428571Y-74733333D01*
X124600000Y-74733333D01*
X124685714Y-74666666D01*
X124728571Y-74600000D01*
X124771428Y-74466666D01*
X124771428Y-74066666D01*
X124728571Y-73933333D01*
X124685714Y-73866666D01*
X124600000Y-73800000D01*
X124428571Y-73800000D01*
X124342857Y-73866666D01*
X123528571Y-74733333D02*
X123528571Y-74000000D01*
X123571428Y-73866666D01*
X123657142Y-73800000D01*
X123828571Y-73800000D01*
X123914285Y-73866666D01*
X123528571Y-74666666D02*
X123614285Y-74733333D01*
X123828571Y-74733333D01*
X123914285Y-74666666D01*
X123957142Y-74533333D01*
X123957142Y-74400000D01*
X123914285Y-74266666D01*
X123828571Y-74200000D01*
X123614285Y-74200000D01*
X123528571Y-74133333D01*
X122585714Y-74600000D02*
X122628571Y-74666666D01*
X122757142Y-74733333D01*
X122842857Y-74733333D01*
X122971428Y-74666666D01*
X123057142Y-74533333D01*
X123100000Y-74400000D01*
X123142857Y-74133333D01*
X123142857Y-73933333D01*
X123100000Y-73666666D01*
X123057142Y-73533333D01*
X122971428Y-73400000D01*
X122842857Y-73333333D01*
X122757142Y-73333333D01*
X122628571Y-73400000D01*
X122585714Y-73466666D01*
X122071428Y-74733333D02*
X122157142Y-74666666D01*
X122200000Y-74600000D01*
X122242857Y-74466666D01*
X122242857Y-74066666D01*
X122200000Y-73933333D01*
X122157142Y-73866666D01*
X122071428Y-73800000D01*
X121942857Y-73800000D01*
X121857142Y-73866666D01*
X121814285Y-73933333D01*
X121771428Y-74066666D01*
X121771428Y-74466666D01*
X121814285Y-74600000D01*
X121857142Y-74666666D01*
X121942857Y-74733333D01*
X122071428Y-74733333D01*
X121385714Y-73800000D02*
X121385714Y-74733333D01*
X121385714Y-73933333D02*
X121342857Y-73866666D01*
X121257142Y-73800000D01*
X121128571Y-73800000D01*
X121042857Y-73866666D01*
X121000000Y-74000000D01*
X121000000Y-74733333D01*
X120700000Y-73800000D02*
X120357142Y-73800000D01*
X120571428Y-73333333D02*
X120571428Y-74533333D01*
X120528571Y-74666666D01*
X120442857Y-74733333D01*
X120357142Y-74733333D01*
X120057142Y-74733333D02*
X120057142Y-73800000D01*
X120057142Y-74066666D02*
X120014285Y-73933333D01*
X119971428Y-73866666D01*
X119885714Y-73800000D01*
X119800000Y-73800000D01*
X119371428Y-74733333D02*
X119457142Y-74666666D01*
X119500000Y-74600000D01*
X119542857Y-74466666D01*
X119542857Y-74066666D01*
X119500000Y-73933333D01*
X119457142Y-73866666D01*
X119371428Y-73800000D01*
X119242857Y-73800000D01*
X119157142Y-73866666D01*
X119114285Y-73933333D01*
X119071428Y-74066666D01*
X119071428Y-74466666D01*
X119114285Y-74600000D01*
X119157142Y-74666666D01*
X119242857Y-74733333D01*
X119371428Y-74733333D01*
X118557142Y-74733333D02*
X118642857Y-74666666D01*
X118685714Y-74533333D01*
X118685714Y-73333333D01*
X118085714Y-74733333D02*
X118171428Y-74666666D01*
X118214285Y-74533333D01*
X118214285Y-73333333D01*
X117400000Y-74666666D02*
X117485714Y-74733333D01*
X117657142Y-74733333D01*
X117742857Y-74666666D01*
X117785714Y-74533333D01*
X117785714Y-74000000D01*
X117742857Y-73866666D01*
X117657142Y-73800000D01*
X117485714Y-73800000D01*
X117400000Y-73866666D01*
X117357142Y-74000000D01*
X117357142Y-74133333D01*
X117785714Y-74266666D01*
X116971428Y-74733333D02*
X116971428Y-73800000D01*
X116971428Y-74066666D02*
X116928571Y-73933333D01*
X116885714Y-73866666D01*
X116800000Y-73800000D01*
X116714285Y-73800000D01*
X116114285Y-74000000D02*
X116414285Y-74000000D01*
X116414285Y-74733333D02*
X116414285Y-73333333D01*
X115985714Y-73333333D01*
X115514285Y-74733333D02*
X115600000Y-74666666D01*
X115642857Y-74600000D01*
X115685714Y-74466666D01*
X115685714Y-74066666D01*
X115642857Y-73933333D01*
X115600000Y-73866666D01*
X115514285Y-73800000D01*
X115385714Y-73800000D01*
X115300000Y-73866666D01*
X115257142Y-73933333D01*
X115214285Y-74066666D01*
X115214285Y-74466666D01*
X115257142Y-74600000D01*
X115300000Y-74666666D01*
X115385714Y-74733333D01*
X115514285Y-74733333D01*
X114828571Y-74733333D02*
X114828571Y-73800000D01*
X114828571Y-74066666D02*
X114785714Y-73933333D01*
X114742857Y-73866666D01*
X114657142Y-73800000D01*
X114571428Y-73800000D01*
X114314285Y-74333333D02*
X113885714Y-74333333D01*
X114400000Y-74733333D02*
X114100000Y-73333333D01*
X113800000Y-74733333D01*
X113500000Y-73800000D02*
X113500000Y-75200000D01*
X113500000Y-73866666D02*
X113414285Y-73800000D01*
X113242857Y-73800000D01*
X113157142Y-73866666D01*
X113114285Y-73933333D01*
X113071428Y-74066666D01*
X113071428Y-74466666D01*
X113114285Y-74600000D01*
X113157142Y-74666666D01*
X113242857Y-74733333D01*
X113414285Y-74733333D01*
X113500000Y-74666666D01*
X112685714Y-73800000D02*
X112685714Y-75200000D01*
X112685714Y-73866666D02*
X112600000Y-73800000D01*
X112428571Y-73800000D01*
X112342857Y-73866666D01*
X112300000Y-73933333D01*
X112257142Y-74066666D01*
X112257142Y-74466666D01*
X112300000Y-74600000D01*
X112342857Y-74666666D01*
X112428571Y-74733333D01*
X112600000Y-74733333D01*
X112685714Y-74666666D01*
X111742857Y-74733333D02*
X111828571Y-74666666D01*
X111871428Y-74533333D01*
X111871428Y-73333333D01*
X111057142Y-74666666D02*
X111142857Y-74733333D01*
X111314285Y-74733333D01*
X111400000Y-74666666D01*
X111442857Y-74533333D01*
X111442857Y-74000000D01*
X111400000Y-73866666D01*
X111314285Y-73800000D01*
X111142857Y-73800000D01*
X111057142Y-73866666D01*
X111014285Y-74000000D01*
X111014285Y-74133333D01*
X111442857Y-74266666D01*
X110671428Y-73466666D02*
X110628571Y-73400000D01*
X110542857Y-73333333D01*
X110328571Y-73333333D01*
X110242857Y-73400000D01*
X110200000Y-73466666D01*
X110157142Y-73600000D01*
X110157142Y-73733333D01*
X110200000Y-73933333D01*
X110714285Y-74733333D01*
X110157142Y-74733333D01*
D12*
X141838095Y-69695238D02*
X141838095Y-71266666D01*
X141942857Y-71580952D01*
X142152380Y-71790476D01*
X142466666Y-71895238D01*
X142676190Y-71895238D01*
X140476190Y-71895238D02*
X140685714Y-71790476D01*
X140790476Y-71685714D01*
X140895238Y-71476190D01*
X140895238Y-70847619D01*
X140790476Y-70638095D01*
X140685714Y-70533333D01*
X140476190Y-70428571D01*
X140161904Y-70428571D01*
X139952380Y-70533333D01*
X139847619Y-70638095D01*
X139742857Y-70847619D01*
X139742857Y-71476190D01*
X139847619Y-71685714D01*
X139952380Y-71790476D01*
X140161904Y-71895238D01*
X140476190Y-71895238D01*
X139009523Y-70428571D02*
X138485714Y-71895238D01*
X137961904Y-70428571D02*
X138485714Y-71895238D01*
X138695238Y-72419047D01*
X138800000Y-72523809D01*
X139009523Y-72628571D01*
X137123809Y-70428571D02*
X137123809Y-72628571D01*
X137123809Y-70533333D02*
X136914285Y-70428571D01*
X136495238Y-70428571D01*
X136285714Y-70533333D01*
X136180952Y-70638095D01*
X136076190Y-70847619D01*
X136076190Y-71476190D01*
X136180952Y-71685714D01*
X136285714Y-71790476D01*
X136495238Y-71895238D01*
X136914285Y-71895238D01*
X137123809Y-71790476D01*
X134819047Y-71895238D02*
X135028571Y-71790476D01*
X135133333Y-71685714D01*
X135238095Y-71476190D01*
X135238095Y-70847619D01*
X135133333Y-70638095D01*
X135028571Y-70533333D01*
X134819047Y-70428571D01*
X134504761Y-70428571D01*
X134295238Y-70533333D01*
X134190476Y-70638095D01*
X134085714Y-70847619D01*
X134085714Y-71476190D01*
X134190476Y-71685714D01*
X134295238Y-71790476D01*
X134504761Y-71895238D01*
X134819047Y-71895238D01*
X133142857Y-71895238D02*
X133142857Y-70428571D01*
X133142857Y-70847619D02*
X133038095Y-70638095D01*
X132933333Y-70533333D01*
X132723809Y-70428571D01*
X132514285Y-70428571D01*
X132095238Y-70428571D02*
X131257142Y-70428571D01*
X131780952Y-69695238D02*
X131780952Y-71580952D01*
X131676190Y-71790476D01*
X131466666Y-71895238D01*
X131257142Y-71895238D01*
X128952380Y-71266666D02*
X127904761Y-71266666D01*
X129161904Y-71895238D02*
X128428571Y-69695238D01*
X127695238Y-71895238D01*
X126019047Y-71895238D02*
X126019047Y-69695238D01*
X126019047Y-71790476D02*
X126228571Y-71895238D01*
X126647619Y-71895238D01*
X126857142Y-71790476D01*
X126961904Y-71685714D01*
X127066666Y-71476190D01*
X127066666Y-70847619D01*
X126961904Y-70638095D01*
X126857142Y-70533333D01*
X126647619Y-70428571D01*
X126228571Y-70428571D01*
X126019047Y-70533333D01*
X124028571Y-71895238D02*
X124028571Y-70742857D01*
X124133333Y-70533333D01*
X124342857Y-70428571D01*
X124761904Y-70428571D01*
X124971428Y-70533333D01*
X124028571Y-71790476D02*
X124238095Y-71895238D01*
X124761904Y-71895238D01*
X124971428Y-71790476D01*
X125076190Y-71580952D01*
X125076190Y-71371428D01*
X124971428Y-71161904D01*
X124761904Y-71057142D01*
X124238095Y-71057142D01*
X124028571Y-70952380D01*
X122980952Y-70428571D02*
X122980952Y-72628571D01*
X122980952Y-70533333D02*
X122771428Y-70428571D01*
X122352380Y-70428571D01*
X122142857Y-70533333D01*
X122038095Y-70638095D01*
X121933333Y-70847619D01*
X121933333Y-71476190D01*
X122038095Y-71685714D01*
X122142857Y-71790476D01*
X122352380Y-71895238D01*
X122771428Y-71895238D01*
X122980952Y-71790476D01*
X121304761Y-70428571D02*
X120466666Y-70428571D01*
X120990476Y-69695238D02*
X120990476Y-71580952D01*
X120885714Y-71790476D01*
X120676190Y-71895238D01*
X120466666Y-71895238D01*
X118895238Y-71790476D02*
X119104761Y-71895238D01*
X119523809Y-71895238D01*
X119733333Y-71790476D01*
X119838095Y-71580952D01*
X119838095Y-70742857D01*
X119733333Y-70533333D01*
X119523809Y-70428571D01*
X119104761Y-70428571D01*
X118895238Y-70533333D01*
X118790476Y-70742857D01*
X118790476Y-70952380D01*
X119838095Y-71161904D01*
X117847619Y-71895238D02*
X117847619Y-70428571D01*
X117847619Y-70847619D02*
X117742857Y-70638095D01*
X117638095Y-70533333D01*
X117428571Y-70428571D01*
X117219047Y-70428571D01*
X145528571Y-68785714D02*
X145633333Y-68890476D01*
X145947619Y-68995238D01*
X146157142Y-68995238D01*
X146471428Y-68890476D01*
X146680952Y-68680952D01*
X146785714Y-68471428D01*
X146890476Y-68052380D01*
X146890476Y-67738095D01*
X146785714Y-67319047D01*
X146680952Y-67109523D01*
X146471428Y-66900000D01*
X146157142Y-66795238D01*
X145947619Y-66795238D01*
X145633333Y-66900000D01*
X145528571Y-67004761D01*
X144271428Y-68995238D02*
X144480952Y-68890476D01*
X144585714Y-68785714D01*
X144690476Y-68576190D01*
X144690476Y-67947619D01*
X144585714Y-67738095D01*
X144480952Y-67633333D01*
X144271428Y-67528571D01*
X143957142Y-67528571D01*
X143747619Y-67633333D01*
X143642857Y-67738095D01*
X143538095Y-67947619D01*
X143538095Y-68576190D01*
X143642857Y-68785714D01*
X143747619Y-68890476D01*
X143957142Y-68995238D01*
X144271428Y-68995238D01*
X142595238Y-67528571D02*
X142595238Y-68995238D01*
X142595238Y-67738095D02*
X142490476Y-67633333D01*
X142280952Y-67528571D01*
X141966666Y-67528571D01*
X141757142Y-67633333D01*
X141652380Y-67842857D01*
X141652380Y-68995238D01*
X140919047Y-67528571D02*
X140080952Y-67528571D01*
X140604761Y-66795238D02*
X140604761Y-68680952D01*
X140500000Y-68890476D01*
X140290476Y-68995238D01*
X140080952Y-68995238D01*
X139347619Y-68995238D02*
X139347619Y-67528571D01*
X139347619Y-67947619D02*
X139242857Y-67738095D01*
X139138095Y-67633333D01*
X138928571Y-67528571D01*
X138719047Y-67528571D01*
X137671428Y-68995238D02*
X137880952Y-68890476D01*
X137985714Y-68785714D01*
X138090476Y-68576190D01*
X138090476Y-67947619D01*
X137985714Y-67738095D01*
X137880952Y-67633333D01*
X137671428Y-67528571D01*
X137357142Y-67528571D01*
X137147619Y-67633333D01*
X137042857Y-67738095D01*
X136938095Y-67947619D01*
X136938095Y-68576190D01*
X137042857Y-68785714D01*
X137147619Y-68890476D01*
X137357142Y-68995238D01*
X137671428Y-68995238D01*
X135680952Y-68995238D02*
X135890476Y-68890476D01*
X135995238Y-68680952D01*
X135995238Y-66795238D01*
X134528571Y-68995238D02*
X134738095Y-68890476D01*
X134842857Y-68680952D01*
X134842857Y-66795238D01*
X132852380Y-68890476D02*
X133061904Y-68995238D01*
X133480952Y-68995238D01*
X133690476Y-68890476D01*
X133795238Y-68680952D01*
X133795238Y-67842857D01*
X133690476Y-67633333D01*
X133480952Y-67528571D01*
X133061904Y-67528571D01*
X132852380Y-67633333D01*
X132747619Y-67842857D01*
X132747619Y-68052380D01*
X133795238Y-68261904D01*
X131804761Y-68995238D02*
X131804761Y-67528571D01*
X131804761Y-67947619D02*
X131700000Y-67738095D01*
X131595238Y-67633333D01*
X131385714Y-67528571D01*
X131176190Y-67528571D01*
X129080952Y-67528571D02*
X128242857Y-67528571D01*
X128766666Y-66795238D02*
X128766666Y-68680952D01*
X128661904Y-68890476D01*
X128452380Y-68995238D01*
X128242857Y-68995238D01*
X127195238Y-68995238D02*
X127404761Y-68890476D01*
X127509523Y-68785714D01*
X127614285Y-68576190D01*
X127614285Y-67947619D01*
X127509523Y-67738095D01*
X127404761Y-67633333D01*
X127195238Y-67528571D01*
X126880952Y-67528571D01*
X126671428Y-67633333D01*
X126566666Y-67738095D01*
X126461904Y-67947619D01*
X126461904Y-68576190D01*
X126566666Y-68785714D01*
X126671428Y-68890476D01*
X126880952Y-68995238D01*
X127195238Y-68995238D01*
X123947619Y-68366666D02*
X122900000Y-68366666D01*
X124157142Y-68995238D02*
X123423809Y-66795238D01*
X122690476Y-68995238D01*
X121957142Y-67528571D02*
X121957142Y-69728571D01*
X121957142Y-67633333D02*
X121747619Y-67528571D01*
X121328571Y-67528571D01*
X121119047Y-67633333D01*
X121014285Y-67738095D01*
X120909523Y-67947619D01*
X120909523Y-68576190D01*
X121014285Y-68785714D01*
X121119047Y-68890476D01*
X121328571Y-68995238D01*
X121747619Y-68995238D01*
X121957142Y-68890476D01*
X119966666Y-67528571D02*
X119966666Y-69728571D01*
X119966666Y-67633333D02*
X119757142Y-67528571D01*
X119338095Y-67528571D01*
X119128571Y-67633333D01*
X119023809Y-67738095D01*
X118919047Y-67947619D01*
X118919047Y-68576190D01*
X119023809Y-68785714D01*
X119128571Y-68890476D01*
X119338095Y-68995238D01*
X119757142Y-68995238D01*
X119966666Y-68890476D01*
X117661904Y-68995238D02*
X117871428Y-68890476D01*
X117976190Y-68680952D01*
X117976190Y-66795238D01*
X115985714Y-68890476D02*
X116195238Y-68995238D01*
X116614285Y-68995238D01*
X116823809Y-68890476D01*
X116928571Y-68680952D01*
X116928571Y-67842857D01*
X116823809Y-67633333D01*
X116614285Y-67528571D01*
X116195238Y-67528571D01*
X115985714Y-67633333D01*
X115880952Y-67842857D01*
X115880952Y-68052380D01*
X116928571Y-68261904D01*
X113366666Y-67004761D02*
X113261904Y-66900000D01*
X113052380Y-66795238D01*
X112528571Y-66795238D01*
X112319047Y-66900000D01*
X112214285Y-67004761D01*
X112109523Y-67214285D01*
X112109523Y-67423809D01*
X112214285Y-67738095D01*
X113471428Y-68995238D01*
X112109523Y-68995238D01*
D11*
X143057142Y-79800000D02*
X142928571Y-79866666D01*
X142885714Y-79933333D01*
X142842857Y-80066666D01*
X142842857Y-80266666D01*
X142885714Y-80400000D01*
X142928571Y-80466666D01*
X143014285Y-80533333D01*
X143357142Y-80533333D01*
X143357142Y-79133333D01*
X143057142Y-79133333D01*
X142971428Y-79200000D01*
X142928571Y-79266666D01*
X142885714Y-79400000D01*
X142885714Y-79533333D01*
X142928571Y-79666666D01*
X142971428Y-79733333D01*
X143057142Y-79800000D01*
X143357142Y-79800000D01*
X142328571Y-80533333D02*
X142414285Y-80466666D01*
X142457142Y-80400000D01*
X142500000Y-80266666D01*
X142500000Y-79866666D01*
X142457142Y-79733333D01*
X142414285Y-79666666D01*
X142328571Y-79600000D01*
X142200000Y-79600000D01*
X142114285Y-79666666D01*
X142071428Y-79733333D01*
X142028571Y-79866666D01*
X142028571Y-80266666D01*
X142071428Y-80400000D01*
X142114285Y-80466666D01*
X142200000Y-80533333D01*
X142328571Y-80533333D01*
X141257142Y-80533333D02*
X141257142Y-79800000D01*
X141300000Y-79666666D01*
X141385714Y-79600000D01*
X141557142Y-79600000D01*
X141642857Y-79666666D01*
X141257142Y-80466666D02*
X141342857Y-80533333D01*
X141557142Y-80533333D01*
X141642857Y-80466666D01*
X141685714Y-80333333D01*
X141685714Y-80200000D01*
X141642857Y-80066666D01*
X141557142Y-80000000D01*
X141342857Y-80000000D01*
X141257142Y-79933333D01*
X140828571Y-80533333D02*
X140828571Y-79600000D01*
X140828571Y-79866666D02*
X140785714Y-79733333D01*
X140742857Y-79666666D01*
X140657142Y-79600000D01*
X140571428Y-79600000D01*
X139885714Y-80533333D02*
X139885714Y-79133333D01*
X139885714Y-80466666D02*
X139971428Y-80533333D01*
X140142857Y-80533333D01*
X140228571Y-80466666D01*
X140271428Y-80400000D01*
X140314285Y-80266666D01*
X140314285Y-79866666D01*
X140271428Y-79733333D01*
X140228571Y-79666666D01*
X140142857Y-79600000D01*
X139971428Y-79600000D01*
X139885714Y-79666666D01*
X138257142Y-80533333D02*
X138557142Y-79866666D01*
X138771428Y-80533333D02*
X138771428Y-79133333D01*
X138428571Y-79133333D01*
X138342857Y-79200000D01*
X138300000Y-79266666D01*
X138257142Y-79400000D01*
X138257142Y-79600000D01*
X138300000Y-79733333D01*
X138342857Y-79800000D01*
X138428571Y-79866666D01*
X138771428Y-79866666D01*
X137528571Y-80466666D02*
X137614285Y-80533333D01*
X137785714Y-80533333D01*
X137871428Y-80466666D01*
X137914285Y-80333333D01*
X137914285Y-79800000D01*
X137871428Y-79666666D01*
X137785714Y-79600000D01*
X137614285Y-79600000D01*
X137528571Y-79666666D01*
X137485714Y-79800000D01*
X137485714Y-79933333D01*
X137914285Y-80066666D01*
X137185714Y-79600000D02*
X136971428Y-80533333D01*
X136757142Y-79600000D01*
X136414285Y-80533333D02*
X136414285Y-79600000D01*
X136414285Y-79133333D02*
X136457142Y-79200000D01*
X136414285Y-79266666D01*
X136371428Y-79200000D01*
X136414285Y-79133333D01*
X136414285Y-79266666D01*
X136028571Y-80466666D02*
X135942857Y-80533333D01*
X135771428Y-80533333D01*
X135685714Y-80466666D01*
X135642857Y-80333333D01*
X135642857Y-80266666D01*
X135685714Y-80133333D01*
X135771428Y-80066666D01*
X135900000Y-80066666D01*
X135985714Y-80000000D01*
X136028571Y-79866666D01*
X136028571Y-79800000D01*
X135985714Y-79666666D01*
X135900000Y-79600000D01*
X135771428Y-79600000D01*
X135685714Y-79666666D01*
X135257142Y-80533333D02*
X135257142Y-79600000D01*
X135257142Y-79133333D02*
X135300000Y-79200000D01*
X135257142Y-79266666D01*
X135214285Y-79200000D01*
X135257142Y-79133333D01*
X135257142Y-79266666D01*
X134700000Y-80533333D02*
X134785714Y-80466666D01*
X134828571Y-80400000D01*
X134871428Y-80266666D01*
X134871428Y-79866666D01*
X134828571Y-79733333D01*
X134785714Y-79666666D01*
X134700000Y-79600000D01*
X134571428Y-79600000D01*
X134485714Y-79666666D01*
X134442857Y-79733333D01*
X134400000Y-79866666D01*
X134400000Y-80266666D01*
X134442857Y-80400000D01*
X134485714Y-80466666D01*
X134571428Y-80533333D01*
X134700000Y-80533333D01*
X134014285Y-79600000D02*
X134014285Y-80533333D01*
X134014285Y-79733333D02*
X133971428Y-79666666D01*
X133885714Y-79600000D01*
X133757142Y-79600000D01*
X133671428Y-79666666D01*
X133628571Y-79800000D01*
X133628571Y-80533333D01*
X132042857Y-80533333D02*
X132557142Y-80533333D01*
X132300000Y-80533333D02*
X132300000Y-79133333D01*
X132385714Y-79333333D01*
X132471428Y-79466666D01*
X132557142Y-79533333D01*
X131657142Y-80400000D02*
X131614285Y-80466666D01*
X131657142Y-80533333D01*
X131700000Y-80466666D01*
X131657142Y-80400000D01*
X131657142Y-80533333D01*
X131271428Y-79266666D02*
X131228571Y-79200000D01*
X131142857Y-79133333D01*
X130928571Y-79133333D01*
X130842857Y-79200000D01*
X130800000Y-79266666D01*
X130757142Y-79400000D01*
X130757142Y-79533333D01*
X130800000Y-79733333D01*
X131314285Y-80533333D01*
X130757142Y-80533333D01*
X129428571Y-81066666D02*
X129471428Y-81000000D01*
X129557142Y-80800000D01*
X129600000Y-80666666D01*
X129642857Y-80466666D01*
X129685714Y-80133333D01*
X129685714Y-79866666D01*
X129642857Y-79533333D01*
X129600000Y-79333333D01*
X129557142Y-79200000D01*
X129471428Y-79000000D01*
X129428571Y-78933333D01*
X129128571Y-79266666D02*
X129085714Y-79200000D01*
X129000000Y-79133333D01*
X128785714Y-79133333D01*
X128700000Y-79200000D01*
X128657142Y-79266666D01*
X128614285Y-79400000D01*
X128614285Y-79533333D01*
X128657142Y-79733333D01*
X129171428Y-80533333D01*
X128614285Y-80533333D01*
X128228571Y-79600000D02*
X128228571Y-80533333D01*
X128228571Y-79733333D02*
X128185714Y-79666666D01*
X128100000Y-79600000D01*
X127971428Y-79600000D01*
X127885714Y-79666666D01*
X127842857Y-79800000D01*
X127842857Y-80533333D01*
X127028571Y-80533333D02*
X127028571Y-79133333D01*
X127028571Y-80466666D02*
X127114285Y-80533333D01*
X127285714Y-80533333D01*
X127371428Y-80466666D01*
X127414285Y-80400000D01*
X127457142Y-80266666D01*
X127457142Y-79866666D01*
X127414285Y-79733333D01*
X127371428Y-79666666D01*
X127285714Y-79600000D01*
X127114285Y-79600000D01*
X127028571Y-79666666D01*
X125742857Y-79133333D02*
X125571428Y-79133333D01*
X125485714Y-79200000D01*
X125400000Y-79333333D01*
X125357142Y-79600000D01*
X125357142Y-80066666D01*
X125400000Y-80333333D01*
X125485714Y-80466666D01*
X125571428Y-80533333D01*
X125742857Y-80533333D01*
X125828571Y-80466666D01*
X125914285Y-80333333D01*
X125957142Y-80066666D01*
X125957142Y-79600000D01*
X125914285Y-79333333D01*
X125828571Y-79200000D01*
X125742857Y-79133333D01*
X124585714Y-80466666D02*
X124671428Y-80533333D01*
X124842857Y-80533333D01*
X124928571Y-80466666D01*
X124971428Y-80400000D01*
X125014285Y-80266666D01*
X125014285Y-79866666D01*
X124971428Y-79733333D01*
X124928571Y-79666666D01*
X124842857Y-79600000D01*
X124671428Y-79600000D01*
X124585714Y-79666666D01*
X124328571Y-79600000D02*
X123985714Y-79600000D01*
X124200000Y-79133333D02*
X124200000Y-80333333D01*
X124157142Y-80466666D01*
X124071428Y-80533333D01*
X123985714Y-80533333D01*
X123557142Y-80533333D02*
X123642857Y-80466666D01*
X123685714Y-80400000D01*
X123728571Y-80266666D01*
X123728571Y-79866666D01*
X123685714Y-79733333D01*
X123642857Y-79666666D01*
X123557142Y-79600000D01*
X123428571Y-79600000D01*
X123342857Y-79666666D01*
X123300000Y-79733333D01*
X123257142Y-79866666D01*
X123257142Y-80266666D01*
X123300000Y-80400000D01*
X123342857Y-80466666D01*
X123428571Y-80533333D01*
X123557142Y-80533333D01*
X122871428Y-80533333D02*
X122871428Y-79133333D01*
X122871428Y-79666666D02*
X122785714Y-79600000D01*
X122614285Y-79600000D01*
X122528571Y-79666666D01*
X122485714Y-79733333D01*
X122442857Y-79866666D01*
X122442857Y-80266666D01*
X122485714Y-80400000D01*
X122528571Y-80466666D01*
X122614285Y-80533333D01*
X122785714Y-80533333D01*
X122871428Y-80466666D01*
X121714285Y-80466666D02*
X121800000Y-80533333D01*
X121971428Y-80533333D01*
X122057142Y-80466666D01*
X122100000Y-80333333D01*
X122100000Y-79800000D01*
X122057142Y-79666666D01*
X121971428Y-79600000D01*
X121800000Y-79600000D01*
X121714285Y-79666666D01*
X121671428Y-79800000D01*
X121671428Y-79933333D01*
X122100000Y-80066666D01*
X121285714Y-80533333D02*
X121285714Y-79600000D01*
X121285714Y-79866666D02*
X121242857Y-79733333D01*
X121200000Y-79666666D01*
X121114285Y-79600000D01*
X121028571Y-79600000D01*
X120085714Y-79266666D02*
X120042857Y-79200000D01*
X119957142Y-79133333D01*
X119742857Y-79133333D01*
X119657142Y-79200000D01*
X119614285Y-79266666D01*
X119571428Y-79400000D01*
X119571428Y-79533333D01*
X119614285Y-79733333D01*
X120128571Y-80533333D01*
X119571428Y-80533333D01*
X119014285Y-79133333D02*
X118928571Y-79133333D01*
X118842857Y-79200000D01*
X118800000Y-79266666D01*
X118757142Y-79400000D01*
X118714285Y-79666666D01*
X118714285Y-80000000D01*
X118757142Y-80266666D01*
X118800000Y-80400000D01*
X118842857Y-80466666D01*
X118928571Y-80533333D01*
X119014285Y-80533333D01*
X119100000Y-80466666D01*
X119142857Y-80400000D01*
X119185714Y-80266666D01*
X119228571Y-80000000D01*
X119228571Y-79666666D01*
X119185714Y-79400000D01*
X119142857Y-79266666D01*
X119100000Y-79200000D01*
X119014285Y-79133333D01*
X117857142Y-80533333D02*
X118371428Y-80533333D01*
X118114285Y-80533333D02*
X118114285Y-79133333D01*
X118200000Y-79333333D01*
X118285714Y-79466666D01*
X118371428Y-79533333D01*
X117428571Y-80533333D02*
X117257142Y-80533333D01*
X117171428Y-80466666D01*
X117128571Y-80400000D01*
X117042857Y-80200000D01*
X117000000Y-79933333D01*
X117000000Y-79400000D01*
X117042857Y-79266666D01*
X117085714Y-79200000D01*
X117171428Y-79133333D01*
X117342857Y-79133333D01*
X117428571Y-79200000D01*
X117471428Y-79266666D01*
X117514285Y-79400000D01*
X117514285Y-79733333D01*
X117471428Y-79866666D01*
X117428571Y-79933333D01*
X117342857Y-80000000D01*
X117171428Y-80000000D01*
X117085714Y-79933333D01*
X117042857Y-79866666D01*
X117000000Y-79733333D01*
X116700000Y-81066666D02*
X116657142Y-81000000D01*
X116571428Y-80800000D01*
X116528571Y-80666666D01*
X116485714Y-80466666D01*
X116442857Y-80133333D01*
X116442857Y-79866666D01*
X116485714Y-79533333D01*
X116528571Y-79333333D01*
X116571428Y-79200000D01*
X116657142Y-79000000D01*
X116700000Y-78933333D01*
D10*
X133272619Y-54734523D02*
X133272619Y-55341666D01*
X133313095Y-55463095D01*
X133394047Y-55544047D01*
X133515476Y-55584523D01*
X133596428Y-55584523D01*
X132948809Y-54734523D02*
X132422619Y-54734523D01*
X132705952Y-55058333D01*
X132584523Y-55058333D01*
X132503571Y-55098809D01*
X132463095Y-55139285D01*
X132422619Y-55220238D01*
X132422619Y-55422619D01*
X132463095Y-55503571D01*
X132503571Y-55544047D01*
X132584523Y-55584523D01*
X132827380Y-55584523D01*
X132908333Y-55544047D01*
X132948809Y-55503571D01*
X131167857Y-55908333D02*
X131208333Y-55867857D01*
X131289285Y-55746428D01*
X131329761Y-55665476D01*
X131370238Y-55544047D01*
X131410714Y-55341666D01*
X131410714Y-55179761D01*
X131370238Y-54977380D01*
X131329761Y-54855952D01*
X131289285Y-54775000D01*
X131208333Y-54653571D01*
X131167857Y-54613095D01*
X130682142Y-54734523D02*
X130520238Y-54734523D01*
X130439285Y-54775000D01*
X130358333Y-54855952D01*
X130317857Y-55017857D01*
X130317857Y-55301190D01*
X130358333Y-55463095D01*
X130439285Y-55544047D01*
X130520238Y-55584523D01*
X130682142Y-55584523D01*
X130763095Y-55544047D01*
X130844047Y-55463095D01*
X130884523Y-55301190D01*
X130884523Y-55017857D01*
X130844047Y-54855952D01*
X130763095Y-54775000D01*
X130682142Y-54734523D01*
X129548809Y-55584523D02*
X129953571Y-55584523D01*
X129953571Y-54734523D01*
X129265476Y-55139285D02*
X128982142Y-55139285D01*
X128860714Y-55584523D02*
X129265476Y-55584523D01*
X129265476Y-54734523D01*
X128860714Y-54734523D01*
X128496428Y-55584523D02*
X128496428Y-54734523D01*
X128294047Y-54734523D01*
X128172619Y-54775000D01*
X128091666Y-54855952D01*
X128051190Y-54936904D01*
X128010714Y-55098809D01*
X128010714Y-55220238D01*
X128051190Y-55382142D01*
X128091666Y-55463095D01*
X128172619Y-55544047D01*
X128294047Y-55584523D01*
X128496428Y-55584523D01*
X127727380Y-55908333D02*
X127686904Y-55867857D01*
X127605952Y-55746428D01*
X127565476Y-55665476D01*
X127525000Y-55544047D01*
X127484523Y-55341666D01*
X127484523Y-55179761D01*
X127525000Y-54977380D01*
X127565476Y-54855952D01*
X127605952Y-54775000D01*
X127686904Y-54653571D01*
X127727380Y-54613095D01*
X135071428Y-60223809D02*
X134957142Y-60261904D01*
X134766666Y-60261904D01*
X134690476Y-60223809D01*
X134652380Y-60185714D01*
X134614285Y-60109523D01*
X134614285Y-60033333D01*
X134652380Y-59957142D01*
X134690476Y-59919047D01*
X134766666Y-59880952D01*
X134919047Y-59842857D01*
X134995238Y-59804761D01*
X135033333Y-59766666D01*
X135071428Y-59690476D01*
X135071428Y-59614285D01*
X135033333Y-59538095D01*
X134995238Y-59500000D01*
X134919047Y-59461904D01*
X134728571Y-59461904D01*
X134614285Y-59500000D01*
X134271428Y-60261904D02*
X134271428Y-59461904D01*
X134080952Y-59461904D01*
X133966666Y-59500000D01*
X133890476Y-59576190D01*
X133852380Y-59652380D01*
X133814285Y-59804761D01*
X133814285Y-59919047D01*
X133852380Y-60071428D01*
X133890476Y-60147619D01*
X133966666Y-60223809D01*
X134080952Y-60261904D01*
X134271428Y-60261904D01*
X133509523Y-60033333D02*
X133128571Y-60033333D01*
X133585714Y-60261904D02*
X133319047Y-59461904D01*
X133052380Y-60261904D01*
D13*
X108042857Y-90671428D02*
X108042857Y-90071428D01*
X107900000Y-90071428D01*
X107814285Y-90100000D01*
X107757142Y-90157142D01*
X107728571Y-90214285D01*
X107700000Y-90328571D01*
X107700000Y-90414285D01*
X107728571Y-90528571D01*
X107757142Y-90585714D01*
X107814285Y-90642857D01*
X107900000Y-90671428D01*
X108042857Y-90671428D01*
X107414285Y-90671428D02*
X107300000Y-90671428D01*
X107242857Y-90642857D01*
X107214285Y-90614285D01*
X107157142Y-90528571D01*
X107128571Y-90414285D01*
X107128571Y-90185714D01*
X107157142Y-90128571D01*
X107185714Y-90100000D01*
X107242857Y-90071428D01*
X107357142Y-90071428D01*
X107414285Y-90100000D01*
X107442857Y-90128571D01*
X107471428Y-90185714D01*
X107471428Y-90328571D01*
X107442857Y-90385714D01*
X107414285Y-90414285D01*
X107357142Y-90442857D01*
X107242857Y-90442857D01*
X107185714Y-90414285D01*
X107157142Y-90385714D01*
X107128571Y-90328571D01*
X107928571Y-88100000D02*
X107642857Y-88100000D01*
X107985714Y-88271428D02*
X107785714Y-87671428D01*
X107585714Y-88271428D01*
X107442857Y-87671428D02*
X107042857Y-87671428D01*
X107300000Y-88271428D01*
D10*
X129152380Y-59461904D02*
X129533333Y-59461904D01*
X129571428Y-59842857D01*
X129533333Y-59804761D01*
X129457142Y-59766666D01*
X129266666Y-59766666D01*
X129190476Y-59804761D01*
X129152380Y-59842857D01*
X129114285Y-59919047D01*
X129114285Y-60109523D01*
X129152380Y-60185714D01*
X129190476Y-60223809D01*
X129266666Y-60261904D01*
X129457142Y-60261904D01*
X129533333Y-60223809D01*
X129571428Y-60185714D01*
X128885714Y-59461904D02*
X128619047Y-60261904D01*
X128352380Y-59461904D01*
X127209523Y-59500000D02*
X127285714Y-59461904D01*
X127400000Y-59461904D01*
X127514285Y-59500000D01*
X127590476Y-59576190D01*
X127628571Y-59652380D01*
X127666666Y-59804761D01*
X127666666Y-59919047D01*
X127628571Y-60071428D01*
X127590476Y-60147619D01*
X127514285Y-60223809D01*
X127400000Y-60261904D01*
X127323809Y-60261904D01*
X127209523Y-60223809D01*
X127171428Y-60185714D01*
X127171428Y-59919047D01*
X127323809Y-59919047D01*
X126828571Y-60261904D02*
X126828571Y-59461904D01*
X126371428Y-60261904D01*
X126371428Y-59461904D01*
X125990476Y-60261904D02*
X125990476Y-59461904D01*
X125800000Y-59461904D01*
X125685714Y-59500000D01*
X125609523Y-59576190D01*
X125571428Y-59652380D01*
X125533333Y-59804761D01*
X125533333Y-59919047D01*
X125571428Y-60071428D01*
X125609523Y-60147619D01*
X125685714Y-60223809D01*
X125800000Y-60261904D01*
X125990476Y-60261904D01*
D13*
X107857142Y-82500000D02*
X107914285Y-82471428D01*
X108000000Y-82471428D01*
X108085714Y-82500000D01*
X108142857Y-82557142D01*
X108171428Y-82614285D01*
X108200000Y-82728571D01*
X108200000Y-82814285D01*
X108171428Y-82928571D01*
X108142857Y-82985714D01*
X108085714Y-83042857D01*
X108000000Y-83071428D01*
X107942857Y-83071428D01*
X107857142Y-83042857D01*
X107828571Y-83014285D01*
X107828571Y-82814285D01*
X107942857Y-82814285D01*
X107571428Y-83071428D02*
X107571428Y-82471428D01*
X107228571Y-83071428D01*
X107228571Y-82471428D01*
X106942857Y-83071428D02*
X106942857Y-82471428D01*
X106800000Y-82471428D01*
X106714285Y-82500000D01*
X106657142Y-82557142D01*
X106628571Y-82614285D01*
X106600000Y-82728571D01*
X106600000Y-82814285D01*
X106628571Y-82928571D01*
X106657142Y-82985714D01*
X106714285Y-83042857D01*
X106800000Y-83071428D01*
X106942857Y-83071428D01*
X107614285Y-85071428D02*
X107900000Y-85071428D01*
X107928571Y-85357142D01*
X107900000Y-85328571D01*
X107842857Y-85300000D01*
X107700000Y-85300000D01*
X107642857Y-85328571D01*
X107614285Y-85357142D01*
X107585714Y-85414285D01*
X107585714Y-85557142D01*
X107614285Y-85614285D01*
X107642857Y-85642857D01*
X107700000Y-85671428D01*
X107842857Y-85671428D01*
X107900000Y-85642857D01*
X107928571Y-85614285D01*
X107414285Y-85071428D02*
X107214285Y-85671428D01*
X107014285Y-85071428D01*
D10*
X132452380Y-60223809D02*
X132338095Y-60261904D01*
X132147619Y-60261904D01*
X132071428Y-60223809D01*
X132033333Y-60185714D01*
X131995238Y-60109523D01*
X131995238Y-60033333D01*
X132033333Y-59957142D01*
X132071428Y-59919047D01*
X132147619Y-59880952D01*
X132300000Y-59842857D01*
X132376190Y-59804761D01*
X132414285Y-59766666D01*
X132452380Y-59690476D01*
X132452380Y-59614285D01*
X132414285Y-59538095D01*
X132376190Y-59500000D01*
X132300000Y-59461904D01*
X132109523Y-59461904D01*
X131995238Y-59500000D01*
X131195238Y-60185714D02*
X131233333Y-60223809D01*
X131347619Y-60261904D01*
X131423809Y-60261904D01*
X131538095Y-60223809D01*
X131614285Y-60147619D01*
X131652380Y-60071428D01*
X131690476Y-59919047D01*
X131690476Y-59804761D01*
X131652380Y-59652380D01*
X131614285Y-59576190D01*
X131538095Y-59500000D01*
X131423809Y-59461904D01*
X131347619Y-59461904D01*
X131233333Y-59500000D01*
X131195238Y-59538095D01*
X130471428Y-60261904D02*
X130852380Y-60261904D01*
X130852380Y-59461904D01*
D12*
X149709523Y-65790476D02*
X149395238Y-65895238D01*
X148871428Y-65895238D01*
X148661904Y-65790476D01*
X148557142Y-65685714D01*
X148452380Y-65476190D01*
X148452380Y-65266666D01*
X148557142Y-65057142D01*
X148661904Y-64952380D01*
X148871428Y-64847619D01*
X149290476Y-64742857D01*
X149500000Y-64638095D01*
X149604761Y-64533333D01*
X149709523Y-64323809D01*
X149709523Y-64114285D01*
X149604761Y-63904761D01*
X149500000Y-63800000D01*
X149290476Y-63695238D01*
X148766666Y-63695238D01*
X148452380Y-63800000D01*
X146671428Y-65790476D02*
X146880952Y-65895238D01*
X147300000Y-65895238D01*
X147509523Y-65790476D01*
X147614285Y-65580952D01*
X147614285Y-64742857D01*
X147509523Y-64533333D01*
X147300000Y-64428571D01*
X146880952Y-64428571D01*
X146671428Y-64533333D01*
X146566666Y-64742857D01*
X146566666Y-64952380D01*
X147614285Y-65161904D01*
X144680952Y-64428571D02*
X144680952Y-66209523D01*
X144785714Y-66419047D01*
X144890476Y-66523809D01*
X145100000Y-66628571D01*
X145414285Y-66628571D01*
X145623809Y-66523809D01*
X144680952Y-65790476D02*
X144890476Y-65895238D01*
X145309523Y-65895238D01*
X145519047Y-65790476D01*
X145623809Y-65685714D01*
X145728571Y-65476190D01*
X145728571Y-64847619D01*
X145623809Y-64638095D01*
X145519047Y-64533333D01*
X145309523Y-64428571D01*
X144890476Y-64428571D01*
X144680952Y-64533333D01*
X142690476Y-65895238D02*
X142690476Y-64742857D01*
X142795238Y-64533333D01*
X143004761Y-64428571D01*
X143423809Y-64428571D01*
X143633333Y-64533333D01*
X142690476Y-65790476D02*
X142900000Y-65895238D01*
X143423809Y-65895238D01*
X143633333Y-65790476D01*
X143738095Y-65580952D01*
X143738095Y-65371428D01*
X143633333Y-65161904D01*
X143423809Y-65057142D01*
X142900000Y-65057142D01*
X142690476Y-64952380D01*
X139966666Y-65895238D02*
X139966666Y-63695238D01*
X139233333Y-65266666D01*
X138500000Y-63695238D01*
X138500000Y-65895238D01*
X136614285Y-65790476D02*
X136823809Y-65895238D01*
X137242857Y-65895238D01*
X137452380Y-65790476D01*
X137557142Y-65580952D01*
X137557142Y-64742857D01*
X137452380Y-64533333D01*
X137242857Y-64428571D01*
X136823809Y-64428571D01*
X136614285Y-64533333D01*
X136509523Y-64742857D01*
X136509523Y-64952380D01*
X137557142Y-65161904D01*
X134623809Y-64428571D02*
X134623809Y-66209523D01*
X134728571Y-66419047D01*
X134833333Y-66523809D01*
X135042857Y-66628571D01*
X135357142Y-66628571D01*
X135566666Y-66523809D01*
X134623809Y-65790476D02*
X134833333Y-65895238D01*
X135252380Y-65895238D01*
X135461904Y-65790476D01*
X135566666Y-65685714D01*
X135671428Y-65476190D01*
X135671428Y-64847619D01*
X135566666Y-64638095D01*
X135461904Y-64533333D01*
X135252380Y-64428571D01*
X134833333Y-64428571D01*
X134623809Y-64533333D01*
X132633333Y-65895238D02*
X132633333Y-64742857D01*
X132738095Y-64533333D01*
X132947619Y-64428571D01*
X133366666Y-64428571D01*
X133576190Y-64533333D01*
X132633333Y-65790476D02*
X132842857Y-65895238D01*
X133366666Y-65895238D01*
X133576190Y-65790476D01*
X133680952Y-65580952D01*
X133680952Y-65371428D01*
X133576190Y-65161904D01*
X133366666Y-65057142D01*
X132842857Y-65057142D01*
X132633333Y-64952380D01*
X130642857Y-65895238D02*
X130642857Y-63695238D01*
X130642857Y-65790476D02*
X130852380Y-65895238D01*
X131271428Y-65895238D01*
X131480952Y-65790476D01*
X131585714Y-65685714D01*
X131690476Y-65476190D01*
X131690476Y-64847619D01*
X131585714Y-64638095D01*
X131480952Y-64533333D01*
X131271428Y-64428571D01*
X130852380Y-64428571D01*
X130642857Y-64533333D01*
X129595238Y-65895238D02*
X129595238Y-64428571D01*
X129595238Y-64847619D02*
X129490476Y-64638095D01*
X129385714Y-64533333D01*
X129176190Y-64428571D01*
X128966666Y-64428571D01*
X128233333Y-65895238D02*
X128233333Y-64428571D01*
X128233333Y-63695238D02*
X128338095Y-63800000D01*
X128233333Y-63904761D01*
X128128571Y-63800000D01*
X128233333Y-63695238D01*
X128233333Y-63904761D01*
X127395238Y-64428571D02*
X126871428Y-65895238D01*
X126347619Y-64428571D01*
X124671428Y-65790476D02*
X124880952Y-65895238D01*
X125300000Y-65895238D01*
X125509523Y-65790476D01*
X125614285Y-65580952D01*
X125614285Y-64742857D01*
X125509523Y-64533333D01*
X125300000Y-64428571D01*
X124880952Y-64428571D01*
X124671428Y-64533333D01*
X124566666Y-64742857D01*
X124566666Y-64952380D01*
X125614285Y-65161904D01*
X122052380Y-63590476D02*
X123938095Y-66419047D01*
X120166666Y-63800000D02*
X120376190Y-63695238D01*
X120690476Y-63695238D01*
X121004761Y-63800000D01*
X121214285Y-64009523D01*
X121319047Y-64219047D01*
X121423809Y-64638095D01*
X121423809Y-64952380D01*
X121319047Y-65371428D01*
X121214285Y-65580952D01*
X121004761Y-65790476D01*
X120690476Y-65895238D01*
X120480952Y-65895238D01*
X120166666Y-65790476D01*
X120061904Y-65685714D01*
X120061904Y-64952380D01*
X120480952Y-64952380D01*
X118280952Y-65790476D02*
X118490476Y-65895238D01*
X118909523Y-65895238D01*
X119119047Y-65790476D01*
X119223809Y-65580952D01*
X119223809Y-64742857D01*
X119119047Y-64533333D01*
X118909523Y-64428571D01*
X118490476Y-64428571D01*
X118280952Y-64533333D01*
X118176190Y-64742857D01*
X118176190Y-64952380D01*
X119223809Y-65161904D01*
X117233333Y-64428571D02*
X117233333Y-65895238D01*
X117233333Y-64638095D02*
X117128571Y-64533333D01*
X116919047Y-64428571D01*
X116604761Y-64428571D01*
X116395238Y-64533333D01*
X116290476Y-64742857D01*
X116290476Y-65895238D01*
X114404761Y-65790476D02*
X114614285Y-65895238D01*
X115033333Y-65895238D01*
X115242857Y-65790476D01*
X115347619Y-65580952D01*
X115347619Y-64742857D01*
X115242857Y-64533333D01*
X115033333Y-64428571D01*
X114614285Y-64428571D01*
X114404761Y-64533333D01*
X114300000Y-64742857D01*
X114300000Y-64952380D01*
X115347619Y-65161904D01*
X113461904Y-65790476D02*
X113252380Y-65895238D01*
X112833333Y-65895238D01*
X112623809Y-65790476D01*
X112519047Y-65580952D01*
X112519047Y-65476190D01*
X112623809Y-65266666D01*
X112833333Y-65161904D01*
X113147619Y-65161904D01*
X113357142Y-65057142D01*
X113461904Y-64847619D01*
X113461904Y-64742857D01*
X113357142Y-64533333D01*
X113147619Y-64428571D01*
X112833333Y-64428571D01*
X112623809Y-64533333D01*
X111576190Y-65895238D02*
X111576190Y-64428571D01*
X111576190Y-63695238D02*
X111680952Y-63800000D01*
X111576190Y-63904761D01*
X111471428Y-63800000D01*
X111576190Y-63695238D01*
X111576190Y-63904761D01*
X110633333Y-65790476D02*
X110423809Y-65895238D01*
X110004761Y-65895238D01*
X109795238Y-65790476D01*
X109690476Y-65580952D01*
X109690476Y-65476190D01*
X109795238Y-65266666D01*
X110004761Y-65161904D01*
X110319047Y-65161904D01*
X110528571Y-65057142D01*
X110633333Y-64847619D01*
X110633333Y-64742857D01*
X110528571Y-64533333D01*
X110319047Y-64428571D01*
X110004761Y-64428571D01*
X109795238Y-64533333D01*
D13*
X108230000Y-91410000D02*
X109500000Y-91410000D01*
X108230000Y-90140000D02*
X108230000Y-91410000D01*
X110542929Y-82140000D02*
X110940000Y-82140000D01*
X110542929Y-82900000D02*
X110940000Y-82900000D01*
X119600000Y-82140000D02*
X113600000Y-82140000D01*
X119600000Y-82900000D02*
X119600000Y-82140000D01*
X113600000Y-82900000D02*
X119600000Y-82900000D01*
X110940000Y-83790000D02*
X113600000Y-83790000D01*
X110542929Y-84680000D02*
X110940000Y-84680000D01*
X110542929Y-85440000D02*
X110940000Y-85440000D01*
X119600000Y-84680000D02*
X113600000Y-84680000D01*
X119600000Y-85440000D02*
X119600000Y-84680000D01*
X113600000Y-85440000D02*
X119600000Y-85440000D01*
X110940000Y-86330000D02*
X113600000Y-86330000D01*
X110542929Y-87220000D02*
X110940000Y-87220000D01*
X110542929Y-87980000D02*
X110940000Y-87980000D01*
X119600000Y-87220000D02*
X113600000Y-87220000D01*
X119600000Y-87980000D02*
X119600000Y-87220000D01*
X113600000Y-87980000D02*
X119600000Y-87980000D01*
X110940000Y-88870000D02*
X113600000Y-88870000D01*
X110610000Y-89760000D02*
X110940000Y-89760000D01*
X110610000Y-90520000D02*
X110940000Y-90520000D01*
X113600000Y-89860000D02*
X119600000Y-89860000D01*
X113600000Y-89980000D02*
X119600000Y-89980000D01*
X113600000Y-90100000D02*
X119600000Y-90100000D01*
X113600000Y-90220000D02*
X119600000Y-90220000D01*
X113600000Y-90340000D02*
X119600000Y-90340000D01*
X113600000Y-90460000D02*
X119600000Y-90460000D01*
X119600000Y-89760000D02*
X113600000Y-89760000D01*
X119600000Y-90520000D02*
X119600000Y-89760000D01*
X113600000Y-90520000D02*
X119600000Y-90520000D01*
X113600000Y-91470000D02*
X110940000Y-91470000D01*
X113600000Y-81190000D02*
X113600000Y-91470000D01*
X110940000Y-81190000D02*
X113600000Y-81190000D01*
X110940000Y-91470000D02*
X110940000Y-81190000D01*
M02*
