G04 #@! TF.GenerationSoftware,KiCad,Pcbnew,(5.1.4)-1*
G04 #@! TF.CreationDate,2019-11-09T17:45:09+10:00*
G04 #@! TF.ProjectId,SegaControllerForApple2,53656761-436f-46e7-9472-6f6c6c657246,rev?*
G04 #@! TF.SameCoordinates,Original*
G04 #@! TF.FileFunction,Copper,L2,Bot*
G04 #@! TF.FilePolarity,Positive*
%FSLAX46Y46*%
G04 Gerber Fmt 4.6, Leading zero omitted, Abs format (unit mm)*
G04 Created by KiCad (PCBNEW (5.1.4)-1) date 2019-11-09 17:45:09*
%MOMM*%
%LPD*%
G04 APERTURE LIST*
%ADD10O,1.600000X1.600000*%
%ADD11R,1.600000X1.600000*%
%ADD12O,1.700000X1.700000*%
%ADD13R,1.700000X1.700000*%
%ADD14O,1.400000X1.400000*%
%ADD15C,1.400000*%
%ADD16R,1.300000X1.300000*%
%ADD17C,1.300000*%
%ADD18C,4.000000*%
%ADD19C,1.600000*%
%ADD20O,1.727200X1.727200*%
%ADD21R,1.727200X1.727200*%
%ADD22C,0.800000*%
%ADD23C,0.250000*%
%ADD24C,0.254000*%
G04 APERTURE END LIST*
D10*
X116520000Y-36200000D03*
X108900000Y-51440000D03*
X116520000Y-38740000D03*
X108900000Y-48900000D03*
X116520000Y-41280000D03*
X108900000Y-46360000D03*
X116520000Y-43820000D03*
X108900000Y-43820000D03*
X116520000Y-46360000D03*
X108900000Y-41280000D03*
X116520000Y-48900000D03*
X108900000Y-38740000D03*
X116520000Y-51440000D03*
D11*
X108900000Y-36200000D03*
D10*
X152620000Y-36200000D03*
X145000000Y-51440000D03*
X152620000Y-38740000D03*
X145000000Y-48900000D03*
X152620000Y-41280000D03*
X145000000Y-46360000D03*
X152620000Y-43820000D03*
X145000000Y-43820000D03*
X152620000Y-46360000D03*
X145000000Y-41280000D03*
X152620000Y-48900000D03*
X145000000Y-38740000D03*
X152620000Y-51440000D03*
D11*
X145000000Y-36200000D03*
D12*
X109500000Y-82520000D03*
X109500000Y-85060000D03*
X109500000Y-87600000D03*
D13*
X109500000Y-90140000D03*
D14*
X152520000Y-55300000D03*
D15*
X144900000Y-55300000D03*
D14*
X109080000Y-55500000D03*
D15*
X116700000Y-55500000D03*
D16*
X120100000Y-54200000D03*
D17*
X122640000Y-54200000D03*
X121370000Y-52930000D03*
D18*
X143140000Y-84600000D03*
X118140000Y-84600000D03*
D19*
X134795000Y-87140000D03*
X132025000Y-87140000D03*
X129255000Y-87140000D03*
X126485000Y-87140000D03*
X136180000Y-84300000D03*
X133410000Y-84300000D03*
X130640000Y-84300000D03*
X127870000Y-84300000D03*
D11*
X125100000Y-84300000D03*
D20*
X135160000Y-45060000D03*
X135160000Y-47600000D03*
X132620000Y-45060000D03*
X132620000Y-47600000D03*
X130080000Y-45060000D03*
X130080000Y-47600000D03*
X127540000Y-45060000D03*
X127540000Y-47600000D03*
X125000000Y-45060000D03*
D21*
X125000000Y-47600000D03*
D14*
X144880000Y-58800000D03*
D15*
X152500000Y-58800000D03*
D14*
X109080000Y-58900000D03*
D15*
X116700000Y-58900000D03*
D10*
X146750000Y-62000000D03*
X146750000Y-77240000D03*
X111190000Y-62000000D03*
X144210000Y-77240000D03*
X113730000Y-62000000D03*
X141670000Y-77240000D03*
X116270000Y-62000000D03*
X139130000Y-77240000D03*
X118810000Y-62000000D03*
X136590000Y-77240000D03*
X121350000Y-62000000D03*
X134050000Y-77240000D03*
X123890000Y-62000000D03*
X131510000Y-77240000D03*
X126430000Y-62000000D03*
X128970000Y-77240000D03*
X128970000Y-62000000D03*
X126430000Y-77240000D03*
X131510000Y-62000000D03*
X123890000Y-77240000D03*
X134050000Y-62000000D03*
X121350000Y-77240000D03*
X136590000Y-62000000D03*
X118810000Y-77240000D03*
X139130000Y-62000000D03*
X116270000Y-77240000D03*
X141670000Y-62000000D03*
X113730000Y-77240000D03*
X144210000Y-62000000D03*
D11*
X111190000Y-77240000D03*
D16*
X138700000Y-54200000D03*
D17*
X141240000Y-54200000D03*
X139970000Y-52930000D03*
D12*
X134320000Y-57900000D03*
X131780000Y-57900000D03*
X129240000Y-57900000D03*
D13*
X126700000Y-57900000D03*
D22*
X138000000Y-44400000D03*
X139100000Y-56500000D03*
D23*
X143084999Y-76114999D02*
X144210000Y-77240000D01*
X139322993Y-55649991D02*
X143084999Y-59411997D01*
X143084999Y-59411997D02*
X143084999Y-76114999D01*
X130349991Y-55649991D02*
X137050009Y-55649991D01*
X137050009Y-55649991D02*
X139322993Y-55649991D01*
X134586401Y-55649991D02*
X137050009Y-55649991D01*
X108900000Y-41280000D02*
X114854998Y-41280000D01*
X114854998Y-41280000D02*
X116269997Y-42694999D01*
X116269997Y-42694999D02*
X117394999Y-42694999D01*
X117394999Y-42694999D02*
X130349991Y-55649991D01*
X146125001Y-36275001D02*
X146050000Y-36200000D01*
X146125001Y-59072001D02*
X146125001Y-36275001D01*
X145500000Y-59697002D02*
X146125001Y-59072001D01*
X145500000Y-77615002D02*
X145500000Y-59697002D01*
X144750001Y-78365001D02*
X145500000Y-77615002D01*
X146050000Y-36200000D02*
X145000000Y-36200000D01*
X142795001Y-78365001D02*
X144750001Y-78365001D01*
X141670000Y-77240000D02*
X142795001Y-78365001D01*
X127713000Y-82194370D02*
X127713000Y-84300000D01*
X123890000Y-78371370D02*
X127713000Y-82194370D01*
X123890000Y-77240000D02*
X123890000Y-78371370D01*
X124943000Y-80833000D02*
X121350000Y-77240000D01*
X124943000Y-84300000D02*
X124943000Y-80833000D01*
X137389999Y-78039999D02*
X136590000Y-77240000D01*
X137389999Y-84755003D02*
X137389999Y-78039999D01*
X135805001Y-86340001D02*
X137389999Y-84755003D01*
X135594999Y-86340001D02*
X135805001Y-86340001D01*
X134795000Y-87140000D02*
X135594999Y-86340001D01*
X130054999Y-86340001D02*
X129255000Y-87140000D01*
X130265001Y-86340001D02*
X130054999Y-86340001D01*
X131765001Y-84840001D02*
X130265001Y-86340001D01*
X131765001Y-79524999D02*
X131765001Y-84840001D01*
X134050000Y-77240000D02*
X131765001Y-79524999D01*
X127284999Y-86340001D02*
X126485000Y-87140000D01*
X127495001Y-86340001D02*
X127284999Y-86340001D01*
X128995001Y-84840001D02*
X127495001Y-86340001D01*
X128995001Y-79754999D02*
X128995001Y-84840001D01*
X131510000Y-77240000D02*
X128995001Y-79754999D01*
X133470001Y-58749999D02*
X134320000Y-57900000D01*
X131345001Y-60874999D02*
X133470001Y-58749999D01*
X130095001Y-60874999D02*
X131345001Y-60874999D01*
X128970000Y-62000000D02*
X130095001Y-60874999D01*
X130930001Y-58749999D02*
X131780000Y-57900000D01*
X128805001Y-60874999D02*
X130930001Y-58749999D01*
X127555001Y-60874999D02*
X128805001Y-60874999D01*
X126430000Y-62000000D02*
X127555001Y-60874999D01*
X142460000Y-38740000D02*
X145000000Y-41280000D01*
X116520000Y-38740000D02*
X142460000Y-38740000D01*
X115050000Y-52930000D02*
X121370000Y-52930000D01*
X109080000Y-58900000D02*
X115050000Y-52930000D01*
X153419999Y-48100001D02*
X152620000Y-48900000D01*
X153745001Y-47774999D02*
X153419999Y-48100001D01*
X153160001Y-35074999D02*
X153745001Y-35659999D01*
X115979999Y-35074999D02*
X153160001Y-35074999D01*
X115394999Y-35659999D02*
X115979999Y-35074999D01*
X115394999Y-39280001D02*
X115394999Y-35659999D01*
X115979999Y-39865001D02*
X115394999Y-39280001D01*
X126644131Y-39865001D02*
X115979999Y-39865001D01*
X131431399Y-44652269D02*
X126644131Y-39865001D01*
X131431399Y-47469915D02*
X131431399Y-44652269D01*
X131301314Y-47600000D02*
X131431399Y-47469915D01*
X153745001Y-35659999D02*
X153745001Y-47774999D01*
X130080000Y-47600000D02*
X131301314Y-47600000D01*
X152620000Y-50031370D02*
X152620000Y-51440000D01*
X152620000Y-48900000D02*
X152620000Y-50031370D01*
X145000000Y-50308630D02*
X145000000Y-48900000D01*
X145000000Y-51440000D02*
X145000000Y-50308630D01*
X133483599Y-45923599D02*
X132620000Y-45060000D01*
X133808601Y-46248601D02*
X133483599Y-45923599D01*
X142348601Y-46248601D02*
X133808601Y-46248601D01*
X145000000Y-48900000D02*
X142348601Y-46248601D01*
X118010001Y-76440001D02*
X118810000Y-77240000D01*
X113530000Y-82520000D02*
X109500000Y-82520000D01*
X118810000Y-77240000D02*
X113530000Y-82520000D01*
X130742999Y-88265001D02*
X131868000Y-87140000D01*
X118206999Y-88265001D02*
X130742999Y-88265001D01*
X112461998Y-82520000D02*
X118206999Y-88265001D01*
X109500000Y-82520000D02*
X112461998Y-82520000D01*
X108100001Y-44619999D02*
X108900000Y-43820000D01*
X107774999Y-44945001D02*
X108100001Y-44619999D01*
X107774999Y-54194999D02*
X107774999Y-44945001D01*
X109080000Y-55500000D02*
X107774999Y-54194999D01*
X153219999Y-54600001D02*
X152520000Y-55300000D01*
X154195011Y-53624989D02*
X153219999Y-54600001D01*
X154195011Y-35473599D02*
X154195011Y-53624989D01*
X153346394Y-34624982D02*
X154195011Y-35473599D01*
X107774999Y-35139999D02*
X108290017Y-34624982D01*
X107774999Y-42694999D02*
X107774999Y-35139999D01*
X108290017Y-34624982D02*
X153346394Y-34624982D01*
X108900000Y-43820000D02*
X107774999Y-42694999D01*
X112930001Y-61200001D02*
X113730000Y-62000000D01*
X112604999Y-60874999D02*
X112930001Y-61200001D01*
X109537997Y-60874999D02*
X112604999Y-60874999D01*
X108054999Y-59392001D02*
X109537997Y-60874999D01*
X108054999Y-56525001D02*
X108054999Y-59392001D01*
X109080000Y-55500000D02*
X108054999Y-56525001D01*
X125600000Y-57900000D02*
X126700000Y-57900000D01*
X123574999Y-59925001D02*
X125600000Y-57900000D01*
X115804999Y-59925001D02*
X123574999Y-59925001D01*
X113730000Y-62000000D02*
X115804999Y-59925001D01*
X138580000Y-43820000D02*
X138000000Y-44400000D01*
X145000000Y-43820000D02*
X138580000Y-43820000D01*
X111440000Y-43820000D02*
X108900000Y-46360000D01*
X116520000Y-43820000D02*
X111440000Y-43820000D01*
X128390001Y-57050001D02*
X129240000Y-57900000D01*
X128064999Y-56724999D02*
X128390001Y-57050001D01*
X123524999Y-56724999D02*
X128064999Y-56724999D01*
X121000000Y-54200000D02*
X123524999Y-56724999D01*
X120100000Y-54200000D02*
X121000000Y-54200000D01*
X111989999Y-62799999D02*
X111190000Y-62000000D01*
X112315001Y-63125001D02*
X111989999Y-62799999D01*
X124430001Y-63125001D02*
X112315001Y-63125001D01*
X125015001Y-62540001D02*
X124430001Y-63125001D01*
X125015001Y-61484999D02*
X125015001Y-62540001D01*
X127424999Y-59075001D02*
X125015001Y-61484999D01*
X128064999Y-59075001D02*
X127424999Y-59075001D01*
X129240000Y-57900000D02*
X128064999Y-59075001D01*
X113155011Y-88715011D02*
X132114991Y-88715011D01*
X109500000Y-85060000D02*
X113155011Y-88715011D01*
X135048630Y-84300000D02*
X136180000Y-84300000D01*
X133669999Y-85678631D02*
X135048630Y-84300000D01*
X133669999Y-87130001D02*
X133669999Y-85678631D01*
X132114991Y-88685009D02*
X133669999Y-87130001D01*
X132114991Y-88715011D02*
X132114991Y-88685009D01*
X140590001Y-54649999D02*
X141240000Y-54000000D01*
X140264999Y-54975001D02*
X140590001Y-54649999D01*
X125000000Y-48713600D02*
X131261401Y-54975001D01*
X125000000Y-47600000D02*
X125000000Y-48713600D01*
X142540000Y-55300000D02*
X144900000Y-55300000D01*
X141240000Y-54000000D02*
X142540000Y-55300000D01*
X140590001Y-54849999D02*
X141240000Y-54200000D01*
X140264999Y-55175001D02*
X140590001Y-54849999D01*
X136775001Y-55175001D02*
X140264999Y-55175001D01*
X136575001Y-54975001D02*
X136775001Y-55175001D01*
X131261401Y-54975001D02*
X136575001Y-54975001D01*
X139130000Y-84470002D02*
X139130000Y-83730000D01*
X133460002Y-90140000D02*
X139130000Y-84470002D01*
X109500000Y-90140000D02*
X133460002Y-90140000D01*
X139130000Y-84313002D02*
X139130000Y-83730000D01*
X139130000Y-83730000D02*
X139130000Y-77240000D01*
X108900000Y-48900000D02*
X110031370Y-48900000D01*
X111446369Y-50314999D02*
X123914999Y-50314999D01*
X110031370Y-48900000D02*
X111446369Y-50314999D01*
X130100000Y-56500000D02*
X139100000Y-56500000D01*
X129800000Y-56200000D02*
X130100000Y-56500000D01*
X129800000Y-56200000D02*
X129900000Y-56300000D01*
X123914999Y-50314999D02*
X129800000Y-56200000D01*
D24*
G36*
X115416199Y-34563997D02*
G01*
X114883997Y-35096200D01*
X114854999Y-35119998D01*
X114831201Y-35148996D01*
X114831200Y-35148997D01*
X114760025Y-35235723D01*
X114689453Y-35367753D01*
X114668653Y-35436324D01*
X114649558Y-35499276D01*
X114645997Y-35511014D01*
X114631323Y-35659999D01*
X114635000Y-35697331D01*
X114634999Y-39242678D01*
X114631323Y-39280001D01*
X114634999Y-39317323D01*
X114634999Y-39317333D01*
X114645996Y-39428986D01*
X114680005Y-39541101D01*
X114689453Y-39572247D01*
X114760025Y-39704277D01*
X114799870Y-39752827D01*
X114854998Y-39820002D01*
X114884001Y-39843804D01*
X115410330Y-40370133D01*
X115321068Y-40478899D01*
X115242716Y-40625485D01*
X115147245Y-40574454D01*
X115003984Y-40530997D01*
X114892331Y-40520000D01*
X114892320Y-40520000D01*
X114854998Y-40516324D01*
X114817676Y-40520000D01*
X110120901Y-40520000D01*
X110098932Y-40478899D01*
X109919608Y-40260392D01*
X109701101Y-40081068D01*
X109568142Y-40010000D01*
X109701101Y-39938932D01*
X109919608Y-39759608D01*
X110098932Y-39541101D01*
X110232182Y-39291808D01*
X110314236Y-39021309D01*
X110341943Y-38740000D01*
X110314236Y-38458691D01*
X110232182Y-38188192D01*
X110098932Y-37938899D01*
X109919608Y-37720392D01*
X109806518Y-37627581D01*
X109824482Y-37625812D01*
X109944180Y-37589502D01*
X110054494Y-37530537D01*
X110151185Y-37451185D01*
X110230537Y-37354494D01*
X110289502Y-37244180D01*
X110325812Y-37124482D01*
X110338072Y-37000000D01*
X110338072Y-35400000D01*
X110325812Y-35275518D01*
X110289502Y-35155820D01*
X110230537Y-35045506D01*
X110151185Y-34948815D01*
X110054494Y-34869463D01*
X109944180Y-34810498D01*
X109824482Y-34774188D01*
X109700000Y-34761928D01*
X108100000Y-34761928D01*
X107975518Y-34774188D01*
X107855820Y-34810498D01*
X107745506Y-34869463D01*
X107648815Y-34948815D01*
X107569463Y-35045506D01*
X107510498Y-35155820D01*
X107474188Y-35275518D01*
X107461928Y-35400000D01*
X107461928Y-37000000D01*
X107474188Y-37124482D01*
X107510498Y-37244180D01*
X107569463Y-37354494D01*
X107648815Y-37451185D01*
X107745506Y-37530537D01*
X107855820Y-37589502D01*
X107975518Y-37625812D01*
X107993482Y-37627581D01*
X107880392Y-37720392D01*
X107701068Y-37938899D01*
X107567818Y-38188192D01*
X107485764Y-38458691D01*
X107458057Y-38740000D01*
X107485764Y-39021309D01*
X107567818Y-39291808D01*
X107701068Y-39541101D01*
X107880392Y-39759608D01*
X108098899Y-39938932D01*
X108231858Y-40010000D01*
X108098899Y-40081068D01*
X107880392Y-40260392D01*
X107701068Y-40478899D01*
X107567818Y-40728192D01*
X107485764Y-40998691D01*
X107458057Y-41280000D01*
X107485764Y-41561309D01*
X107567818Y-41831808D01*
X107701068Y-42081101D01*
X107880392Y-42299608D01*
X108098899Y-42478932D01*
X108236682Y-42552579D01*
X108044869Y-42667615D01*
X107836481Y-42856586D01*
X107668963Y-43082580D01*
X107548754Y-43336913D01*
X107508096Y-43470961D01*
X107630085Y-43693000D01*
X108773000Y-43693000D01*
X108773000Y-43673000D01*
X109027000Y-43673000D01*
X109027000Y-43693000D01*
X110169915Y-43693000D01*
X110291904Y-43470961D01*
X110251246Y-43336913D01*
X110131037Y-43082580D01*
X109963519Y-42856586D01*
X109755131Y-42667615D01*
X109563318Y-42552579D01*
X109701101Y-42478932D01*
X109919608Y-42299608D01*
X110098932Y-42081101D01*
X110120901Y-42040000D01*
X114540197Y-42040000D01*
X115410330Y-42910133D01*
X115321068Y-43018899D01*
X115299099Y-43060000D01*
X111477322Y-43060000D01*
X111439999Y-43056324D01*
X111402676Y-43060000D01*
X111402667Y-43060000D01*
X111291014Y-43070997D01*
X111147753Y-43114454D01*
X111015724Y-43185026D01*
X111015722Y-43185027D01*
X111015723Y-43185027D01*
X110928996Y-43256201D01*
X110928992Y-43256205D01*
X110899999Y-43279999D01*
X110876205Y-43308992D01*
X110194127Y-43991070D01*
X110169915Y-43947000D01*
X109027000Y-43947000D01*
X109027000Y-43967000D01*
X108773000Y-43967000D01*
X108773000Y-43947000D01*
X107630085Y-43947000D01*
X107508096Y-44169039D01*
X107548754Y-44303087D01*
X107668963Y-44557420D01*
X107836481Y-44783414D01*
X108044869Y-44972385D01*
X108236682Y-45087421D01*
X108098899Y-45161068D01*
X107880392Y-45340392D01*
X107701068Y-45558899D01*
X107567818Y-45808192D01*
X107485764Y-46078691D01*
X107458057Y-46360000D01*
X107485764Y-46641309D01*
X107567818Y-46911808D01*
X107701068Y-47161101D01*
X107880392Y-47379608D01*
X108098899Y-47558932D01*
X108231858Y-47630000D01*
X108098899Y-47701068D01*
X107880392Y-47880392D01*
X107701068Y-48098899D01*
X107567818Y-48348192D01*
X107485764Y-48618691D01*
X107458057Y-48900000D01*
X107485764Y-49181309D01*
X107567818Y-49451808D01*
X107701068Y-49701101D01*
X107880392Y-49919608D01*
X108098899Y-50098932D01*
X108231858Y-50170000D01*
X108098899Y-50241068D01*
X107880392Y-50420392D01*
X107701068Y-50638899D01*
X107567818Y-50888192D01*
X107485764Y-51158691D01*
X107458057Y-51440000D01*
X107485764Y-51721309D01*
X107567818Y-51991808D01*
X107701068Y-52241101D01*
X107880392Y-52459608D01*
X108098899Y-52638932D01*
X108348192Y-52772182D01*
X108618691Y-52854236D01*
X108829508Y-52875000D01*
X108970492Y-52875000D01*
X109181309Y-52854236D01*
X109451808Y-52772182D01*
X109701101Y-52638932D01*
X109919608Y-52459608D01*
X110098932Y-52241101D01*
X110232182Y-51991808D01*
X110314236Y-51721309D01*
X110341943Y-51440000D01*
X110314236Y-51158691D01*
X110232182Y-50888192D01*
X110098932Y-50638899D01*
X109919608Y-50420392D01*
X109701101Y-50241068D01*
X109568142Y-50170000D01*
X109701101Y-50098932D01*
X109919608Y-49919608D01*
X109945107Y-49888538D01*
X110882569Y-50826001D01*
X110906368Y-50855000D01*
X111022093Y-50949973D01*
X111154122Y-51020545D01*
X111297383Y-51064002D01*
X111409036Y-51074999D01*
X111409044Y-51074999D01*
X111446369Y-51078675D01*
X111483694Y-51074999D01*
X115131151Y-51074999D01*
X115105764Y-51158691D01*
X115078057Y-51440000D01*
X115105764Y-51721309D01*
X115187818Y-51991808D01*
X115283064Y-52170000D01*
X115087323Y-52170000D01*
X115050000Y-52166324D01*
X115012677Y-52170000D01*
X115012667Y-52170000D01*
X114901014Y-52180997D01*
X114757753Y-52224454D01*
X114625723Y-52295026D01*
X114542083Y-52363668D01*
X114509999Y-52389999D01*
X114486201Y-52418997D01*
X109322749Y-57582450D01*
X109145579Y-57565000D01*
X109014421Y-57565000D01*
X108818294Y-57584317D01*
X108566646Y-57660653D01*
X108334725Y-57784618D01*
X108131445Y-57951445D01*
X107964618Y-58154725D01*
X107840653Y-58386646D01*
X107764317Y-58638294D01*
X107738541Y-58900000D01*
X107764317Y-59161706D01*
X107840653Y-59413354D01*
X107964618Y-59645275D01*
X108131445Y-59848555D01*
X108334725Y-60015382D01*
X108566646Y-60139347D01*
X108818294Y-60215683D01*
X109014421Y-60235000D01*
X109145579Y-60235000D01*
X109341706Y-60215683D01*
X109593354Y-60139347D01*
X109825275Y-60015382D01*
X110028555Y-59848555D01*
X110195382Y-59645275D01*
X110319347Y-59413354D01*
X110395683Y-59161706D01*
X110421459Y-58900000D01*
X110408509Y-58768514D01*
X115365000Y-58768514D01*
X115365000Y-59031486D01*
X115416304Y-59289405D01*
X115516939Y-59532359D01*
X115663038Y-59751013D01*
X115848987Y-59936962D01*
X116067641Y-60083061D01*
X116310595Y-60183696D01*
X116568514Y-60235000D01*
X116831486Y-60235000D01*
X117089405Y-60183696D01*
X117332359Y-60083061D01*
X117551013Y-59936962D01*
X117736962Y-59751013D01*
X117883061Y-59532359D01*
X117983696Y-59289405D01*
X118035000Y-59031486D01*
X118035000Y-58768514D01*
X117983696Y-58510595D01*
X117883061Y-58267641D01*
X117736962Y-58048987D01*
X117551013Y-57863038D01*
X117332359Y-57716939D01*
X117089405Y-57616304D01*
X116831486Y-57565000D01*
X116568514Y-57565000D01*
X116310595Y-57616304D01*
X116067641Y-57716939D01*
X115848987Y-57863038D01*
X115663038Y-58048987D01*
X115516939Y-58267641D01*
X115416304Y-58510595D01*
X115365000Y-58768514D01*
X110408509Y-58768514D01*
X110397550Y-58657251D01*
X113686287Y-55368514D01*
X115365000Y-55368514D01*
X115365000Y-55631486D01*
X115416304Y-55889405D01*
X115516939Y-56132359D01*
X115663038Y-56351013D01*
X115848987Y-56536962D01*
X116067641Y-56683061D01*
X116310595Y-56783696D01*
X116568514Y-56835000D01*
X116831486Y-56835000D01*
X117089405Y-56783696D01*
X117332359Y-56683061D01*
X117551013Y-56536962D01*
X117736962Y-56351013D01*
X117883061Y-56132359D01*
X117983696Y-55889405D01*
X118035000Y-55631486D01*
X118035000Y-55368514D01*
X117983696Y-55110595D01*
X117883061Y-54867641D01*
X117736962Y-54648987D01*
X117551013Y-54463038D01*
X117332359Y-54316939D01*
X117089405Y-54216304D01*
X116831486Y-54165000D01*
X116568514Y-54165000D01*
X116310595Y-54216304D01*
X116067641Y-54316939D01*
X115848987Y-54463038D01*
X115663038Y-54648987D01*
X115516939Y-54867641D01*
X115416304Y-55110595D01*
X115365000Y-55368514D01*
X113686287Y-55368514D01*
X115364802Y-53690000D01*
X118811928Y-53690000D01*
X118811928Y-54850000D01*
X118824188Y-54974482D01*
X118860498Y-55094180D01*
X118919463Y-55204494D01*
X118998815Y-55301185D01*
X119095506Y-55380537D01*
X119205820Y-55439502D01*
X119325518Y-55475812D01*
X119450000Y-55488072D01*
X120750000Y-55488072D01*
X120874482Y-55475812D01*
X120994180Y-55439502D01*
X121104494Y-55380537D01*
X121105176Y-55379977D01*
X122961199Y-57236001D01*
X122984998Y-57265000D01*
X123100723Y-57359973D01*
X123232752Y-57430545D01*
X123376013Y-57474002D01*
X123487666Y-57484999D01*
X123487676Y-57484999D01*
X123524999Y-57488675D01*
X123562322Y-57484999D01*
X125214296Y-57484999D01*
X125215000Y-57614250D01*
X125373750Y-57773000D01*
X126573000Y-57773000D01*
X126573000Y-57753000D01*
X126827000Y-57753000D01*
X126827000Y-57773000D01*
X126847000Y-57773000D01*
X126847000Y-58027000D01*
X126827000Y-58027000D01*
X126827000Y-58047000D01*
X126573000Y-58047000D01*
X126573000Y-58027000D01*
X125373750Y-58027000D01*
X125215000Y-58185750D01*
X125211928Y-58750000D01*
X125224188Y-58874482D01*
X125260498Y-58994180D01*
X125319463Y-59104494D01*
X125398815Y-59201185D01*
X125495506Y-59280537D01*
X125605820Y-59339502D01*
X125725518Y-59375812D01*
X125850000Y-59388072D01*
X126038151Y-59387048D01*
X124647458Y-60777741D01*
X124441808Y-60667818D01*
X124171309Y-60585764D01*
X123960492Y-60565000D01*
X123819508Y-60565000D01*
X123608691Y-60585764D01*
X123338192Y-60667818D01*
X123088899Y-60801068D01*
X122870392Y-60980392D01*
X122691068Y-61198899D01*
X122620000Y-61331858D01*
X122548932Y-61198899D01*
X122369608Y-60980392D01*
X122151101Y-60801068D01*
X121901808Y-60667818D01*
X121631309Y-60585764D01*
X121420492Y-60565000D01*
X121279508Y-60565000D01*
X121068691Y-60585764D01*
X120798192Y-60667818D01*
X120548899Y-60801068D01*
X120330392Y-60980392D01*
X120151068Y-61198899D01*
X120080000Y-61331858D01*
X120008932Y-61198899D01*
X119829608Y-60980392D01*
X119611101Y-60801068D01*
X119361808Y-60667818D01*
X119091309Y-60585764D01*
X118880492Y-60565000D01*
X118739508Y-60565000D01*
X118528691Y-60585764D01*
X118258192Y-60667818D01*
X118008899Y-60801068D01*
X117790392Y-60980392D01*
X117611068Y-61198899D01*
X117540000Y-61331858D01*
X117468932Y-61198899D01*
X117289608Y-60980392D01*
X117071101Y-60801068D01*
X116821808Y-60667818D01*
X116551309Y-60585764D01*
X116340492Y-60565000D01*
X116199508Y-60565000D01*
X115988691Y-60585764D01*
X115718192Y-60667818D01*
X115468899Y-60801068D01*
X115250392Y-60980392D01*
X115071068Y-61198899D01*
X114997421Y-61336682D01*
X114882385Y-61144869D01*
X114693414Y-60936481D01*
X114467420Y-60768963D01*
X114213087Y-60648754D01*
X114079039Y-60608096D01*
X113857000Y-60730085D01*
X113857000Y-61873000D01*
X113877000Y-61873000D01*
X113877000Y-62127000D01*
X113857000Y-62127000D01*
X113857000Y-62147000D01*
X113603000Y-62147000D01*
X113603000Y-62127000D01*
X113583000Y-62127000D01*
X113583000Y-61873000D01*
X113603000Y-61873000D01*
X113603000Y-60730085D01*
X113380961Y-60608096D01*
X113246913Y-60648754D01*
X112992580Y-60768963D01*
X112766586Y-60936481D01*
X112577615Y-61144869D01*
X112462579Y-61336682D01*
X112388932Y-61198899D01*
X112209608Y-60980392D01*
X111991101Y-60801068D01*
X111741808Y-60667818D01*
X111471309Y-60585764D01*
X111260492Y-60565000D01*
X111119508Y-60565000D01*
X110908691Y-60585764D01*
X110638192Y-60667818D01*
X110388899Y-60801068D01*
X110170392Y-60980392D01*
X109991068Y-61198899D01*
X109857818Y-61448192D01*
X109775764Y-61718691D01*
X109748057Y-62000000D01*
X109775764Y-62281309D01*
X109857818Y-62551808D01*
X109991068Y-62801101D01*
X110170392Y-63019608D01*
X110388899Y-63198932D01*
X110638192Y-63332182D01*
X110908691Y-63414236D01*
X111119508Y-63435000D01*
X111260492Y-63435000D01*
X111471309Y-63414236D01*
X111515907Y-63400708D01*
X111751197Y-63635998D01*
X111775000Y-63665002D01*
X111890725Y-63759975D01*
X112022754Y-63830547D01*
X112166015Y-63874004D01*
X112277668Y-63885001D01*
X112277677Y-63885001D01*
X112315000Y-63888677D01*
X112352323Y-63885001D01*
X124392679Y-63885001D01*
X124430001Y-63888677D01*
X124467323Y-63885001D01*
X124467334Y-63885001D01*
X124578987Y-63874004D01*
X124722248Y-63830547D01*
X124854277Y-63759975D01*
X124970002Y-63665002D01*
X124993804Y-63635999D01*
X125520133Y-63109670D01*
X125628899Y-63198932D01*
X125878192Y-63332182D01*
X126148691Y-63414236D01*
X126359508Y-63435000D01*
X126500492Y-63435000D01*
X126711309Y-63414236D01*
X126981808Y-63332182D01*
X127231101Y-63198932D01*
X127449608Y-63019608D01*
X127628932Y-62801101D01*
X127700000Y-62668142D01*
X127771068Y-62801101D01*
X127950392Y-63019608D01*
X128168899Y-63198932D01*
X128418192Y-63332182D01*
X128688691Y-63414236D01*
X128899508Y-63435000D01*
X129040492Y-63435000D01*
X129251309Y-63414236D01*
X129521808Y-63332182D01*
X129771101Y-63198932D01*
X129989608Y-63019608D01*
X130168932Y-62801101D01*
X130240000Y-62668142D01*
X130311068Y-62801101D01*
X130490392Y-63019608D01*
X130708899Y-63198932D01*
X130958192Y-63332182D01*
X131228691Y-63414236D01*
X131439508Y-63435000D01*
X131580492Y-63435000D01*
X131791309Y-63414236D01*
X132061808Y-63332182D01*
X132311101Y-63198932D01*
X132529608Y-63019608D01*
X132708932Y-62801101D01*
X132780000Y-62668142D01*
X132851068Y-62801101D01*
X133030392Y-63019608D01*
X133248899Y-63198932D01*
X133498192Y-63332182D01*
X133768691Y-63414236D01*
X133979508Y-63435000D01*
X134120492Y-63435000D01*
X134331309Y-63414236D01*
X134601808Y-63332182D01*
X134851101Y-63198932D01*
X135069608Y-63019608D01*
X135248932Y-62801101D01*
X135320000Y-62668142D01*
X135391068Y-62801101D01*
X135570392Y-63019608D01*
X135788899Y-63198932D01*
X136038192Y-63332182D01*
X136308691Y-63414236D01*
X136519508Y-63435000D01*
X136660492Y-63435000D01*
X136871309Y-63414236D01*
X137141808Y-63332182D01*
X137391101Y-63198932D01*
X137609608Y-63019608D01*
X137788932Y-62801101D01*
X137860000Y-62668142D01*
X137931068Y-62801101D01*
X138110392Y-63019608D01*
X138328899Y-63198932D01*
X138578192Y-63332182D01*
X138848691Y-63414236D01*
X139059508Y-63435000D01*
X139200492Y-63435000D01*
X139411309Y-63414236D01*
X139681808Y-63332182D01*
X139931101Y-63198932D01*
X140149608Y-63019608D01*
X140328932Y-62801101D01*
X140400000Y-62668142D01*
X140471068Y-62801101D01*
X140650392Y-63019608D01*
X140868899Y-63198932D01*
X141118192Y-63332182D01*
X141388691Y-63414236D01*
X141599508Y-63435000D01*
X141740492Y-63435000D01*
X141951309Y-63414236D01*
X142221808Y-63332182D01*
X142324999Y-63277025D01*
X142325000Y-75962975D01*
X142221808Y-75907818D01*
X141951309Y-75825764D01*
X141740492Y-75805000D01*
X141599508Y-75805000D01*
X141388691Y-75825764D01*
X141118192Y-75907818D01*
X140868899Y-76041068D01*
X140650392Y-76220392D01*
X140471068Y-76438899D01*
X140400000Y-76571858D01*
X140328932Y-76438899D01*
X140149608Y-76220392D01*
X139931101Y-76041068D01*
X139681808Y-75907818D01*
X139411309Y-75825764D01*
X139200492Y-75805000D01*
X139059508Y-75805000D01*
X138848691Y-75825764D01*
X138578192Y-75907818D01*
X138328899Y-76041068D01*
X138110392Y-76220392D01*
X137931068Y-76438899D01*
X137860000Y-76571858D01*
X137788932Y-76438899D01*
X137609608Y-76220392D01*
X137391101Y-76041068D01*
X137141808Y-75907818D01*
X136871309Y-75825764D01*
X136660492Y-75805000D01*
X136519508Y-75805000D01*
X136308691Y-75825764D01*
X136038192Y-75907818D01*
X135788899Y-76041068D01*
X135570392Y-76220392D01*
X135391068Y-76438899D01*
X135320000Y-76571858D01*
X135248932Y-76438899D01*
X135069608Y-76220392D01*
X134851101Y-76041068D01*
X134601808Y-75907818D01*
X134331309Y-75825764D01*
X134120492Y-75805000D01*
X133979508Y-75805000D01*
X133768691Y-75825764D01*
X133498192Y-75907818D01*
X133248899Y-76041068D01*
X133030392Y-76220392D01*
X132851068Y-76438899D01*
X132780000Y-76571858D01*
X132708932Y-76438899D01*
X132529608Y-76220392D01*
X132311101Y-76041068D01*
X132061808Y-75907818D01*
X131791309Y-75825764D01*
X131580492Y-75805000D01*
X131439508Y-75805000D01*
X131228691Y-75825764D01*
X130958192Y-75907818D01*
X130708899Y-76041068D01*
X130490392Y-76220392D01*
X130311068Y-76438899D01*
X130240000Y-76571858D01*
X130168932Y-76438899D01*
X129989608Y-76220392D01*
X129771101Y-76041068D01*
X129521808Y-75907818D01*
X129251309Y-75825764D01*
X129040492Y-75805000D01*
X128899508Y-75805000D01*
X128688691Y-75825764D01*
X128418192Y-75907818D01*
X128168899Y-76041068D01*
X127950392Y-76220392D01*
X127771068Y-76438899D01*
X127700000Y-76571858D01*
X127628932Y-76438899D01*
X127449608Y-76220392D01*
X127231101Y-76041068D01*
X126981808Y-75907818D01*
X126711309Y-75825764D01*
X126500492Y-75805000D01*
X126359508Y-75805000D01*
X126148691Y-75825764D01*
X125878192Y-75907818D01*
X125628899Y-76041068D01*
X125410392Y-76220392D01*
X125231068Y-76438899D01*
X125160000Y-76571858D01*
X125088932Y-76438899D01*
X124909608Y-76220392D01*
X124691101Y-76041068D01*
X124441808Y-75907818D01*
X124171309Y-75825764D01*
X123960492Y-75805000D01*
X123819508Y-75805000D01*
X123608691Y-75825764D01*
X123338192Y-75907818D01*
X123088899Y-76041068D01*
X122870392Y-76220392D01*
X122691068Y-76438899D01*
X122620000Y-76571858D01*
X122548932Y-76438899D01*
X122369608Y-76220392D01*
X122151101Y-76041068D01*
X121901808Y-75907818D01*
X121631309Y-75825764D01*
X121420492Y-75805000D01*
X121279508Y-75805000D01*
X121068691Y-75825764D01*
X120798192Y-75907818D01*
X120548899Y-76041068D01*
X120330392Y-76220392D01*
X120151068Y-76438899D01*
X120077421Y-76576682D01*
X119962385Y-76384869D01*
X119773414Y-76176481D01*
X119547420Y-76008963D01*
X119293087Y-75888754D01*
X119159039Y-75848096D01*
X118937000Y-75970085D01*
X118937000Y-77113000D01*
X118957000Y-77113000D01*
X118957000Y-77367000D01*
X118937000Y-77367000D01*
X118937000Y-78509915D01*
X119159039Y-78631904D01*
X119293087Y-78591246D01*
X119547420Y-78471037D01*
X119773414Y-78303519D01*
X119962385Y-78095131D01*
X120077421Y-77903318D01*
X120151068Y-78041101D01*
X120330392Y-78259608D01*
X120548899Y-78438932D01*
X120798192Y-78572182D01*
X121068691Y-78654236D01*
X121279508Y-78675000D01*
X121420492Y-78675000D01*
X121631309Y-78654236D01*
X121675906Y-78640708D01*
X124183001Y-81147803D01*
X124183000Y-82873451D01*
X124175518Y-82874188D01*
X124055820Y-82910498D01*
X123945506Y-82969463D01*
X123848815Y-83048815D01*
X123769463Y-83145506D01*
X123710498Y-83255820D01*
X123674188Y-83375518D01*
X123661928Y-83500000D01*
X123661928Y-85100000D01*
X123674188Y-85224482D01*
X123710498Y-85344180D01*
X123769463Y-85454494D01*
X123848815Y-85551185D01*
X123945506Y-85630537D01*
X124055820Y-85689502D01*
X124175518Y-85725812D01*
X124300000Y-85738072D01*
X125900000Y-85738072D01*
X126024482Y-85725812D01*
X126144180Y-85689502D01*
X126254494Y-85630537D01*
X126351185Y-85551185D01*
X126430537Y-85454494D01*
X126489502Y-85344180D01*
X126525812Y-85224482D01*
X126538072Y-85100000D01*
X126538072Y-84834275D01*
X126598320Y-84979727D01*
X126755363Y-85214759D01*
X126955241Y-85414637D01*
X127189223Y-85570978D01*
X127172829Y-85587372D01*
X127136013Y-85590998D01*
X126992752Y-85634455D01*
X126860723Y-85705027D01*
X126860721Y-85705028D01*
X126860722Y-85705028D01*
X126815022Y-85742533D01*
X126626335Y-85705000D01*
X126343665Y-85705000D01*
X126066426Y-85760147D01*
X125805273Y-85868320D01*
X125570241Y-86025363D01*
X125370363Y-86225241D01*
X125213320Y-86460273D01*
X125105147Y-86721426D01*
X125050000Y-86998665D01*
X125050000Y-87281335D01*
X125105147Y-87558574D01*
X125213320Y-87819727D01*
X125303714Y-87955011D01*
X113469813Y-87955011D01*
X110940797Y-85425996D01*
X110963513Y-85351111D01*
X110992185Y-85060000D01*
X110963513Y-84768889D01*
X110878599Y-84488966D01*
X110799230Y-84340475D01*
X115505000Y-84340475D01*
X115505000Y-84859525D01*
X115606261Y-85368601D01*
X115804893Y-85848141D01*
X116093262Y-86279715D01*
X116460285Y-86646738D01*
X116891859Y-86935107D01*
X117371399Y-87133739D01*
X117880475Y-87235000D01*
X118399525Y-87235000D01*
X118908601Y-87133739D01*
X119388141Y-86935107D01*
X119819715Y-86646738D01*
X120186738Y-86279715D01*
X120475107Y-85848141D01*
X120673739Y-85368601D01*
X120775000Y-84859525D01*
X120775000Y-84340475D01*
X120673739Y-83831399D01*
X120475107Y-83351859D01*
X120186738Y-82920285D01*
X119819715Y-82553262D01*
X119388141Y-82264893D01*
X118908601Y-82066261D01*
X118399525Y-81965000D01*
X117880475Y-81965000D01*
X117371399Y-82066261D01*
X116891859Y-82264893D01*
X116460285Y-82553262D01*
X116093262Y-82920285D01*
X115804893Y-83351859D01*
X115606261Y-83831399D01*
X115505000Y-84340475D01*
X110799230Y-84340475D01*
X110740706Y-84230986D01*
X110555134Y-84004866D01*
X110329014Y-83819294D01*
X110264477Y-83784799D01*
X110381355Y-83715178D01*
X110597588Y-83520269D01*
X110771641Y-83286920D01*
X110896825Y-83024099D01*
X110941476Y-82876890D01*
X110820155Y-82647000D01*
X109627000Y-82647000D01*
X109627000Y-82667000D01*
X109373000Y-82667000D01*
X109373000Y-82647000D01*
X108179845Y-82647000D01*
X108058524Y-82876890D01*
X108103175Y-83024099D01*
X108228359Y-83286920D01*
X108402412Y-83520269D01*
X108618645Y-83715178D01*
X108735523Y-83784799D01*
X108670986Y-83819294D01*
X108444866Y-84004866D01*
X108259294Y-84230986D01*
X108121401Y-84488966D01*
X108036487Y-84768889D01*
X108007815Y-85060000D01*
X108036487Y-85351111D01*
X108121401Y-85631034D01*
X108259294Y-85889014D01*
X108444866Y-86115134D01*
X108670986Y-86300706D01*
X108725791Y-86330000D01*
X108670986Y-86359294D01*
X108444866Y-86544866D01*
X108259294Y-86770986D01*
X108121401Y-87028966D01*
X108036487Y-87308889D01*
X108007815Y-87600000D01*
X108036487Y-87891111D01*
X108121401Y-88171034D01*
X108259294Y-88429014D01*
X108444866Y-88655134D01*
X108474687Y-88679607D01*
X108405820Y-88700498D01*
X108295506Y-88759463D01*
X108198815Y-88838815D01*
X108119463Y-88935506D01*
X108060498Y-89045820D01*
X108024188Y-89165518D01*
X108011928Y-89290000D01*
X108011928Y-90990000D01*
X108024188Y-91114482D01*
X108060498Y-91234180D01*
X108119463Y-91344494D01*
X108198815Y-91441185D01*
X108295506Y-91520537D01*
X108405820Y-91579502D01*
X108525518Y-91615812D01*
X108650000Y-91628072D01*
X110350000Y-91628072D01*
X110474482Y-91615812D01*
X110594180Y-91579502D01*
X110704494Y-91520537D01*
X110801185Y-91441185D01*
X110880537Y-91344494D01*
X110939502Y-91234180D01*
X110975812Y-91114482D01*
X110988072Y-90990000D01*
X110988072Y-90900000D01*
X133422680Y-90900000D01*
X133460002Y-90903676D01*
X133497324Y-90900000D01*
X133497335Y-90900000D01*
X133608988Y-90889003D01*
X133752249Y-90845546D01*
X133884278Y-90774974D01*
X134000003Y-90680001D01*
X134023806Y-90650997D01*
X139641004Y-85033800D01*
X139670001Y-85010003D01*
X139700299Y-84973085D01*
X139764974Y-84894279D01*
X139835546Y-84762249D01*
X139857154Y-84691016D01*
X139879003Y-84618988D01*
X139890000Y-84507335D01*
X139890000Y-84507326D01*
X139893676Y-84470003D01*
X139890000Y-84432680D01*
X139890000Y-84340475D01*
X140505000Y-84340475D01*
X140505000Y-84859525D01*
X140606261Y-85368601D01*
X140804893Y-85848141D01*
X141093262Y-86279715D01*
X141460285Y-86646738D01*
X141891859Y-86935107D01*
X142371399Y-87133739D01*
X142880475Y-87235000D01*
X143399525Y-87235000D01*
X143908601Y-87133739D01*
X144388141Y-86935107D01*
X144819715Y-86646738D01*
X145186738Y-86279715D01*
X145475107Y-85848141D01*
X145673739Y-85368601D01*
X145775000Y-84859525D01*
X145775000Y-84340475D01*
X145673739Y-83831399D01*
X145475107Y-83351859D01*
X145186738Y-82920285D01*
X144819715Y-82553262D01*
X144388141Y-82264893D01*
X143908601Y-82066261D01*
X143399525Y-81965000D01*
X142880475Y-81965000D01*
X142371399Y-82066261D01*
X141891859Y-82264893D01*
X141460285Y-82553262D01*
X141093262Y-82920285D01*
X140804893Y-83351859D01*
X140606261Y-83831399D01*
X140505000Y-84340475D01*
X139890000Y-84340475D01*
X139890000Y-78460901D01*
X139931101Y-78438932D01*
X140149608Y-78259608D01*
X140328932Y-78041101D01*
X140400000Y-77908142D01*
X140471068Y-78041101D01*
X140650392Y-78259608D01*
X140868899Y-78438932D01*
X141118192Y-78572182D01*
X141388691Y-78654236D01*
X141599508Y-78675000D01*
X141740492Y-78675000D01*
X141951309Y-78654236D01*
X141995906Y-78640708D01*
X142231202Y-78876004D01*
X142255000Y-78905002D01*
X142370725Y-78999975D01*
X142502754Y-79070547D01*
X142646015Y-79114004D01*
X142757668Y-79125001D01*
X142757676Y-79125001D01*
X142795001Y-79128677D01*
X142832326Y-79125001D01*
X144712679Y-79125001D01*
X144750001Y-79128677D01*
X144787323Y-79125001D01*
X144787334Y-79125001D01*
X144898987Y-79114004D01*
X145042248Y-79070547D01*
X145174277Y-78999975D01*
X145290002Y-78905002D01*
X145313804Y-78875999D01*
X145840133Y-78349670D01*
X145948899Y-78438932D01*
X146198192Y-78572182D01*
X146468691Y-78654236D01*
X146679508Y-78675000D01*
X146820492Y-78675000D01*
X147031309Y-78654236D01*
X147301808Y-78572182D01*
X147551101Y-78438932D01*
X147769608Y-78259608D01*
X147948932Y-78041101D01*
X148082182Y-77791808D01*
X148164236Y-77521309D01*
X148191943Y-77240000D01*
X148164236Y-76958691D01*
X148082182Y-76688192D01*
X147948932Y-76438899D01*
X147769608Y-76220392D01*
X147551101Y-76041068D01*
X147301808Y-75907818D01*
X147031309Y-75825764D01*
X146820492Y-75805000D01*
X146679508Y-75805000D01*
X146468691Y-75825764D01*
X146260000Y-75889069D01*
X146260000Y-63350931D01*
X146468691Y-63414236D01*
X146679508Y-63435000D01*
X146820492Y-63435000D01*
X147031309Y-63414236D01*
X147301808Y-63332182D01*
X147551101Y-63198932D01*
X147769608Y-63019608D01*
X147948932Y-62801101D01*
X148082182Y-62551808D01*
X148164236Y-62281309D01*
X148191943Y-62000000D01*
X148164236Y-61718691D01*
X148082182Y-61448192D01*
X147948932Y-61198899D01*
X147769608Y-60980392D01*
X147551101Y-60801068D01*
X147301808Y-60667818D01*
X147031309Y-60585764D01*
X146820492Y-60565000D01*
X146679508Y-60565000D01*
X146468691Y-60585764D01*
X146260000Y-60649069D01*
X146260000Y-60011803D01*
X146636005Y-59635799D01*
X146665002Y-59612002D01*
X146717514Y-59548016D01*
X146759975Y-59496278D01*
X146830547Y-59364248D01*
X146842672Y-59324276D01*
X146874004Y-59220987D01*
X146885001Y-59109334D01*
X146885001Y-59109324D01*
X146888677Y-59072001D01*
X146885001Y-59034678D01*
X146885001Y-58668514D01*
X151165000Y-58668514D01*
X151165000Y-58931486D01*
X151216304Y-59189405D01*
X151316939Y-59432359D01*
X151463038Y-59651013D01*
X151648987Y-59836962D01*
X151867641Y-59983061D01*
X152110595Y-60083696D01*
X152368514Y-60135000D01*
X152631486Y-60135000D01*
X152889405Y-60083696D01*
X153132359Y-59983061D01*
X153351013Y-59836962D01*
X153536962Y-59651013D01*
X153683061Y-59432359D01*
X153783696Y-59189405D01*
X153835000Y-58931486D01*
X153835000Y-58668514D01*
X153783696Y-58410595D01*
X153683061Y-58167641D01*
X153536962Y-57948987D01*
X153351013Y-57763038D01*
X153132359Y-57616939D01*
X152889405Y-57516304D01*
X152631486Y-57465000D01*
X152368514Y-57465000D01*
X152110595Y-57516304D01*
X151867641Y-57616939D01*
X151648987Y-57763038D01*
X151463038Y-57948987D01*
X151316939Y-58167641D01*
X151216304Y-58410595D01*
X151165000Y-58668514D01*
X146885001Y-58668514D01*
X146885001Y-55633329D01*
X151227284Y-55633329D01*
X151259953Y-55741044D01*
X151370208Y-55978392D01*
X151524649Y-56189670D01*
X151717340Y-56366759D01*
X151940877Y-56502853D01*
X152186670Y-56592722D01*
X152393000Y-56470201D01*
X152393000Y-55427000D01*
X152647000Y-55427000D01*
X152647000Y-56470201D01*
X152853330Y-56592722D01*
X153099123Y-56502853D01*
X153322660Y-56366759D01*
X153515351Y-56189670D01*
X153669792Y-55978392D01*
X153780047Y-55741044D01*
X153812716Y-55633329D01*
X153689374Y-55427000D01*
X152647000Y-55427000D01*
X152393000Y-55427000D01*
X151350626Y-55427000D01*
X151227284Y-55633329D01*
X146885001Y-55633329D01*
X146885001Y-54966671D01*
X151227284Y-54966671D01*
X151350626Y-55173000D01*
X152393000Y-55173000D01*
X152393000Y-54129799D01*
X152647000Y-54129799D01*
X152647000Y-55173000D01*
X153689374Y-55173000D01*
X153812716Y-54966671D01*
X153780047Y-54858956D01*
X153669792Y-54621608D01*
X153515351Y-54410330D01*
X153322660Y-54233241D01*
X153099123Y-54097147D01*
X152853330Y-54007278D01*
X152647000Y-54129799D01*
X152393000Y-54129799D01*
X152186670Y-54007278D01*
X151940877Y-54097147D01*
X151717340Y-54233241D01*
X151524649Y-54410330D01*
X151370208Y-54621608D01*
X151259953Y-54858956D01*
X151227284Y-54966671D01*
X146885001Y-54966671D01*
X146885001Y-36312323D01*
X146888677Y-36275000D01*
X146885001Y-36237678D01*
X146885001Y-36237668D01*
X146874004Y-36126015D01*
X146830547Y-35982754D01*
X146759975Y-35850725D01*
X146747069Y-35834999D01*
X151231151Y-35834999D01*
X151205764Y-35918691D01*
X151178057Y-36200000D01*
X151205764Y-36481309D01*
X151287818Y-36751808D01*
X151421068Y-37001101D01*
X151600392Y-37219608D01*
X151818899Y-37398932D01*
X151951858Y-37470000D01*
X151818899Y-37541068D01*
X151600392Y-37720392D01*
X151421068Y-37938899D01*
X151287818Y-38188192D01*
X151205764Y-38458691D01*
X151178057Y-38740000D01*
X151205764Y-39021309D01*
X151287818Y-39291808D01*
X151421068Y-39541101D01*
X151600392Y-39759608D01*
X151818899Y-39938932D01*
X151951858Y-40010000D01*
X151818899Y-40081068D01*
X151600392Y-40260392D01*
X151421068Y-40478899D01*
X151287818Y-40728192D01*
X151205764Y-40998691D01*
X151178057Y-41280000D01*
X151205764Y-41561309D01*
X151287818Y-41831808D01*
X151421068Y-42081101D01*
X151600392Y-42299608D01*
X151818899Y-42478932D01*
X151951858Y-42550000D01*
X151818899Y-42621068D01*
X151600392Y-42800392D01*
X151421068Y-43018899D01*
X151287818Y-43268192D01*
X151205764Y-43538691D01*
X151178057Y-43820000D01*
X151205764Y-44101309D01*
X151287818Y-44371808D01*
X151421068Y-44621101D01*
X151600392Y-44839608D01*
X151818899Y-45018932D01*
X151951858Y-45090000D01*
X151818899Y-45161068D01*
X151600392Y-45340392D01*
X151421068Y-45558899D01*
X151287818Y-45808192D01*
X151205764Y-46078691D01*
X151178057Y-46360000D01*
X151205764Y-46641309D01*
X151287818Y-46911808D01*
X151421068Y-47161101D01*
X151600392Y-47379608D01*
X151818899Y-47558932D01*
X151951858Y-47630000D01*
X151818899Y-47701068D01*
X151600392Y-47880392D01*
X151421068Y-48098899D01*
X151287818Y-48348192D01*
X151205764Y-48618691D01*
X151178057Y-48900000D01*
X151205764Y-49181309D01*
X151287818Y-49451808D01*
X151421068Y-49701101D01*
X151600392Y-49919608D01*
X151818899Y-50098932D01*
X151860000Y-50120901D01*
X151860000Y-50219099D01*
X151818899Y-50241068D01*
X151600392Y-50420392D01*
X151421068Y-50638899D01*
X151287818Y-50888192D01*
X151205764Y-51158691D01*
X151178057Y-51440000D01*
X151205764Y-51721309D01*
X151287818Y-51991808D01*
X151421068Y-52241101D01*
X151600392Y-52459608D01*
X151818899Y-52638932D01*
X152068192Y-52772182D01*
X152338691Y-52854236D01*
X152549508Y-52875000D01*
X152690492Y-52875000D01*
X152901309Y-52854236D01*
X153171808Y-52772182D01*
X153421101Y-52638932D01*
X153639608Y-52459608D01*
X153818932Y-52241101D01*
X153952182Y-51991808D01*
X154034236Y-51721309D01*
X154061943Y-51440000D01*
X154034236Y-51158691D01*
X153952182Y-50888192D01*
X153818932Y-50638899D01*
X153639608Y-50420392D01*
X153421101Y-50241068D01*
X153380000Y-50219099D01*
X153380000Y-50120901D01*
X153421101Y-50098932D01*
X153639608Y-49919608D01*
X153818932Y-49701101D01*
X153952182Y-49451808D01*
X154034236Y-49181309D01*
X154061943Y-48900000D01*
X154034236Y-48618691D01*
X154020708Y-48574093D01*
X154140001Y-48454800D01*
X154140000Y-83440000D01*
X152932419Y-83440000D01*
X152900000Y-83436807D01*
X152867581Y-83440000D01*
X152770617Y-83449550D01*
X152646207Y-83487290D01*
X152531550Y-83548575D01*
X152431052Y-83631052D01*
X152348575Y-83731550D01*
X152287290Y-83846207D01*
X152249550Y-83970617D01*
X152236807Y-84100000D01*
X152240000Y-84132418D01*
X152240001Y-88867571D01*
X152236807Y-88900000D01*
X152249550Y-89029383D01*
X152287290Y-89153793D01*
X152348575Y-89268450D01*
X152431052Y-89368948D01*
X152531550Y-89451425D01*
X152646207Y-89512710D01*
X152770617Y-89550450D01*
X152867581Y-89560000D01*
X152900000Y-89563193D01*
X152932419Y-89560000D01*
X154140000Y-89560000D01*
X154140001Y-91840000D01*
X107060000Y-91840000D01*
X107060000Y-82163110D01*
X108058524Y-82163110D01*
X108179845Y-82393000D01*
X109373000Y-82393000D01*
X109373000Y-81199186D01*
X109627000Y-81199186D01*
X109627000Y-82393000D01*
X110820155Y-82393000D01*
X110941476Y-82163110D01*
X110896825Y-82015901D01*
X110771641Y-81753080D01*
X110597588Y-81519731D01*
X110381355Y-81324822D01*
X110131252Y-81175843D01*
X109856891Y-81078519D01*
X109627000Y-81199186D01*
X109373000Y-81199186D01*
X109143109Y-81078519D01*
X108868748Y-81175843D01*
X108618645Y-81324822D01*
X108402412Y-81519731D01*
X108228359Y-81753080D01*
X108103175Y-82015901D01*
X108058524Y-82163110D01*
X107060000Y-82163110D01*
X107060000Y-76440000D01*
X109751928Y-76440000D01*
X109751928Y-78040000D01*
X109764188Y-78164482D01*
X109800498Y-78284180D01*
X109859463Y-78394494D01*
X109938815Y-78491185D01*
X110035506Y-78570537D01*
X110145820Y-78629502D01*
X110265518Y-78665812D01*
X110390000Y-78678072D01*
X111990000Y-78678072D01*
X112114482Y-78665812D01*
X112234180Y-78629502D01*
X112344494Y-78570537D01*
X112441185Y-78491185D01*
X112520537Y-78394494D01*
X112579502Y-78284180D01*
X112615812Y-78164482D01*
X112617581Y-78146518D01*
X112710392Y-78259608D01*
X112928899Y-78438932D01*
X113178192Y-78572182D01*
X113448691Y-78654236D01*
X113659508Y-78675000D01*
X113800492Y-78675000D01*
X114011309Y-78654236D01*
X114281808Y-78572182D01*
X114531101Y-78438932D01*
X114749608Y-78259608D01*
X114928932Y-78041101D01*
X115000000Y-77908142D01*
X115071068Y-78041101D01*
X115250392Y-78259608D01*
X115468899Y-78438932D01*
X115718192Y-78572182D01*
X115988691Y-78654236D01*
X116199508Y-78675000D01*
X116340492Y-78675000D01*
X116551309Y-78654236D01*
X116821808Y-78572182D01*
X117071101Y-78438932D01*
X117289608Y-78259608D01*
X117468932Y-78041101D01*
X117542579Y-77903318D01*
X117657615Y-78095131D01*
X117846586Y-78303519D01*
X118072580Y-78471037D01*
X118326913Y-78591246D01*
X118460961Y-78631904D01*
X118683000Y-78509915D01*
X118683000Y-77367000D01*
X118663000Y-77367000D01*
X118663000Y-77113000D01*
X118683000Y-77113000D01*
X118683000Y-75970085D01*
X118460961Y-75848096D01*
X118326913Y-75888754D01*
X118072580Y-76008963D01*
X117846586Y-76176481D01*
X117657615Y-76384869D01*
X117542579Y-76576682D01*
X117468932Y-76438899D01*
X117289608Y-76220392D01*
X117071101Y-76041068D01*
X116821808Y-75907818D01*
X116551309Y-75825764D01*
X116340492Y-75805000D01*
X116199508Y-75805000D01*
X115988691Y-75825764D01*
X115718192Y-75907818D01*
X115468899Y-76041068D01*
X115250392Y-76220392D01*
X115071068Y-76438899D01*
X115000000Y-76571858D01*
X114928932Y-76438899D01*
X114749608Y-76220392D01*
X114531101Y-76041068D01*
X114281808Y-75907818D01*
X114011309Y-75825764D01*
X113800492Y-75805000D01*
X113659508Y-75805000D01*
X113448691Y-75825764D01*
X113178192Y-75907818D01*
X112928899Y-76041068D01*
X112710392Y-76220392D01*
X112617581Y-76333482D01*
X112615812Y-76315518D01*
X112579502Y-76195820D01*
X112520537Y-76085506D01*
X112441185Y-75988815D01*
X112344494Y-75909463D01*
X112234180Y-75850498D01*
X112114482Y-75814188D01*
X111990000Y-75801928D01*
X110390000Y-75801928D01*
X110265518Y-75814188D01*
X110145820Y-75850498D01*
X110035506Y-75909463D01*
X109938815Y-75988815D01*
X109859463Y-76085506D01*
X109800498Y-76195820D01*
X109764188Y-76315518D01*
X109751928Y-76440000D01*
X107060000Y-76440000D01*
X107060000Y-55833329D01*
X107787284Y-55833329D01*
X107819953Y-55941044D01*
X107930208Y-56178392D01*
X108084649Y-56389670D01*
X108277340Y-56566759D01*
X108500877Y-56702853D01*
X108746670Y-56792722D01*
X108953000Y-56670201D01*
X108953000Y-55627000D01*
X109207000Y-55627000D01*
X109207000Y-56670201D01*
X109413330Y-56792722D01*
X109659123Y-56702853D01*
X109882660Y-56566759D01*
X110075351Y-56389670D01*
X110229792Y-56178392D01*
X110340047Y-55941044D01*
X110372716Y-55833329D01*
X110249374Y-55627000D01*
X109207000Y-55627000D01*
X108953000Y-55627000D01*
X107910626Y-55627000D01*
X107787284Y-55833329D01*
X107060000Y-55833329D01*
X107060000Y-55166671D01*
X107787284Y-55166671D01*
X107910626Y-55373000D01*
X108953000Y-55373000D01*
X108953000Y-54329799D01*
X109207000Y-54329799D01*
X109207000Y-55373000D01*
X110249374Y-55373000D01*
X110372716Y-55166671D01*
X110340047Y-55058956D01*
X110229792Y-54821608D01*
X110075351Y-54610330D01*
X109882660Y-54433241D01*
X109659123Y-54297147D01*
X109413330Y-54207278D01*
X109207000Y-54329799D01*
X108953000Y-54329799D01*
X108746670Y-54207278D01*
X108500877Y-54297147D01*
X108277340Y-54433241D01*
X108084649Y-54610330D01*
X107930208Y-54821608D01*
X107819953Y-55058956D01*
X107787284Y-55166671D01*
X107060000Y-55166671D01*
X107060000Y-34560000D01*
X115419479Y-34560000D01*
X115416199Y-34563997D01*
X115416199Y-34563997D01*
G37*
X115416199Y-34563997D02*
X114883997Y-35096200D01*
X114854999Y-35119998D01*
X114831201Y-35148996D01*
X114831200Y-35148997D01*
X114760025Y-35235723D01*
X114689453Y-35367753D01*
X114668653Y-35436324D01*
X114649558Y-35499276D01*
X114645997Y-35511014D01*
X114631323Y-35659999D01*
X114635000Y-35697331D01*
X114634999Y-39242678D01*
X114631323Y-39280001D01*
X114634999Y-39317323D01*
X114634999Y-39317333D01*
X114645996Y-39428986D01*
X114680005Y-39541101D01*
X114689453Y-39572247D01*
X114760025Y-39704277D01*
X114799870Y-39752827D01*
X114854998Y-39820002D01*
X114884001Y-39843804D01*
X115410330Y-40370133D01*
X115321068Y-40478899D01*
X115242716Y-40625485D01*
X115147245Y-40574454D01*
X115003984Y-40530997D01*
X114892331Y-40520000D01*
X114892320Y-40520000D01*
X114854998Y-40516324D01*
X114817676Y-40520000D01*
X110120901Y-40520000D01*
X110098932Y-40478899D01*
X109919608Y-40260392D01*
X109701101Y-40081068D01*
X109568142Y-40010000D01*
X109701101Y-39938932D01*
X109919608Y-39759608D01*
X110098932Y-39541101D01*
X110232182Y-39291808D01*
X110314236Y-39021309D01*
X110341943Y-38740000D01*
X110314236Y-38458691D01*
X110232182Y-38188192D01*
X110098932Y-37938899D01*
X109919608Y-37720392D01*
X109806518Y-37627581D01*
X109824482Y-37625812D01*
X109944180Y-37589502D01*
X110054494Y-37530537D01*
X110151185Y-37451185D01*
X110230537Y-37354494D01*
X110289502Y-37244180D01*
X110325812Y-37124482D01*
X110338072Y-37000000D01*
X110338072Y-35400000D01*
X110325812Y-35275518D01*
X110289502Y-35155820D01*
X110230537Y-35045506D01*
X110151185Y-34948815D01*
X110054494Y-34869463D01*
X109944180Y-34810498D01*
X109824482Y-34774188D01*
X109700000Y-34761928D01*
X108100000Y-34761928D01*
X107975518Y-34774188D01*
X107855820Y-34810498D01*
X107745506Y-34869463D01*
X107648815Y-34948815D01*
X107569463Y-35045506D01*
X107510498Y-35155820D01*
X107474188Y-35275518D01*
X107461928Y-35400000D01*
X107461928Y-37000000D01*
X107474188Y-37124482D01*
X107510498Y-37244180D01*
X107569463Y-37354494D01*
X107648815Y-37451185D01*
X107745506Y-37530537D01*
X107855820Y-37589502D01*
X107975518Y-37625812D01*
X107993482Y-37627581D01*
X107880392Y-37720392D01*
X107701068Y-37938899D01*
X107567818Y-38188192D01*
X107485764Y-38458691D01*
X107458057Y-38740000D01*
X107485764Y-39021309D01*
X107567818Y-39291808D01*
X107701068Y-39541101D01*
X107880392Y-39759608D01*
X108098899Y-39938932D01*
X108231858Y-40010000D01*
X108098899Y-40081068D01*
X107880392Y-40260392D01*
X107701068Y-40478899D01*
X107567818Y-40728192D01*
X107485764Y-40998691D01*
X107458057Y-41280000D01*
X107485764Y-41561309D01*
X107567818Y-41831808D01*
X107701068Y-42081101D01*
X107880392Y-42299608D01*
X108098899Y-42478932D01*
X108236682Y-42552579D01*
X108044869Y-42667615D01*
X107836481Y-42856586D01*
X107668963Y-43082580D01*
X107548754Y-43336913D01*
X107508096Y-43470961D01*
X107630085Y-43693000D01*
X108773000Y-43693000D01*
X108773000Y-43673000D01*
X109027000Y-43673000D01*
X109027000Y-43693000D01*
X110169915Y-43693000D01*
X110291904Y-43470961D01*
X110251246Y-43336913D01*
X110131037Y-43082580D01*
X109963519Y-42856586D01*
X109755131Y-42667615D01*
X109563318Y-42552579D01*
X109701101Y-42478932D01*
X109919608Y-42299608D01*
X110098932Y-42081101D01*
X110120901Y-42040000D01*
X114540197Y-42040000D01*
X115410330Y-42910133D01*
X115321068Y-43018899D01*
X115299099Y-43060000D01*
X111477322Y-43060000D01*
X111439999Y-43056324D01*
X111402676Y-43060000D01*
X111402667Y-43060000D01*
X111291014Y-43070997D01*
X111147753Y-43114454D01*
X111015724Y-43185026D01*
X111015722Y-43185027D01*
X111015723Y-43185027D01*
X110928996Y-43256201D01*
X110928992Y-43256205D01*
X110899999Y-43279999D01*
X110876205Y-43308992D01*
X110194127Y-43991070D01*
X110169915Y-43947000D01*
X109027000Y-43947000D01*
X109027000Y-43967000D01*
X108773000Y-43967000D01*
X108773000Y-43947000D01*
X107630085Y-43947000D01*
X107508096Y-44169039D01*
X107548754Y-44303087D01*
X107668963Y-44557420D01*
X107836481Y-44783414D01*
X108044869Y-44972385D01*
X108236682Y-45087421D01*
X108098899Y-45161068D01*
X107880392Y-45340392D01*
X107701068Y-45558899D01*
X107567818Y-45808192D01*
X107485764Y-46078691D01*
X107458057Y-46360000D01*
X107485764Y-46641309D01*
X107567818Y-46911808D01*
X107701068Y-47161101D01*
X107880392Y-47379608D01*
X108098899Y-47558932D01*
X108231858Y-47630000D01*
X108098899Y-47701068D01*
X107880392Y-47880392D01*
X107701068Y-48098899D01*
X107567818Y-48348192D01*
X107485764Y-48618691D01*
X107458057Y-48900000D01*
X107485764Y-49181309D01*
X107567818Y-49451808D01*
X107701068Y-49701101D01*
X107880392Y-49919608D01*
X108098899Y-50098932D01*
X108231858Y-50170000D01*
X108098899Y-50241068D01*
X107880392Y-50420392D01*
X107701068Y-50638899D01*
X107567818Y-50888192D01*
X107485764Y-51158691D01*
X107458057Y-51440000D01*
X107485764Y-51721309D01*
X107567818Y-51991808D01*
X107701068Y-52241101D01*
X107880392Y-52459608D01*
X108098899Y-52638932D01*
X108348192Y-52772182D01*
X108618691Y-52854236D01*
X108829508Y-52875000D01*
X108970492Y-52875000D01*
X109181309Y-52854236D01*
X109451808Y-52772182D01*
X109701101Y-52638932D01*
X109919608Y-52459608D01*
X110098932Y-52241101D01*
X110232182Y-51991808D01*
X110314236Y-51721309D01*
X110341943Y-51440000D01*
X110314236Y-51158691D01*
X110232182Y-50888192D01*
X110098932Y-50638899D01*
X109919608Y-50420392D01*
X109701101Y-50241068D01*
X109568142Y-50170000D01*
X109701101Y-50098932D01*
X109919608Y-49919608D01*
X109945107Y-49888538D01*
X110882569Y-50826001D01*
X110906368Y-50855000D01*
X111022093Y-50949973D01*
X111154122Y-51020545D01*
X111297383Y-51064002D01*
X111409036Y-51074999D01*
X111409044Y-51074999D01*
X111446369Y-51078675D01*
X111483694Y-51074999D01*
X115131151Y-51074999D01*
X115105764Y-51158691D01*
X115078057Y-51440000D01*
X115105764Y-51721309D01*
X115187818Y-51991808D01*
X115283064Y-52170000D01*
X115087323Y-52170000D01*
X115050000Y-52166324D01*
X115012677Y-52170000D01*
X115012667Y-52170000D01*
X114901014Y-52180997D01*
X114757753Y-52224454D01*
X114625723Y-52295026D01*
X114542083Y-52363668D01*
X114509999Y-52389999D01*
X114486201Y-52418997D01*
X109322749Y-57582450D01*
X109145579Y-57565000D01*
X109014421Y-57565000D01*
X108818294Y-57584317D01*
X108566646Y-57660653D01*
X108334725Y-57784618D01*
X108131445Y-57951445D01*
X107964618Y-58154725D01*
X107840653Y-58386646D01*
X107764317Y-58638294D01*
X107738541Y-58900000D01*
X107764317Y-59161706D01*
X107840653Y-59413354D01*
X107964618Y-59645275D01*
X108131445Y-59848555D01*
X108334725Y-60015382D01*
X108566646Y-60139347D01*
X108818294Y-60215683D01*
X109014421Y-60235000D01*
X109145579Y-60235000D01*
X109341706Y-60215683D01*
X109593354Y-60139347D01*
X109825275Y-60015382D01*
X110028555Y-59848555D01*
X110195382Y-59645275D01*
X110319347Y-59413354D01*
X110395683Y-59161706D01*
X110421459Y-58900000D01*
X110408509Y-58768514D01*
X115365000Y-58768514D01*
X115365000Y-59031486D01*
X115416304Y-59289405D01*
X115516939Y-59532359D01*
X115663038Y-59751013D01*
X115848987Y-59936962D01*
X116067641Y-60083061D01*
X116310595Y-60183696D01*
X116568514Y-60235000D01*
X116831486Y-60235000D01*
X117089405Y-60183696D01*
X117332359Y-60083061D01*
X117551013Y-59936962D01*
X117736962Y-59751013D01*
X117883061Y-59532359D01*
X117983696Y-59289405D01*
X118035000Y-59031486D01*
X118035000Y-58768514D01*
X117983696Y-58510595D01*
X117883061Y-58267641D01*
X117736962Y-58048987D01*
X117551013Y-57863038D01*
X117332359Y-57716939D01*
X117089405Y-57616304D01*
X116831486Y-57565000D01*
X116568514Y-57565000D01*
X116310595Y-57616304D01*
X116067641Y-57716939D01*
X115848987Y-57863038D01*
X115663038Y-58048987D01*
X115516939Y-58267641D01*
X115416304Y-58510595D01*
X115365000Y-58768514D01*
X110408509Y-58768514D01*
X110397550Y-58657251D01*
X113686287Y-55368514D01*
X115365000Y-55368514D01*
X115365000Y-55631486D01*
X115416304Y-55889405D01*
X115516939Y-56132359D01*
X115663038Y-56351013D01*
X115848987Y-56536962D01*
X116067641Y-56683061D01*
X116310595Y-56783696D01*
X116568514Y-56835000D01*
X116831486Y-56835000D01*
X117089405Y-56783696D01*
X117332359Y-56683061D01*
X117551013Y-56536962D01*
X117736962Y-56351013D01*
X117883061Y-56132359D01*
X117983696Y-55889405D01*
X118035000Y-55631486D01*
X118035000Y-55368514D01*
X117983696Y-55110595D01*
X117883061Y-54867641D01*
X117736962Y-54648987D01*
X117551013Y-54463038D01*
X117332359Y-54316939D01*
X117089405Y-54216304D01*
X116831486Y-54165000D01*
X116568514Y-54165000D01*
X116310595Y-54216304D01*
X116067641Y-54316939D01*
X115848987Y-54463038D01*
X115663038Y-54648987D01*
X115516939Y-54867641D01*
X115416304Y-55110595D01*
X115365000Y-55368514D01*
X113686287Y-55368514D01*
X115364802Y-53690000D01*
X118811928Y-53690000D01*
X118811928Y-54850000D01*
X118824188Y-54974482D01*
X118860498Y-55094180D01*
X118919463Y-55204494D01*
X118998815Y-55301185D01*
X119095506Y-55380537D01*
X119205820Y-55439502D01*
X119325518Y-55475812D01*
X119450000Y-55488072D01*
X120750000Y-55488072D01*
X120874482Y-55475812D01*
X120994180Y-55439502D01*
X121104494Y-55380537D01*
X121105176Y-55379977D01*
X122961199Y-57236001D01*
X122984998Y-57265000D01*
X123100723Y-57359973D01*
X123232752Y-57430545D01*
X123376013Y-57474002D01*
X123487666Y-57484999D01*
X123487676Y-57484999D01*
X123524999Y-57488675D01*
X123562322Y-57484999D01*
X125214296Y-57484999D01*
X125215000Y-57614250D01*
X125373750Y-57773000D01*
X126573000Y-57773000D01*
X126573000Y-57753000D01*
X126827000Y-57753000D01*
X126827000Y-57773000D01*
X126847000Y-57773000D01*
X126847000Y-58027000D01*
X126827000Y-58027000D01*
X126827000Y-58047000D01*
X126573000Y-58047000D01*
X126573000Y-58027000D01*
X125373750Y-58027000D01*
X125215000Y-58185750D01*
X125211928Y-58750000D01*
X125224188Y-58874482D01*
X125260498Y-58994180D01*
X125319463Y-59104494D01*
X125398815Y-59201185D01*
X125495506Y-59280537D01*
X125605820Y-59339502D01*
X125725518Y-59375812D01*
X125850000Y-59388072D01*
X126038151Y-59387048D01*
X124647458Y-60777741D01*
X124441808Y-60667818D01*
X124171309Y-60585764D01*
X123960492Y-60565000D01*
X123819508Y-60565000D01*
X123608691Y-60585764D01*
X123338192Y-60667818D01*
X123088899Y-60801068D01*
X122870392Y-60980392D01*
X122691068Y-61198899D01*
X122620000Y-61331858D01*
X122548932Y-61198899D01*
X122369608Y-60980392D01*
X122151101Y-60801068D01*
X121901808Y-60667818D01*
X121631309Y-60585764D01*
X121420492Y-60565000D01*
X121279508Y-60565000D01*
X121068691Y-60585764D01*
X120798192Y-60667818D01*
X120548899Y-60801068D01*
X120330392Y-60980392D01*
X120151068Y-61198899D01*
X120080000Y-61331858D01*
X120008932Y-61198899D01*
X119829608Y-60980392D01*
X119611101Y-60801068D01*
X119361808Y-60667818D01*
X119091309Y-60585764D01*
X118880492Y-60565000D01*
X118739508Y-60565000D01*
X118528691Y-60585764D01*
X118258192Y-60667818D01*
X118008899Y-60801068D01*
X117790392Y-60980392D01*
X117611068Y-61198899D01*
X117540000Y-61331858D01*
X117468932Y-61198899D01*
X117289608Y-60980392D01*
X117071101Y-60801068D01*
X116821808Y-60667818D01*
X116551309Y-60585764D01*
X116340492Y-60565000D01*
X116199508Y-60565000D01*
X115988691Y-60585764D01*
X115718192Y-60667818D01*
X115468899Y-60801068D01*
X115250392Y-60980392D01*
X115071068Y-61198899D01*
X114997421Y-61336682D01*
X114882385Y-61144869D01*
X114693414Y-60936481D01*
X114467420Y-60768963D01*
X114213087Y-60648754D01*
X114079039Y-60608096D01*
X113857000Y-60730085D01*
X113857000Y-61873000D01*
X113877000Y-61873000D01*
X113877000Y-62127000D01*
X113857000Y-62127000D01*
X113857000Y-62147000D01*
X113603000Y-62147000D01*
X113603000Y-62127000D01*
X113583000Y-62127000D01*
X113583000Y-61873000D01*
X113603000Y-61873000D01*
X113603000Y-60730085D01*
X113380961Y-60608096D01*
X113246913Y-60648754D01*
X112992580Y-60768963D01*
X112766586Y-60936481D01*
X112577615Y-61144869D01*
X112462579Y-61336682D01*
X112388932Y-61198899D01*
X112209608Y-60980392D01*
X111991101Y-60801068D01*
X111741808Y-60667818D01*
X111471309Y-60585764D01*
X111260492Y-60565000D01*
X111119508Y-60565000D01*
X110908691Y-60585764D01*
X110638192Y-60667818D01*
X110388899Y-60801068D01*
X110170392Y-60980392D01*
X109991068Y-61198899D01*
X109857818Y-61448192D01*
X109775764Y-61718691D01*
X109748057Y-62000000D01*
X109775764Y-62281309D01*
X109857818Y-62551808D01*
X109991068Y-62801101D01*
X110170392Y-63019608D01*
X110388899Y-63198932D01*
X110638192Y-63332182D01*
X110908691Y-63414236D01*
X111119508Y-63435000D01*
X111260492Y-63435000D01*
X111471309Y-63414236D01*
X111515907Y-63400708D01*
X111751197Y-63635998D01*
X111775000Y-63665002D01*
X111890725Y-63759975D01*
X112022754Y-63830547D01*
X112166015Y-63874004D01*
X112277668Y-63885001D01*
X112277677Y-63885001D01*
X112315000Y-63888677D01*
X112352323Y-63885001D01*
X124392679Y-63885001D01*
X124430001Y-63888677D01*
X124467323Y-63885001D01*
X124467334Y-63885001D01*
X124578987Y-63874004D01*
X124722248Y-63830547D01*
X124854277Y-63759975D01*
X124970002Y-63665002D01*
X124993804Y-63635999D01*
X125520133Y-63109670D01*
X125628899Y-63198932D01*
X125878192Y-63332182D01*
X126148691Y-63414236D01*
X126359508Y-63435000D01*
X126500492Y-63435000D01*
X126711309Y-63414236D01*
X126981808Y-63332182D01*
X127231101Y-63198932D01*
X127449608Y-63019608D01*
X127628932Y-62801101D01*
X127700000Y-62668142D01*
X127771068Y-62801101D01*
X127950392Y-63019608D01*
X128168899Y-63198932D01*
X128418192Y-63332182D01*
X128688691Y-63414236D01*
X128899508Y-63435000D01*
X129040492Y-63435000D01*
X129251309Y-63414236D01*
X129521808Y-63332182D01*
X129771101Y-63198932D01*
X129989608Y-63019608D01*
X130168932Y-62801101D01*
X130240000Y-62668142D01*
X130311068Y-62801101D01*
X130490392Y-63019608D01*
X130708899Y-63198932D01*
X130958192Y-63332182D01*
X131228691Y-63414236D01*
X131439508Y-63435000D01*
X131580492Y-63435000D01*
X131791309Y-63414236D01*
X132061808Y-63332182D01*
X132311101Y-63198932D01*
X132529608Y-63019608D01*
X132708932Y-62801101D01*
X132780000Y-62668142D01*
X132851068Y-62801101D01*
X133030392Y-63019608D01*
X133248899Y-63198932D01*
X133498192Y-63332182D01*
X133768691Y-63414236D01*
X133979508Y-63435000D01*
X134120492Y-63435000D01*
X134331309Y-63414236D01*
X134601808Y-63332182D01*
X134851101Y-63198932D01*
X135069608Y-63019608D01*
X135248932Y-62801101D01*
X135320000Y-62668142D01*
X135391068Y-62801101D01*
X135570392Y-63019608D01*
X135788899Y-63198932D01*
X136038192Y-63332182D01*
X136308691Y-63414236D01*
X136519508Y-63435000D01*
X136660492Y-63435000D01*
X136871309Y-63414236D01*
X137141808Y-63332182D01*
X137391101Y-63198932D01*
X137609608Y-63019608D01*
X137788932Y-62801101D01*
X137860000Y-62668142D01*
X137931068Y-62801101D01*
X138110392Y-63019608D01*
X138328899Y-63198932D01*
X138578192Y-63332182D01*
X138848691Y-63414236D01*
X139059508Y-63435000D01*
X139200492Y-63435000D01*
X139411309Y-63414236D01*
X139681808Y-63332182D01*
X139931101Y-63198932D01*
X140149608Y-63019608D01*
X140328932Y-62801101D01*
X140400000Y-62668142D01*
X140471068Y-62801101D01*
X140650392Y-63019608D01*
X140868899Y-63198932D01*
X141118192Y-63332182D01*
X141388691Y-63414236D01*
X141599508Y-63435000D01*
X141740492Y-63435000D01*
X141951309Y-63414236D01*
X142221808Y-63332182D01*
X142324999Y-63277025D01*
X142325000Y-75962975D01*
X142221808Y-75907818D01*
X141951309Y-75825764D01*
X141740492Y-75805000D01*
X141599508Y-75805000D01*
X141388691Y-75825764D01*
X141118192Y-75907818D01*
X140868899Y-76041068D01*
X140650392Y-76220392D01*
X140471068Y-76438899D01*
X140400000Y-76571858D01*
X140328932Y-76438899D01*
X140149608Y-76220392D01*
X139931101Y-76041068D01*
X139681808Y-75907818D01*
X139411309Y-75825764D01*
X139200492Y-75805000D01*
X139059508Y-75805000D01*
X138848691Y-75825764D01*
X138578192Y-75907818D01*
X138328899Y-76041068D01*
X138110392Y-76220392D01*
X137931068Y-76438899D01*
X137860000Y-76571858D01*
X137788932Y-76438899D01*
X137609608Y-76220392D01*
X137391101Y-76041068D01*
X137141808Y-75907818D01*
X136871309Y-75825764D01*
X136660492Y-75805000D01*
X136519508Y-75805000D01*
X136308691Y-75825764D01*
X136038192Y-75907818D01*
X135788899Y-76041068D01*
X135570392Y-76220392D01*
X135391068Y-76438899D01*
X135320000Y-76571858D01*
X135248932Y-76438899D01*
X135069608Y-76220392D01*
X134851101Y-76041068D01*
X134601808Y-75907818D01*
X134331309Y-75825764D01*
X134120492Y-75805000D01*
X133979508Y-75805000D01*
X133768691Y-75825764D01*
X133498192Y-75907818D01*
X133248899Y-76041068D01*
X133030392Y-76220392D01*
X132851068Y-76438899D01*
X132780000Y-76571858D01*
X132708932Y-76438899D01*
X132529608Y-76220392D01*
X132311101Y-76041068D01*
X132061808Y-75907818D01*
X131791309Y-75825764D01*
X131580492Y-75805000D01*
X131439508Y-75805000D01*
X131228691Y-75825764D01*
X130958192Y-75907818D01*
X130708899Y-76041068D01*
X130490392Y-76220392D01*
X130311068Y-76438899D01*
X130240000Y-76571858D01*
X130168932Y-76438899D01*
X129989608Y-76220392D01*
X129771101Y-76041068D01*
X129521808Y-75907818D01*
X129251309Y-75825764D01*
X129040492Y-75805000D01*
X128899508Y-75805000D01*
X128688691Y-75825764D01*
X128418192Y-75907818D01*
X128168899Y-76041068D01*
X127950392Y-76220392D01*
X127771068Y-76438899D01*
X127700000Y-76571858D01*
X127628932Y-76438899D01*
X127449608Y-76220392D01*
X127231101Y-76041068D01*
X126981808Y-75907818D01*
X126711309Y-75825764D01*
X126500492Y-75805000D01*
X126359508Y-75805000D01*
X126148691Y-75825764D01*
X125878192Y-75907818D01*
X125628899Y-76041068D01*
X125410392Y-76220392D01*
X125231068Y-76438899D01*
X125160000Y-76571858D01*
X125088932Y-76438899D01*
X124909608Y-76220392D01*
X124691101Y-76041068D01*
X124441808Y-75907818D01*
X124171309Y-75825764D01*
X123960492Y-75805000D01*
X123819508Y-75805000D01*
X123608691Y-75825764D01*
X123338192Y-75907818D01*
X123088899Y-76041068D01*
X122870392Y-76220392D01*
X122691068Y-76438899D01*
X122620000Y-76571858D01*
X122548932Y-76438899D01*
X122369608Y-76220392D01*
X122151101Y-76041068D01*
X121901808Y-75907818D01*
X121631309Y-75825764D01*
X121420492Y-75805000D01*
X121279508Y-75805000D01*
X121068691Y-75825764D01*
X120798192Y-75907818D01*
X120548899Y-76041068D01*
X120330392Y-76220392D01*
X120151068Y-76438899D01*
X120077421Y-76576682D01*
X119962385Y-76384869D01*
X119773414Y-76176481D01*
X119547420Y-76008963D01*
X119293087Y-75888754D01*
X119159039Y-75848096D01*
X118937000Y-75970085D01*
X118937000Y-77113000D01*
X118957000Y-77113000D01*
X118957000Y-77367000D01*
X118937000Y-77367000D01*
X118937000Y-78509915D01*
X119159039Y-78631904D01*
X119293087Y-78591246D01*
X119547420Y-78471037D01*
X119773414Y-78303519D01*
X119962385Y-78095131D01*
X120077421Y-77903318D01*
X120151068Y-78041101D01*
X120330392Y-78259608D01*
X120548899Y-78438932D01*
X120798192Y-78572182D01*
X121068691Y-78654236D01*
X121279508Y-78675000D01*
X121420492Y-78675000D01*
X121631309Y-78654236D01*
X121675906Y-78640708D01*
X124183001Y-81147803D01*
X124183000Y-82873451D01*
X124175518Y-82874188D01*
X124055820Y-82910498D01*
X123945506Y-82969463D01*
X123848815Y-83048815D01*
X123769463Y-83145506D01*
X123710498Y-83255820D01*
X123674188Y-83375518D01*
X123661928Y-83500000D01*
X123661928Y-85100000D01*
X123674188Y-85224482D01*
X123710498Y-85344180D01*
X123769463Y-85454494D01*
X123848815Y-85551185D01*
X123945506Y-85630537D01*
X124055820Y-85689502D01*
X124175518Y-85725812D01*
X124300000Y-85738072D01*
X125900000Y-85738072D01*
X126024482Y-85725812D01*
X126144180Y-85689502D01*
X126254494Y-85630537D01*
X126351185Y-85551185D01*
X126430537Y-85454494D01*
X126489502Y-85344180D01*
X126525812Y-85224482D01*
X126538072Y-85100000D01*
X126538072Y-84834275D01*
X126598320Y-84979727D01*
X126755363Y-85214759D01*
X126955241Y-85414637D01*
X127189223Y-85570978D01*
X127172829Y-85587372D01*
X127136013Y-85590998D01*
X126992752Y-85634455D01*
X126860723Y-85705027D01*
X126860721Y-85705028D01*
X126860722Y-85705028D01*
X126815022Y-85742533D01*
X126626335Y-85705000D01*
X126343665Y-85705000D01*
X126066426Y-85760147D01*
X125805273Y-85868320D01*
X125570241Y-86025363D01*
X125370363Y-86225241D01*
X125213320Y-86460273D01*
X125105147Y-86721426D01*
X125050000Y-86998665D01*
X125050000Y-87281335D01*
X125105147Y-87558574D01*
X125213320Y-87819727D01*
X125303714Y-87955011D01*
X113469813Y-87955011D01*
X110940797Y-85425996D01*
X110963513Y-85351111D01*
X110992185Y-85060000D01*
X110963513Y-84768889D01*
X110878599Y-84488966D01*
X110799230Y-84340475D01*
X115505000Y-84340475D01*
X115505000Y-84859525D01*
X115606261Y-85368601D01*
X115804893Y-85848141D01*
X116093262Y-86279715D01*
X116460285Y-86646738D01*
X116891859Y-86935107D01*
X117371399Y-87133739D01*
X117880475Y-87235000D01*
X118399525Y-87235000D01*
X118908601Y-87133739D01*
X119388141Y-86935107D01*
X119819715Y-86646738D01*
X120186738Y-86279715D01*
X120475107Y-85848141D01*
X120673739Y-85368601D01*
X120775000Y-84859525D01*
X120775000Y-84340475D01*
X120673739Y-83831399D01*
X120475107Y-83351859D01*
X120186738Y-82920285D01*
X119819715Y-82553262D01*
X119388141Y-82264893D01*
X118908601Y-82066261D01*
X118399525Y-81965000D01*
X117880475Y-81965000D01*
X117371399Y-82066261D01*
X116891859Y-82264893D01*
X116460285Y-82553262D01*
X116093262Y-82920285D01*
X115804893Y-83351859D01*
X115606261Y-83831399D01*
X115505000Y-84340475D01*
X110799230Y-84340475D01*
X110740706Y-84230986D01*
X110555134Y-84004866D01*
X110329014Y-83819294D01*
X110264477Y-83784799D01*
X110381355Y-83715178D01*
X110597588Y-83520269D01*
X110771641Y-83286920D01*
X110896825Y-83024099D01*
X110941476Y-82876890D01*
X110820155Y-82647000D01*
X109627000Y-82647000D01*
X109627000Y-82667000D01*
X109373000Y-82667000D01*
X109373000Y-82647000D01*
X108179845Y-82647000D01*
X108058524Y-82876890D01*
X108103175Y-83024099D01*
X108228359Y-83286920D01*
X108402412Y-83520269D01*
X108618645Y-83715178D01*
X108735523Y-83784799D01*
X108670986Y-83819294D01*
X108444866Y-84004866D01*
X108259294Y-84230986D01*
X108121401Y-84488966D01*
X108036487Y-84768889D01*
X108007815Y-85060000D01*
X108036487Y-85351111D01*
X108121401Y-85631034D01*
X108259294Y-85889014D01*
X108444866Y-86115134D01*
X108670986Y-86300706D01*
X108725791Y-86330000D01*
X108670986Y-86359294D01*
X108444866Y-86544866D01*
X108259294Y-86770986D01*
X108121401Y-87028966D01*
X108036487Y-87308889D01*
X108007815Y-87600000D01*
X108036487Y-87891111D01*
X108121401Y-88171034D01*
X108259294Y-88429014D01*
X108444866Y-88655134D01*
X108474687Y-88679607D01*
X108405820Y-88700498D01*
X108295506Y-88759463D01*
X108198815Y-88838815D01*
X108119463Y-88935506D01*
X108060498Y-89045820D01*
X108024188Y-89165518D01*
X108011928Y-89290000D01*
X108011928Y-90990000D01*
X108024188Y-91114482D01*
X108060498Y-91234180D01*
X108119463Y-91344494D01*
X108198815Y-91441185D01*
X108295506Y-91520537D01*
X108405820Y-91579502D01*
X108525518Y-91615812D01*
X108650000Y-91628072D01*
X110350000Y-91628072D01*
X110474482Y-91615812D01*
X110594180Y-91579502D01*
X110704494Y-91520537D01*
X110801185Y-91441185D01*
X110880537Y-91344494D01*
X110939502Y-91234180D01*
X110975812Y-91114482D01*
X110988072Y-90990000D01*
X110988072Y-90900000D01*
X133422680Y-90900000D01*
X133460002Y-90903676D01*
X133497324Y-90900000D01*
X133497335Y-90900000D01*
X133608988Y-90889003D01*
X133752249Y-90845546D01*
X133884278Y-90774974D01*
X134000003Y-90680001D01*
X134023806Y-90650997D01*
X139641004Y-85033800D01*
X139670001Y-85010003D01*
X139700299Y-84973085D01*
X139764974Y-84894279D01*
X139835546Y-84762249D01*
X139857154Y-84691016D01*
X139879003Y-84618988D01*
X139890000Y-84507335D01*
X139890000Y-84507326D01*
X139893676Y-84470003D01*
X139890000Y-84432680D01*
X139890000Y-84340475D01*
X140505000Y-84340475D01*
X140505000Y-84859525D01*
X140606261Y-85368601D01*
X140804893Y-85848141D01*
X141093262Y-86279715D01*
X141460285Y-86646738D01*
X141891859Y-86935107D01*
X142371399Y-87133739D01*
X142880475Y-87235000D01*
X143399525Y-87235000D01*
X143908601Y-87133739D01*
X144388141Y-86935107D01*
X144819715Y-86646738D01*
X145186738Y-86279715D01*
X145475107Y-85848141D01*
X145673739Y-85368601D01*
X145775000Y-84859525D01*
X145775000Y-84340475D01*
X145673739Y-83831399D01*
X145475107Y-83351859D01*
X145186738Y-82920285D01*
X144819715Y-82553262D01*
X144388141Y-82264893D01*
X143908601Y-82066261D01*
X143399525Y-81965000D01*
X142880475Y-81965000D01*
X142371399Y-82066261D01*
X141891859Y-82264893D01*
X141460285Y-82553262D01*
X141093262Y-82920285D01*
X140804893Y-83351859D01*
X140606261Y-83831399D01*
X140505000Y-84340475D01*
X139890000Y-84340475D01*
X139890000Y-78460901D01*
X139931101Y-78438932D01*
X140149608Y-78259608D01*
X140328932Y-78041101D01*
X140400000Y-77908142D01*
X140471068Y-78041101D01*
X140650392Y-78259608D01*
X140868899Y-78438932D01*
X141118192Y-78572182D01*
X141388691Y-78654236D01*
X141599508Y-78675000D01*
X141740492Y-78675000D01*
X141951309Y-78654236D01*
X141995906Y-78640708D01*
X142231202Y-78876004D01*
X142255000Y-78905002D01*
X142370725Y-78999975D01*
X142502754Y-79070547D01*
X142646015Y-79114004D01*
X142757668Y-79125001D01*
X142757676Y-79125001D01*
X142795001Y-79128677D01*
X142832326Y-79125001D01*
X144712679Y-79125001D01*
X144750001Y-79128677D01*
X144787323Y-79125001D01*
X144787334Y-79125001D01*
X144898987Y-79114004D01*
X145042248Y-79070547D01*
X145174277Y-78999975D01*
X145290002Y-78905002D01*
X145313804Y-78875999D01*
X145840133Y-78349670D01*
X145948899Y-78438932D01*
X146198192Y-78572182D01*
X146468691Y-78654236D01*
X146679508Y-78675000D01*
X146820492Y-78675000D01*
X147031309Y-78654236D01*
X147301808Y-78572182D01*
X147551101Y-78438932D01*
X147769608Y-78259608D01*
X147948932Y-78041101D01*
X148082182Y-77791808D01*
X148164236Y-77521309D01*
X148191943Y-77240000D01*
X148164236Y-76958691D01*
X148082182Y-76688192D01*
X147948932Y-76438899D01*
X147769608Y-76220392D01*
X147551101Y-76041068D01*
X147301808Y-75907818D01*
X147031309Y-75825764D01*
X146820492Y-75805000D01*
X146679508Y-75805000D01*
X146468691Y-75825764D01*
X146260000Y-75889069D01*
X146260000Y-63350931D01*
X146468691Y-63414236D01*
X146679508Y-63435000D01*
X146820492Y-63435000D01*
X147031309Y-63414236D01*
X147301808Y-63332182D01*
X147551101Y-63198932D01*
X147769608Y-63019608D01*
X147948932Y-62801101D01*
X148082182Y-62551808D01*
X148164236Y-62281309D01*
X148191943Y-62000000D01*
X148164236Y-61718691D01*
X148082182Y-61448192D01*
X147948932Y-61198899D01*
X147769608Y-60980392D01*
X147551101Y-60801068D01*
X147301808Y-60667818D01*
X147031309Y-60585764D01*
X146820492Y-60565000D01*
X146679508Y-60565000D01*
X146468691Y-60585764D01*
X146260000Y-60649069D01*
X146260000Y-60011803D01*
X146636005Y-59635799D01*
X146665002Y-59612002D01*
X146717514Y-59548016D01*
X146759975Y-59496278D01*
X146830547Y-59364248D01*
X146842672Y-59324276D01*
X146874004Y-59220987D01*
X146885001Y-59109334D01*
X146885001Y-59109324D01*
X146888677Y-59072001D01*
X146885001Y-59034678D01*
X146885001Y-58668514D01*
X151165000Y-58668514D01*
X151165000Y-58931486D01*
X151216304Y-59189405D01*
X151316939Y-59432359D01*
X151463038Y-59651013D01*
X151648987Y-59836962D01*
X151867641Y-59983061D01*
X152110595Y-60083696D01*
X152368514Y-60135000D01*
X152631486Y-60135000D01*
X152889405Y-60083696D01*
X153132359Y-59983061D01*
X153351013Y-59836962D01*
X153536962Y-59651013D01*
X153683061Y-59432359D01*
X153783696Y-59189405D01*
X153835000Y-58931486D01*
X153835000Y-58668514D01*
X153783696Y-58410595D01*
X153683061Y-58167641D01*
X153536962Y-57948987D01*
X153351013Y-57763038D01*
X153132359Y-57616939D01*
X152889405Y-57516304D01*
X152631486Y-57465000D01*
X152368514Y-57465000D01*
X152110595Y-57516304D01*
X151867641Y-57616939D01*
X151648987Y-57763038D01*
X151463038Y-57948987D01*
X151316939Y-58167641D01*
X151216304Y-58410595D01*
X151165000Y-58668514D01*
X146885001Y-58668514D01*
X146885001Y-55633329D01*
X151227284Y-55633329D01*
X151259953Y-55741044D01*
X151370208Y-55978392D01*
X151524649Y-56189670D01*
X151717340Y-56366759D01*
X151940877Y-56502853D01*
X152186670Y-56592722D01*
X152393000Y-56470201D01*
X152393000Y-55427000D01*
X152647000Y-55427000D01*
X152647000Y-56470201D01*
X152853330Y-56592722D01*
X153099123Y-56502853D01*
X153322660Y-56366759D01*
X153515351Y-56189670D01*
X153669792Y-55978392D01*
X153780047Y-55741044D01*
X153812716Y-55633329D01*
X153689374Y-55427000D01*
X152647000Y-55427000D01*
X152393000Y-55427000D01*
X151350626Y-55427000D01*
X151227284Y-55633329D01*
X146885001Y-55633329D01*
X146885001Y-54966671D01*
X151227284Y-54966671D01*
X151350626Y-55173000D01*
X152393000Y-55173000D01*
X152393000Y-54129799D01*
X152647000Y-54129799D01*
X152647000Y-55173000D01*
X153689374Y-55173000D01*
X153812716Y-54966671D01*
X153780047Y-54858956D01*
X153669792Y-54621608D01*
X153515351Y-54410330D01*
X153322660Y-54233241D01*
X153099123Y-54097147D01*
X152853330Y-54007278D01*
X152647000Y-54129799D01*
X152393000Y-54129799D01*
X152186670Y-54007278D01*
X151940877Y-54097147D01*
X151717340Y-54233241D01*
X151524649Y-54410330D01*
X151370208Y-54621608D01*
X151259953Y-54858956D01*
X151227284Y-54966671D01*
X146885001Y-54966671D01*
X146885001Y-36312323D01*
X146888677Y-36275000D01*
X146885001Y-36237678D01*
X146885001Y-36237668D01*
X146874004Y-36126015D01*
X146830547Y-35982754D01*
X146759975Y-35850725D01*
X146747069Y-35834999D01*
X151231151Y-35834999D01*
X151205764Y-35918691D01*
X151178057Y-36200000D01*
X151205764Y-36481309D01*
X151287818Y-36751808D01*
X151421068Y-37001101D01*
X151600392Y-37219608D01*
X151818899Y-37398932D01*
X151951858Y-37470000D01*
X151818899Y-37541068D01*
X151600392Y-37720392D01*
X151421068Y-37938899D01*
X151287818Y-38188192D01*
X151205764Y-38458691D01*
X151178057Y-38740000D01*
X151205764Y-39021309D01*
X151287818Y-39291808D01*
X151421068Y-39541101D01*
X151600392Y-39759608D01*
X151818899Y-39938932D01*
X151951858Y-40010000D01*
X151818899Y-40081068D01*
X151600392Y-40260392D01*
X151421068Y-40478899D01*
X151287818Y-40728192D01*
X151205764Y-40998691D01*
X151178057Y-41280000D01*
X151205764Y-41561309D01*
X151287818Y-41831808D01*
X151421068Y-42081101D01*
X151600392Y-42299608D01*
X151818899Y-42478932D01*
X151951858Y-42550000D01*
X151818899Y-42621068D01*
X151600392Y-42800392D01*
X151421068Y-43018899D01*
X151287818Y-43268192D01*
X151205764Y-43538691D01*
X151178057Y-43820000D01*
X151205764Y-44101309D01*
X151287818Y-44371808D01*
X151421068Y-44621101D01*
X151600392Y-44839608D01*
X151818899Y-45018932D01*
X151951858Y-45090000D01*
X151818899Y-45161068D01*
X151600392Y-45340392D01*
X151421068Y-45558899D01*
X151287818Y-45808192D01*
X151205764Y-46078691D01*
X151178057Y-46360000D01*
X151205764Y-46641309D01*
X151287818Y-46911808D01*
X151421068Y-47161101D01*
X151600392Y-47379608D01*
X151818899Y-47558932D01*
X151951858Y-47630000D01*
X151818899Y-47701068D01*
X151600392Y-47880392D01*
X151421068Y-48098899D01*
X151287818Y-48348192D01*
X151205764Y-48618691D01*
X151178057Y-48900000D01*
X151205764Y-49181309D01*
X151287818Y-49451808D01*
X151421068Y-49701101D01*
X151600392Y-49919608D01*
X151818899Y-50098932D01*
X151860000Y-50120901D01*
X151860000Y-50219099D01*
X151818899Y-50241068D01*
X151600392Y-50420392D01*
X151421068Y-50638899D01*
X151287818Y-50888192D01*
X151205764Y-51158691D01*
X151178057Y-51440000D01*
X151205764Y-51721309D01*
X151287818Y-51991808D01*
X151421068Y-52241101D01*
X151600392Y-52459608D01*
X151818899Y-52638932D01*
X152068192Y-52772182D01*
X152338691Y-52854236D01*
X152549508Y-52875000D01*
X152690492Y-52875000D01*
X152901309Y-52854236D01*
X153171808Y-52772182D01*
X153421101Y-52638932D01*
X153639608Y-52459608D01*
X153818932Y-52241101D01*
X153952182Y-51991808D01*
X154034236Y-51721309D01*
X154061943Y-51440000D01*
X154034236Y-51158691D01*
X153952182Y-50888192D01*
X153818932Y-50638899D01*
X153639608Y-50420392D01*
X153421101Y-50241068D01*
X153380000Y-50219099D01*
X153380000Y-50120901D01*
X153421101Y-50098932D01*
X153639608Y-49919608D01*
X153818932Y-49701101D01*
X153952182Y-49451808D01*
X154034236Y-49181309D01*
X154061943Y-48900000D01*
X154034236Y-48618691D01*
X154020708Y-48574093D01*
X154140001Y-48454800D01*
X154140000Y-83440000D01*
X152932419Y-83440000D01*
X152900000Y-83436807D01*
X152867581Y-83440000D01*
X152770617Y-83449550D01*
X152646207Y-83487290D01*
X152531550Y-83548575D01*
X152431052Y-83631052D01*
X152348575Y-83731550D01*
X152287290Y-83846207D01*
X152249550Y-83970617D01*
X152236807Y-84100000D01*
X152240000Y-84132418D01*
X152240001Y-88867571D01*
X152236807Y-88900000D01*
X152249550Y-89029383D01*
X152287290Y-89153793D01*
X152348575Y-89268450D01*
X152431052Y-89368948D01*
X152531550Y-89451425D01*
X152646207Y-89512710D01*
X152770617Y-89550450D01*
X152867581Y-89560000D01*
X152900000Y-89563193D01*
X152932419Y-89560000D01*
X154140000Y-89560000D01*
X154140001Y-91840000D01*
X107060000Y-91840000D01*
X107060000Y-82163110D01*
X108058524Y-82163110D01*
X108179845Y-82393000D01*
X109373000Y-82393000D01*
X109373000Y-81199186D01*
X109627000Y-81199186D01*
X109627000Y-82393000D01*
X110820155Y-82393000D01*
X110941476Y-82163110D01*
X110896825Y-82015901D01*
X110771641Y-81753080D01*
X110597588Y-81519731D01*
X110381355Y-81324822D01*
X110131252Y-81175843D01*
X109856891Y-81078519D01*
X109627000Y-81199186D01*
X109373000Y-81199186D01*
X109143109Y-81078519D01*
X108868748Y-81175843D01*
X108618645Y-81324822D01*
X108402412Y-81519731D01*
X108228359Y-81753080D01*
X108103175Y-82015901D01*
X108058524Y-82163110D01*
X107060000Y-82163110D01*
X107060000Y-76440000D01*
X109751928Y-76440000D01*
X109751928Y-78040000D01*
X109764188Y-78164482D01*
X109800498Y-78284180D01*
X109859463Y-78394494D01*
X109938815Y-78491185D01*
X110035506Y-78570537D01*
X110145820Y-78629502D01*
X110265518Y-78665812D01*
X110390000Y-78678072D01*
X111990000Y-78678072D01*
X112114482Y-78665812D01*
X112234180Y-78629502D01*
X112344494Y-78570537D01*
X112441185Y-78491185D01*
X112520537Y-78394494D01*
X112579502Y-78284180D01*
X112615812Y-78164482D01*
X112617581Y-78146518D01*
X112710392Y-78259608D01*
X112928899Y-78438932D01*
X113178192Y-78572182D01*
X113448691Y-78654236D01*
X113659508Y-78675000D01*
X113800492Y-78675000D01*
X114011309Y-78654236D01*
X114281808Y-78572182D01*
X114531101Y-78438932D01*
X114749608Y-78259608D01*
X114928932Y-78041101D01*
X115000000Y-77908142D01*
X115071068Y-78041101D01*
X115250392Y-78259608D01*
X115468899Y-78438932D01*
X115718192Y-78572182D01*
X115988691Y-78654236D01*
X116199508Y-78675000D01*
X116340492Y-78675000D01*
X116551309Y-78654236D01*
X116821808Y-78572182D01*
X117071101Y-78438932D01*
X117289608Y-78259608D01*
X117468932Y-78041101D01*
X117542579Y-77903318D01*
X117657615Y-78095131D01*
X117846586Y-78303519D01*
X118072580Y-78471037D01*
X118326913Y-78591246D01*
X118460961Y-78631904D01*
X118683000Y-78509915D01*
X118683000Y-77367000D01*
X118663000Y-77367000D01*
X118663000Y-77113000D01*
X118683000Y-77113000D01*
X118683000Y-75970085D01*
X118460961Y-75848096D01*
X118326913Y-75888754D01*
X118072580Y-76008963D01*
X117846586Y-76176481D01*
X117657615Y-76384869D01*
X117542579Y-76576682D01*
X117468932Y-76438899D01*
X117289608Y-76220392D01*
X117071101Y-76041068D01*
X116821808Y-75907818D01*
X116551309Y-75825764D01*
X116340492Y-75805000D01*
X116199508Y-75805000D01*
X115988691Y-75825764D01*
X115718192Y-75907818D01*
X115468899Y-76041068D01*
X115250392Y-76220392D01*
X115071068Y-76438899D01*
X115000000Y-76571858D01*
X114928932Y-76438899D01*
X114749608Y-76220392D01*
X114531101Y-76041068D01*
X114281808Y-75907818D01*
X114011309Y-75825764D01*
X113800492Y-75805000D01*
X113659508Y-75805000D01*
X113448691Y-75825764D01*
X113178192Y-75907818D01*
X112928899Y-76041068D01*
X112710392Y-76220392D01*
X112617581Y-76333482D01*
X112615812Y-76315518D01*
X112579502Y-76195820D01*
X112520537Y-76085506D01*
X112441185Y-75988815D01*
X112344494Y-75909463D01*
X112234180Y-75850498D01*
X112114482Y-75814188D01*
X111990000Y-75801928D01*
X110390000Y-75801928D01*
X110265518Y-75814188D01*
X110145820Y-75850498D01*
X110035506Y-75909463D01*
X109938815Y-75988815D01*
X109859463Y-76085506D01*
X109800498Y-76195820D01*
X109764188Y-76315518D01*
X109751928Y-76440000D01*
X107060000Y-76440000D01*
X107060000Y-55833329D01*
X107787284Y-55833329D01*
X107819953Y-55941044D01*
X107930208Y-56178392D01*
X108084649Y-56389670D01*
X108277340Y-56566759D01*
X108500877Y-56702853D01*
X108746670Y-56792722D01*
X108953000Y-56670201D01*
X108953000Y-55627000D01*
X109207000Y-55627000D01*
X109207000Y-56670201D01*
X109413330Y-56792722D01*
X109659123Y-56702853D01*
X109882660Y-56566759D01*
X110075351Y-56389670D01*
X110229792Y-56178392D01*
X110340047Y-55941044D01*
X110372716Y-55833329D01*
X110249374Y-55627000D01*
X109207000Y-55627000D01*
X108953000Y-55627000D01*
X107910626Y-55627000D01*
X107787284Y-55833329D01*
X107060000Y-55833329D01*
X107060000Y-55166671D01*
X107787284Y-55166671D01*
X107910626Y-55373000D01*
X108953000Y-55373000D01*
X108953000Y-54329799D01*
X109207000Y-54329799D01*
X109207000Y-55373000D01*
X110249374Y-55373000D01*
X110372716Y-55166671D01*
X110340047Y-55058956D01*
X110229792Y-54821608D01*
X110075351Y-54610330D01*
X109882660Y-54433241D01*
X109659123Y-54297147D01*
X109413330Y-54207278D01*
X109207000Y-54329799D01*
X108953000Y-54329799D01*
X108746670Y-54207278D01*
X108500877Y-54297147D01*
X108277340Y-54433241D01*
X108084649Y-54610330D01*
X107930208Y-54821608D01*
X107819953Y-55058956D01*
X107787284Y-55166671D01*
X107060000Y-55166671D01*
X107060000Y-34560000D01*
X115419479Y-34560000D01*
X115416199Y-34563997D01*
G36*
X132218748Y-87125858D02*
G01*
X132204605Y-87140000D01*
X132218748Y-87154143D01*
X132039143Y-87333748D01*
X132025000Y-87319605D01*
X132010858Y-87333748D01*
X131831253Y-87154143D01*
X131845395Y-87140000D01*
X131831253Y-87125858D01*
X132010858Y-86946253D01*
X132025000Y-86960395D01*
X132039143Y-86946253D01*
X132218748Y-87125858D01*
X132218748Y-87125858D01*
G37*
X132218748Y-87125858D02*
X132204605Y-87140000D01*
X132218748Y-87154143D01*
X132039143Y-87333748D01*
X132025000Y-87319605D01*
X132010858Y-87333748D01*
X131831253Y-87154143D01*
X131845395Y-87140000D01*
X131831253Y-87125858D01*
X132010858Y-86946253D01*
X132025000Y-86960395D01*
X132039143Y-86946253D01*
X132218748Y-87125858D01*
G36*
X143599292Y-48574094D02*
G01*
X143585764Y-48618691D01*
X143558057Y-48900000D01*
X143585764Y-49181309D01*
X143667818Y-49451808D01*
X143801068Y-49701101D01*
X143980392Y-49919608D01*
X144198899Y-50098932D01*
X144240000Y-50120901D01*
X144240000Y-50219099D01*
X144198899Y-50241068D01*
X143980392Y-50420392D01*
X143801068Y-50638899D01*
X143667818Y-50888192D01*
X143585764Y-51158691D01*
X143558057Y-51440000D01*
X143585764Y-51721309D01*
X143667818Y-51991808D01*
X143801068Y-52241101D01*
X143980392Y-52459608D01*
X144198899Y-52638932D01*
X144448192Y-52772182D01*
X144718691Y-52854236D01*
X144929508Y-52875000D01*
X145070492Y-52875000D01*
X145281309Y-52854236D01*
X145365001Y-52828849D01*
X145365001Y-54047617D01*
X145289405Y-54016304D01*
X145031486Y-53965000D01*
X144768514Y-53965000D01*
X144510595Y-54016304D01*
X144267641Y-54116939D01*
X144048987Y-54263038D01*
X143863038Y-54448987D01*
X143802225Y-54540000D01*
X142854802Y-54540000D01*
X142525000Y-54210198D01*
X142525000Y-54073439D01*
X142475619Y-53825179D01*
X142378753Y-53591324D01*
X142238125Y-53380860D01*
X142059140Y-53201875D01*
X141848676Y-53061247D01*
X141614821Y-52964381D01*
X141366561Y-52915000D01*
X141255000Y-52915000D01*
X141255000Y-52803439D01*
X141205619Y-52555179D01*
X141108753Y-52321324D01*
X140968125Y-52110860D01*
X140789140Y-51931875D01*
X140578676Y-51791247D01*
X140344821Y-51694381D01*
X140096561Y-51645000D01*
X139843439Y-51645000D01*
X139595179Y-51694381D01*
X139361324Y-51791247D01*
X139150860Y-51931875D01*
X138971875Y-52110860D01*
X138831247Y-52321324D01*
X138734381Y-52555179D01*
X138685000Y-52803439D01*
X138685000Y-52911928D01*
X138050000Y-52911928D01*
X137925518Y-52924188D01*
X137805820Y-52960498D01*
X137695506Y-53019463D01*
X137598815Y-53098815D01*
X137519463Y-53195506D01*
X137460498Y-53305820D01*
X137424188Y-53425518D01*
X137411928Y-53550000D01*
X137411928Y-54415001D01*
X137090633Y-54415001D01*
X136999277Y-54340027D01*
X136867248Y-54269455D01*
X136723987Y-54225998D01*
X136612334Y-54215001D01*
X136612323Y-54215001D01*
X136575001Y-54211325D01*
X136537679Y-54215001D01*
X131576203Y-54215001D01*
X126293475Y-48932274D01*
X126314785Y-48914785D01*
X126394137Y-48818094D01*
X126453102Y-48707780D01*
X126472624Y-48643426D01*
X126529707Y-48706854D01*
X126765056Y-48882684D01*
X127030186Y-49009222D01*
X127180974Y-49054958D01*
X127413000Y-48933817D01*
X127413000Y-47727000D01*
X127393000Y-47727000D01*
X127393000Y-47473000D01*
X127413000Y-47473000D01*
X127413000Y-47453000D01*
X127667000Y-47453000D01*
X127667000Y-47473000D01*
X127687000Y-47473000D01*
X127687000Y-47727000D01*
X127667000Y-47727000D01*
X127667000Y-48933817D01*
X127899026Y-49054958D01*
X128049814Y-49009222D01*
X128314944Y-48882684D01*
X128550293Y-48706854D01*
X128746817Y-48488488D01*
X128804137Y-48392090D01*
X128827931Y-48436606D01*
X129015203Y-48664797D01*
X129243394Y-48852069D01*
X129503736Y-48991225D01*
X129786223Y-49076916D01*
X130006381Y-49098600D01*
X130153619Y-49098600D01*
X130373777Y-49076916D01*
X130656264Y-48991225D01*
X130916606Y-48852069D01*
X131144797Y-48664797D01*
X131332069Y-48436606D01*
X131350000Y-48403060D01*
X131367931Y-48436606D01*
X131555203Y-48664797D01*
X131783394Y-48852069D01*
X132043736Y-48991225D01*
X132326223Y-49076916D01*
X132546381Y-49098600D01*
X132693619Y-49098600D01*
X132913777Y-49076916D01*
X133196264Y-48991225D01*
X133456606Y-48852069D01*
X133684797Y-48664797D01*
X133872069Y-48436606D01*
X133890000Y-48403060D01*
X133907931Y-48436606D01*
X134095203Y-48664797D01*
X134323394Y-48852069D01*
X134583736Y-48991225D01*
X134866223Y-49076916D01*
X135086381Y-49098600D01*
X135233619Y-49098600D01*
X135453777Y-49076916D01*
X135736264Y-48991225D01*
X135996606Y-48852069D01*
X136224797Y-48664797D01*
X136412069Y-48436606D01*
X136551225Y-48176264D01*
X136636916Y-47893777D01*
X136665851Y-47600000D01*
X136636916Y-47306223D01*
X136551225Y-47023736D01*
X136543135Y-47008601D01*
X142033800Y-47008601D01*
X143599292Y-48574094D01*
X143599292Y-48574094D01*
G37*
X143599292Y-48574094D02*
X143585764Y-48618691D01*
X143558057Y-48900000D01*
X143585764Y-49181309D01*
X143667818Y-49451808D01*
X143801068Y-49701101D01*
X143980392Y-49919608D01*
X144198899Y-50098932D01*
X144240000Y-50120901D01*
X144240000Y-50219099D01*
X144198899Y-50241068D01*
X143980392Y-50420392D01*
X143801068Y-50638899D01*
X143667818Y-50888192D01*
X143585764Y-51158691D01*
X143558057Y-51440000D01*
X143585764Y-51721309D01*
X143667818Y-51991808D01*
X143801068Y-52241101D01*
X143980392Y-52459608D01*
X144198899Y-52638932D01*
X144448192Y-52772182D01*
X144718691Y-52854236D01*
X144929508Y-52875000D01*
X145070492Y-52875000D01*
X145281309Y-52854236D01*
X145365001Y-52828849D01*
X145365001Y-54047617D01*
X145289405Y-54016304D01*
X145031486Y-53965000D01*
X144768514Y-53965000D01*
X144510595Y-54016304D01*
X144267641Y-54116939D01*
X144048987Y-54263038D01*
X143863038Y-54448987D01*
X143802225Y-54540000D01*
X142854802Y-54540000D01*
X142525000Y-54210198D01*
X142525000Y-54073439D01*
X142475619Y-53825179D01*
X142378753Y-53591324D01*
X142238125Y-53380860D01*
X142059140Y-53201875D01*
X141848676Y-53061247D01*
X141614821Y-52964381D01*
X141366561Y-52915000D01*
X141255000Y-52915000D01*
X141255000Y-52803439D01*
X141205619Y-52555179D01*
X141108753Y-52321324D01*
X140968125Y-52110860D01*
X140789140Y-51931875D01*
X140578676Y-51791247D01*
X140344821Y-51694381D01*
X140096561Y-51645000D01*
X139843439Y-51645000D01*
X139595179Y-51694381D01*
X139361324Y-51791247D01*
X139150860Y-51931875D01*
X138971875Y-52110860D01*
X138831247Y-52321324D01*
X138734381Y-52555179D01*
X138685000Y-52803439D01*
X138685000Y-52911928D01*
X138050000Y-52911928D01*
X137925518Y-52924188D01*
X137805820Y-52960498D01*
X137695506Y-53019463D01*
X137598815Y-53098815D01*
X137519463Y-53195506D01*
X137460498Y-53305820D01*
X137424188Y-53425518D01*
X137411928Y-53550000D01*
X137411928Y-54415001D01*
X137090633Y-54415001D01*
X136999277Y-54340027D01*
X136867248Y-54269455D01*
X136723987Y-54225998D01*
X136612334Y-54215001D01*
X136612323Y-54215001D01*
X136575001Y-54211325D01*
X136537679Y-54215001D01*
X131576203Y-54215001D01*
X126293475Y-48932274D01*
X126314785Y-48914785D01*
X126394137Y-48818094D01*
X126453102Y-48707780D01*
X126472624Y-48643426D01*
X126529707Y-48706854D01*
X126765056Y-48882684D01*
X127030186Y-49009222D01*
X127180974Y-49054958D01*
X127413000Y-48933817D01*
X127413000Y-47727000D01*
X127393000Y-47727000D01*
X127393000Y-47473000D01*
X127413000Y-47473000D01*
X127413000Y-47453000D01*
X127667000Y-47453000D01*
X127667000Y-47473000D01*
X127687000Y-47473000D01*
X127687000Y-47727000D01*
X127667000Y-47727000D01*
X127667000Y-48933817D01*
X127899026Y-49054958D01*
X128049814Y-49009222D01*
X128314944Y-48882684D01*
X128550293Y-48706854D01*
X128746817Y-48488488D01*
X128804137Y-48392090D01*
X128827931Y-48436606D01*
X129015203Y-48664797D01*
X129243394Y-48852069D01*
X129503736Y-48991225D01*
X129786223Y-49076916D01*
X130006381Y-49098600D01*
X130153619Y-49098600D01*
X130373777Y-49076916D01*
X130656264Y-48991225D01*
X130916606Y-48852069D01*
X131144797Y-48664797D01*
X131332069Y-48436606D01*
X131350000Y-48403060D01*
X131367931Y-48436606D01*
X131555203Y-48664797D01*
X131783394Y-48852069D01*
X132043736Y-48991225D01*
X132326223Y-49076916D01*
X132546381Y-49098600D01*
X132693619Y-49098600D01*
X132913777Y-49076916D01*
X133196264Y-48991225D01*
X133456606Y-48852069D01*
X133684797Y-48664797D01*
X133872069Y-48436606D01*
X133890000Y-48403060D01*
X133907931Y-48436606D01*
X134095203Y-48664797D01*
X134323394Y-48852069D01*
X134583736Y-48991225D01*
X134866223Y-49076916D01*
X135086381Y-49098600D01*
X135233619Y-49098600D01*
X135453777Y-49076916D01*
X135736264Y-48991225D01*
X135996606Y-48852069D01*
X136224797Y-48664797D01*
X136412069Y-48436606D01*
X136551225Y-48176264D01*
X136636916Y-47893777D01*
X136665851Y-47600000D01*
X136636916Y-47306223D01*
X136551225Y-47023736D01*
X136543135Y-47008601D01*
X142033800Y-47008601D01*
X143599292Y-48574094D01*
G36*
X143599292Y-40954094D02*
G01*
X143585764Y-40998691D01*
X143558057Y-41280000D01*
X143585764Y-41561309D01*
X143667818Y-41831808D01*
X143801068Y-42081101D01*
X143980392Y-42299608D01*
X144198899Y-42478932D01*
X144336682Y-42552579D01*
X144144869Y-42667615D01*
X143936481Y-42856586D01*
X143768963Y-43082580D01*
X143648754Y-43336913D01*
X143608096Y-43470961D01*
X143730085Y-43693000D01*
X144873000Y-43693000D01*
X144873000Y-43673000D01*
X145127000Y-43673000D01*
X145127000Y-43693000D01*
X145147000Y-43693000D01*
X145147000Y-43947000D01*
X145127000Y-43947000D01*
X145127000Y-43967000D01*
X144873000Y-43967000D01*
X144873000Y-43947000D01*
X143730085Y-43947000D01*
X143608096Y-44169039D01*
X143648754Y-44303087D01*
X143768963Y-44557420D01*
X143936481Y-44783414D01*
X144144869Y-44972385D01*
X144336682Y-45087421D01*
X144198899Y-45161068D01*
X143980392Y-45340392D01*
X143801068Y-45558899D01*
X143667818Y-45808192D01*
X143585764Y-46078691D01*
X143558057Y-46360000D01*
X143560598Y-46385796D01*
X142912405Y-45737604D01*
X142888602Y-45708600D01*
X142772877Y-45613627D01*
X142640848Y-45543055D01*
X142497587Y-45499598D01*
X142385934Y-45488601D01*
X142385923Y-45488601D01*
X142348601Y-45484925D01*
X142311279Y-45488601D01*
X136596018Y-45488601D01*
X136636916Y-45353777D01*
X136665851Y-45060000D01*
X136636916Y-44766223D01*
X136551225Y-44483736D01*
X136412069Y-44223394D01*
X136224797Y-43995203D01*
X135996606Y-43807931D01*
X135736264Y-43668775D01*
X135453777Y-43583084D01*
X135233619Y-43561400D01*
X135086381Y-43561400D01*
X134866223Y-43583084D01*
X134583736Y-43668775D01*
X134323394Y-43807931D01*
X134095203Y-43995203D01*
X133907931Y-44223394D01*
X133890000Y-44256940D01*
X133872069Y-44223394D01*
X133684797Y-43995203D01*
X133456606Y-43807931D01*
X133196264Y-43668775D01*
X132913777Y-43583084D01*
X132693619Y-43561400D01*
X132546381Y-43561400D01*
X132326223Y-43583084D01*
X132043736Y-43668775D01*
X131783394Y-43807931D01*
X131716644Y-43862712D01*
X127353931Y-39500000D01*
X142145199Y-39500000D01*
X143599292Y-40954094D01*
X143599292Y-40954094D01*
G37*
X143599292Y-40954094D02*
X143585764Y-40998691D01*
X143558057Y-41280000D01*
X143585764Y-41561309D01*
X143667818Y-41831808D01*
X143801068Y-42081101D01*
X143980392Y-42299608D01*
X144198899Y-42478932D01*
X144336682Y-42552579D01*
X144144869Y-42667615D01*
X143936481Y-42856586D01*
X143768963Y-43082580D01*
X143648754Y-43336913D01*
X143608096Y-43470961D01*
X143730085Y-43693000D01*
X144873000Y-43693000D01*
X144873000Y-43673000D01*
X145127000Y-43673000D01*
X145127000Y-43693000D01*
X145147000Y-43693000D01*
X145147000Y-43947000D01*
X145127000Y-43947000D01*
X145127000Y-43967000D01*
X144873000Y-43967000D01*
X144873000Y-43947000D01*
X143730085Y-43947000D01*
X143608096Y-44169039D01*
X143648754Y-44303087D01*
X143768963Y-44557420D01*
X143936481Y-44783414D01*
X144144869Y-44972385D01*
X144336682Y-45087421D01*
X144198899Y-45161068D01*
X143980392Y-45340392D01*
X143801068Y-45558899D01*
X143667818Y-45808192D01*
X143585764Y-46078691D01*
X143558057Y-46360000D01*
X143560598Y-46385796D01*
X142912405Y-45737604D01*
X142888602Y-45708600D01*
X142772877Y-45613627D01*
X142640848Y-45543055D01*
X142497587Y-45499598D01*
X142385934Y-45488601D01*
X142385923Y-45488601D01*
X142348601Y-45484925D01*
X142311279Y-45488601D01*
X136596018Y-45488601D01*
X136636916Y-45353777D01*
X136665851Y-45060000D01*
X136636916Y-44766223D01*
X136551225Y-44483736D01*
X136412069Y-44223394D01*
X136224797Y-43995203D01*
X135996606Y-43807931D01*
X135736264Y-43668775D01*
X135453777Y-43583084D01*
X135233619Y-43561400D01*
X135086381Y-43561400D01*
X134866223Y-43583084D01*
X134583736Y-43668775D01*
X134323394Y-43807931D01*
X134095203Y-43995203D01*
X133907931Y-44223394D01*
X133890000Y-44256940D01*
X133872069Y-44223394D01*
X133684797Y-43995203D01*
X133456606Y-43807931D01*
X133196264Y-43668775D01*
X132913777Y-43583084D01*
X132693619Y-43561400D01*
X132546381Y-43561400D01*
X132326223Y-43583084D01*
X132043736Y-43668775D01*
X131783394Y-43807931D01*
X131716644Y-43862712D01*
X127353931Y-39500000D01*
X142145199Y-39500000D01*
X143599292Y-40954094D01*
M02*
