G04 #@! TF.GenerationSoftware,KiCad,Pcbnew,(5.1.4)-1*
G04 #@! TF.CreationDate,2019-11-09T17:45:10+10:00*
G04 #@! TF.ProjectId,SegaControllerForApple2,53656761-436f-46e7-9472-6f6c6c657246,rev?*
G04 #@! TF.SameCoordinates,Original*
G04 #@! TF.FileFunction,Soldermask,Top*
G04 #@! TF.FilePolarity,Negative*
%FSLAX46Y46*%
G04 Gerber Fmt 4.6, Leading zero omitted, Abs format (unit mm)*
G04 Created by KiCad (PCBNEW (5.1.4)-1) date 2019-11-09 17:45:10*
%MOMM*%
%LPD*%
G04 APERTURE LIST*
%ADD10C,0.100000*%
G04 APERTURE END LIST*
D10*
G36*
X110401000Y-91041000D02*
G01*
X108599000Y-91041000D01*
X108599000Y-89239000D01*
X110401000Y-89239000D01*
X110401000Y-91041000D01*
X110401000Y-91041000D01*
G37*
G36*
X109610443Y-86705519D02*
G01*
X109676627Y-86712037D01*
X109846466Y-86763557D01*
X110002991Y-86847222D01*
X110038729Y-86876552D01*
X110140186Y-86959814D01*
X110219274Y-87056184D01*
X110252778Y-87097009D01*
X110336443Y-87253534D01*
X110387963Y-87423373D01*
X110405359Y-87600000D01*
X110387963Y-87776627D01*
X110336443Y-87946466D01*
X110252778Y-88102991D01*
X110223448Y-88138729D01*
X110140186Y-88240186D01*
X110038729Y-88323448D01*
X110002991Y-88352778D01*
X109846466Y-88436443D01*
X109676627Y-88487963D01*
X109610443Y-88494481D01*
X109544260Y-88501000D01*
X109455740Y-88501000D01*
X109389557Y-88494481D01*
X109323373Y-88487963D01*
X109153534Y-88436443D01*
X108997009Y-88352778D01*
X108961271Y-88323448D01*
X108859814Y-88240186D01*
X108776552Y-88138729D01*
X108747222Y-88102991D01*
X108663557Y-87946466D01*
X108612037Y-87776627D01*
X108594641Y-87600000D01*
X108612037Y-87423373D01*
X108663557Y-87253534D01*
X108747222Y-87097009D01*
X108780726Y-87056184D01*
X108859814Y-86959814D01*
X108961271Y-86876552D01*
X108997009Y-86847222D01*
X109153534Y-86763557D01*
X109323373Y-86712037D01*
X109389557Y-86705519D01*
X109455740Y-86699000D01*
X109544260Y-86699000D01*
X109610443Y-86705519D01*
X109610443Y-86705519D01*
G37*
G36*
X129503228Y-86321703D02*
G01*
X129658100Y-86385853D01*
X129797481Y-86478985D01*
X129916015Y-86597519D01*
X130009147Y-86736900D01*
X130073297Y-86891772D01*
X130106000Y-87056184D01*
X130106000Y-87223816D01*
X130073297Y-87388228D01*
X130009147Y-87543100D01*
X129916015Y-87682481D01*
X129797481Y-87801015D01*
X129658100Y-87894147D01*
X129503228Y-87958297D01*
X129338816Y-87991000D01*
X129171184Y-87991000D01*
X129006772Y-87958297D01*
X128851900Y-87894147D01*
X128712519Y-87801015D01*
X128593985Y-87682481D01*
X128500853Y-87543100D01*
X128436703Y-87388228D01*
X128404000Y-87223816D01*
X128404000Y-87056184D01*
X128436703Y-86891772D01*
X128500853Y-86736900D01*
X128593985Y-86597519D01*
X128712519Y-86478985D01*
X128851900Y-86385853D01*
X129006772Y-86321703D01*
X129171184Y-86289000D01*
X129338816Y-86289000D01*
X129503228Y-86321703D01*
X129503228Y-86321703D01*
G37*
G36*
X132273228Y-86321703D02*
G01*
X132428100Y-86385853D01*
X132567481Y-86478985D01*
X132686015Y-86597519D01*
X132779147Y-86736900D01*
X132843297Y-86891772D01*
X132876000Y-87056184D01*
X132876000Y-87223816D01*
X132843297Y-87388228D01*
X132779147Y-87543100D01*
X132686015Y-87682481D01*
X132567481Y-87801015D01*
X132428100Y-87894147D01*
X132273228Y-87958297D01*
X132108816Y-87991000D01*
X131941184Y-87991000D01*
X131776772Y-87958297D01*
X131621900Y-87894147D01*
X131482519Y-87801015D01*
X131363985Y-87682481D01*
X131270853Y-87543100D01*
X131206703Y-87388228D01*
X131174000Y-87223816D01*
X131174000Y-87056184D01*
X131206703Y-86891772D01*
X131270853Y-86736900D01*
X131363985Y-86597519D01*
X131482519Y-86478985D01*
X131621900Y-86385853D01*
X131776772Y-86321703D01*
X131941184Y-86289000D01*
X132108816Y-86289000D01*
X132273228Y-86321703D01*
X132273228Y-86321703D01*
G37*
G36*
X135043228Y-86321703D02*
G01*
X135198100Y-86385853D01*
X135337481Y-86478985D01*
X135456015Y-86597519D01*
X135549147Y-86736900D01*
X135613297Y-86891772D01*
X135646000Y-87056184D01*
X135646000Y-87223816D01*
X135613297Y-87388228D01*
X135549147Y-87543100D01*
X135456015Y-87682481D01*
X135337481Y-87801015D01*
X135198100Y-87894147D01*
X135043228Y-87958297D01*
X134878816Y-87991000D01*
X134711184Y-87991000D01*
X134546772Y-87958297D01*
X134391900Y-87894147D01*
X134252519Y-87801015D01*
X134133985Y-87682481D01*
X134040853Y-87543100D01*
X133976703Y-87388228D01*
X133944000Y-87223816D01*
X133944000Y-87056184D01*
X133976703Y-86891772D01*
X134040853Y-86736900D01*
X134133985Y-86597519D01*
X134252519Y-86478985D01*
X134391900Y-86385853D01*
X134546772Y-86321703D01*
X134711184Y-86289000D01*
X134878816Y-86289000D01*
X135043228Y-86321703D01*
X135043228Y-86321703D01*
G37*
G36*
X126733228Y-86321703D02*
G01*
X126888100Y-86385853D01*
X127027481Y-86478985D01*
X127146015Y-86597519D01*
X127239147Y-86736900D01*
X127303297Y-86891772D01*
X127336000Y-87056184D01*
X127336000Y-87223816D01*
X127303297Y-87388228D01*
X127239147Y-87543100D01*
X127146015Y-87682481D01*
X127027481Y-87801015D01*
X126888100Y-87894147D01*
X126733228Y-87958297D01*
X126568816Y-87991000D01*
X126401184Y-87991000D01*
X126236772Y-87958297D01*
X126081900Y-87894147D01*
X125942519Y-87801015D01*
X125823985Y-87682481D01*
X125730853Y-87543100D01*
X125666703Y-87388228D01*
X125634000Y-87223816D01*
X125634000Y-87056184D01*
X125666703Y-86891772D01*
X125730853Y-86736900D01*
X125823985Y-86597519D01*
X125942519Y-86478985D01*
X126081900Y-86385853D01*
X126236772Y-86321703D01*
X126401184Y-86289000D01*
X126568816Y-86289000D01*
X126733228Y-86321703D01*
X126733228Y-86321703D01*
G37*
G36*
X143738254Y-82627818D02*
G01*
X144111511Y-82782426D01*
X144111513Y-82782427D01*
X144447436Y-83006884D01*
X144733116Y-83292564D01*
X144902359Y-83545853D01*
X144957574Y-83628489D01*
X145112182Y-84001746D01*
X145191000Y-84397993D01*
X145191000Y-84802007D01*
X145112182Y-85198254D01*
X145025937Y-85406468D01*
X144957573Y-85571513D01*
X144733116Y-85907436D01*
X144447436Y-86193116D01*
X144111513Y-86417573D01*
X144111512Y-86417574D01*
X144111511Y-86417574D01*
X143738254Y-86572182D01*
X143342007Y-86651000D01*
X142937993Y-86651000D01*
X142541746Y-86572182D01*
X142168489Y-86417574D01*
X142168488Y-86417574D01*
X142168487Y-86417573D01*
X141832564Y-86193116D01*
X141546884Y-85907436D01*
X141322427Y-85571513D01*
X141254063Y-85406468D01*
X141167818Y-85198254D01*
X141089000Y-84802007D01*
X141089000Y-84397993D01*
X141167818Y-84001746D01*
X141322426Y-83628489D01*
X141377642Y-83545853D01*
X141546884Y-83292564D01*
X141832564Y-83006884D01*
X142168487Y-82782427D01*
X142168489Y-82782426D01*
X142541746Y-82627818D01*
X142937993Y-82549000D01*
X143342007Y-82549000D01*
X143738254Y-82627818D01*
X143738254Y-82627818D01*
G37*
G36*
X118738254Y-82627818D02*
G01*
X119111511Y-82782426D01*
X119111513Y-82782427D01*
X119447436Y-83006884D01*
X119733116Y-83292564D01*
X119902359Y-83545853D01*
X119957574Y-83628489D01*
X120112182Y-84001746D01*
X120191000Y-84397993D01*
X120191000Y-84802007D01*
X120112182Y-85198254D01*
X120025937Y-85406468D01*
X119957573Y-85571513D01*
X119733116Y-85907436D01*
X119447436Y-86193116D01*
X119111513Y-86417573D01*
X119111512Y-86417574D01*
X119111511Y-86417574D01*
X118738254Y-86572182D01*
X118342007Y-86651000D01*
X117937993Y-86651000D01*
X117541746Y-86572182D01*
X117168489Y-86417574D01*
X117168488Y-86417574D01*
X117168487Y-86417573D01*
X116832564Y-86193116D01*
X116546884Y-85907436D01*
X116322427Y-85571513D01*
X116254063Y-85406468D01*
X116167818Y-85198254D01*
X116089000Y-84802007D01*
X116089000Y-84397993D01*
X116167818Y-84001746D01*
X116322426Y-83628489D01*
X116377642Y-83545853D01*
X116546884Y-83292564D01*
X116832564Y-83006884D01*
X117168487Y-82782427D01*
X117168489Y-82782426D01*
X117541746Y-82627818D01*
X117937993Y-82549000D01*
X118342007Y-82549000D01*
X118738254Y-82627818D01*
X118738254Y-82627818D01*
G37*
G36*
X109610442Y-84165518D02*
G01*
X109676627Y-84172037D01*
X109846466Y-84223557D01*
X110002991Y-84307222D01*
X110038729Y-84336552D01*
X110140186Y-84419814D01*
X110223448Y-84521271D01*
X110252778Y-84557009D01*
X110336443Y-84713534D01*
X110387963Y-84883373D01*
X110405359Y-85060000D01*
X110387963Y-85236627D01*
X110336443Y-85406466D01*
X110252778Y-85562991D01*
X110245784Y-85571513D01*
X110140186Y-85700186D01*
X110038729Y-85783448D01*
X110002991Y-85812778D01*
X109846466Y-85896443D01*
X109676627Y-85947963D01*
X109610443Y-85954481D01*
X109544260Y-85961000D01*
X109455740Y-85961000D01*
X109389557Y-85954481D01*
X109323373Y-85947963D01*
X109153534Y-85896443D01*
X108997009Y-85812778D01*
X108961271Y-85783448D01*
X108859814Y-85700186D01*
X108754216Y-85571513D01*
X108747222Y-85562991D01*
X108663557Y-85406466D01*
X108612037Y-85236627D01*
X108594641Y-85060000D01*
X108612037Y-84883373D01*
X108663557Y-84713534D01*
X108747222Y-84557009D01*
X108776552Y-84521271D01*
X108859814Y-84419814D01*
X108961271Y-84336552D01*
X108997009Y-84307222D01*
X109153534Y-84223557D01*
X109323373Y-84172037D01*
X109389558Y-84165518D01*
X109455740Y-84159000D01*
X109544260Y-84159000D01*
X109610442Y-84165518D01*
X109610442Y-84165518D01*
G37*
G36*
X133658228Y-83481703D02*
G01*
X133813100Y-83545853D01*
X133952481Y-83638985D01*
X134071015Y-83757519D01*
X134164147Y-83896900D01*
X134228297Y-84051772D01*
X134261000Y-84216184D01*
X134261000Y-84383816D01*
X134228297Y-84548228D01*
X134164147Y-84703100D01*
X134071015Y-84842481D01*
X133952481Y-84961015D01*
X133813100Y-85054147D01*
X133658228Y-85118297D01*
X133493816Y-85151000D01*
X133326184Y-85151000D01*
X133161772Y-85118297D01*
X133006900Y-85054147D01*
X132867519Y-84961015D01*
X132748985Y-84842481D01*
X132655853Y-84703100D01*
X132591703Y-84548228D01*
X132559000Y-84383816D01*
X132559000Y-84216184D01*
X132591703Y-84051772D01*
X132655853Y-83896900D01*
X132748985Y-83757519D01*
X132867519Y-83638985D01*
X133006900Y-83545853D01*
X133161772Y-83481703D01*
X133326184Y-83449000D01*
X133493816Y-83449000D01*
X133658228Y-83481703D01*
X133658228Y-83481703D01*
G37*
G36*
X136428228Y-83481703D02*
G01*
X136583100Y-83545853D01*
X136722481Y-83638985D01*
X136841015Y-83757519D01*
X136934147Y-83896900D01*
X136998297Y-84051772D01*
X137031000Y-84216184D01*
X137031000Y-84383816D01*
X136998297Y-84548228D01*
X136934147Y-84703100D01*
X136841015Y-84842481D01*
X136722481Y-84961015D01*
X136583100Y-85054147D01*
X136428228Y-85118297D01*
X136263816Y-85151000D01*
X136096184Y-85151000D01*
X135931772Y-85118297D01*
X135776900Y-85054147D01*
X135637519Y-84961015D01*
X135518985Y-84842481D01*
X135425853Y-84703100D01*
X135361703Y-84548228D01*
X135329000Y-84383816D01*
X135329000Y-84216184D01*
X135361703Y-84051772D01*
X135425853Y-83896900D01*
X135518985Y-83757519D01*
X135637519Y-83638985D01*
X135776900Y-83545853D01*
X135931772Y-83481703D01*
X136096184Y-83449000D01*
X136263816Y-83449000D01*
X136428228Y-83481703D01*
X136428228Y-83481703D01*
G37*
G36*
X130888228Y-83481703D02*
G01*
X131043100Y-83545853D01*
X131182481Y-83638985D01*
X131301015Y-83757519D01*
X131394147Y-83896900D01*
X131458297Y-84051772D01*
X131491000Y-84216184D01*
X131491000Y-84383816D01*
X131458297Y-84548228D01*
X131394147Y-84703100D01*
X131301015Y-84842481D01*
X131182481Y-84961015D01*
X131043100Y-85054147D01*
X130888228Y-85118297D01*
X130723816Y-85151000D01*
X130556184Y-85151000D01*
X130391772Y-85118297D01*
X130236900Y-85054147D01*
X130097519Y-84961015D01*
X129978985Y-84842481D01*
X129885853Y-84703100D01*
X129821703Y-84548228D01*
X129789000Y-84383816D01*
X129789000Y-84216184D01*
X129821703Y-84051772D01*
X129885853Y-83896900D01*
X129978985Y-83757519D01*
X130097519Y-83638985D01*
X130236900Y-83545853D01*
X130391772Y-83481703D01*
X130556184Y-83449000D01*
X130723816Y-83449000D01*
X130888228Y-83481703D01*
X130888228Y-83481703D01*
G37*
G36*
X125951000Y-85151000D02*
G01*
X124249000Y-85151000D01*
X124249000Y-83449000D01*
X125951000Y-83449000D01*
X125951000Y-85151000D01*
X125951000Y-85151000D01*
G37*
G36*
X128118228Y-83481703D02*
G01*
X128273100Y-83545853D01*
X128412481Y-83638985D01*
X128531015Y-83757519D01*
X128624147Y-83896900D01*
X128688297Y-84051772D01*
X128721000Y-84216184D01*
X128721000Y-84383816D01*
X128688297Y-84548228D01*
X128624147Y-84703100D01*
X128531015Y-84842481D01*
X128412481Y-84961015D01*
X128273100Y-85054147D01*
X128118228Y-85118297D01*
X127953816Y-85151000D01*
X127786184Y-85151000D01*
X127621772Y-85118297D01*
X127466900Y-85054147D01*
X127327519Y-84961015D01*
X127208985Y-84842481D01*
X127115853Y-84703100D01*
X127051703Y-84548228D01*
X127019000Y-84383816D01*
X127019000Y-84216184D01*
X127051703Y-84051772D01*
X127115853Y-83896900D01*
X127208985Y-83757519D01*
X127327519Y-83638985D01*
X127466900Y-83545853D01*
X127621772Y-83481703D01*
X127786184Y-83449000D01*
X127953816Y-83449000D01*
X128118228Y-83481703D01*
X128118228Y-83481703D01*
G37*
G36*
X109610443Y-81625519D02*
G01*
X109676627Y-81632037D01*
X109846466Y-81683557D01*
X110002991Y-81767222D01*
X110038729Y-81796552D01*
X110140186Y-81879814D01*
X110223448Y-81981271D01*
X110252778Y-82017009D01*
X110336443Y-82173534D01*
X110387963Y-82343373D01*
X110405359Y-82520000D01*
X110387963Y-82696627D01*
X110336443Y-82866466D01*
X110252778Y-83022991D01*
X110223448Y-83058729D01*
X110140186Y-83160186D01*
X110038729Y-83243448D01*
X110002991Y-83272778D01*
X109846466Y-83356443D01*
X109676627Y-83407963D01*
X109610443Y-83414481D01*
X109544260Y-83421000D01*
X109455740Y-83421000D01*
X109389557Y-83414481D01*
X109323373Y-83407963D01*
X109153534Y-83356443D01*
X108997009Y-83272778D01*
X108961271Y-83243448D01*
X108859814Y-83160186D01*
X108776552Y-83058729D01*
X108747222Y-83022991D01*
X108663557Y-82866466D01*
X108612037Y-82696627D01*
X108594641Y-82520000D01*
X108612037Y-82343373D01*
X108663557Y-82173534D01*
X108747222Y-82017009D01*
X108776552Y-81981271D01*
X108859814Y-81879814D01*
X108961271Y-81796552D01*
X108997009Y-81767222D01*
X109153534Y-81683557D01*
X109323373Y-81632037D01*
X109389557Y-81625519D01*
X109455740Y-81619000D01*
X109544260Y-81619000D01*
X109610443Y-81625519D01*
X109610443Y-81625519D01*
G37*
G36*
X124056823Y-76401313D02*
G01*
X124217242Y-76449976D01*
X124349906Y-76520886D01*
X124365078Y-76528996D01*
X124494659Y-76635341D01*
X124601004Y-76764922D01*
X124601005Y-76764924D01*
X124680024Y-76912758D01*
X124728687Y-77073177D01*
X124745117Y-77240000D01*
X124728687Y-77406823D01*
X124680024Y-77567242D01*
X124609114Y-77699906D01*
X124601004Y-77715078D01*
X124494659Y-77844659D01*
X124365078Y-77951004D01*
X124365076Y-77951005D01*
X124217242Y-78030024D01*
X124056823Y-78078687D01*
X123931804Y-78091000D01*
X123848196Y-78091000D01*
X123723177Y-78078687D01*
X123562758Y-78030024D01*
X123414924Y-77951005D01*
X123414922Y-77951004D01*
X123285341Y-77844659D01*
X123178996Y-77715078D01*
X123170886Y-77699906D01*
X123099976Y-77567242D01*
X123051313Y-77406823D01*
X123034883Y-77240000D01*
X123051313Y-77073177D01*
X123099976Y-76912758D01*
X123178995Y-76764924D01*
X123178996Y-76764922D01*
X123285341Y-76635341D01*
X123414922Y-76528996D01*
X123430094Y-76520886D01*
X123562758Y-76449976D01*
X123723177Y-76401313D01*
X123848196Y-76389000D01*
X123931804Y-76389000D01*
X124056823Y-76401313D01*
X124056823Y-76401313D01*
G37*
G36*
X129136823Y-76401313D02*
G01*
X129297242Y-76449976D01*
X129429906Y-76520886D01*
X129445078Y-76528996D01*
X129574659Y-76635341D01*
X129681004Y-76764922D01*
X129681005Y-76764924D01*
X129760024Y-76912758D01*
X129808687Y-77073177D01*
X129825117Y-77240000D01*
X129808687Y-77406823D01*
X129760024Y-77567242D01*
X129689114Y-77699906D01*
X129681004Y-77715078D01*
X129574659Y-77844659D01*
X129445078Y-77951004D01*
X129445076Y-77951005D01*
X129297242Y-78030024D01*
X129136823Y-78078687D01*
X129011804Y-78091000D01*
X128928196Y-78091000D01*
X128803177Y-78078687D01*
X128642758Y-78030024D01*
X128494924Y-77951005D01*
X128494922Y-77951004D01*
X128365341Y-77844659D01*
X128258996Y-77715078D01*
X128250886Y-77699906D01*
X128179976Y-77567242D01*
X128131313Y-77406823D01*
X128114883Y-77240000D01*
X128131313Y-77073177D01*
X128179976Y-76912758D01*
X128258995Y-76764924D01*
X128258996Y-76764922D01*
X128365341Y-76635341D01*
X128494922Y-76528996D01*
X128510094Y-76520886D01*
X128642758Y-76449976D01*
X128803177Y-76401313D01*
X128928196Y-76389000D01*
X129011804Y-76389000D01*
X129136823Y-76401313D01*
X129136823Y-76401313D01*
G37*
G36*
X131676823Y-76401313D02*
G01*
X131837242Y-76449976D01*
X131969906Y-76520886D01*
X131985078Y-76528996D01*
X132114659Y-76635341D01*
X132221004Y-76764922D01*
X132221005Y-76764924D01*
X132300024Y-76912758D01*
X132348687Y-77073177D01*
X132365117Y-77240000D01*
X132348687Y-77406823D01*
X132300024Y-77567242D01*
X132229114Y-77699906D01*
X132221004Y-77715078D01*
X132114659Y-77844659D01*
X131985078Y-77951004D01*
X131985076Y-77951005D01*
X131837242Y-78030024D01*
X131676823Y-78078687D01*
X131551804Y-78091000D01*
X131468196Y-78091000D01*
X131343177Y-78078687D01*
X131182758Y-78030024D01*
X131034924Y-77951005D01*
X131034922Y-77951004D01*
X130905341Y-77844659D01*
X130798996Y-77715078D01*
X130790886Y-77699906D01*
X130719976Y-77567242D01*
X130671313Y-77406823D01*
X130654883Y-77240000D01*
X130671313Y-77073177D01*
X130719976Y-76912758D01*
X130798995Y-76764924D01*
X130798996Y-76764922D01*
X130905341Y-76635341D01*
X131034922Y-76528996D01*
X131050094Y-76520886D01*
X131182758Y-76449976D01*
X131343177Y-76401313D01*
X131468196Y-76389000D01*
X131551804Y-76389000D01*
X131676823Y-76401313D01*
X131676823Y-76401313D01*
G37*
G36*
X126596823Y-76401313D02*
G01*
X126757242Y-76449976D01*
X126889906Y-76520886D01*
X126905078Y-76528996D01*
X127034659Y-76635341D01*
X127141004Y-76764922D01*
X127141005Y-76764924D01*
X127220024Y-76912758D01*
X127268687Y-77073177D01*
X127285117Y-77240000D01*
X127268687Y-77406823D01*
X127220024Y-77567242D01*
X127149114Y-77699906D01*
X127141004Y-77715078D01*
X127034659Y-77844659D01*
X126905078Y-77951004D01*
X126905076Y-77951005D01*
X126757242Y-78030024D01*
X126596823Y-78078687D01*
X126471804Y-78091000D01*
X126388196Y-78091000D01*
X126263177Y-78078687D01*
X126102758Y-78030024D01*
X125954924Y-77951005D01*
X125954922Y-77951004D01*
X125825341Y-77844659D01*
X125718996Y-77715078D01*
X125710886Y-77699906D01*
X125639976Y-77567242D01*
X125591313Y-77406823D01*
X125574883Y-77240000D01*
X125591313Y-77073177D01*
X125639976Y-76912758D01*
X125718995Y-76764924D01*
X125718996Y-76764922D01*
X125825341Y-76635341D01*
X125954922Y-76528996D01*
X125970094Y-76520886D01*
X126102758Y-76449976D01*
X126263177Y-76401313D01*
X126388196Y-76389000D01*
X126471804Y-76389000D01*
X126596823Y-76401313D01*
X126596823Y-76401313D01*
G37*
G36*
X134216823Y-76401313D02*
G01*
X134377242Y-76449976D01*
X134509906Y-76520886D01*
X134525078Y-76528996D01*
X134654659Y-76635341D01*
X134761004Y-76764922D01*
X134761005Y-76764924D01*
X134840024Y-76912758D01*
X134888687Y-77073177D01*
X134905117Y-77240000D01*
X134888687Y-77406823D01*
X134840024Y-77567242D01*
X134769114Y-77699906D01*
X134761004Y-77715078D01*
X134654659Y-77844659D01*
X134525078Y-77951004D01*
X134525076Y-77951005D01*
X134377242Y-78030024D01*
X134216823Y-78078687D01*
X134091804Y-78091000D01*
X134008196Y-78091000D01*
X133883177Y-78078687D01*
X133722758Y-78030024D01*
X133574924Y-77951005D01*
X133574922Y-77951004D01*
X133445341Y-77844659D01*
X133338996Y-77715078D01*
X133330886Y-77699906D01*
X133259976Y-77567242D01*
X133211313Y-77406823D01*
X133194883Y-77240000D01*
X133211313Y-77073177D01*
X133259976Y-76912758D01*
X133338995Y-76764924D01*
X133338996Y-76764922D01*
X133445341Y-76635341D01*
X133574922Y-76528996D01*
X133590094Y-76520886D01*
X133722758Y-76449976D01*
X133883177Y-76401313D01*
X134008196Y-76389000D01*
X134091804Y-76389000D01*
X134216823Y-76401313D01*
X134216823Y-76401313D01*
G37*
G36*
X121516823Y-76401313D02*
G01*
X121677242Y-76449976D01*
X121809906Y-76520886D01*
X121825078Y-76528996D01*
X121954659Y-76635341D01*
X122061004Y-76764922D01*
X122061005Y-76764924D01*
X122140024Y-76912758D01*
X122188687Y-77073177D01*
X122205117Y-77240000D01*
X122188687Y-77406823D01*
X122140024Y-77567242D01*
X122069114Y-77699906D01*
X122061004Y-77715078D01*
X121954659Y-77844659D01*
X121825078Y-77951004D01*
X121825076Y-77951005D01*
X121677242Y-78030024D01*
X121516823Y-78078687D01*
X121391804Y-78091000D01*
X121308196Y-78091000D01*
X121183177Y-78078687D01*
X121022758Y-78030024D01*
X120874924Y-77951005D01*
X120874922Y-77951004D01*
X120745341Y-77844659D01*
X120638996Y-77715078D01*
X120630886Y-77699906D01*
X120559976Y-77567242D01*
X120511313Y-77406823D01*
X120494883Y-77240000D01*
X120511313Y-77073177D01*
X120559976Y-76912758D01*
X120638995Y-76764924D01*
X120638996Y-76764922D01*
X120745341Y-76635341D01*
X120874922Y-76528996D01*
X120890094Y-76520886D01*
X121022758Y-76449976D01*
X121183177Y-76401313D01*
X121308196Y-76389000D01*
X121391804Y-76389000D01*
X121516823Y-76401313D01*
X121516823Y-76401313D01*
G37*
G36*
X144376823Y-76401313D02*
G01*
X144537242Y-76449976D01*
X144669906Y-76520886D01*
X144685078Y-76528996D01*
X144814659Y-76635341D01*
X144921004Y-76764922D01*
X144921005Y-76764924D01*
X145000024Y-76912758D01*
X145048687Y-77073177D01*
X145065117Y-77240000D01*
X145048687Y-77406823D01*
X145000024Y-77567242D01*
X144929114Y-77699906D01*
X144921004Y-77715078D01*
X144814659Y-77844659D01*
X144685078Y-77951004D01*
X144685076Y-77951005D01*
X144537242Y-78030024D01*
X144376823Y-78078687D01*
X144251804Y-78091000D01*
X144168196Y-78091000D01*
X144043177Y-78078687D01*
X143882758Y-78030024D01*
X143734924Y-77951005D01*
X143734922Y-77951004D01*
X143605341Y-77844659D01*
X143498996Y-77715078D01*
X143490886Y-77699906D01*
X143419976Y-77567242D01*
X143371313Y-77406823D01*
X143354883Y-77240000D01*
X143371313Y-77073177D01*
X143419976Y-76912758D01*
X143498995Y-76764924D01*
X143498996Y-76764922D01*
X143605341Y-76635341D01*
X143734922Y-76528996D01*
X143750094Y-76520886D01*
X143882758Y-76449976D01*
X144043177Y-76401313D01*
X144168196Y-76389000D01*
X144251804Y-76389000D01*
X144376823Y-76401313D01*
X144376823Y-76401313D01*
G37*
G36*
X116436823Y-76401313D02*
G01*
X116597242Y-76449976D01*
X116729906Y-76520886D01*
X116745078Y-76528996D01*
X116874659Y-76635341D01*
X116981004Y-76764922D01*
X116981005Y-76764924D01*
X117060024Y-76912758D01*
X117108687Y-77073177D01*
X117125117Y-77240000D01*
X117108687Y-77406823D01*
X117060024Y-77567242D01*
X116989114Y-77699906D01*
X116981004Y-77715078D01*
X116874659Y-77844659D01*
X116745078Y-77951004D01*
X116745076Y-77951005D01*
X116597242Y-78030024D01*
X116436823Y-78078687D01*
X116311804Y-78091000D01*
X116228196Y-78091000D01*
X116103177Y-78078687D01*
X115942758Y-78030024D01*
X115794924Y-77951005D01*
X115794922Y-77951004D01*
X115665341Y-77844659D01*
X115558996Y-77715078D01*
X115550886Y-77699906D01*
X115479976Y-77567242D01*
X115431313Y-77406823D01*
X115414883Y-77240000D01*
X115431313Y-77073177D01*
X115479976Y-76912758D01*
X115558995Y-76764924D01*
X115558996Y-76764922D01*
X115665341Y-76635341D01*
X115794922Y-76528996D01*
X115810094Y-76520886D01*
X115942758Y-76449976D01*
X116103177Y-76401313D01*
X116228196Y-76389000D01*
X116311804Y-76389000D01*
X116436823Y-76401313D01*
X116436823Y-76401313D01*
G37*
G36*
X139296823Y-76401313D02*
G01*
X139457242Y-76449976D01*
X139589906Y-76520886D01*
X139605078Y-76528996D01*
X139734659Y-76635341D01*
X139841004Y-76764922D01*
X139841005Y-76764924D01*
X139920024Y-76912758D01*
X139968687Y-77073177D01*
X139985117Y-77240000D01*
X139968687Y-77406823D01*
X139920024Y-77567242D01*
X139849114Y-77699906D01*
X139841004Y-77715078D01*
X139734659Y-77844659D01*
X139605078Y-77951004D01*
X139605076Y-77951005D01*
X139457242Y-78030024D01*
X139296823Y-78078687D01*
X139171804Y-78091000D01*
X139088196Y-78091000D01*
X138963177Y-78078687D01*
X138802758Y-78030024D01*
X138654924Y-77951005D01*
X138654922Y-77951004D01*
X138525341Y-77844659D01*
X138418996Y-77715078D01*
X138410886Y-77699906D01*
X138339976Y-77567242D01*
X138291313Y-77406823D01*
X138274883Y-77240000D01*
X138291313Y-77073177D01*
X138339976Y-76912758D01*
X138418995Y-76764924D01*
X138418996Y-76764922D01*
X138525341Y-76635341D01*
X138654922Y-76528996D01*
X138670094Y-76520886D01*
X138802758Y-76449976D01*
X138963177Y-76401313D01*
X139088196Y-76389000D01*
X139171804Y-76389000D01*
X139296823Y-76401313D01*
X139296823Y-76401313D01*
G37*
G36*
X112041000Y-78091000D02*
G01*
X110339000Y-78091000D01*
X110339000Y-76389000D01*
X112041000Y-76389000D01*
X112041000Y-78091000D01*
X112041000Y-78091000D01*
G37*
G36*
X141836823Y-76401313D02*
G01*
X141997242Y-76449976D01*
X142129906Y-76520886D01*
X142145078Y-76528996D01*
X142274659Y-76635341D01*
X142381004Y-76764922D01*
X142381005Y-76764924D01*
X142460024Y-76912758D01*
X142508687Y-77073177D01*
X142525117Y-77240000D01*
X142508687Y-77406823D01*
X142460024Y-77567242D01*
X142389114Y-77699906D01*
X142381004Y-77715078D01*
X142274659Y-77844659D01*
X142145078Y-77951004D01*
X142145076Y-77951005D01*
X141997242Y-78030024D01*
X141836823Y-78078687D01*
X141711804Y-78091000D01*
X141628196Y-78091000D01*
X141503177Y-78078687D01*
X141342758Y-78030024D01*
X141194924Y-77951005D01*
X141194922Y-77951004D01*
X141065341Y-77844659D01*
X140958996Y-77715078D01*
X140950886Y-77699906D01*
X140879976Y-77567242D01*
X140831313Y-77406823D01*
X140814883Y-77240000D01*
X140831313Y-77073177D01*
X140879976Y-76912758D01*
X140958995Y-76764924D01*
X140958996Y-76764922D01*
X141065341Y-76635341D01*
X141194922Y-76528996D01*
X141210094Y-76520886D01*
X141342758Y-76449976D01*
X141503177Y-76401313D01*
X141628196Y-76389000D01*
X141711804Y-76389000D01*
X141836823Y-76401313D01*
X141836823Y-76401313D01*
G37*
G36*
X113896823Y-76401313D02*
G01*
X114057242Y-76449976D01*
X114189906Y-76520886D01*
X114205078Y-76528996D01*
X114334659Y-76635341D01*
X114441004Y-76764922D01*
X114441005Y-76764924D01*
X114520024Y-76912758D01*
X114568687Y-77073177D01*
X114585117Y-77240000D01*
X114568687Y-77406823D01*
X114520024Y-77567242D01*
X114449114Y-77699906D01*
X114441004Y-77715078D01*
X114334659Y-77844659D01*
X114205078Y-77951004D01*
X114205076Y-77951005D01*
X114057242Y-78030024D01*
X113896823Y-78078687D01*
X113771804Y-78091000D01*
X113688196Y-78091000D01*
X113563177Y-78078687D01*
X113402758Y-78030024D01*
X113254924Y-77951005D01*
X113254922Y-77951004D01*
X113125341Y-77844659D01*
X113018996Y-77715078D01*
X113010886Y-77699906D01*
X112939976Y-77567242D01*
X112891313Y-77406823D01*
X112874883Y-77240000D01*
X112891313Y-77073177D01*
X112939976Y-76912758D01*
X113018995Y-76764924D01*
X113018996Y-76764922D01*
X113125341Y-76635341D01*
X113254922Y-76528996D01*
X113270094Y-76520886D01*
X113402758Y-76449976D01*
X113563177Y-76401313D01*
X113688196Y-76389000D01*
X113771804Y-76389000D01*
X113896823Y-76401313D01*
X113896823Y-76401313D01*
G37*
G36*
X146916823Y-76401313D02*
G01*
X147077242Y-76449976D01*
X147209906Y-76520886D01*
X147225078Y-76528996D01*
X147354659Y-76635341D01*
X147461004Y-76764922D01*
X147461005Y-76764924D01*
X147540024Y-76912758D01*
X147588687Y-77073177D01*
X147605117Y-77240000D01*
X147588687Y-77406823D01*
X147540024Y-77567242D01*
X147469114Y-77699906D01*
X147461004Y-77715078D01*
X147354659Y-77844659D01*
X147225078Y-77951004D01*
X147225076Y-77951005D01*
X147077242Y-78030024D01*
X146916823Y-78078687D01*
X146791804Y-78091000D01*
X146708196Y-78091000D01*
X146583177Y-78078687D01*
X146422758Y-78030024D01*
X146274924Y-77951005D01*
X146274922Y-77951004D01*
X146145341Y-77844659D01*
X146038996Y-77715078D01*
X146030886Y-77699906D01*
X145959976Y-77567242D01*
X145911313Y-77406823D01*
X145894883Y-77240000D01*
X145911313Y-77073177D01*
X145959976Y-76912758D01*
X146038995Y-76764924D01*
X146038996Y-76764922D01*
X146145341Y-76635341D01*
X146274922Y-76528996D01*
X146290094Y-76520886D01*
X146422758Y-76449976D01*
X146583177Y-76401313D01*
X146708196Y-76389000D01*
X146791804Y-76389000D01*
X146916823Y-76401313D01*
X146916823Y-76401313D01*
G37*
G36*
X118976823Y-76401313D02*
G01*
X119137242Y-76449976D01*
X119269906Y-76520886D01*
X119285078Y-76528996D01*
X119414659Y-76635341D01*
X119521004Y-76764922D01*
X119521005Y-76764924D01*
X119600024Y-76912758D01*
X119648687Y-77073177D01*
X119665117Y-77240000D01*
X119648687Y-77406823D01*
X119600024Y-77567242D01*
X119529114Y-77699906D01*
X119521004Y-77715078D01*
X119414659Y-77844659D01*
X119285078Y-77951004D01*
X119285076Y-77951005D01*
X119137242Y-78030024D01*
X118976823Y-78078687D01*
X118851804Y-78091000D01*
X118768196Y-78091000D01*
X118643177Y-78078687D01*
X118482758Y-78030024D01*
X118334924Y-77951005D01*
X118334922Y-77951004D01*
X118205341Y-77844659D01*
X118098996Y-77715078D01*
X118090886Y-77699906D01*
X118019976Y-77567242D01*
X117971313Y-77406823D01*
X117954883Y-77240000D01*
X117971313Y-77073177D01*
X118019976Y-76912758D01*
X118098995Y-76764924D01*
X118098996Y-76764922D01*
X118205341Y-76635341D01*
X118334922Y-76528996D01*
X118350094Y-76520886D01*
X118482758Y-76449976D01*
X118643177Y-76401313D01*
X118768196Y-76389000D01*
X118851804Y-76389000D01*
X118976823Y-76401313D01*
X118976823Y-76401313D01*
G37*
G36*
X136756823Y-76401313D02*
G01*
X136917242Y-76449976D01*
X137049906Y-76520886D01*
X137065078Y-76528996D01*
X137194659Y-76635341D01*
X137301004Y-76764922D01*
X137301005Y-76764924D01*
X137380024Y-76912758D01*
X137428687Y-77073177D01*
X137445117Y-77240000D01*
X137428687Y-77406823D01*
X137380024Y-77567242D01*
X137309114Y-77699906D01*
X137301004Y-77715078D01*
X137194659Y-77844659D01*
X137065078Y-77951004D01*
X137065076Y-77951005D01*
X136917242Y-78030024D01*
X136756823Y-78078687D01*
X136631804Y-78091000D01*
X136548196Y-78091000D01*
X136423177Y-78078687D01*
X136262758Y-78030024D01*
X136114924Y-77951005D01*
X136114922Y-77951004D01*
X135985341Y-77844659D01*
X135878996Y-77715078D01*
X135870886Y-77699906D01*
X135799976Y-77567242D01*
X135751313Y-77406823D01*
X135734883Y-77240000D01*
X135751313Y-77073177D01*
X135799976Y-76912758D01*
X135878995Y-76764924D01*
X135878996Y-76764922D01*
X135985341Y-76635341D01*
X136114922Y-76528996D01*
X136130094Y-76520886D01*
X136262758Y-76449976D01*
X136423177Y-76401313D01*
X136548196Y-76389000D01*
X136631804Y-76389000D01*
X136756823Y-76401313D01*
X136756823Y-76401313D01*
G37*
G36*
X111356823Y-61161313D02*
G01*
X111517242Y-61209976D01*
X111649906Y-61280886D01*
X111665078Y-61288996D01*
X111794659Y-61395341D01*
X111901004Y-61524922D01*
X111901005Y-61524924D01*
X111980024Y-61672758D01*
X112028687Y-61833177D01*
X112045117Y-62000000D01*
X112028687Y-62166823D01*
X111980024Y-62327242D01*
X111909114Y-62459906D01*
X111901004Y-62475078D01*
X111794659Y-62604659D01*
X111665078Y-62711004D01*
X111665076Y-62711005D01*
X111517242Y-62790024D01*
X111356823Y-62838687D01*
X111231804Y-62851000D01*
X111148196Y-62851000D01*
X111023177Y-62838687D01*
X110862758Y-62790024D01*
X110714924Y-62711005D01*
X110714922Y-62711004D01*
X110585341Y-62604659D01*
X110478996Y-62475078D01*
X110470886Y-62459906D01*
X110399976Y-62327242D01*
X110351313Y-62166823D01*
X110334883Y-62000000D01*
X110351313Y-61833177D01*
X110399976Y-61672758D01*
X110478995Y-61524924D01*
X110478996Y-61524922D01*
X110585341Y-61395341D01*
X110714922Y-61288996D01*
X110730094Y-61280886D01*
X110862758Y-61209976D01*
X111023177Y-61161313D01*
X111148196Y-61149000D01*
X111231804Y-61149000D01*
X111356823Y-61161313D01*
X111356823Y-61161313D01*
G37*
G36*
X144376823Y-61161313D02*
G01*
X144537242Y-61209976D01*
X144669906Y-61280886D01*
X144685078Y-61288996D01*
X144814659Y-61395341D01*
X144921004Y-61524922D01*
X144921005Y-61524924D01*
X145000024Y-61672758D01*
X145048687Y-61833177D01*
X145065117Y-62000000D01*
X145048687Y-62166823D01*
X145000024Y-62327242D01*
X144929114Y-62459906D01*
X144921004Y-62475078D01*
X144814659Y-62604659D01*
X144685078Y-62711004D01*
X144685076Y-62711005D01*
X144537242Y-62790024D01*
X144376823Y-62838687D01*
X144251804Y-62851000D01*
X144168196Y-62851000D01*
X144043177Y-62838687D01*
X143882758Y-62790024D01*
X143734924Y-62711005D01*
X143734922Y-62711004D01*
X143605341Y-62604659D01*
X143498996Y-62475078D01*
X143490886Y-62459906D01*
X143419976Y-62327242D01*
X143371313Y-62166823D01*
X143354883Y-62000000D01*
X143371313Y-61833177D01*
X143419976Y-61672758D01*
X143498995Y-61524924D01*
X143498996Y-61524922D01*
X143605341Y-61395341D01*
X143734922Y-61288996D01*
X143750094Y-61280886D01*
X143882758Y-61209976D01*
X144043177Y-61161313D01*
X144168196Y-61149000D01*
X144251804Y-61149000D01*
X144376823Y-61161313D01*
X144376823Y-61161313D01*
G37*
G36*
X141836823Y-61161313D02*
G01*
X141997242Y-61209976D01*
X142129906Y-61280886D01*
X142145078Y-61288996D01*
X142274659Y-61395341D01*
X142381004Y-61524922D01*
X142381005Y-61524924D01*
X142460024Y-61672758D01*
X142508687Y-61833177D01*
X142525117Y-62000000D01*
X142508687Y-62166823D01*
X142460024Y-62327242D01*
X142389114Y-62459906D01*
X142381004Y-62475078D01*
X142274659Y-62604659D01*
X142145078Y-62711004D01*
X142145076Y-62711005D01*
X141997242Y-62790024D01*
X141836823Y-62838687D01*
X141711804Y-62851000D01*
X141628196Y-62851000D01*
X141503177Y-62838687D01*
X141342758Y-62790024D01*
X141194924Y-62711005D01*
X141194922Y-62711004D01*
X141065341Y-62604659D01*
X140958996Y-62475078D01*
X140950886Y-62459906D01*
X140879976Y-62327242D01*
X140831313Y-62166823D01*
X140814883Y-62000000D01*
X140831313Y-61833177D01*
X140879976Y-61672758D01*
X140958995Y-61524924D01*
X140958996Y-61524922D01*
X141065341Y-61395341D01*
X141194922Y-61288996D01*
X141210094Y-61280886D01*
X141342758Y-61209976D01*
X141503177Y-61161313D01*
X141628196Y-61149000D01*
X141711804Y-61149000D01*
X141836823Y-61161313D01*
X141836823Y-61161313D01*
G37*
G36*
X139296823Y-61161313D02*
G01*
X139457242Y-61209976D01*
X139589906Y-61280886D01*
X139605078Y-61288996D01*
X139734659Y-61395341D01*
X139841004Y-61524922D01*
X139841005Y-61524924D01*
X139920024Y-61672758D01*
X139968687Y-61833177D01*
X139985117Y-62000000D01*
X139968687Y-62166823D01*
X139920024Y-62327242D01*
X139849114Y-62459906D01*
X139841004Y-62475078D01*
X139734659Y-62604659D01*
X139605078Y-62711004D01*
X139605076Y-62711005D01*
X139457242Y-62790024D01*
X139296823Y-62838687D01*
X139171804Y-62851000D01*
X139088196Y-62851000D01*
X138963177Y-62838687D01*
X138802758Y-62790024D01*
X138654924Y-62711005D01*
X138654922Y-62711004D01*
X138525341Y-62604659D01*
X138418996Y-62475078D01*
X138410886Y-62459906D01*
X138339976Y-62327242D01*
X138291313Y-62166823D01*
X138274883Y-62000000D01*
X138291313Y-61833177D01*
X138339976Y-61672758D01*
X138418995Y-61524924D01*
X138418996Y-61524922D01*
X138525341Y-61395341D01*
X138654922Y-61288996D01*
X138670094Y-61280886D01*
X138802758Y-61209976D01*
X138963177Y-61161313D01*
X139088196Y-61149000D01*
X139171804Y-61149000D01*
X139296823Y-61161313D01*
X139296823Y-61161313D01*
G37*
G36*
X136756823Y-61161313D02*
G01*
X136917242Y-61209976D01*
X137049906Y-61280886D01*
X137065078Y-61288996D01*
X137194659Y-61395341D01*
X137301004Y-61524922D01*
X137301005Y-61524924D01*
X137380024Y-61672758D01*
X137428687Y-61833177D01*
X137445117Y-62000000D01*
X137428687Y-62166823D01*
X137380024Y-62327242D01*
X137309114Y-62459906D01*
X137301004Y-62475078D01*
X137194659Y-62604659D01*
X137065078Y-62711004D01*
X137065076Y-62711005D01*
X136917242Y-62790024D01*
X136756823Y-62838687D01*
X136631804Y-62851000D01*
X136548196Y-62851000D01*
X136423177Y-62838687D01*
X136262758Y-62790024D01*
X136114924Y-62711005D01*
X136114922Y-62711004D01*
X135985341Y-62604659D01*
X135878996Y-62475078D01*
X135870886Y-62459906D01*
X135799976Y-62327242D01*
X135751313Y-62166823D01*
X135734883Y-62000000D01*
X135751313Y-61833177D01*
X135799976Y-61672758D01*
X135878995Y-61524924D01*
X135878996Y-61524922D01*
X135985341Y-61395341D01*
X136114922Y-61288996D01*
X136130094Y-61280886D01*
X136262758Y-61209976D01*
X136423177Y-61161313D01*
X136548196Y-61149000D01*
X136631804Y-61149000D01*
X136756823Y-61161313D01*
X136756823Y-61161313D01*
G37*
G36*
X134216823Y-61161313D02*
G01*
X134377242Y-61209976D01*
X134509906Y-61280886D01*
X134525078Y-61288996D01*
X134654659Y-61395341D01*
X134761004Y-61524922D01*
X134761005Y-61524924D01*
X134840024Y-61672758D01*
X134888687Y-61833177D01*
X134905117Y-62000000D01*
X134888687Y-62166823D01*
X134840024Y-62327242D01*
X134769114Y-62459906D01*
X134761004Y-62475078D01*
X134654659Y-62604659D01*
X134525078Y-62711004D01*
X134525076Y-62711005D01*
X134377242Y-62790024D01*
X134216823Y-62838687D01*
X134091804Y-62851000D01*
X134008196Y-62851000D01*
X133883177Y-62838687D01*
X133722758Y-62790024D01*
X133574924Y-62711005D01*
X133574922Y-62711004D01*
X133445341Y-62604659D01*
X133338996Y-62475078D01*
X133330886Y-62459906D01*
X133259976Y-62327242D01*
X133211313Y-62166823D01*
X133194883Y-62000000D01*
X133211313Y-61833177D01*
X133259976Y-61672758D01*
X133338995Y-61524924D01*
X133338996Y-61524922D01*
X133445341Y-61395341D01*
X133574922Y-61288996D01*
X133590094Y-61280886D01*
X133722758Y-61209976D01*
X133883177Y-61161313D01*
X134008196Y-61149000D01*
X134091804Y-61149000D01*
X134216823Y-61161313D01*
X134216823Y-61161313D01*
G37*
G36*
X131676823Y-61161313D02*
G01*
X131837242Y-61209976D01*
X131969906Y-61280886D01*
X131985078Y-61288996D01*
X132114659Y-61395341D01*
X132221004Y-61524922D01*
X132221005Y-61524924D01*
X132300024Y-61672758D01*
X132348687Y-61833177D01*
X132365117Y-62000000D01*
X132348687Y-62166823D01*
X132300024Y-62327242D01*
X132229114Y-62459906D01*
X132221004Y-62475078D01*
X132114659Y-62604659D01*
X131985078Y-62711004D01*
X131985076Y-62711005D01*
X131837242Y-62790024D01*
X131676823Y-62838687D01*
X131551804Y-62851000D01*
X131468196Y-62851000D01*
X131343177Y-62838687D01*
X131182758Y-62790024D01*
X131034924Y-62711005D01*
X131034922Y-62711004D01*
X130905341Y-62604659D01*
X130798996Y-62475078D01*
X130790886Y-62459906D01*
X130719976Y-62327242D01*
X130671313Y-62166823D01*
X130654883Y-62000000D01*
X130671313Y-61833177D01*
X130719976Y-61672758D01*
X130798995Y-61524924D01*
X130798996Y-61524922D01*
X130905341Y-61395341D01*
X131034922Y-61288996D01*
X131050094Y-61280886D01*
X131182758Y-61209976D01*
X131343177Y-61161313D01*
X131468196Y-61149000D01*
X131551804Y-61149000D01*
X131676823Y-61161313D01*
X131676823Y-61161313D01*
G37*
G36*
X126596823Y-61161313D02*
G01*
X126757242Y-61209976D01*
X126889906Y-61280886D01*
X126905078Y-61288996D01*
X127034659Y-61395341D01*
X127141004Y-61524922D01*
X127141005Y-61524924D01*
X127220024Y-61672758D01*
X127268687Y-61833177D01*
X127285117Y-62000000D01*
X127268687Y-62166823D01*
X127220024Y-62327242D01*
X127149114Y-62459906D01*
X127141004Y-62475078D01*
X127034659Y-62604659D01*
X126905078Y-62711004D01*
X126905076Y-62711005D01*
X126757242Y-62790024D01*
X126596823Y-62838687D01*
X126471804Y-62851000D01*
X126388196Y-62851000D01*
X126263177Y-62838687D01*
X126102758Y-62790024D01*
X125954924Y-62711005D01*
X125954922Y-62711004D01*
X125825341Y-62604659D01*
X125718996Y-62475078D01*
X125710886Y-62459906D01*
X125639976Y-62327242D01*
X125591313Y-62166823D01*
X125574883Y-62000000D01*
X125591313Y-61833177D01*
X125639976Y-61672758D01*
X125718995Y-61524924D01*
X125718996Y-61524922D01*
X125825341Y-61395341D01*
X125954922Y-61288996D01*
X125970094Y-61280886D01*
X126102758Y-61209976D01*
X126263177Y-61161313D01*
X126388196Y-61149000D01*
X126471804Y-61149000D01*
X126596823Y-61161313D01*
X126596823Y-61161313D01*
G37*
G36*
X129136823Y-61161313D02*
G01*
X129297242Y-61209976D01*
X129429906Y-61280886D01*
X129445078Y-61288996D01*
X129574659Y-61395341D01*
X129681004Y-61524922D01*
X129681005Y-61524924D01*
X129760024Y-61672758D01*
X129808687Y-61833177D01*
X129825117Y-62000000D01*
X129808687Y-62166823D01*
X129760024Y-62327242D01*
X129689114Y-62459906D01*
X129681004Y-62475078D01*
X129574659Y-62604659D01*
X129445078Y-62711004D01*
X129445076Y-62711005D01*
X129297242Y-62790024D01*
X129136823Y-62838687D01*
X129011804Y-62851000D01*
X128928196Y-62851000D01*
X128803177Y-62838687D01*
X128642758Y-62790024D01*
X128494924Y-62711005D01*
X128494922Y-62711004D01*
X128365341Y-62604659D01*
X128258996Y-62475078D01*
X128250886Y-62459906D01*
X128179976Y-62327242D01*
X128131313Y-62166823D01*
X128114883Y-62000000D01*
X128131313Y-61833177D01*
X128179976Y-61672758D01*
X128258995Y-61524924D01*
X128258996Y-61524922D01*
X128365341Y-61395341D01*
X128494922Y-61288996D01*
X128510094Y-61280886D01*
X128642758Y-61209976D01*
X128803177Y-61161313D01*
X128928196Y-61149000D01*
X129011804Y-61149000D01*
X129136823Y-61161313D01*
X129136823Y-61161313D01*
G37*
G36*
X124056823Y-61161313D02*
G01*
X124217242Y-61209976D01*
X124349906Y-61280886D01*
X124365078Y-61288996D01*
X124494659Y-61395341D01*
X124601004Y-61524922D01*
X124601005Y-61524924D01*
X124680024Y-61672758D01*
X124728687Y-61833177D01*
X124745117Y-62000000D01*
X124728687Y-62166823D01*
X124680024Y-62327242D01*
X124609114Y-62459906D01*
X124601004Y-62475078D01*
X124494659Y-62604659D01*
X124365078Y-62711004D01*
X124365076Y-62711005D01*
X124217242Y-62790024D01*
X124056823Y-62838687D01*
X123931804Y-62851000D01*
X123848196Y-62851000D01*
X123723177Y-62838687D01*
X123562758Y-62790024D01*
X123414924Y-62711005D01*
X123414922Y-62711004D01*
X123285341Y-62604659D01*
X123178996Y-62475078D01*
X123170886Y-62459906D01*
X123099976Y-62327242D01*
X123051313Y-62166823D01*
X123034883Y-62000000D01*
X123051313Y-61833177D01*
X123099976Y-61672758D01*
X123178995Y-61524924D01*
X123178996Y-61524922D01*
X123285341Y-61395341D01*
X123414922Y-61288996D01*
X123430094Y-61280886D01*
X123562758Y-61209976D01*
X123723177Y-61161313D01*
X123848196Y-61149000D01*
X123931804Y-61149000D01*
X124056823Y-61161313D01*
X124056823Y-61161313D01*
G37*
G36*
X113896823Y-61161313D02*
G01*
X114057242Y-61209976D01*
X114189906Y-61280886D01*
X114205078Y-61288996D01*
X114334659Y-61395341D01*
X114441004Y-61524922D01*
X114441005Y-61524924D01*
X114520024Y-61672758D01*
X114568687Y-61833177D01*
X114585117Y-62000000D01*
X114568687Y-62166823D01*
X114520024Y-62327242D01*
X114449114Y-62459906D01*
X114441004Y-62475078D01*
X114334659Y-62604659D01*
X114205078Y-62711004D01*
X114205076Y-62711005D01*
X114057242Y-62790024D01*
X113896823Y-62838687D01*
X113771804Y-62851000D01*
X113688196Y-62851000D01*
X113563177Y-62838687D01*
X113402758Y-62790024D01*
X113254924Y-62711005D01*
X113254922Y-62711004D01*
X113125341Y-62604659D01*
X113018996Y-62475078D01*
X113010886Y-62459906D01*
X112939976Y-62327242D01*
X112891313Y-62166823D01*
X112874883Y-62000000D01*
X112891313Y-61833177D01*
X112939976Y-61672758D01*
X113018995Y-61524924D01*
X113018996Y-61524922D01*
X113125341Y-61395341D01*
X113254922Y-61288996D01*
X113270094Y-61280886D01*
X113402758Y-61209976D01*
X113563177Y-61161313D01*
X113688196Y-61149000D01*
X113771804Y-61149000D01*
X113896823Y-61161313D01*
X113896823Y-61161313D01*
G37*
G36*
X116436823Y-61161313D02*
G01*
X116597242Y-61209976D01*
X116729906Y-61280886D01*
X116745078Y-61288996D01*
X116874659Y-61395341D01*
X116981004Y-61524922D01*
X116981005Y-61524924D01*
X117060024Y-61672758D01*
X117108687Y-61833177D01*
X117125117Y-62000000D01*
X117108687Y-62166823D01*
X117060024Y-62327242D01*
X116989114Y-62459906D01*
X116981004Y-62475078D01*
X116874659Y-62604659D01*
X116745078Y-62711004D01*
X116745076Y-62711005D01*
X116597242Y-62790024D01*
X116436823Y-62838687D01*
X116311804Y-62851000D01*
X116228196Y-62851000D01*
X116103177Y-62838687D01*
X115942758Y-62790024D01*
X115794924Y-62711005D01*
X115794922Y-62711004D01*
X115665341Y-62604659D01*
X115558996Y-62475078D01*
X115550886Y-62459906D01*
X115479976Y-62327242D01*
X115431313Y-62166823D01*
X115414883Y-62000000D01*
X115431313Y-61833177D01*
X115479976Y-61672758D01*
X115558995Y-61524924D01*
X115558996Y-61524922D01*
X115665341Y-61395341D01*
X115794922Y-61288996D01*
X115810094Y-61280886D01*
X115942758Y-61209976D01*
X116103177Y-61161313D01*
X116228196Y-61149000D01*
X116311804Y-61149000D01*
X116436823Y-61161313D01*
X116436823Y-61161313D01*
G37*
G36*
X121516823Y-61161313D02*
G01*
X121677242Y-61209976D01*
X121809906Y-61280886D01*
X121825078Y-61288996D01*
X121954659Y-61395341D01*
X122061004Y-61524922D01*
X122061005Y-61524924D01*
X122140024Y-61672758D01*
X122188687Y-61833177D01*
X122205117Y-62000000D01*
X122188687Y-62166823D01*
X122140024Y-62327242D01*
X122069114Y-62459906D01*
X122061004Y-62475078D01*
X121954659Y-62604659D01*
X121825078Y-62711004D01*
X121825076Y-62711005D01*
X121677242Y-62790024D01*
X121516823Y-62838687D01*
X121391804Y-62851000D01*
X121308196Y-62851000D01*
X121183177Y-62838687D01*
X121022758Y-62790024D01*
X120874924Y-62711005D01*
X120874922Y-62711004D01*
X120745341Y-62604659D01*
X120638996Y-62475078D01*
X120630886Y-62459906D01*
X120559976Y-62327242D01*
X120511313Y-62166823D01*
X120494883Y-62000000D01*
X120511313Y-61833177D01*
X120559976Y-61672758D01*
X120638995Y-61524924D01*
X120638996Y-61524922D01*
X120745341Y-61395341D01*
X120874922Y-61288996D01*
X120890094Y-61280886D01*
X121022758Y-61209976D01*
X121183177Y-61161313D01*
X121308196Y-61149000D01*
X121391804Y-61149000D01*
X121516823Y-61161313D01*
X121516823Y-61161313D01*
G37*
G36*
X146916823Y-61161313D02*
G01*
X147077242Y-61209976D01*
X147209906Y-61280886D01*
X147225078Y-61288996D01*
X147354659Y-61395341D01*
X147461004Y-61524922D01*
X147461005Y-61524924D01*
X147540024Y-61672758D01*
X147588687Y-61833177D01*
X147605117Y-62000000D01*
X147588687Y-62166823D01*
X147540024Y-62327242D01*
X147469114Y-62459906D01*
X147461004Y-62475078D01*
X147354659Y-62604659D01*
X147225078Y-62711004D01*
X147225076Y-62711005D01*
X147077242Y-62790024D01*
X146916823Y-62838687D01*
X146791804Y-62851000D01*
X146708196Y-62851000D01*
X146583177Y-62838687D01*
X146422758Y-62790024D01*
X146274924Y-62711005D01*
X146274922Y-62711004D01*
X146145341Y-62604659D01*
X146038996Y-62475078D01*
X146030886Y-62459906D01*
X145959976Y-62327242D01*
X145911313Y-62166823D01*
X145894883Y-62000000D01*
X145911313Y-61833177D01*
X145959976Y-61672758D01*
X146038995Y-61524924D01*
X146038996Y-61524922D01*
X146145341Y-61395341D01*
X146274922Y-61288996D01*
X146290094Y-61280886D01*
X146422758Y-61209976D01*
X146583177Y-61161313D01*
X146708196Y-61149000D01*
X146791804Y-61149000D01*
X146916823Y-61161313D01*
X146916823Y-61161313D01*
G37*
G36*
X118976823Y-61161313D02*
G01*
X119137242Y-61209976D01*
X119269906Y-61280886D01*
X119285078Y-61288996D01*
X119414659Y-61395341D01*
X119521004Y-61524922D01*
X119521005Y-61524924D01*
X119600024Y-61672758D01*
X119648687Y-61833177D01*
X119665117Y-62000000D01*
X119648687Y-62166823D01*
X119600024Y-62327242D01*
X119529114Y-62459906D01*
X119521004Y-62475078D01*
X119414659Y-62604659D01*
X119285078Y-62711004D01*
X119285076Y-62711005D01*
X119137242Y-62790024D01*
X118976823Y-62838687D01*
X118851804Y-62851000D01*
X118768196Y-62851000D01*
X118643177Y-62838687D01*
X118482758Y-62790024D01*
X118334924Y-62711005D01*
X118334922Y-62711004D01*
X118205341Y-62604659D01*
X118098996Y-62475078D01*
X118090886Y-62459906D01*
X118019976Y-62327242D01*
X117971313Y-62166823D01*
X117954883Y-62000000D01*
X117971313Y-61833177D01*
X118019976Y-61672758D01*
X118098995Y-61524924D01*
X118098996Y-61524922D01*
X118205341Y-61395341D01*
X118334922Y-61288996D01*
X118350094Y-61280886D01*
X118482758Y-61209976D01*
X118643177Y-61161313D01*
X118768196Y-61149000D01*
X118851804Y-61149000D01*
X118976823Y-61161313D01*
X118976823Y-61161313D01*
G37*
G36*
X109153665Y-58152622D02*
G01*
X109227222Y-58159867D01*
X109368786Y-58202810D01*
X109368788Y-58202811D01*
X109394697Y-58216660D01*
X109499252Y-58272546D01*
X109529040Y-58296992D01*
X109613607Y-58366393D01*
X109677516Y-58444268D01*
X109707454Y-58480748D01*
X109777190Y-58611214D01*
X109820133Y-58752778D01*
X109834633Y-58900000D01*
X109820133Y-59047222D01*
X109777190Y-59188786D01*
X109777189Y-59188788D01*
X109742322Y-59254019D01*
X109707454Y-59319252D01*
X109695674Y-59333606D01*
X109613607Y-59433607D01*
X109553004Y-59483341D01*
X109499252Y-59527454D01*
X109368786Y-59597190D01*
X109227222Y-59640133D01*
X109153665Y-59647378D01*
X109116888Y-59651000D01*
X109043112Y-59651000D01*
X109006335Y-59647378D01*
X108932778Y-59640133D01*
X108791214Y-59597190D01*
X108660748Y-59527454D01*
X108606996Y-59483341D01*
X108546393Y-59433607D01*
X108464326Y-59333606D01*
X108452546Y-59319252D01*
X108417678Y-59254019D01*
X108382811Y-59188788D01*
X108382810Y-59188786D01*
X108339867Y-59047222D01*
X108325367Y-58900000D01*
X108339867Y-58752778D01*
X108382810Y-58611214D01*
X108452546Y-58480748D01*
X108482484Y-58444268D01*
X108546393Y-58366393D01*
X108630960Y-58296992D01*
X108660748Y-58272546D01*
X108765303Y-58216660D01*
X108791212Y-58202811D01*
X108791214Y-58202810D01*
X108932778Y-58159867D01*
X109006335Y-58152622D01*
X109043112Y-58149000D01*
X109116888Y-58149000D01*
X109153665Y-58152622D01*
X109153665Y-58152622D01*
G37*
G36*
X116919059Y-58177860D02*
G01*
X116979294Y-58202810D01*
X117055732Y-58234472D01*
X117178735Y-58316660D01*
X117283340Y-58421265D01*
X117362800Y-58540186D01*
X117365529Y-58544270D01*
X117422140Y-58680941D01*
X117451000Y-58826032D01*
X117451000Y-58973968D01*
X117422140Y-59119059D01*
X117380640Y-59219250D01*
X117365528Y-59255732D01*
X117283340Y-59378735D01*
X117178735Y-59483340D01*
X117055732Y-59565528D01*
X117055731Y-59565529D01*
X117055730Y-59565529D01*
X116919059Y-59622140D01*
X116773968Y-59651000D01*
X116626032Y-59651000D01*
X116480941Y-59622140D01*
X116344270Y-59565529D01*
X116344269Y-59565529D01*
X116344268Y-59565528D01*
X116221265Y-59483340D01*
X116116660Y-59378735D01*
X116034472Y-59255732D01*
X116019361Y-59219250D01*
X115977860Y-59119059D01*
X115949000Y-58973968D01*
X115949000Y-58826032D01*
X115977860Y-58680941D01*
X116034471Y-58544270D01*
X116037200Y-58540186D01*
X116116660Y-58421265D01*
X116221265Y-58316660D01*
X116344268Y-58234472D01*
X116420707Y-58202810D01*
X116480941Y-58177860D01*
X116626032Y-58149000D01*
X116773968Y-58149000D01*
X116919059Y-58177860D01*
X116919059Y-58177860D01*
G37*
G36*
X152719059Y-58077860D02*
G01*
X152779294Y-58102810D01*
X152855732Y-58134472D01*
X152978735Y-58216660D01*
X153083340Y-58321265D01*
X153150158Y-58421265D01*
X153165529Y-58444270D01*
X153206950Y-58544270D01*
X153222140Y-58580941D01*
X153251000Y-58726033D01*
X153251000Y-58873967D01*
X153222140Y-59019059D01*
X153165528Y-59155732D01*
X153083340Y-59278735D01*
X152978735Y-59383340D01*
X152855732Y-59465528D01*
X152855731Y-59465529D01*
X152855730Y-59465529D01*
X152719059Y-59522140D01*
X152573968Y-59551000D01*
X152426032Y-59551000D01*
X152280941Y-59522140D01*
X152144270Y-59465529D01*
X152144269Y-59465529D01*
X152144268Y-59465528D01*
X152021265Y-59383340D01*
X151916660Y-59278735D01*
X151834472Y-59155732D01*
X151777860Y-59019059D01*
X151749000Y-58873967D01*
X151749000Y-58726033D01*
X151777860Y-58580941D01*
X151793050Y-58544270D01*
X151834471Y-58444270D01*
X151849842Y-58421265D01*
X151916660Y-58321265D01*
X152021265Y-58216660D01*
X152144268Y-58134472D01*
X152220707Y-58102810D01*
X152280941Y-58077860D01*
X152426032Y-58049000D01*
X152573968Y-58049000D01*
X152719059Y-58077860D01*
X152719059Y-58077860D01*
G37*
G36*
X144953665Y-58052622D02*
G01*
X145027222Y-58059867D01*
X145168786Y-58102810D01*
X145299252Y-58172546D01*
X145305727Y-58177860D01*
X145413607Y-58266393D01*
X145483008Y-58350960D01*
X145507454Y-58380748D01*
X145507455Y-58380750D01*
X145560906Y-58480748D01*
X145577190Y-58511214D01*
X145620133Y-58652778D01*
X145634633Y-58800000D01*
X145620133Y-58947222D01*
X145577190Y-59088786D01*
X145507454Y-59219252D01*
X145483008Y-59249040D01*
X145413607Y-59333607D01*
X145353004Y-59383341D01*
X145299252Y-59427454D01*
X145299250Y-59427455D01*
X145194696Y-59483341D01*
X145168786Y-59497190D01*
X145027222Y-59540133D01*
X144953665Y-59547378D01*
X144916888Y-59551000D01*
X144843112Y-59551000D01*
X144806335Y-59547378D01*
X144732778Y-59540133D01*
X144591214Y-59497190D01*
X144565305Y-59483341D01*
X144460750Y-59427455D01*
X144460748Y-59427454D01*
X144406996Y-59383341D01*
X144346393Y-59333607D01*
X144276992Y-59249040D01*
X144252546Y-59219252D01*
X144182810Y-59088786D01*
X144139867Y-58947222D01*
X144125367Y-58800000D01*
X144139867Y-58652778D01*
X144182810Y-58511214D01*
X144199095Y-58480748D01*
X144252545Y-58380750D01*
X144252546Y-58380748D01*
X144276992Y-58350960D01*
X144346393Y-58266393D01*
X144454273Y-58177860D01*
X144460748Y-58172546D01*
X144591214Y-58102810D01*
X144732778Y-58059867D01*
X144806335Y-58052622D01*
X144843112Y-58049000D01*
X144916888Y-58049000D01*
X144953665Y-58052622D01*
X144953665Y-58052622D01*
G37*
G36*
X127601000Y-58801000D02*
G01*
X125799000Y-58801000D01*
X125799000Y-56999000D01*
X127601000Y-56999000D01*
X127601000Y-58801000D01*
X127601000Y-58801000D01*
G37*
G36*
X131890442Y-57005518D02*
G01*
X131956627Y-57012037D01*
X132126466Y-57063557D01*
X132282991Y-57147222D01*
X132318729Y-57176552D01*
X132420186Y-57259814D01*
X132503448Y-57361271D01*
X132532778Y-57397009D01*
X132616443Y-57553534D01*
X132667963Y-57723373D01*
X132685359Y-57900000D01*
X132667963Y-58076627D01*
X132616443Y-58246466D01*
X132532778Y-58402991D01*
X132517779Y-58421267D01*
X132420186Y-58540186D01*
X132333639Y-58611212D01*
X132282991Y-58652778D01*
X132282989Y-58652779D01*
X132145944Y-58726032D01*
X132126466Y-58736443D01*
X131956627Y-58787963D01*
X131890442Y-58794482D01*
X131824260Y-58801000D01*
X131735740Y-58801000D01*
X131669558Y-58794482D01*
X131603373Y-58787963D01*
X131433534Y-58736443D01*
X131414057Y-58726032D01*
X131277011Y-58652779D01*
X131277009Y-58652778D01*
X131226361Y-58611212D01*
X131139814Y-58540186D01*
X131042221Y-58421267D01*
X131027222Y-58402991D01*
X130943557Y-58246466D01*
X130892037Y-58076627D01*
X130874641Y-57900000D01*
X130892037Y-57723373D01*
X130943557Y-57553534D01*
X131027222Y-57397009D01*
X131056552Y-57361271D01*
X131139814Y-57259814D01*
X131241271Y-57176552D01*
X131277009Y-57147222D01*
X131433534Y-57063557D01*
X131603373Y-57012037D01*
X131669558Y-57005518D01*
X131735740Y-56999000D01*
X131824260Y-56999000D01*
X131890442Y-57005518D01*
X131890442Y-57005518D01*
G37*
G36*
X129350442Y-57005518D02*
G01*
X129416627Y-57012037D01*
X129586466Y-57063557D01*
X129742991Y-57147222D01*
X129778729Y-57176552D01*
X129880186Y-57259814D01*
X129963448Y-57361271D01*
X129992778Y-57397009D01*
X130076443Y-57553534D01*
X130127963Y-57723373D01*
X130145359Y-57900000D01*
X130127963Y-58076627D01*
X130076443Y-58246466D01*
X129992778Y-58402991D01*
X129977779Y-58421267D01*
X129880186Y-58540186D01*
X129793639Y-58611212D01*
X129742991Y-58652778D01*
X129742989Y-58652779D01*
X129605944Y-58726032D01*
X129586466Y-58736443D01*
X129416627Y-58787963D01*
X129350442Y-58794482D01*
X129284260Y-58801000D01*
X129195740Y-58801000D01*
X129129558Y-58794482D01*
X129063373Y-58787963D01*
X128893534Y-58736443D01*
X128874057Y-58726032D01*
X128737011Y-58652779D01*
X128737009Y-58652778D01*
X128686361Y-58611212D01*
X128599814Y-58540186D01*
X128502221Y-58421267D01*
X128487222Y-58402991D01*
X128403557Y-58246466D01*
X128352037Y-58076627D01*
X128334641Y-57900000D01*
X128352037Y-57723373D01*
X128403557Y-57553534D01*
X128487222Y-57397009D01*
X128516552Y-57361271D01*
X128599814Y-57259814D01*
X128701271Y-57176552D01*
X128737009Y-57147222D01*
X128893534Y-57063557D01*
X129063373Y-57012037D01*
X129129558Y-57005518D01*
X129195740Y-56999000D01*
X129284260Y-56999000D01*
X129350442Y-57005518D01*
X129350442Y-57005518D01*
G37*
G36*
X134430442Y-57005518D02*
G01*
X134496627Y-57012037D01*
X134666466Y-57063557D01*
X134822991Y-57147222D01*
X134858729Y-57176552D01*
X134960186Y-57259814D01*
X135043448Y-57361271D01*
X135072778Y-57397009D01*
X135156443Y-57553534D01*
X135207963Y-57723373D01*
X135225359Y-57900000D01*
X135207963Y-58076627D01*
X135156443Y-58246466D01*
X135072778Y-58402991D01*
X135057779Y-58421267D01*
X134960186Y-58540186D01*
X134873639Y-58611212D01*
X134822991Y-58652778D01*
X134822989Y-58652779D01*
X134685944Y-58726032D01*
X134666466Y-58736443D01*
X134496627Y-58787963D01*
X134430442Y-58794482D01*
X134364260Y-58801000D01*
X134275740Y-58801000D01*
X134209558Y-58794482D01*
X134143373Y-58787963D01*
X133973534Y-58736443D01*
X133954057Y-58726032D01*
X133817011Y-58652779D01*
X133817009Y-58652778D01*
X133766361Y-58611212D01*
X133679814Y-58540186D01*
X133582221Y-58421267D01*
X133567222Y-58402991D01*
X133483557Y-58246466D01*
X133432037Y-58076627D01*
X133414641Y-57900000D01*
X133432037Y-57723373D01*
X133483557Y-57553534D01*
X133567222Y-57397009D01*
X133596552Y-57361271D01*
X133679814Y-57259814D01*
X133781271Y-57176552D01*
X133817009Y-57147222D01*
X133973534Y-57063557D01*
X134143373Y-57012037D01*
X134209558Y-57005518D01*
X134275740Y-56999000D01*
X134364260Y-56999000D01*
X134430442Y-57005518D01*
X134430442Y-57005518D01*
G37*
G36*
X109153665Y-54752622D02*
G01*
X109227222Y-54759867D01*
X109368786Y-54802810D01*
X109499252Y-54872546D01*
X109529040Y-54896992D01*
X109613607Y-54966393D01*
X109683008Y-55050960D01*
X109707454Y-55080748D01*
X109777190Y-55211214D01*
X109820133Y-55352778D01*
X109834633Y-55500000D01*
X109820133Y-55647222D01*
X109777190Y-55788786D01*
X109707454Y-55919252D01*
X109700722Y-55927455D01*
X109613607Y-56033607D01*
X109553004Y-56083341D01*
X109499252Y-56127454D01*
X109368786Y-56197190D01*
X109227222Y-56240133D01*
X109153665Y-56247378D01*
X109116888Y-56251000D01*
X109043112Y-56251000D01*
X109006335Y-56247378D01*
X108932778Y-56240133D01*
X108791214Y-56197190D01*
X108660748Y-56127454D01*
X108606996Y-56083341D01*
X108546393Y-56033607D01*
X108459278Y-55927455D01*
X108452546Y-55919252D01*
X108382810Y-55788786D01*
X108339867Y-55647222D01*
X108325367Y-55500000D01*
X108339867Y-55352778D01*
X108382810Y-55211214D01*
X108452546Y-55080748D01*
X108476992Y-55050960D01*
X108546393Y-54966393D01*
X108630960Y-54896992D01*
X108660748Y-54872546D01*
X108791214Y-54802810D01*
X108932778Y-54759867D01*
X109006335Y-54752622D01*
X109043112Y-54749000D01*
X109116888Y-54749000D01*
X109153665Y-54752622D01*
X109153665Y-54752622D01*
G37*
G36*
X116919059Y-54777860D02*
G01*
X117023853Y-54821267D01*
X117055732Y-54834472D01*
X117178735Y-54916660D01*
X117283340Y-55021265D01*
X117323214Y-55080941D01*
X117365529Y-55144270D01*
X117422140Y-55280941D01*
X117451000Y-55426032D01*
X117451000Y-55573968D01*
X117448052Y-55588788D01*
X117422140Y-55719059D01*
X117365528Y-55855732D01*
X117283340Y-55978735D01*
X117178735Y-56083340D01*
X117055732Y-56165528D01*
X117055731Y-56165529D01*
X117055730Y-56165529D01*
X116919059Y-56222140D01*
X116773968Y-56251000D01*
X116626032Y-56251000D01*
X116480941Y-56222140D01*
X116344270Y-56165529D01*
X116344269Y-56165529D01*
X116344268Y-56165528D01*
X116221265Y-56083340D01*
X116116660Y-55978735D01*
X116034472Y-55855732D01*
X115977860Y-55719059D01*
X115951948Y-55588788D01*
X115949000Y-55573968D01*
X115949000Y-55426032D01*
X115977860Y-55280941D01*
X116034471Y-55144270D01*
X116076786Y-55080941D01*
X116116660Y-55021265D01*
X116221265Y-54916660D01*
X116344268Y-54834472D01*
X116376148Y-54821267D01*
X116480941Y-54777860D01*
X116626032Y-54749000D01*
X116773968Y-54749000D01*
X116919059Y-54777860D01*
X116919059Y-54777860D01*
G37*
G36*
X152593665Y-54552622D02*
G01*
X152667222Y-54559867D01*
X152808786Y-54602810D01*
X152939252Y-54672546D01*
X152969040Y-54696992D01*
X153053607Y-54766393D01*
X153123008Y-54850960D01*
X153147454Y-54880748D01*
X153217190Y-55011214D01*
X153260133Y-55152778D01*
X153274633Y-55300000D01*
X153260133Y-55447222D01*
X153217190Y-55588786D01*
X153147454Y-55719252D01*
X153123008Y-55749040D01*
X153053607Y-55833607D01*
X152993004Y-55883341D01*
X152939252Y-55927454D01*
X152808786Y-55997190D01*
X152667222Y-56040133D01*
X152593665Y-56047378D01*
X152556888Y-56051000D01*
X152483112Y-56051000D01*
X152446335Y-56047378D01*
X152372778Y-56040133D01*
X152231214Y-55997190D01*
X152100748Y-55927454D01*
X152046996Y-55883341D01*
X151986393Y-55833607D01*
X151916992Y-55749040D01*
X151892546Y-55719252D01*
X151822810Y-55588786D01*
X151779867Y-55447222D01*
X151765367Y-55300000D01*
X151779867Y-55152778D01*
X151822810Y-55011214D01*
X151892546Y-54880748D01*
X151916992Y-54850960D01*
X151986393Y-54766393D01*
X152070960Y-54696992D01*
X152100748Y-54672546D01*
X152231214Y-54602810D01*
X152372778Y-54559867D01*
X152446335Y-54552622D01*
X152483112Y-54549000D01*
X152556888Y-54549000D01*
X152593665Y-54552622D01*
X152593665Y-54552622D01*
G37*
G36*
X145119059Y-54577860D02*
G01*
X145179294Y-54602810D01*
X145255732Y-54634472D01*
X145378735Y-54716660D01*
X145483340Y-54821265D01*
X145536617Y-54901000D01*
X145565529Y-54944270D01*
X145622140Y-55080941D01*
X145648053Y-55211214D01*
X145651000Y-55226033D01*
X145651000Y-55373967D01*
X145622140Y-55519059D01*
X145565528Y-55655732D01*
X145483340Y-55778735D01*
X145378735Y-55883340D01*
X145255732Y-55965528D01*
X145255731Y-55965529D01*
X145255730Y-55965529D01*
X145119059Y-56022140D01*
X144973968Y-56051000D01*
X144826032Y-56051000D01*
X144680941Y-56022140D01*
X144544270Y-55965529D01*
X144544269Y-55965529D01*
X144544268Y-55965528D01*
X144421265Y-55883340D01*
X144316660Y-55778735D01*
X144234472Y-55655732D01*
X144177860Y-55519059D01*
X144149000Y-55373967D01*
X144149000Y-55226033D01*
X144151948Y-55211214D01*
X144177860Y-55080941D01*
X144234471Y-54944270D01*
X144263383Y-54901000D01*
X144316660Y-54821265D01*
X144421265Y-54716660D01*
X144544268Y-54634472D01*
X144620707Y-54602810D01*
X144680941Y-54577860D01*
X144826032Y-54549000D01*
X144973968Y-54549000D01*
X145119059Y-54577860D01*
X145119059Y-54577860D01*
G37*
G36*
X121574473Y-52255938D02*
G01*
X121702049Y-52308782D01*
X121816859Y-52385495D01*
X121914505Y-52483141D01*
X121991218Y-52597951D01*
X122044062Y-52725527D01*
X122071000Y-52860956D01*
X122071000Y-52999044D01*
X122044062Y-53134473D01*
X121991218Y-53262049D01*
X121914505Y-53376859D01*
X121816859Y-53474505D01*
X121702049Y-53551218D01*
X121574473Y-53604062D01*
X121439044Y-53631000D01*
X121300956Y-53631000D01*
X121165527Y-53604062D01*
X121037951Y-53551218D01*
X120995444Y-53522816D01*
X120973833Y-53511265D01*
X120950384Y-53504152D01*
X120925998Y-53501750D01*
X120901612Y-53504152D01*
X120878163Y-53511265D01*
X120856553Y-53522817D01*
X120837611Y-53538362D01*
X120822066Y-53557304D01*
X120810515Y-53578915D01*
X120803402Y-53602364D01*
X120801000Y-53626749D01*
X120801000Y-54901000D01*
X119399000Y-54901000D01*
X119399000Y-53499000D01*
X120673251Y-53499000D01*
X120697637Y-53496598D01*
X120721086Y-53489485D01*
X120742697Y-53477934D01*
X120761639Y-53462389D01*
X120777184Y-53443447D01*
X120788735Y-53421836D01*
X120795848Y-53398387D01*
X120798250Y-53374001D01*
X120795848Y-53349615D01*
X120788735Y-53326166D01*
X120777184Y-53304556D01*
X120748782Y-53262049D01*
X120695938Y-53134473D01*
X120669000Y-52999044D01*
X120669000Y-52860956D01*
X120695938Y-52725527D01*
X120748782Y-52597951D01*
X120825495Y-52483141D01*
X120923141Y-52385495D01*
X121037951Y-52308782D01*
X121165527Y-52255938D01*
X121300956Y-52229000D01*
X121439044Y-52229000D01*
X121574473Y-52255938D01*
X121574473Y-52255938D01*
G37*
G36*
X122844473Y-53525938D02*
G01*
X122972049Y-53578782D01*
X123086859Y-53655495D01*
X123184505Y-53753141D01*
X123261218Y-53867951D01*
X123314062Y-53995527D01*
X123341000Y-54130956D01*
X123341000Y-54269044D01*
X123314062Y-54404473D01*
X123261218Y-54532049D01*
X123184505Y-54646859D01*
X123086859Y-54744505D01*
X122972049Y-54821218D01*
X122844473Y-54874062D01*
X122709044Y-54901000D01*
X122570956Y-54901000D01*
X122435527Y-54874062D01*
X122307951Y-54821218D01*
X122193141Y-54744505D01*
X122095495Y-54646859D01*
X122018782Y-54532049D01*
X121965938Y-54404473D01*
X121939000Y-54269044D01*
X121939000Y-54130956D01*
X121965938Y-53995527D01*
X122018782Y-53867951D01*
X122095495Y-53753141D01*
X122193141Y-53655495D01*
X122307951Y-53578782D01*
X122435527Y-53525938D01*
X122570956Y-53499000D01*
X122709044Y-53499000D01*
X122844473Y-53525938D01*
X122844473Y-53525938D01*
G37*
G36*
X140174473Y-52255938D02*
G01*
X140302049Y-52308782D01*
X140416859Y-52385495D01*
X140514505Y-52483141D01*
X140591218Y-52597951D01*
X140644062Y-52725527D01*
X140671000Y-52860956D01*
X140671000Y-52999044D01*
X140644062Y-53134473D01*
X140591218Y-53262049D01*
X140514505Y-53376859D01*
X140416859Y-53474505D01*
X140302049Y-53551218D01*
X140174473Y-53604062D01*
X140039044Y-53631000D01*
X139900956Y-53631000D01*
X139765527Y-53604062D01*
X139637951Y-53551218D01*
X139595444Y-53522816D01*
X139573833Y-53511265D01*
X139550384Y-53504152D01*
X139525998Y-53501750D01*
X139501612Y-53504152D01*
X139478163Y-53511265D01*
X139456553Y-53522817D01*
X139437611Y-53538362D01*
X139422066Y-53557304D01*
X139410515Y-53578915D01*
X139403402Y-53602364D01*
X139401000Y-53626749D01*
X139401000Y-54901000D01*
X137999000Y-54901000D01*
X137999000Y-53499000D01*
X139273251Y-53499000D01*
X139297637Y-53496598D01*
X139321086Y-53489485D01*
X139342697Y-53477934D01*
X139361639Y-53462389D01*
X139377184Y-53443447D01*
X139388735Y-53421836D01*
X139395848Y-53398387D01*
X139398250Y-53374001D01*
X139395848Y-53349615D01*
X139388735Y-53326166D01*
X139377184Y-53304556D01*
X139348782Y-53262049D01*
X139295938Y-53134473D01*
X139269000Y-52999044D01*
X139269000Y-52860956D01*
X139295938Y-52725527D01*
X139348782Y-52597951D01*
X139425495Y-52483141D01*
X139523141Y-52385495D01*
X139637951Y-52308782D01*
X139765527Y-52255938D01*
X139900956Y-52229000D01*
X140039044Y-52229000D01*
X140174473Y-52255938D01*
X140174473Y-52255938D01*
G37*
G36*
X141444473Y-53525938D02*
G01*
X141572049Y-53578782D01*
X141686859Y-53655495D01*
X141784505Y-53753141D01*
X141861218Y-53867951D01*
X141914062Y-53995527D01*
X141941000Y-54130956D01*
X141941000Y-54269044D01*
X141914062Y-54404473D01*
X141861218Y-54532049D01*
X141784505Y-54646859D01*
X141686859Y-54744505D01*
X141572049Y-54821218D01*
X141444473Y-54874062D01*
X141309044Y-54901000D01*
X141170956Y-54901000D01*
X141035527Y-54874062D01*
X140907951Y-54821218D01*
X140793141Y-54744505D01*
X140695495Y-54646859D01*
X140618782Y-54532049D01*
X140565938Y-54404473D01*
X140539000Y-54269044D01*
X140539000Y-54130956D01*
X140565938Y-53995527D01*
X140618782Y-53867951D01*
X140695495Y-53753141D01*
X140793141Y-53655495D01*
X140907951Y-53578782D01*
X141035527Y-53525938D01*
X141170956Y-53499000D01*
X141309044Y-53499000D01*
X141444473Y-53525938D01*
X141444473Y-53525938D01*
G37*
G36*
X116686823Y-50601313D02*
G01*
X116847242Y-50649976D01*
X116979906Y-50720886D01*
X116995078Y-50728996D01*
X117124659Y-50835341D01*
X117231004Y-50964922D01*
X117231005Y-50964924D01*
X117310024Y-51112758D01*
X117358687Y-51273177D01*
X117375117Y-51440000D01*
X117358687Y-51606823D01*
X117310024Y-51767242D01*
X117239114Y-51899906D01*
X117231004Y-51915078D01*
X117124659Y-52044659D01*
X116995078Y-52151004D01*
X116995076Y-52151005D01*
X116847242Y-52230024D01*
X116686823Y-52278687D01*
X116561804Y-52291000D01*
X116478196Y-52291000D01*
X116353177Y-52278687D01*
X116192758Y-52230024D01*
X116044924Y-52151005D01*
X116044922Y-52151004D01*
X115915341Y-52044659D01*
X115808996Y-51915078D01*
X115800886Y-51899906D01*
X115729976Y-51767242D01*
X115681313Y-51606823D01*
X115664883Y-51440000D01*
X115681313Y-51273177D01*
X115729976Y-51112758D01*
X115808995Y-50964924D01*
X115808996Y-50964922D01*
X115915341Y-50835341D01*
X116044922Y-50728996D01*
X116060094Y-50720886D01*
X116192758Y-50649976D01*
X116353177Y-50601313D01*
X116478196Y-50589000D01*
X116561804Y-50589000D01*
X116686823Y-50601313D01*
X116686823Y-50601313D01*
G37*
G36*
X145166823Y-50601313D02*
G01*
X145327242Y-50649976D01*
X145459906Y-50720886D01*
X145475078Y-50728996D01*
X145604659Y-50835341D01*
X145711004Y-50964922D01*
X145711005Y-50964924D01*
X145790024Y-51112758D01*
X145838687Y-51273177D01*
X145855117Y-51440000D01*
X145838687Y-51606823D01*
X145790024Y-51767242D01*
X145719114Y-51899906D01*
X145711004Y-51915078D01*
X145604659Y-52044659D01*
X145475078Y-52151004D01*
X145475076Y-52151005D01*
X145327242Y-52230024D01*
X145166823Y-52278687D01*
X145041804Y-52291000D01*
X144958196Y-52291000D01*
X144833177Y-52278687D01*
X144672758Y-52230024D01*
X144524924Y-52151005D01*
X144524922Y-52151004D01*
X144395341Y-52044659D01*
X144288996Y-51915078D01*
X144280886Y-51899906D01*
X144209976Y-51767242D01*
X144161313Y-51606823D01*
X144144883Y-51440000D01*
X144161313Y-51273177D01*
X144209976Y-51112758D01*
X144288995Y-50964924D01*
X144288996Y-50964922D01*
X144395341Y-50835341D01*
X144524922Y-50728996D01*
X144540094Y-50720886D01*
X144672758Y-50649976D01*
X144833177Y-50601313D01*
X144958196Y-50589000D01*
X145041804Y-50589000D01*
X145166823Y-50601313D01*
X145166823Y-50601313D01*
G37*
G36*
X152786823Y-50601313D02*
G01*
X152947242Y-50649976D01*
X153079906Y-50720886D01*
X153095078Y-50728996D01*
X153224659Y-50835341D01*
X153331004Y-50964922D01*
X153331005Y-50964924D01*
X153410024Y-51112758D01*
X153458687Y-51273177D01*
X153475117Y-51440000D01*
X153458687Y-51606823D01*
X153410024Y-51767242D01*
X153339114Y-51899906D01*
X153331004Y-51915078D01*
X153224659Y-52044659D01*
X153095078Y-52151004D01*
X153095076Y-52151005D01*
X152947242Y-52230024D01*
X152786823Y-52278687D01*
X152661804Y-52291000D01*
X152578196Y-52291000D01*
X152453177Y-52278687D01*
X152292758Y-52230024D01*
X152144924Y-52151005D01*
X152144922Y-52151004D01*
X152015341Y-52044659D01*
X151908996Y-51915078D01*
X151900886Y-51899906D01*
X151829976Y-51767242D01*
X151781313Y-51606823D01*
X151764883Y-51440000D01*
X151781313Y-51273177D01*
X151829976Y-51112758D01*
X151908995Y-50964924D01*
X151908996Y-50964922D01*
X152015341Y-50835341D01*
X152144922Y-50728996D01*
X152160094Y-50720886D01*
X152292758Y-50649976D01*
X152453177Y-50601313D01*
X152578196Y-50589000D01*
X152661804Y-50589000D01*
X152786823Y-50601313D01*
X152786823Y-50601313D01*
G37*
G36*
X109066823Y-50601313D02*
G01*
X109227242Y-50649976D01*
X109359906Y-50720886D01*
X109375078Y-50728996D01*
X109504659Y-50835341D01*
X109611004Y-50964922D01*
X109611005Y-50964924D01*
X109690024Y-51112758D01*
X109738687Y-51273177D01*
X109755117Y-51440000D01*
X109738687Y-51606823D01*
X109690024Y-51767242D01*
X109619114Y-51899906D01*
X109611004Y-51915078D01*
X109504659Y-52044659D01*
X109375078Y-52151004D01*
X109375076Y-52151005D01*
X109227242Y-52230024D01*
X109066823Y-52278687D01*
X108941804Y-52291000D01*
X108858196Y-52291000D01*
X108733177Y-52278687D01*
X108572758Y-52230024D01*
X108424924Y-52151005D01*
X108424922Y-52151004D01*
X108295341Y-52044659D01*
X108188996Y-51915078D01*
X108180886Y-51899906D01*
X108109976Y-51767242D01*
X108061313Y-51606823D01*
X108044883Y-51440000D01*
X108061313Y-51273177D01*
X108109976Y-51112758D01*
X108188995Y-50964924D01*
X108188996Y-50964922D01*
X108295341Y-50835341D01*
X108424922Y-50728996D01*
X108440094Y-50720886D01*
X108572758Y-50649976D01*
X108733177Y-50601313D01*
X108858196Y-50589000D01*
X108941804Y-50589000D01*
X109066823Y-50601313D01*
X109066823Y-50601313D01*
G37*
G36*
X116686823Y-48061313D02*
G01*
X116847242Y-48109976D01*
X116979906Y-48180886D01*
X116995078Y-48188996D01*
X117124659Y-48295341D01*
X117231004Y-48424922D01*
X117231005Y-48424924D01*
X117310024Y-48572758D01*
X117358687Y-48733177D01*
X117375117Y-48900000D01*
X117358687Y-49066823D01*
X117310024Y-49227242D01*
X117239114Y-49359906D01*
X117231004Y-49375078D01*
X117124659Y-49504659D01*
X116995078Y-49611004D01*
X116995076Y-49611005D01*
X116847242Y-49690024D01*
X116686823Y-49738687D01*
X116561804Y-49751000D01*
X116478196Y-49751000D01*
X116353177Y-49738687D01*
X116192758Y-49690024D01*
X116044924Y-49611005D01*
X116044922Y-49611004D01*
X115915341Y-49504659D01*
X115808996Y-49375078D01*
X115800886Y-49359906D01*
X115729976Y-49227242D01*
X115681313Y-49066823D01*
X115664883Y-48900000D01*
X115681313Y-48733177D01*
X115729976Y-48572758D01*
X115808995Y-48424924D01*
X115808996Y-48424922D01*
X115915341Y-48295341D01*
X116044922Y-48188996D01*
X116060094Y-48180886D01*
X116192758Y-48109976D01*
X116353177Y-48061313D01*
X116478196Y-48049000D01*
X116561804Y-48049000D01*
X116686823Y-48061313D01*
X116686823Y-48061313D01*
G37*
G36*
X109066823Y-48061313D02*
G01*
X109227242Y-48109976D01*
X109359906Y-48180886D01*
X109375078Y-48188996D01*
X109504659Y-48295341D01*
X109611004Y-48424922D01*
X109611005Y-48424924D01*
X109690024Y-48572758D01*
X109738687Y-48733177D01*
X109755117Y-48900000D01*
X109738687Y-49066823D01*
X109690024Y-49227242D01*
X109619114Y-49359906D01*
X109611004Y-49375078D01*
X109504659Y-49504659D01*
X109375078Y-49611004D01*
X109375076Y-49611005D01*
X109227242Y-49690024D01*
X109066823Y-49738687D01*
X108941804Y-49751000D01*
X108858196Y-49751000D01*
X108733177Y-49738687D01*
X108572758Y-49690024D01*
X108424924Y-49611005D01*
X108424922Y-49611004D01*
X108295341Y-49504659D01*
X108188996Y-49375078D01*
X108180886Y-49359906D01*
X108109976Y-49227242D01*
X108061313Y-49066823D01*
X108044883Y-48900000D01*
X108061313Y-48733177D01*
X108109976Y-48572758D01*
X108188995Y-48424924D01*
X108188996Y-48424922D01*
X108295341Y-48295341D01*
X108424922Y-48188996D01*
X108440094Y-48180886D01*
X108572758Y-48109976D01*
X108733177Y-48061313D01*
X108858196Y-48049000D01*
X108941804Y-48049000D01*
X109066823Y-48061313D01*
X109066823Y-48061313D01*
G37*
G36*
X145166823Y-48061313D02*
G01*
X145327242Y-48109976D01*
X145459906Y-48180886D01*
X145475078Y-48188996D01*
X145604659Y-48295341D01*
X145711004Y-48424922D01*
X145711005Y-48424924D01*
X145790024Y-48572758D01*
X145838687Y-48733177D01*
X145855117Y-48900000D01*
X145838687Y-49066823D01*
X145790024Y-49227242D01*
X145719114Y-49359906D01*
X145711004Y-49375078D01*
X145604659Y-49504659D01*
X145475078Y-49611004D01*
X145475076Y-49611005D01*
X145327242Y-49690024D01*
X145166823Y-49738687D01*
X145041804Y-49751000D01*
X144958196Y-49751000D01*
X144833177Y-49738687D01*
X144672758Y-49690024D01*
X144524924Y-49611005D01*
X144524922Y-49611004D01*
X144395341Y-49504659D01*
X144288996Y-49375078D01*
X144280886Y-49359906D01*
X144209976Y-49227242D01*
X144161313Y-49066823D01*
X144144883Y-48900000D01*
X144161313Y-48733177D01*
X144209976Y-48572758D01*
X144288995Y-48424924D01*
X144288996Y-48424922D01*
X144395341Y-48295341D01*
X144524922Y-48188996D01*
X144540094Y-48180886D01*
X144672758Y-48109976D01*
X144833177Y-48061313D01*
X144958196Y-48049000D01*
X145041804Y-48049000D01*
X145166823Y-48061313D01*
X145166823Y-48061313D01*
G37*
G36*
X152786823Y-48061313D02*
G01*
X152947242Y-48109976D01*
X153079906Y-48180886D01*
X153095078Y-48188996D01*
X153224659Y-48295341D01*
X153331004Y-48424922D01*
X153331005Y-48424924D01*
X153410024Y-48572758D01*
X153458687Y-48733177D01*
X153475117Y-48900000D01*
X153458687Y-49066823D01*
X153410024Y-49227242D01*
X153339114Y-49359906D01*
X153331004Y-49375078D01*
X153224659Y-49504659D01*
X153095078Y-49611004D01*
X153095076Y-49611005D01*
X152947242Y-49690024D01*
X152786823Y-49738687D01*
X152661804Y-49751000D01*
X152578196Y-49751000D01*
X152453177Y-49738687D01*
X152292758Y-49690024D01*
X152144924Y-49611005D01*
X152144922Y-49611004D01*
X152015341Y-49504659D01*
X151908996Y-49375078D01*
X151900886Y-49359906D01*
X151829976Y-49227242D01*
X151781313Y-49066823D01*
X151764883Y-48900000D01*
X151781313Y-48733177D01*
X151829976Y-48572758D01*
X151908995Y-48424924D01*
X151908996Y-48424922D01*
X152015341Y-48295341D01*
X152144922Y-48188996D01*
X152160094Y-48180886D01*
X152292758Y-48109976D01*
X152453177Y-48061313D01*
X152578196Y-48049000D01*
X152661804Y-48049000D01*
X152786823Y-48061313D01*
X152786823Y-48061313D01*
G37*
G36*
X135339294Y-46698633D02*
G01*
X135511695Y-46750931D01*
X135670583Y-46835858D01*
X135809849Y-46950151D01*
X135924142Y-47089417D01*
X136009069Y-47248305D01*
X136061367Y-47420706D01*
X136079025Y-47600000D01*
X136061367Y-47779294D01*
X136009069Y-47951695D01*
X135924142Y-48110583D01*
X135809849Y-48249849D01*
X135670583Y-48364142D01*
X135511695Y-48449069D01*
X135339294Y-48501367D01*
X135204931Y-48514600D01*
X135115069Y-48514600D01*
X134980706Y-48501367D01*
X134808305Y-48449069D01*
X134649417Y-48364142D01*
X134510151Y-48249849D01*
X134395858Y-48110583D01*
X134310931Y-47951695D01*
X134258633Y-47779294D01*
X134240975Y-47600000D01*
X134258633Y-47420706D01*
X134310931Y-47248305D01*
X134395858Y-47089417D01*
X134510151Y-46950151D01*
X134649417Y-46835858D01*
X134808305Y-46750931D01*
X134980706Y-46698633D01*
X135115069Y-46685400D01*
X135204931Y-46685400D01*
X135339294Y-46698633D01*
X135339294Y-46698633D01*
G37*
G36*
X132799294Y-46698633D02*
G01*
X132971695Y-46750931D01*
X133130583Y-46835858D01*
X133269849Y-46950151D01*
X133384142Y-47089417D01*
X133469069Y-47248305D01*
X133521367Y-47420706D01*
X133539025Y-47600000D01*
X133521367Y-47779294D01*
X133469069Y-47951695D01*
X133384142Y-48110583D01*
X133269849Y-48249849D01*
X133130583Y-48364142D01*
X132971695Y-48449069D01*
X132799294Y-48501367D01*
X132664931Y-48514600D01*
X132575069Y-48514600D01*
X132440706Y-48501367D01*
X132268305Y-48449069D01*
X132109417Y-48364142D01*
X131970151Y-48249849D01*
X131855858Y-48110583D01*
X131770931Y-47951695D01*
X131718633Y-47779294D01*
X131700975Y-47600000D01*
X131718633Y-47420706D01*
X131770931Y-47248305D01*
X131855858Y-47089417D01*
X131970151Y-46950151D01*
X132109417Y-46835858D01*
X132268305Y-46750931D01*
X132440706Y-46698633D01*
X132575069Y-46685400D01*
X132664931Y-46685400D01*
X132799294Y-46698633D01*
X132799294Y-46698633D01*
G37*
G36*
X130259294Y-46698633D02*
G01*
X130431695Y-46750931D01*
X130590583Y-46835858D01*
X130729849Y-46950151D01*
X130844142Y-47089417D01*
X130929069Y-47248305D01*
X130981367Y-47420706D01*
X130999025Y-47600000D01*
X130981367Y-47779294D01*
X130929069Y-47951695D01*
X130844142Y-48110583D01*
X130729849Y-48249849D01*
X130590583Y-48364142D01*
X130431695Y-48449069D01*
X130259294Y-48501367D01*
X130124931Y-48514600D01*
X130035069Y-48514600D01*
X129900706Y-48501367D01*
X129728305Y-48449069D01*
X129569417Y-48364142D01*
X129430151Y-48249849D01*
X129315858Y-48110583D01*
X129230931Y-47951695D01*
X129178633Y-47779294D01*
X129160975Y-47600000D01*
X129178633Y-47420706D01*
X129230931Y-47248305D01*
X129315858Y-47089417D01*
X129430151Y-46950151D01*
X129569417Y-46835858D01*
X129728305Y-46750931D01*
X129900706Y-46698633D01*
X130035069Y-46685400D01*
X130124931Y-46685400D01*
X130259294Y-46698633D01*
X130259294Y-46698633D01*
G37*
G36*
X127719294Y-46698633D02*
G01*
X127891695Y-46750931D01*
X128050583Y-46835858D01*
X128189849Y-46950151D01*
X128304142Y-47089417D01*
X128389069Y-47248305D01*
X128441367Y-47420706D01*
X128459025Y-47600000D01*
X128441367Y-47779294D01*
X128389069Y-47951695D01*
X128304142Y-48110583D01*
X128189849Y-48249849D01*
X128050583Y-48364142D01*
X127891695Y-48449069D01*
X127719294Y-48501367D01*
X127584931Y-48514600D01*
X127495069Y-48514600D01*
X127360706Y-48501367D01*
X127188305Y-48449069D01*
X127029417Y-48364142D01*
X126890151Y-48249849D01*
X126775858Y-48110583D01*
X126690931Y-47951695D01*
X126638633Y-47779294D01*
X126620975Y-47600000D01*
X126638633Y-47420706D01*
X126690931Y-47248305D01*
X126775858Y-47089417D01*
X126890151Y-46950151D01*
X127029417Y-46835858D01*
X127188305Y-46750931D01*
X127360706Y-46698633D01*
X127495069Y-46685400D01*
X127584931Y-46685400D01*
X127719294Y-46698633D01*
X127719294Y-46698633D01*
G37*
G36*
X125914600Y-48514600D02*
G01*
X124085400Y-48514600D01*
X124085400Y-46685400D01*
X125914600Y-46685400D01*
X125914600Y-48514600D01*
X125914600Y-48514600D01*
G37*
G36*
X152786823Y-45521313D02*
G01*
X152947242Y-45569976D01*
X153079906Y-45640886D01*
X153095078Y-45648996D01*
X153224659Y-45755341D01*
X153331004Y-45884922D01*
X153331005Y-45884924D01*
X153410024Y-46032758D01*
X153458687Y-46193177D01*
X153475117Y-46360000D01*
X153458687Y-46526823D01*
X153410024Y-46687242D01*
X153375981Y-46750931D01*
X153331004Y-46835078D01*
X153224659Y-46964659D01*
X153095078Y-47071004D01*
X153095076Y-47071005D01*
X152947242Y-47150024D01*
X152786823Y-47198687D01*
X152661804Y-47211000D01*
X152578196Y-47211000D01*
X152453177Y-47198687D01*
X152292758Y-47150024D01*
X152144924Y-47071005D01*
X152144922Y-47071004D01*
X152015341Y-46964659D01*
X151908996Y-46835078D01*
X151864019Y-46750931D01*
X151829976Y-46687242D01*
X151781313Y-46526823D01*
X151764883Y-46360000D01*
X151781313Y-46193177D01*
X151829976Y-46032758D01*
X151908995Y-45884924D01*
X151908996Y-45884922D01*
X152015341Y-45755341D01*
X152144922Y-45648996D01*
X152160094Y-45640886D01*
X152292758Y-45569976D01*
X152453177Y-45521313D01*
X152578196Y-45509000D01*
X152661804Y-45509000D01*
X152786823Y-45521313D01*
X152786823Y-45521313D01*
G37*
G36*
X109066823Y-45521313D02*
G01*
X109227242Y-45569976D01*
X109359906Y-45640886D01*
X109375078Y-45648996D01*
X109504659Y-45755341D01*
X109611004Y-45884922D01*
X109611005Y-45884924D01*
X109690024Y-46032758D01*
X109738687Y-46193177D01*
X109755117Y-46360000D01*
X109738687Y-46526823D01*
X109690024Y-46687242D01*
X109655981Y-46750931D01*
X109611004Y-46835078D01*
X109504659Y-46964659D01*
X109375078Y-47071004D01*
X109375076Y-47071005D01*
X109227242Y-47150024D01*
X109066823Y-47198687D01*
X108941804Y-47211000D01*
X108858196Y-47211000D01*
X108733177Y-47198687D01*
X108572758Y-47150024D01*
X108424924Y-47071005D01*
X108424922Y-47071004D01*
X108295341Y-46964659D01*
X108188996Y-46835078D01*
X108144019Y-46750931D01*
X108109976Y-46687242D01*
X108061313Y-46526823D01*
X108044883Y-46360000D01*
X108061313Y-46193177D01*
X108109976Y-46032758D01*
X108188995Y-45884924D01*
X108188996Y-45884922D01*
X108295341Y-45755341D01*
X108424922Y-45648996D01*
X108440094Y-45640886D01*
X108572758Y-45569976D01*
X108733177Y-45521313D01*
X108858196Y-45509000D01*
X108941804Y-45509000D01*
X109066823Y-45521313D01*
X109066823Y-45521313D01*
G37*
G36*
X145166823Y-45521313D02*
G01*
X145327242Y-45569976D01*
X145459906Y-45640886D01*
X145475078Y-45648996D01*
X145604659Y-45755341D01*
X145711004Y-45884922D01*
X145711005Y-45884924D01*
X145790024Y-46032758D01*
X145838687Y-46193177D01*
X145855117Y-46360000D01*
X145838687Y-46526823D01*
X145790024Y-46687242D01*
X145755981Y-46750931D01*
X145711004Y-46835078D01*
X145604659Y-46964659D01*
X145475078Y-47071004D01*
X145475076Y-47071005D01*
X145327242Y-47150024D01*
X145166823Y-47198687D01*
X145041804Y-47211000D01*
X144958196Y-47211000D01*
X144833177Y-47198687D01*
X144672758Y-47150024D01*
X144524924Y-47071005D01*
X144524922Y-47071004D01*
X144395341Y-46964659D01*
X144288996Y-46835078D01*
X144244019Y-46750931D01*
X144209976Y-46687242D01*
X144161313Y-46526823D01*
X144144883Y-46360000D01*
X144161313Y-46193177D01*
X144209976Y-46032758D01*
X144288995Y-45884924D01*
X144288996Y-45884922D01*
X144395341Y-45755341D01*
X144524922Y-45648996D01*
X144540094Y-45640886D01*
X144672758Y-45569976D01*
X144833177Y-45521313D01*
X144958196Y-45509000D01*
X145041804Y-45509000D01*
X145166823Y-45521313D01*
X145166823Y-45521313D01*
G37*
G36*
X116686823Y-45521313D02*
G01*
X116847242Y-45569976D01*
X116979906Y-45640886D01*
X116995078Y-45648996D01*
X117124659Y-45755341D01*
X117231004Y-45884922D01*
X117231005Y-45884924D01*
X117310024Y-46032758D01*
X117358687Y-46193177D01*
X117375117Y-46360000D01*
X117358687Y-46526823D01*
X117310024Y-46687242D01*
X117275981Y-46750931D01*
X117231004Y-46835078D01*
X117124659Y-46964659D01*
X116995078Y-47071004D01*
X116995076Y-47071005D01*
X116847242Y-47150024D01*
X116686823Y-47198687D01*
X116561804Y-47211000D01*
X116478196Y-47211000D01*
X116353177Y-47198687D01*
X116192758Y-47150024D01*
X116044924Y-47071005D01*
X116044922Y-47071004D01*
X115915341Y-46964659D01*
X115808996Y-46835078D01*
X115764019Y-46750931D01*
X115729976Y-46687242D01*
X115681313Y-46526823D01*
X115664883Y-46360000D01*
X115681313Y-46193177D01*
X115729976Y-46032758D01*
X115808995Y-45884924D01*
X115808996Y-45884922D01*
X115915341Y-45755341D01*
X116044922Y-45648996D01*
X116060094Y-45640886D01*
X116192758Y-45569976D01*
X116353177Y-45521313D01*
X116478196Y-45509000D01*
X116561804Y-45509000D01*
X116686823Y-45521313D01*
X116686823Y-45521313D01*
G37*
G36*
X132799294Y-44158633D02*
G01*
X132971695Y-44210931D01*
X133130583Y-44295858D01*
X133269849Y-44410151D01*
X133384142Y-44549417D01*
X133469069Y-44708305D01*
X133521367Y-44880706D01*
X133539025Y-45060000D01*
X133521367Y-45239294D01*
X133469069Y-45411695D01*
X133384142Y-45570583D01*
X133269849Y-45709849D01*
X133130583Y-45824142D01*
X132971695Y-45909069D01*
X132799294Y-45961367D01*
X132664931Y-45974600D01*
X132575069Y-45974600D01*
X132440706Y-45961367D01*
X132268305Y-45909069D01*
X132109417Y-45824142D01*
X131970151Y-45709849D01*
X131855858Y-45570583D01*
X131770931Y-45411695D01*
X131718633Y-45239294D01*
X131700975Y-45060000D01*
X131718633Y-44880706D01*
X131770931Y-44708305D01*
X131855858Y-44549417D01*
X131970151Y-44410151D01*
X132109417Y-44295858D01*
X132268305Y-44210931D01*
X132440706Y-44158633D01*
X132575069Y-44145400D01*
X132664931Y-44145400D01*
X132799294Y-44158633D01*
X132799294Y-44158633D01*
G37*
G36*
X135339294Y-44158633D02*
G01*
X135511695Y-44210931D01*
X135670583Y-44295858D01*
X135809849Y-44410151D01*
X135924142Y-44549417D01*
X136009069Y-44708305D01*
X136061367Y-44880706D01*
X136079025Y-45060000D01*
X136061367Y-45239294D01*
X136009069Y-45411695D01*
X135924142Y-45570583D01*
X135809849Y-45709849D01*
X135670583Y-45824142D01*
X135511695Y-45909069D01*
X135339294Y-45961367D01*
X135204931Y-45974600D01*
X135115069Y-45974600D01*
X134980706Y-45961367D01*
X134808305Y-45909069D01*
X134649417Y-45824142D01*
X134510151Y-45709849D01*
X134395858Y-45570583D01*
X134310931Y-45411695D01*
X134258633Y-45239294D01*
X134240975Y-45060000D01*
X134258633Y-44880706D01*
X134310931Y-44708305D01*
X134395858Y-44549417D01*
X134510151Y-44410151D01*
X134649417Y-44295858D01*
X134808305Y-44210931D01*
X134980706Y-44158633D01*
X135115069Y-44145400D01*
X135204931Y-44145400D01*
X135339294Y-44158633D01*
X135339294Y-44158633D01*
G37*
G36*
X130259294Y-44158633D02*
G01*
X130431695Y-44210931D01*
X130590583Y-44295858D01*
X130729849Y-44410151D01*
X130844142Y-44549417D01*
X130929069Y-44708305D01*
X130981367Y-44880706D01*
X130999025Y-45060000D01*
X130981367Y-45239294D01*
X130929069Y-45411695D01*
X130844142Y-45570583D01*
X130729849Y-45709849D01*
X130590583Y-45824142D01*
X130431695Y-45909069D01*
X130259294Y-45961367D01*
X130124931Y-45974600D01*
X130035069Y-45974600D01*
X129900706Y-45961367D01*
X129728305Y-45909069D01*
X129569417Y-45824142D01*
X129430151Y-45709849D01*
X129315858Y-45570583D01*
X129230931Y-45411695D01*
X129178633Y-45239294D01*
X129160975Y-45060000D01*
X129178633Y-44880706D01*
X129230931Y-44708305D01*
X129315858Y-44549417D01*
X129430151Y-44410151D01*
X129569417Y-44295858D01*
X129728305Y-44210931D01*
X129900706Y-44158633D01*
X130035069Y-44145400D01*
X130124931Y-44145400D01*
X130259294Y-44158633D01*
X130259294Y-44158633D01*
G37*
G36*
X125179294Y-44158633D02*
G01*
X125351695Y-44210931D01*
X125510583Y-44295858D01*
X125649849Y-44410151D01*
X125764142Y-44549417D01*
X125849069Y-44708305D01*
X125901367Y-44880706D01*
X125919025Y-45060000D01*
X125901367Y-45239294D01*
X125849069Y-45411695D01*
X125764142Y-45570583D01*
X125649849Y-45709849D01*
X125510583Y-45824142D01*
X125351695Y-45909069D01*
X125179294Y-45961367D01*
X125044931Y-45974600D01*
X124955069Y-45974600D01*
X124820706Y-45961367D01*
X124648305Y-45909069D01*
X124489417Y-45824142D01*
X124350151Y-45709849D01*
X124235858Y-45570583D01*
X124150931Y-45411695D01*
X124098633Y-45239294D01*
X124080975Y-45060000D01*
X124098633Y-44880706D01*
X124150931Y-44708305D01*
X124235858Y-44549417D01*
X124350151Y-44410151D01*
X124489417Y-44295858D01*
X124648305Y-44210931D01*
X124820706Y-44158633D01*
X124955069Y-44145400D01*
X125044931Y-44145400D01*
X125179294Y-44158633D01*
X125179294Y-44158633D01*
G37*
G36*
X127719294Y-44158633D02*
G01*
X127891695Y-44210931D01*
X128050583Y-44295858D01*
X128189849Y-44410151D01*
X128304142Y-44549417D01*
X128389069Y-44708305D01*
X128441367Y-44880706D01*
X128459025Y-45060000D01*
X128441367Y-45239294D01*
X128389069Y-45411695D01*
X128304142Y-45570583D01*
X128189849Y-45709849D01*
X128050583Y-45824142D01*
X127891695Y-45909069D01*
X127719294Y-45961367D01*
X127584931Y-45974600D01*
X127495069Y-45974600D01*
X127360706Y-45961367D01*
X127188305Y-45909069D01*
X127029417Y-45824142D01*
X126890151Y-45709849D01*
X126775858Y-45570583D01*
X126690931Y-45411695D01*
X126638633Y-45239294D01*
X126620975Y-45060000D01*
X126638633Y-44880706D01*
X126690931Y-44708305D01*
X126775858Y-44549417D01*
X126890151Y-44410151D01*
X127029417Y-44295858D01*
X127188305Y-44210931D01*
X127360706Y-44158633D01*
X127495069Y-44145400D01*
X127584931Y-44145400D01*
X127719294Y-44158633D01*
X127719294Y-44158633D01*
G37*
G36*
X152786823Y-42981313D02*
G01*
X152947242Y-43029976D01*
X153079906Y-43100886D01*
X153095078Y-43108996D01*
X153224659Y-43215341D01*
X153331004Y-43344922D01*
X153331005Y-43344924D01*
X153410024Y-43492758D01*
X153458687Y-43653177D01*
X153475117Y-43820000D01*
X153458687Y-43986823D01*
X153410024Y-44147242D01*
X153375981Y-44210931D01*
X153331004Y-44295078D01*
X153224659Y-44424659D01*
X153095078Y-44531004D01*
X153095076Y-44531005D01*
X152947242Y-44610024D01*
X152786823Y-44658687D01*
X152661804Y-44671000D01*
X152578196Y-44671000D01*
X152453177Y-44658687D01*
X152292758Y-44610024D01*
X152144924Y-44531005D01*
X152144922Y-44531004D01*
X152015341Y-44424659D01*
X151908996Y-44295078D01*
X151864019Y-44210931D01*
X151829976Y-44147242D01*
X151781313Y-43986823D01*
X151764883Y-43820000D01*
X151781313Y-43653177D01*
X151829976Y-43492758D01*
X151908995Y-43344924D01*
X151908996Y-43344922D01*
X152015341Y-43215341D01*
X152144922Y-43108996D01*
X152160094Y-43100886D01*
X152292758Y-43029976D01*
X152453177Y-42981313D01*
X152578196Y-42969000D01*
X152661804Y-42969000D01*
X152786823Y-42981313D01*
X152786823Y-42981313D01*
G37*
G36*
X145166823Y-42981313D02*
G01*
X145327242Y-43029976D01*
X145459906Y-43100886D01*
X145475078Y-43108996D01*
X145604659Y-43215341D01*
X145711004Y-43344922D01*
X145711005Y-43344924D01*
X145790024Y-43492758D01*
X145838687Y-43653177D01*
X145855117Y-43820000D01*
X145838687Y-43986823D01*
X145790024Y-44147242D01*
X145755981Y-44210931D01*
X145711004Y-44295078D01*
X145604659Y-44424659D01*
X145475078Y-44531004D01*
X145475076Y-44531005D01*
X145327242Y-44610024D01*
X145166823Y-44658687D01*
X145041804Y-44671000D01*
X144958196Y-44671000D01*
X144833177Y-44658687D01*
X144672758Y-44610024D01*
X144524924Y-44531005D01*
X144524922Y-44531004D01*
X144395341Y-44424659D01*
X144288996Y-44295078D01*
X144244019Y-44210931D01*
X144209976Y-44147242D01*
X144161313Y-43986823D01*
X144144883Y-43820000D01*
X144161313Y-43653177D01*
X144209976Y-43492758D01*
X144288995Y-43344924D01*
X144288996Y-43344922D01*
X144395341Y-43215341D01*
X144524922Y-43108996D01*
X144540094Y-43100886D01*
X144672758Y-43029976D01*
X144833177Y-42981313D01*
X144958196Y-42969000D01*
X145041804Y-42969000D01*
X145166823Y-42981313D01*
X145166823Y-42981313D01*
G37*
G36*
X116686823Y-42981313D02*
G01*
X116847242Y-43029976D01*
X116979906Y-43100886D01*
X116995078Y-43108996D01*
X117124659Y-43215341D01*
X117231004Y-43344922D01*
X117231005Y-43344924D01*
X117310024Y-43492758D01*
X117358687Y-43653177D01*
X117375117Y-43820000D01*
X117358687Y-43986823D01*
X117310024Y-44147242D01*
X117275981Y-44210931D01*
X117231004Y-44295078D01*
X117124659Y-44424659D01*
X116995078Y-44531004D01*
X116995076Y-44531005D01*
X116847242Y-44610024D01*
X116686823Y-44658687D01*
X116561804Y-44671000D01*
X116478196Y-44671000D01*
X116353177Y-44658687D01*
X116192758Y-44610024D01*
X116044924Y-44531005D01*
X116044922Y-44531004D01*
X115915341Y-44424659D01*
X115808996Y-44295078D01*
X115764019Y-44210931D01*
X115729976Y-44147242D01*
X115681313Y-43986823D01*
X115664883Y-43820000D01*
X115681313Y-43653177D01*
X115729976Y-43492758D01*
X115808995Y-43344924D01*
X115808996Y-43344922D01*
X115915341Y-43215341D01*
X116044922Y-43108996D01*
X116060094Y-43100886D01*
X116192758Y-43029976D01*
X116353177Y-42981313D01*
X116478196Y-42969000D01*
X116561804Y-42969000D01*
X116686823Y-42981313D01*
X116686823Y-42981313D01*
G37*
G36*
X109066823Y-42981313D02*
G01*
X109227242Y-43029976D01*
X109359906Y-43100886D01*
X109375078Y-43108996D01*
X109504659Y-43215341D01*
X109611004Y-43344922D01*
X109611005Y-43344924D01*
X109690024Y-43492758D01*
X109738687Y-43653177D01*
X109755117Y-43820000D01*
X109738687Y-43986823D01*
X109690024Y-44147242D01*
X109655981Y-44210931D01*
X109611004Y-44295078D01*
X109504659Y-44424659D01*
X109375078Y-44531004D01*
X109375076Y-44531005D01*
X109227242Y-44610024D01*
X109066823Y-44658687D01*
X108941804Y-44671000D01*
X108858196Y-44671000D01*
X108733177Y-44658687D01*
X108572758Y-44610024D01*
X108424924Y-44531005D01*
X108424922Y-44531004D01*
X108295341Y-44424659D01*
X108188996Y-44295078D01*
X108144019Y-44210931D01*
X108109976Y-44147242D01*
X108061313Y-43986823D01*
X108044883Y-43820000D01*
X108061313Y-43653177D01*
X108109976Y-43492758D01*
X108188995Y-43344924D01*
X108188996Y-43344922D01*
X108295341Y-43215341D01*
X108424922Y-43108996D01*
X108440094Y-43100886D01*
X108572758Y-43029976D01*
X108733177Y-42981313D01*
X108858196Y-42969000D01*
X108941804Y-42969000D01*
X109066823Y-42981313D01*
X109066823Y-42981313D01*
G37*
G36*
X116686823Y-40441313D02*
G01*
X116847242Y-40489976D01*
X116979906Y-40560886D01*
X116995078Y-40568996D01*
X117124659Y-40675341D01*
X117231004Y-40804922D01*
X117231005Y-40804924D01*
X117310024Y-40952758D01*
X117358687Y-41113177D01*
X117375117Y-41280000D01*
X117358687Y-41446823D01*
X117310024Y-41607242D01*
X117239114Y-41739906D01*
X117231004Y-41755078D01*
X117124659Y-41884659D01*
X116995078Y-41991004D01*
X116995076Y-41991005D01*
X116847242Y-42070024D01*
X116686823Y-42118687D01*
X116561804Y-42131000D01*
X116478196Y-42131000D01*
X116353177Y-42118687D01*
X116192758Y-42070024D01*
X116044924Y-41991005D01*
X116044922Y-41991004D01*
X115915341Y-41884659D01*
X115808996Y-41755078D01*
X115800886Y-41739906D01*
X115729976Y-41607242D01*
X115681313Y-41446823D01*
X115664883Y-41280000D01*
X115681313Y-41113177D01*
X115729976Y-40952758D01*
X115808995Y-40804924D01*
X115808996Y-40804922D01*
X115915341Y-40675341D01*
X116044922Y-40568996D01*
X116060094Y-40560886D01*
X116192758Y-40489976D01*
X116353177Y-40441313D01*
X116478196Y-40429000D01*
X116561804Y-40429000D01*
X116686823Y-40441313D01*
X116686823Y-40441313D01*
G37*
G36*
X145166823Y-40441313D02*
G01*
X145327242Y-40489976D01*
X145459906Y-40560886D01*
X145475078Y-40568996D01*
X145604659Y-40675341D01*
X145711004Y-40804922D01*
X145711005Y-40804924D01*
X145790024Y-40952758D01*
X145838687Y-41113177D01*
X145855117Y-41280000D01*
X145838687Y-41446823D01*
X145790024Y-41607242D01*
X145719114Y-41739906D01*
X145711004Y-41755078D01*
X145604659Y-41884659D01*
X145475078Y-41991004D01*
X145475076Y-41991005D01*
X145327242Y-42070024D01*
X145166823Y-42118687D01*
X145041804Y-42131000D01*
X144958196Y-42131000D01*
X144833177Y-42118687D01*
X144672758Y-42070024D01*
X144524924Y-41991005D01*
X144524922Y-41991004D01*
X144395341Y-41884659D01*
X144288996Y-41755078D01*
X144280886Y-41739906D01*
X144209976Y-41607242D01*
X144161313Y-41446823D01*
X144144883Y-41280000D01*
X144161313Y-41113177D01*
X144209976Y-40952758D01*
X144288995Y-40804924D01*
X144288996Y-40804922D01*
X144395341Y-40675341D01*
X144524922Y-40568996D01*
X144540094Y-40560886D01*
X144672758Y-40489976D01*
X144833177Y-40441313D01*
X144958196Y-40429000D01*
X145041804Y-40429000D01*
X145166823Y-40441313D01*
X145166823Y-40441313D01*
G37*
G36*
X152786823Y-40441313D02*
G01*
X152947242Y-40489976D01*
X153079906Y-40560886D01*
X153095078Y-40568996D01*
X153224659Y-40675341D01*
X153331004Y-40804922D01*
X153331005Y-40804924D01*
X153410024Y-40952758D01*
X153458687Y-41113177D01*
X153475117Y-41280000D01*
X153458687Y-41446823D01*
X153410024Y-41607242D01*
X153339114Y-41739906D01*
X153331004Y-41755078D01*
X153224659Y-41884659D01*
X153095078Y-41991004D01*
X153095076Y-41991005D01*
X152947242Y-42070024D01*
X152786823Y-42118687D01*
X152661804Y-42131000D01*
X152578196Y-42131000D01*
X152453177Y-42118687D01*
X152292758Y-42070024D01*
X152144924Y-41991005D01*
X152144922Y-41991004D01*
X152015341Y-41884659D01*
X151908996Y-41755078D01*
X151900886Y-41739906D01*
X151829976Y-41607242D01*
X151781313Y-41446823D01*
X151764883Y-41280000D01*
X151781313Y-41113177D01*
X151829976Y-40952758D01*
X151908995Y-40804924D01*
X151908996Y-40804922D01*
X152015341Y-40675341D01*
X152144922Y-40568996D01*
X152160094Y-40560886D01*
X152292758Y-40489976D01*
X152453177Y-40441313D01*
X152578196Y-40429000D01*
X152661804Y-40429000D01*
X152786823Y-40441313D01*
X152786823Y-40441313D01*
G37*
G36*
X109066823Y-40441313D02*
G01*
X109227242Y-40489976D01*
X109359906Y-40560886D01*
X109375078Y-40568996D01*
X109504659Y-40675341D01*
X109611004Y-40804922D01*
X109611005Y-40804924D01*
X109690024Y-40952758D01*
X109738687Y-41113177D01*
X109755117Y-41280000D01*
X109738687Y-41446823D01*
X109690024Y-41607242D01*
X109619114Y-41739906D01*
X109611004Y-41755078D01*
X109504659Y-41884659D01*
X109375078Y-41991004D01*
X109375076Y-41991005D01*
X109227242Y-42070024D01*
X109066823Y-42118687D01*
X108941804Y-42131000D01*
X108858196Y-42131000D01*
X108733177Y-42118687D01*
X108572758Y-42070024D01*
X108424924Y-41991005D01*
X108424922Y-41991004D01*
X108295341Y-41884659D01*
X108188996Y-41755078D01*
X108180886Y-41739906D01*
X108109976Y-41607242D01*
X108061313Y-41446823D01*
X108044883Y-41280000D01*
X108061313Y-41113177D01*
X108109976Y-40952758D01*
X108188995Y-40804924D01*
X108188996Y-40804922D01*
X108295341Y-40675341D01*
X108424922Y-40568996D01*
X108440094Y-40560886D01*
X108572758Y-40489976D01*
X108733177Y-40441313D01*
X108858196Y-40429000D01*
X108941804Y-40429000D01*
X109066823Y-40441313D01*
X109066823Y-40441313D01*
G37*
G36*
X109066823Y-37901313D02*
G01*
X109227242Y-37949976D01*
X109359906Y-38020886D01*
X109375078Y-38028996D01*
X109504659Y-38135341D01*
X109611004Y-38264922D01*
X109611005Y-38264924D01*
X109690024Y-38412758D01*
X109738687Y-38573177D01*
X109755117Y-38740000D01*
X109738687Y-38906823D01*
X109690024Y-39067242D01*
X109619114Y-39199906D01*
X109611004Y-39215078D01*
X109504659Y-39344659D01*
X109375078Y-39451004D01*
X109375076Y-39451005D01*
X109227242Y-39530024D01*
X109066823Y-39578687D01*
X108941804Y-39591000D01*
X108858196Y-39591000D01*
X108733177Y-39578687D01*
X108572758Y-39530024D01*
X108424924Y-39451005D01*
X108424922Y-39451004D01*
X108295341Y-39344659D01*
X108188996Y-39215078D01*
X108180886Y-39199906D01*
X108109976Y-39067242D01*
X108061313Y-38906823D01*
X108044883Y-38740000D01*
X108061313Y-38573177D01*
X108109976Y-38412758D01*
X108188995Y-38264924D01*
X108188996Y-38264922D01*
X108295341Y-38135341D01*
X108424922Y-38028996D01*
X108440094Y-38020886D01*
X108572758Y-37949976D01*
X108733177Y-37901313D01*
X108858196Y-37889000D01*
X108941804Y-37889000D01*
X109066823Y-37901313D01*
X109066823Y-37901313D01*
G37*
G36*
X152786823Y-37901313D02*
G01*
X152947242Y-37949976D01*
X153079906Y-38020886D01*
X153095078Y-38028996D01*
X153224659Y-38135341D01*
X153331004Y-38264922D01*
X153331005Y-38264924D01*
X153410024Y-38412758D01*
X153458687Y-38573177D01*
X153475117Y-38740000D01*
X153458687Y-38906823D01*
X153410024Y-39067242D01*
X153339114Y-39199906D01*
X153331004Y-39215078D01*
X153224659Y-39344659D01*
X153095078Y-39451004D01*
X153095076Y-39451005D01*
X152947242Y-39530024D01*
X152786823Y-39578687D01*
X152661804Y-39591000D01*
X152578196Y-39591000D01*
X152453177Y-39578687D01*
X152292758Y-39530024D01*
X152144924Y-39451005D01*
X152144922Y-39451004D01*
X152015341Y-39344659D01*
X151908996Y-39215078D01*
X151900886Y-39199906D01*
X151829976Y-39067242D01*
X151781313Y-38906823D01*
X151764883Y-38740000D01*
X151781313Y-38573177D01*
X151829976Y-38412758D01*
X151908995Y-38264924D01*
X151908996Y-38264922D01*
X152015341Y-38135341D01*
X152144922Y-38028996D01*
X152160094Y-38020886D01*
X152292758Y-37949976D01*
X152453177Y-37901313D01*
X152578196Y-37889000D01*
X152661804Y-37889000D01*
X152786823Y-37901313D01*
X152786823Y-37901313D01*
G37*
G36*
X116686823Y-37901313D02*
G01*
X116847242Y-37949976D01*
X116979906Y-38020886D01*
X116995078Y-38028996D01*
X117124659Y-38135341D01*
X117231004Y-38264922D01*
X117231005Y-38264924D01*
X117310024Y-38412758D01*
X117358687Y-38573177D01*
X117375117Y-38740000D01*
X117358687Y-38906823D01*
X117310024Y-39067242D01*
X117239114Y-39199906D01*
X117231004Y-39215078D01*
X117124659Y-39344659D01*
X116995078Y-39451004D01*
X116995076Y-39451005D01*
X116847242Y-39530024D01*
X116686823Y-39578687D01*
X116561804Y-39591000D01*
X116478196Y-39591000D01*
X116353177Y-39578687D01*
X116192758Y-39530024D01*
X116044924Y-39451005D01*
X116044922Y-39451004D01*
X115915341Y-39344659D01*
X115808996Y-39215078D01*
X115800886Y-39199906D01*
X115729976Y-39067242D01*
X115681313Y-38906823D01*
X115664883Y-38740000D01*
X115681313Y-38573177D01*
X115729976Y-38412758D01*
X115808995Y-38264924D01*
X115808996Y-38264922D01*
X115915341Y-38135341D01*
X116044922Y-38028996D01*
X116060094Y-38020886D01*
X116192758Y-37949976D01*
X116353177Y-37901313D01*
X116478196Y-37889000D01*
X116561804Y-37889000D01*
X116686823Y-37901313D01*
X116686823Y-37901313D01*
G37*
G36*
X145166823Y-37901313D02*
G01*
X145327242Y-37949976D01*
X145459906Y-38020886D01*
X145475078Y-38028996D01*
X145604659Y-38135341D01*
X145711004Y-38264922D01*
X145711005Y-38264924D01*
X145790024Y-38412758D01*
X145838687Y-38573177D01*
X145855117Y-38740000D01*
X145838687Y-38906823D01*
X145790024Y-39067242D01*
X145719114Y-39199906D01*
X145711004Y-39215078D01*
X145604659Y-39344659D01*
X145475078Y-39451004D01*
X145475076Y-39451005D01*
X145327242Y-39530024D01*
X145166823Y-39578687D01*
X145041804Y-39591000D01*
X144958196Y-39591000D01*
X144833177Y-39578687D01*
X144672758Y-39530024D01*
X144524924Y-39451005D01*
X144524922Y-39451004D01*
X144395341Y-39344659D01*
X144288996Y-39215078D01*
X144280886Y-39199906D01*
X144209976Y-39067242D01*
X144161313Y-38906823D01*
X144144883Y-38740000D01*
X144161313Y-38573177D01*
X144209976Y-38412758D01*
X144288995Y-38264924D01*
X144288996Y-38264922D01*
X144395341Y-38135341D01*
X144524922Y-38028996D01*
X144540094Y-38020886D01*
X144672758Y-37949976D01*
X144833177Y-37901313D01*
X144958196Y-37889000D01*
X145041804Y-37889000D01*
X145166823Y-37901313D01*
X145166823Y-37901313D01*
G37*
G36*
X145851000Y-37051000D02*
G01*
X144149000Y-37051000D01*
X144149000Y-35349000D01*
X145851000Y-35349000D01*
X145851000Y-37051000D01*
X145851000Y-37051000D01*
G37*
G36*
X116686823Y-35361313D02*
G01*
X116847242Y-35409976D01*
X116979906Y-35480886D01*
X116995078Y-35488996D01*
X117124659Y-35595341D01*
X117231004Y-35724922D01*
X117231005Y-35724924D01*
X117310024Y-35872758D01*
X117358687Y-36033177D01*
X117375117Y-36200000D01*
X117358687Y-36366823D01*
X117310024Y-36527242D01*
X117239114Y-36659906D01*
X117231004Y-36675078D01*
X117124659Y-36804659D01*
X116995078Y-36911004D01*
X116995076Y-36911005D01*
X116847242Y-36990024D01*
X116686823Y-37038687D01*
X116561804Y-37051000D01*
X116478196Y-37051000D01*
X116353177Y-37038687D01*
X116192758Y-36990024D01*
X116044924Y-36911005D01*
X116044922Y-36911004D01*
X115915341Y-36804659D01*
X115808996Y-36675078D01*
X115800886Y-36659906D01*
X115729976Y-36527242D01*
X115681313Y-36366823D01*
X115664883Y-36200000D01*
X115681313Y-36033177D01*
X115729976Y-35872758D01*
X115808995Y-35724924D01*
X115808996Y-35724922D01*
X115915341Y-35595341D01*
X116044922Y-35488996D01*
X116060094Y-35480886D01*
X116192758Y-35409976D01*
X116353177Y-35361313D01*
X116478196Y-35349000D01*
X116561804Y-35349000D01*
X116686823Y-35361313D01*
X116686823Y-35361313D01*
G37*
G36*
X152786823Y-35361313D02*
G01*
X152947242Y-35409976D01*
X153079906Y-35480886D01*
X153095078Y-35488996D01*
X153224659Y-35595341D01*
X153331004Y-35724922D01*
X153331005Y-35724924D01*
X153410024Y-35872758D01*
X153458687Y-36033177D01*
X153475117Y-36200000D01*
X153458687Y-36366823D01*
X153410024Y-36527242D01*
X153339114Y-36659906D01*
X153331004Y-36675078D01*
X153224659Y-36804659D01*
X153095078Y-36911004D01*
X153095076Y-36911005D01*
X152947242Y-36990024D01*
X152786823Y-37038687D01*
X152661804Y-37051000D01*
X152578196Y-37051000D01*
X152453177Y-37038687D01*
X152292758Y-36990024D01*
X152144924Y-36911005D01*
X152144922Y-36911004D01*
X152015341Y-36804659D01*
X151908996Y-36675078D01*
X151900886Y-36659906D01*
X151829976Y-36527242D01*
X151781313Y-36366823D01*
X151764883Y-36200000D01*
X151781313Y-36033177D01*
X151829976Y-35872758D01*
X151908995Y-35724924D01*
X151908996Y-35724922D01*
X152015341Y-35595341D01*
X152144922Y-35488996D01*
X152160094Y-35480886D01*
X152292758Y-35409976D01*
X152453177Y-35361313D01*
X152578196Y-35349000D01*
X152661804Y-35349000D01*
X152786823Y-35361313D01*
X152786823Y-35361313D01*
G37*
G36*
X109751000Y-37051000D02*
G01*
X108049000Y-37051000D01*
X108049000Y-35349000D01*
X109751000Y-35349000D01*
X109751000Y-37051000D01*
X109751000Y-37051000D01*
G37*
M02*
