M48
; DRILL file {KiCad (5.1.4)-1} date 9/11/2019 5:45:15 PM
; FORMAT={-:-/ absolute / inch / decimal}
; #@! TF.CreationDate,2019-11-09T17:45:15+10:00
; #@! TF.GenerationSoftware,Kicad,Pcbnew,(5.1.4)-1
; #@! TF.FileFunction,Plated,1,2,PTH
FMAT,2
INCH
T1C0.0157
T2C0.0276
T3C0.0295
T4C0.0315
T5C0.0394
T6C0.0400
T7C0.1260
%
G90
G05
T1
X5.4331Y-1.748
X5.4764Y-2.2244
T2
X4.2945Y-2.3189
X4.5945Y-2.3189
X5.7039Y-2.315
X6.0039Y-2.315
X4.2945Y-2.185
X4.5945Y-2.185
X5.7047Y-2.1772
X6.0047Y-2.1772
T3
X4.7283Y-2.1339
X4.7783Y-2.0839
X4.8283Y-2.1339
X5.4606Y-2.1339
X5.5106Y-2.0839
X5.5606Y-2.1339
T4
X4.2874Y-1.4252
X4.2874Y-1.5252
X4.2874Y-1.6252
X4.2874Y-1.7252
X4.2874Y-1.8252
X4.2874Y-1.9252
X4.2874Y-2.0252
X4.5874Y-1.4252
X4.5874Y-1.5252
X4.5874Y-1.6252
X4.5874Y-1.7252
X4.5874Y-1.8252
X4.5874Y-1.9252
X4.5874Y-2.0252
X4.3776Y-2.4409
X4.3776Y-3.0409
X4.4776Y-2.4409
X4.4776Y-3.0409
X4.5776Y-2.4409
X4.5776Y-3.0409
X4.6776Y-2.4409
X4.6776Y-3.0409
X4.7776Y-2.4409
X4.7776Y-3.0409
X4.8776Y-2.4409
X4.8776Y-3.0409
X4.9776Y-2.4409
X4.9776Y-3.0409
X5.0776Y-2.4409
X5.0776Y-3.0409
X5.1776Y-2.4409
X5.1776Y-3.0409
X5.2776Y-2.4409
X5.2776Y-3.0409
X5.3776Y-2.4409
X5.3776Y-3.0409
X5.4776Y-2.4409
X5.4776Y-3.0409
X5.5776Y-2.4409
X5.5776Y-3.0409
X5.6776Y-2.4409
X5.6776Y-3.0409
X5.7776Y-2.4409
X5.7776Y-3.0409
X5.7087Y-1.4252
X5.7087Y-1.5252
X5.7087Y-1.6252
X5.7087Y-1.7252
X5.7087Y-1.8252
X5.7087Y-1.9252
X5.7087Y-2.0252
X6.0087Y-1.4252
X6.0087Y-1.5252
X6.0087Y-1.6252
X6.0087Y-1.7252
X6.0087Y-1.8252
X6.0087Y-1.9252
X6.0087Y-2.0252
T5
X4.9252Y-3.3189
X4.9797Y-3.4307
X5.0343Y-3.3189
X5.0888Y-3.4307
X5.1433Y-3.3189
X5.1978Y-3.4307
X5.2524Y-3.3189
X5.3069Y-3.4307
X5.3614Y-3.3189
X4.9882Y-2.2795
X5.0882Y-2.2795
X5.1882Y-2.2795
X5.2882Y-2.2795
X4.311Y-3.2488
X4.311Y-3.3488
X4.311Y-3.4488
X4.311Y-3.5488
T6
X4.9213Y-1.774
X4.9213Y-1.874
X5.0213Y-1.774
X5.0213Y-1.874
X5.1213Y-1.774
X5.1213Y-1.874
X5.2213Y-1.774
X5.2213Y-1.874
X5.3213Y-1.774
X5.3213Y-1.874
T7
X4.6512Y-3.3307
X5.6354Y-3.3307
T0
M30
